0
SECTION
2
HEADER
9
$SMII_SCALE
1
1.0
9
$SMII_SEAM_ALLOWANCE
1
0.01
0
ENDSEC
0
SECTION
2
ENTITIES
0
LWPOLYLINE
8
front_panel
90
25
10
-1.1682
20
-0.1309
10
-1.1674
20
-0.1525
10
-1.1621
20
-0.1667
10
-1.1492
20
-0.1728
10
0.2196
20
-0.3600
10
0.5684
20
-0.0657
10
0.5788
20
-0.0559
10
0.5859
20
-0.0480
10
0.5912
20
-0.0401
10
0.5954
20
-0.0320
10
0.6009
20
-0.0220
10
0.6038
20
-0.0108
10
0.6052
20
-0.0000
10
0.6038
20
0.0108
10
0.6009
20
0.0220
10
0.5954
20
0.0320
10
0.5912
20
0.0401
10
0.5859
20
0.0480
10
0.5788
20
0.0559
10
0.5684
20
0.0657
10
0.2196
20
0.3600
10
-1.1492
20
0.1728
10
-1.1621
20
0.1667
10
-1.1674
20
0.1525
10
-1.1682
20
0.1309
43
0.0120
0
LWPOLYLINE
8
back_panel
90
35
10
-0.9689
20
-0.0949
10
-0.9685
20
-0.1051
10
-0.9673
20
-0.1170
10
-0.9661
20
-0.1269
10
-0.9646
20
-0.1451
10
-0.9599
20
-0.1546
10
0.3326
20
-0.8506
10
0.3541
20
-0.8527
10
0.3627
20
-0.8524
10
0.3721
20
-0.8505
10
0.3843
20
-0.8480
10
0.3929
20
-0.8449
10
0.3994
20
-0.8363
10
0.4191
20
-0.7993
10
0.7895
20
-0.0322
10
0.7932
20
-0.0215
10
0.7962
20
-0.0102
10
0.7975
20
-0.0000
10
0.7962
20
0.0101
10
0.7932
20
0.0214
10
0.7895
20
0.0321
10
0.4192
20
0.7993
10
0.3995
20
0.8362
10
0.3930
20
0.8449
10
0.3844
20
0.8479
10
0.3722
20
0.8505
10
0.3628
20
0.8523
10
0.3543
20
0.8527
10
0.3329
20
0.8507
10
-0.9599
20
0.1546
10
-0.9646
20
0.1452
10
-0.9661
20
0.1269
10
-0.9673
20
0.1171
10
-0.9685
20
0.1052
10
-0.9689
20
0.0950
43
0.0120
0
ENDSEC
0
EOF