<?xml version="1.0" encoding="UTF-8"?>
<!-- Scale: 1.0 -->
<!-- Seam allowance: 0.01 -->
<svg xmlns="http://www.w3.org/2000/svg" width="1.97" height="1.71" viewBox="-1.17 -0.85 1.97 1.71">
  <polygon id="front_panel" points="-1.17,-0.13 -1.17,-0.15 -1.16,-0.17 -1.15,-0.17 0.22,-0.36 0.57,-0.07 0.58,-0.06 0.59,-0.05 0.59,-0.04 0.60,-0.03 0.60,-0.02 0.60,-0.01 0.61,-0.00 0.60,0.01 0.60,0.02 0.60,0.03 0.59,0.04 0.59,0.05 0.58,0.06 0.57,0.07 0.22,0.36 -1.15,0.17 -1.16,0.17 -1.17,0.15 -1.17,0.13" data-seam-allowance="0.012" />
  <polygon id="back_panel" points="-0.97,-0.09 -0.97,-0.11 -0.97,-0.12 -0.97,-0.13 -0.96,-0.15 -0.96,-0.15 0.33,-0.85 0.35,-0.85 0.36,-0.85 0.37,-0.85 0.38,-0.85 0.39,-0.84 0.40,-0.84 0.42,-0.80 0.79,-0.03 0.79,-0.02 0.80,-0.01 0.80,-0.00 0.80,0.01 0.79,0.02 0.79,0.03 0.42,0.80 0.40,0.84 0.39,0.84 0.38,0.85 0.37,0.85 0.36,0.85 0.35,0.85 0.33,0.85 -0.96,0.15 -0.96,0.15 -0.97,0.13 -0.97,0.12 -0.97,0.11 -0.97,0.10" data-seam-allowance="0.012" />
</svg>