0
SECTION
2
HEADER
9
$SMII_SCALE
1
1.0
9
$SMII_SEAM_ALLOWANCE
1
0.01
0
ENDSEC
0
SECTION
2
ENTITIES
0
LWPOLYLINE
8
front_panel
90
4280
10
-0.4020
20
-0.0000
10
-0.4003
20
-0.0000
10
-0.3976
20
-0.0000
10
-0.3940
20
-0.0000
10
-0.3892
20
-0.0000
10
-0.3838
20
-0.0000
10
-0.3778
20
-0.0000
10
-0.3709
20
-0.0000
10
-0.3631
20
-0.0000
10
-0.3527
20
-0.0000
10
-0.3431
20
-0.0000
10
-0.3292
20
-0.0000
10
-0.3358
20
-0.0000
10
-0.3232
20
-0.0000
10
-0.3091
20
-0.0000
10
-0.2269
20
-0.0000
10
-0.3168
20
-0.0000
10
-0.1287
20
-0.0000
10
-0.3060
20
-0.0000
10
-0.3128
20
-0.0000
10
-0.3038
20
-0.0000
10
-0.3014
20
-0.0000
10
-0.1205
20
-0.0000
10
-0.2987
20
-0.0000
10
-0.1610
20
-0.0000
10
-0.2936
20
-0.0000
10
-0.1491
20
-0.0000
10
-0.1418
20
-0.0000
10
-0.1352
20
-0.0000
10
-0.2963
20
-0.0000
10
-0.2907
20
-0.0000
10
-0.2872
20
-0.0000
10
-0.1547
20
-0.0000
10
-0.1654
20
-0.0000
10
-0.2836
20
-0.0000
10
-0.1112
20
-0.0000
10
-0.1693
20
-0.0000
10
-0.2313
20
-0.0000
10
-0.2797
20
-0.0000
10
-0.2206
20
-0.0000
10
-0.2504
20
-0.0000
10
-0.2274
20
-0.0000
10
-0.2298
20
-0.0000
10
-0.2477
20
-0.0000
10
-0.1022
20
-0.0000
10
-0.2451
20
-0.0000
10
-0.2713
20
-0.0000
10
-0.2756
20
-0.0000
10
-0.2313
20
-0.0000
10
-0.2433
20
-0.0000
10
-0.2527
20
-0.0000
10
-0.2532
20
-0.0000
10
-0.2414
20
-0.0000
10
-0.2541
20
-0.0000
10
-0.2576
20
-0.0000
10
-0.2520
20
-0.0000
10
-0.2549
20
-0.0000
10
-0.2668
20
-0.0000
10
-0.2317
20
-0.0000
10
-0.2392
20
-0.0000
10
-0.2591
20
-0.0000
10
-0.2287
20
-0.0000
10
-0.2633
20
-0.0000
10
-0.2610
20
-0.0000
10
-0.2559
20
-0.0000
10
-0.2361
20
-0.0000
10
-0.2308
20
-0.0000
10
-0.2298
20
-0.0000
10
-0.2333
20
-0.0000
10
-0.2268
20
-0.0000
10
-0.2153
20
-0.0000
10
-0.2118
20
-0.0000
10
-0.2227
20
-0.0000
10
-0.2189
20
-0.0000
10
-0.1761
20
-0.0000
10
-0.2070
20
-0.0000
10
-0.1796
20
-0.0000
10
-0.2019
20
-0.0000
10
-0.1827
20
-0.0000
10
-0.1912
20
-0.0000
10
-0.1865
20
-0.0000
10
-0.0923
20
-0.0000
10
-0.1968
20
-0.0000
10
-0.0825
20
-0.0000
10
-0.0725
20
-0.0000
10
-0.0626
20
-0.0000
10
-0.2327
20
-0.0001
10
-0.0472
20
-0.0000
10
-0.0308
20
-0.0000
10
-0.0130
20
-0.0000
10
-0.2555
20
-0.0022
10
-0.2546
20
-0.0023
10
-0.2565
20
-0.0024
10
-0.2538
20
-0.0027
10
-0.2532
20
-0.0028
10
-0.2582
20
-0.0029
10
-0.2524
20
-0.0030
10
-0.2226
20
-0.0029
10
-0.2597
20
-0.0033
10
-0.2186
20
-0.0029
10
-0.2508
20
-0.0036
10
-0.2563
20
-0.0037
10
-0.2614
20
-0.0038
10
-0.3089
20
-0.0046
10
-0.2556
20
-0.0039
10
-0.2572
20
-0.0040
10
-0.3125
20
-0.0048
10
-0.3033
20
-0.0047
10
-0.3058
20
-0.0047
10
-0.2482
20
-0.0039
10
-0.3005
20
-0.0047
10
-0.2891
20
-0.0046
10
-0.2919
20
-0.0047
10
-0.2639
20
-0.0043
10
-0.3169
20
-0.0052
10
-0.2946
20
-0.0048
10
-0.2858
20
-0.0047
10
-0.2971
20
-0.0050
10
-0.2552
20
-0.0044
10
-0.2823
20
-0.0049
10
-0.2635
20
-0.0047
10
-0.2667
20
-0.0047
10
-0.2456
20
-0.0044
10
-0.2666
20
-0.0048
10
-0.3233
20
-0.0059
10
-0.2789
20
-0.0053
10
-0.2665
20
-0.0051
10
-0.2589
20
-0.0049
10
-0.2202
20
-0.0042
10
-0.2438
20
-0.0047
10
-0.3291
20
-0.0064
10
-0.2163
20
-0.0042
10
-0.2707
20
-0.0054
10
-0.2638
20
-0.0053
10
-0.2270
20
-0.0045
10
-0.2747
20
-0.0055
10
-0.2574
20
-0.0052
10
-0.2323
20
-0.0047
10
-0.2636
20
-0.0054
10
-0.2566
20
-0.0053
10
-0.2665
20
-0.0056
10
-0.2312
20
-0.0049
10
-0.2603
20
-0.0056
10
-0.2669
20
-0.0058
10
-0.2204
20
-0.0048
10
-0.2580
20
-0.0056
10
-0.2418
20
-0.0052
10
-0.2248
20
-0.0049
10
-0.2640
20
-0.0058
10
-0.2686
20
-0.0059
10
-0.2671
20
-0.0059
10
-0.2683
20
-0.0060
10
-0.3356
20
-0.0075
10
-0.2681
20
-0.0060
10
-0.2610
20
-0.0059
10
-0.2634
20
-0.0060
10
-0.2315
20
-0.0053
10
-0.2687
20
-0.0062
10
-0.2591
20
-0.0059
10
-0.2397
20
-0.0055
10
-0.2585
20
-0.0060
10
-0.2618
20
-0.0061
10
-0.2689
20
-0.0063
10
-0.2689
20
-0.0064
10
-0.2588
20
-0.0063
10
-0.2687
20
-0.0065
10
-0.2687
20
-0.0066
10
-0.2689
20
-0.0066
10
-0.3430
20
-0.0084
10
-0.2550
20
-0.0063
10
-0.2683
20
-0.0067
10
-0.2687
20
-0.0067
10
-0.2609
20
-0.0065
10
-0.2540
20
-0.0063
10
-0.2367
20
-0.0059
10
-0.2567
20
-0.0064
10
-0.2619
20
-0.0066
10
-0.2298
20
-0.0059
10
-0.2673
20
-0.0069
10
-0.2638
20
-0.0068
10
-0.2290
20
-0.0059
10
-0.2532
20
-0.0066
10
-0.2689
20
-0.0070
10
-0.2870
20
-0.0075
10
-0.3528
20
-0.0093
10
-0.2313
20
-0.0061
10
-0.2562
20
-0.0068
10
-0.2609
20
-0.0069
10
-0.2687
20
-0.0071
10
-0.2898
20
-0.0077
10
-0.3026
20
-0.0080
10
-0.2663
20
-0.0071
10
-0.2686
20
-0.0071
10
-0.2681
20
-0.0071
10
-0.2922
20
-0.0078
10
-0.2339
20
-0.0063
10
-0.4005
20
-0.0108
10
-0.2595
20
-0.0070
10
-0.3051
20
-0.0083
10
-0.2838
20
-0.0077
10
-0.3990
20
-0.0108
10
-0.3931
20
-0.0107
10
-0.2643
20
-0.0072
10
-0.2996
20
-0.0082
10
-0.3886
20
-0.0106
10
-0.3966
20
-0.0108
10
-0.2588
20
-0.0071
10
-0.3628
20
-0.0100
10
-0.3833
20
-0.0105
10
-0.2658
20
-0.0073
10
-0.3775
20
-0.0104
10
-0.3707
20
-0.0103
10
-0.2940
20
-0.0082
10
-0.2804
20
-0.0079
10
-0.2234
20
-0.0063
10
-0.2513
20
-0.0071
10
-0.2617
20
-0.0075
10
-0.2270
20
-0.0065
10
-0.3084
20
-0.0088
10
-0.2663
20
-0.0077
10
-0.2288
20
-0.0067
10
-0.2310
20
-0.0067
10
-0.2572
20
-0.0075
10
-0.2964
20
-0.0087
10
-0.2608
20
-0.0077
10
-0.2608
20
-0.0078
10
-0.2628
20
-0.0079
10
-0.2622
20
-0.0079
10
-0.2672
20
-0.0081
10
-0.2296
20
-0.0070
10
-0.2232
20
-0.0068
10
-0.2769
20
-0.0085
10
-0.2591
20
-0.0080
10
-0.2599
20
-0.0080
10
-0.2189
20
-0.0069
10
-0.3122
20
-0.0099
10
-0.2315
20
-0.0073
10
-0.2328
20
-0.0074
10
-0.2622
20
-0.0084
10
-0.2945
20
-0.0094
10
-0.2696
20
-0.0087
10
-0.2659
20
-0.0086
10
-0.2154
20
-0.0069
10
-0.2486
20
-0.0081
10
-0.1656
20
-0.0054
10
-0.2613
20
-0.0085
10
-0.2732
20
-0.0090
10
-0.2185
20
-0.0073
10
-0.2610
20
-0.0087
10
-0.2642
20
-0.0088
10
-0.1703
20
-0.0057
10
-0.2302
20
-0.0077
10
-0.2662
20
-0.0090
10
-0.2990
20
-0.0101
10
-0.2634
20
-0.0089
10
-0.2118
20
-0.0072
10
-0.2606
20
-0.0089
10
-0.2555
20
-0.0088
10
-0.2544
20
-0.0088
10
-0.2566
20
-0.0089
10
-0.2614
20
-0.0091
10
-0.2960
20
-0.0104
10
-0.3019
20
-0.0106
10
-0.2203
20
-0.0078
10
-0.2594
20
-0.0092
10
-0.2909
20
-0.0103
10
-0.2577
20
-0.0092
10
-0.2270
20
-0.0081
10
-0.2164
20
-0.0077
10
-0.2539
20
-0.0091
10
-0.3167
20
-0.0114
10
-0.2287
20
-0.0082
10
-0.2625
20
-0.0095
10
-0.2866
20
-0.0104
10
-0.2892
20
-0.0105
10
-0.2603
20
-0.0094
10
-0.2841
20
-0.0104
10
-0.2608
20
-0.0095
10
-0.2626
20
-0.0096
10
-0.2457
20
-0.0091
10
-0.2945
20
-0.0109
10
-0.2813
20
-0.0105
10
-0.2594
20
-0.0097
10
-0.2921
20
-0.0109
10
-0.2605
20
-0.0098
10
-0.2311
20
-0.0087
10
-0.2635
20
-0.0099
10
-0.3044
20
-0.0115
10
-0.2631
20
-0.0101
10
-0.2780
20
-0.0107
10
-0.2269
20
-0.0088
10
-0.2068
20
-0.0080
10
-0.2657
20
-0.0104
10
-0.2300
20
-0.0091
10
-0.2241
20
-0.0089
10
-0.2573
20
-0.0102
10
-0.2436
20
-0.0097
10
-0.1761
20
-0.0071
10
-0.2930
20
-0.0119
10
-0.2620
20
-0.0107
10
-0.2602
20
-0.0107
10
-0.3231
20
-0.0133
10
-0.2985
20
-0.0123
10
-0.2516
20
-0.0104
10
-0.2581
20
-0.0107
10
-0.2745
20
-0.0114
10
-0.2563
20
-0.0107
10
-0.2634
20
-0.0110
10
-0.2643
20
-0.0111
10
-0.2956
20
-0.0125
10
-0.2412
20
-0.0104
10
-0.2554
20
-0.0110
10
-0.2945
20
-0.0127
10
-0.2018
20
-0.0087
10
-0.2313
20
-0.0101
10
-0.3077
20
-0.0134
10
-0.2679
20
-0.0118
10
-0.2713
20
-0.0119
10
-0.2545
20
-0.0113
10
-0.3289
20
-0.0146
10
-0.2934
20
-0.0131
10
-0.3013
20
-0.0134
10
-0.2876
20
-0.0129
10
-0.2782
20
-0.0125
10
-0.2751
20
-0.0124
10
-0.2389
20
-0.0108
10
-0.2853
20
-0.0129
10
-0.2807
20
-0.0127
10
-0.2832
20
-0.0129
10
-0.1795
20
-0.0082
10
-0.2893
20
-0.0132
10
-0.2625
20
-0.0121
10
-0.2544
20
-0.0119
10
-0.2360
20
-0.0111
10
-0.1967
20
-0.0093
10
-0.2207
20
-0.0104
10
-0.3353
20
-0.0160
10
-0.2720
20
-0.0130
10
-0.2642
20
-0.0127
10
-0.2596
20
-0.0125
10
-0.2580
20
-0.0124
10
-0.2484
20
-0.0120
10
-0.2297
20
-0.0111
10
-0.2902
20
-0.0141
10
-0.2183
20
-0.0106
10
-0.2980
20
-0.0145
10
-0.2955
20
-0.0144
10
-0.1617
20
-0.0079
10
-0.3036
20
-0.0149
10
-0.2657
20
-0.0132
10
-0.2332
20
-0.0116
10
-0.2946
20
-0.0147
10
-0.2563
20
-0.0128
10
-0.2274
20
-0.0114
10
-0.2910
20
-0.0146
10
-0.2937
20
-0.0148
10
-0.1915
20
-0.0097
10
-0.3117
20
-0.0159
10
-0.2686
20
-0.0137
10
-0.1829
20
-0.0093
10
-0.3426
20
-0.0176
10
-0.2945
20
-0.0152
10
-0.2952
20
-0.0152
10
-0.2235
20
-0.0116
10
-0.2284
20
-0.0118
10
-0.1866
20
-0.0097
10
-0.2271
20
-0.0118
10
-0.3005
20
-0.0157
10
-0.2935
20
-0.0153
10
-0.2942
20
-0.0155
10
-0.2925
20
-0.0154
10
-0.2951
20
-0.0156
10
-0.2295
20
-0.0122
10
-0.2972
20
-0.0157
10
-0.2719
20
-0.0144
10
-0.2304
20
-0.0123
10
-0.2933
20
-0.0158
10
-0.2927
20
-0.0158
10
-0.2749
20
-0.0149
10
-0.3521
20
-0.0192
10
-0.2948
20
-0.0162
10
-0.2313
20
-0.0127
10
-0.2612
20
-0.0145
10
-0.2561
20
-0.0142
10
-0.2774
20
-0.0154
10
-0.3976
20
-0.0221
10
-0.2937
20
-0.0163
10
-0.3908
20
-0.0218
10
-0.3963
20
-0.0221
10
-0.3865
20
-0.0216
10
-0.2238
20
-0.0125
10
-0.2928
20
-0.0163
10
-0.2266
20
-0.0127
10
-0.3940
20
-0.0220
10
-0.2450
20
-0.0137
10
-0.2966
20
-0.0166
10
-0.2800
20
-0.0157
10
-0.2204
20
-0.0124
10
-0.2932
20
-0.0166
10
-0.3815
20
-0.0216
10
-0.2996
20
-0.0170
10
-0.2686
20
-0.0153
10
-0.3620
20
-0.0206
10
-0.3760
20
-0.0215
10
-0.2820
20
-0.0161
10
-0.2325
20
-0.0133
10
-0.2513
20
-0.0144
10
-0.3030
20
-0.0173
10
-0.1716
20
-0.0098
10
-0.3695
20
-0.0212
10
-0.2625
20
-0.0151
10
-0.2841
20
-0.0164
10
-0.2930
20
-0.0169
10
-0.2307
20
-0.0133
10
-0.2304
20
-0.0133
10
-0.2199
20
-0.0127
10
-0.2587
20
-0.0151
10
-0.2860
20
-0.0167
10
-0.2164
20
-0.0126
10
-0.2965
20
-0.0174
10
-0.3162
20
-0.0185
10
-0.2872
20
-0.0170
10
-0.2938
20
-0.0174
10
-0.2635
20
-0.0156
10
-0.2944
20
-0.0175
10
-0.2937
20
-0.0176
10
-0.2558
20
-0.0153
10
-0.2163
20
-0.0130
10
-0.2550
20
-0.0154
10
-0.2884
20
-0.0174
10
-0.2655
20
-0.0162
10
-0.2547
20
-0.0156
10
-0.2421
20
-0.0148
10
-0.2960
20
-0.0182
10
-0.3073
20
-0.0189
10
-0.2594
20
-0.0162
10
-0.2283
20
-0.0143
10
-0.2980
20
-0.0187
10
-0.2309
20
-0.0145
10
-0.2680
20
-0.0169
10
-0.2983
20
-0.0188
10
-0.2934
20
-0.0185
10
-0.3020
20
-0.0192
10
-0.2940
20
-0.0187
10
-0.2122
20
-0.0135
10
-0.2899
20
-0.0185
10
-0.2943
20
-0.0189
10
-0.2938
20
-0.0189
10
-0.2712
20
-0.0175
10
-0.2393
20
-0.0155
10
-0.2944
20
-0.0191
10
-0.2652
20
-0.0173
10
-0.2975
20
-0.0195
10
-0.2903
20
-0.0191
10
-0.2604
20
-0.0172
10
-0.1576
20
-0.0104
10
-0.2260
20
-0.0149
10
-0.2740
20
-0.0182
10
-0.3226
20
-0.0214
10
-0.2630
20
-0.0175
10
-0.2948
20
-0.0197
10
-0.2280
20
-0.0152
10
-0.2907
20
-0.0195
10
-0.3012
20
-0.0204
10
-0.2367
20
-0.0160
10
-0.2771
20
-0.0188
10
-0.2474
20
-0.0168
10
-0.2295
20
-0.0156
10
-0.2614
20
-0.0178
10
-0.2586
20
-0.0177
10
-0.2947
20
-0.0202
10
-0.2912
20
-0.0200
10
-0.2944
20
-0.0203
10
-0.2793
20
-0.0193
10
-0.2191
20
-0.0151
10
-0.2941
20
-0.0204
10
-0.2341
20
-0.0163
10
-0.2293
20
-0.0160
10
-0.2229
20
-0.0156
10
-0.2318
20
-0.0163
10
-0.2293
20
-0.0161
10
-0.3002
20
-0.0211
10
-0.2584
20
-0.0182
10
-0.2949
20
-0.0208
10
-0.2934
20
-0.0207
10
-0.2996
20
-0.0212
10
-0.2814
20
-0.0199
10
-0.2070
20
-0.0147
10
-0.2569
20
-0.0182
10
-0.2920
20
-0.0208
10
-0.2299
20
-0.0164
10
-0.2962
20
-0.0212
10
-0.3286
20
-0.0236
10
-0.3060
20
-0.0220
10
-0.2633
20
-0.0190
10
-0.1513
20
-0.0109
10
-0.3003
20
-0.0217
10
-0.3108
20
-0.0225
10
-0.2941
20
-0.0214
10
-0.2832
20
-0.0206
10
-0.2503
20
-0.0183
10
-0.2309
20
-0.0169
10
-0.2273
20
-0.0166
10
-0.3012
20
-0.0220
10
-0.2948
20
-0.0216
10
-0.2986
20
-0.0219
10
-0.3007
20
-0.0222
10
-0.2847
20
-0.0211
10
-0.1433
20
-0.0107
10
-0.1765
20
-0.0132
10
-0.2925
20
-0.0219
10
-0.3349
20
-0.0253
10
-0.3044
20
-0.0230
10
-0.2861
20
-0.0217
10
-0.2673
20
-0.0203
10
-0.2261
20
-0.0172
10
-0.1705
20
-0.0130
10
-0.2945
20
-0.0225
10
-0.2302
20
-0.0176
10
-0.2945
20
-0.0226
10
-0.2319
20
-0.0178
10
-0.2943
20
-0.0227
10
-0.2947
20
-0.0227
10
-0.2949
20
-0.0228
10
-0.2957
20
-0.0230
10
-0.2973
20
-0.0231
10
-0.2245
20
-0.0175
10
-0.2876
20
-0.0225
10
-0.3027
20
-0.0237
10
-0.2428
20
-0.0190
10
-0.2202
20
-0.0173
10
-0.3418
20
-0.0270
10
-0.2272
20
-0.0179
10
-0.2882
20
-0.0228
10
-0.2949
20
-0.0233
10
-0.2023
20
-0.0160
10
-0.2709
20
-0.0215
10
-0.2276
20
-0.0182
10
-0.2889
20
-0.0232
10
-0.2946
20
-0.0237
10
-0.2594
20
-0.0208
10
-0.2931
20
-0.0237
10
-0.2897
20
-0.0234
10
-0.2925
20
-0.0236
10
-0.3022
20
-0.0244
10
-0.3022
20
-0.0245
10
-0.3013
20
-0.0245
10
-0.2905
20
-0.0236
10
-0.2912
20
-0.0237
10
-0.3013
20
-0.0245
10
-0.3925
20
-0.0320
10
-0.2214
20
-0.0181
10
-0.2936
20
-0.0240
10
-0.2956
20
-0.0242
10
-0.3903
20
-0.0320
10
-0.2170
20
-0.0178
10
-0.2965
20
-0.0244
10
-0.3871
20
-0.0319
10
-0.2744
20
-0.0227
10
-0.1373
20
-0.0114
10
-0.3016
20
-0.0250
10
-0.2304
20
-0.0191
10
-0.3509
20
-0.0292
10
-0.2393
20
-0.0200
10
-0.2282
20
-0.0191
10
-0.3831
20
-0.0322
10
-0.1800
20
-0.0152
10
-0.2288
20
-0.0193
10
-0.2940
20
-0.0248
10
-0.2302
20
-0.0196
10
-0.3153
20
-0.0269
10
-0.3785
20
-0.0323
10
-0.2297
20
-0.0196
10
-0.3001
20
-0.0256
10
-0.2769
20
-0.0237
10
-0.2364
20
-0.0202
10
-0.2318
20
-0.0199
10
-0.2178
20
-0.0188
10
-0.3603
20
-0.0311
10
-0.3733
20
-0.0323
10
-0.2294
20
-0.0199
10
-0.2340
20
-0.0203
10
-0.2963
20
-0.0257
10
-0.3672
20
-0.0319
10
-0.2519
20
-0.0219
10
-0.1975
20
-0.0172
10
-0.2983
20
-0.0260
10
-0.1310
20
-0.0114
10
-0.2940
20
-0.0257
10
-0.2793
20
-0.0244
10
-0.2300
20
-0.0203
10
-0.2448
20
-0.0216
10
-0.2225
20
-0.0197
10
-0.3097
20
-0.0276
10
-0.2635
20
-0.0235
10
-0.2813
20
-0.0251
10
-0.2976
20
-0.0266
10
-0.2297
20
-0.0207
10
-0.2923
20
-0.0266
10
-0.2829
20
-0.0257
10
-0.2276
20
-0.0208
10
-0.2931
20
-0.0267
10
-0.2274
20
-0.0208
10
-0.2971
20
-0.0273
10
-0.2912
20
-0.0268
10
-0.2842
20
-0.0262
10
-0.2138
20
-0.0198
10
-0.2283
20
-0.0211
10
-0.2261
20
-0.0210
10
-0.2296
20
-0.0215
10
-0.2857
20
-0.0267
10
-0.2899
20
-0.0272
10
-0.1836
20
-0.0172
10
-0.2957
20
-0.0278
10
-0.2932
20
-0.0276
10
-0.2272
20
-0.0214
10
-0.2954
20
-0.0279
10
-0.3221
20
-0.0304
10
-0.2942
20
-0.0278
10
-0.2301
20
-0.0217
10
-0.2947
20
-0.0279
10
-0.2308
20
-0.0218
10
-0.2890
20
-0.0274
10
-0.2863
20
-0.0271
10
-0.3029
20
-0.0287
10
-0.2945
20
-0.0280
10
-0.1922
20
-0.0183
10
-0.3030
20
-0.0288
10
-0.2881
20
-0.0274
10
-0.2872
20
-0.0273
10
-0.2956
20
-0.0281
10
-0.2251
20
-0.0214
10
-0.2273
20
-0.0217
10
-0.3070
20
-0.0293
10
-0.2256
20
-0.0216
10
-0.3013
20
-0.0288
10
-0.2948
20
-0.0282
10
-0.2262
20
-0.0217
10
-0.3021
20
-0.0290
10
-0.3044
20
-0.0292
10
-0.2681
20
-0.0258
10
-0.2283
20
-0.0220
10
-0.2290
20
-0.0221
10
-0.3022
20
-0.0292
10
-0.2280
20
-0.0220
10
-0.2295
20
-0.0222
10
-0.2552
20
-0.0247
10
-0.1232
20
-0.0119
10
-0.2280
20
-0.0221
10
-0.2933
20
-0.0285
10
-0.2951
20
-0.0287
10
-0.2278
20
-0.0222
10
-0.2272
20
-0.0222
10
-0.2211
20
-0.0216
10
-0.2270
20
-0.0222
10
-0.2295
20
-0.0225
10
-0.2279
20
-0.0223
10
-0.1877
20
-0.0184
10
-0.2952
20
-0.0290
10
-0.2270
20
-0.0223
10
-0.3003
20
-0.0295
10
-0.2282
20
-0.0225
10
-0.2300
20
-0.0226
10
-0.1687
20
-0.0167
10
-0.3279
20
-0.0324
10
-0.2984
20
-0.0296
10
-0.2979
20
-0.0295
10
-0.2719
20
-0.0270
10
-0.2291
20
-0.0228
10
-0.2954
20
-0.0295
10
-0.2270
20
-0.0227
10
-0.2975
20
-0.0298
10
-0.2291
20
-0.0231
10
-0.2282
20
-0.0230
10
-0.2233
20
-0.0225
10
-0.2273
20
-0.0230
10
-0.2270
20
-0.0229
10
-0.2299
20
-0.0233
10
-0.2285
20
-0.0232
10
-0.2292
20
-0.0233
10
-0.2296
20
-0.0233
10
-0.2086
20
-0.0212
10
-0.2300
20
-0.0235
10
-0.2948
20
-0.0302
10
-0.2402
20
-0.0246
10
-0.2271
20
-0.0233
10
-0.2750
20
-0.0282
10
-0.3340
20
-0.0343
10
-0.2361
20
-0.0243
10
-0.2309
20
-0.0238
10
-0.2224
20
-0.0229
10
-0.2271
20
-0.0234
10
-0.3862
20
-0.0399
10
-0.3883
20
-0.0401
10
-0.2332
20
-0.0241
10
-0.2956
20
-0.0306
10
-0.2475
20
-0.0257
10
-0.2246
20
-0.0234
10
-0.2179
20
-0.0228
10
-0.2207
20
-0.0231
10
-0.3831
20
-0.0401
10
-0.2281
20
-0.0239
10
-0.2778
20
-0.0292
10
-0.2954
20
-0.0311
10
-0.2297
20
-0.0242
10
-0.2268
20
-0.0239
10
-0.2287
20
-0.0241
10
-0.2283
20
-0.0242
10
-0.2274
20
-0.0241
10
-0.3408
20
-0.0361
10
-0.2276
20
-0.0242
10
-0.1766
20
-0.0188
10
-0.3794
20
-0.0405
10
-0.2801
20
-0.0300
10
-0.2203
20
-0.0237
10
-0.2599
20
-0.0279
10
-0.2925
20
-0.0315
10
-0.2944
20
-0.0317
10
-0.2236
20
-0.0242
10
-0.2924
20
-0.0317
10
-0.2956
20
-0.0321
10
-0.2924
20
-0.0318
10
-0.2819
20
-0.0307
10
-0.2294
20
-0.0250
10
-0.2284
20
-0.0249
10
-0.2915
20
-0.0318
10
-0.2040
20
-0.0223
10
-0.2276
20
-0.0249
10
-0.3035
20
-0.0332
10
-0.3029
20
-0.0332
10
-0.3490
20
-0.0383
10
-0.3015
20
-0.0332
10
-0.2906
20
-0.0320
10
-0.3748
20
-0.0413
10
-0.2834
20
-0.0312
10
-0.2275
20
-0.0251
10
-0.2198
20
-0.0243
10
-0.2974
20
-0.0329
10
-0.2979
20
-0.0329
10
-0.3027
20
-0.0336
10
-0.2252
20
-0.0250
10
-0.2895
20
-0.0322
10
-0.1140
20
-0.0127
10
-0.2284
20
-0.0254
10
-0.2988
20
-0.0333
10
-0.3011
20
-0.0336
10
-0.2277
20
-0.0254
10
-0.2850
20
-0.0319
10
-0.3023
20
-0.0338
10
-0.2226
20
-0.0249
10
-0.2885
20
-0.0324
10
-0.2858
20
-0.0322
10
-0.2311
20
-0.0260
10
-0.2942
20
-0.0332
10
-0.2867
20
-0.0324
10
-0.3695
20
-0.0417
10
-0.3574
20
-0.0404
10
-0.2875
20
-0.0325
10
-0.2651
20
-0.0300
10
-0.2512
20
-0.0286
10
-0.3637
20
-0.0414
10
-0.2955
20
-0.0336
10
-0.2260
20
-0.0259
10
-0.3055
20
-0.0352
10
-0.2264
20
-0.0261
10
-0.2168
20
-0.0251
10
-0.2332
20
-0.0271
10
-0.2294
20
-0.0267
10
-0.2691
20
-0.0315
10
-0.2282
20
-0.0267
10
-0.2271
20
-0.0266
10
-0.2942
20
-0.0345
10
-0.3089
20
-0.0364
10
-0.2435
20
-0.0287
10
-0.2952
20
-0.0349
10
-0.2228
20
-0.0264
10
-0.1998
20
-0.0238
10
-0.2922
20
-0.0349
10
-0.2921
20
-0.0349
10
-0.2728
20
-0.0327
10
-0.2924
20
-0.0351
10
-0.2943
20
-0.0354
10
-0.1811
20
-0.0218
10
-0.2765
20
-0.0334
10
-0.3144
20
-0.0381
10
-0.2973
20
-0.0361
10
-0.2948
20
-0.0358
10
-0.2916
20
-0.0355
10
-0.2361
20
-0.0287
10
-0.2973
20
-0.0362
10
-0.2945
20
-0.0360
10
-0.2792
20
-0.0341
10
-0.3214
20
-0.0393
10
-0.2905
20
-0.0356
10
-0.3815
20
-0.0469
10
-0.2945
20
-0.0362
10
-0.3266
20
-0.0402
10
-0.2308
20
-0.0284
10
-0.2812
20
-0.0346
10
-0.2829
20
-0.0349
10
-0.2895
20
-0.0357
10
-0.2948
20
-0.0364
10
-0.2885
20
-0.0358
10
-0.2950
20
-0.0366
10
-0.2249
20
-0.0279
10
-0.2849
20
-0.0354
10
-0.2942
20
-0.0365
10
-0.3011
20
-0.0374
10
-0.2857
20
-0.0355
10
-0.2875
20
-0.0358
10
-0.2941
20
-0.0367
10
-0.2866
20
-0.0357
10
-0.2944
20
-0.0367
10
-0.2949
20
-0.0368
10
-0.2952
20
-0.0368
10
-0.2978
20
-0.0372
10
-0.2953
20
-0.0369
10
-0.3008
20
-0.0377
10
-0.3829
20
-0.0480
10
-0.3026
20
-0.0380
10
-0.2559
20
-0.0321
10
-0.2287
20
-0.0288
10
-0.1047
20
-0.0132
10
-0.1668
20
-0.0211
10
-0.3018
20
-0.0382
10
-0.3783
20
-0.0479
10
-0.2267
20
-0.0287
10
-0.3325
20
-0.0422
10
-0.2999
20
-0.0381
10
-0.2124
20
-0.0273
10
-0.2920
20
-0.0375
10
-0.2922
20
-0.0377
10
-0.3018
20
-0.0390
10
-0.2473
20
-0.0320
10
-0.2966
20
-0.0385
10
-0.3389
20
-0.0440
10
-0.1946
20
-0.0253
10
-0.2199
20
-0.0286
10
-0.2964
20
-0.0388
10
-0.2924
20
-0.0383
10
-0.3746
20
-0.0491
10
-0.1764
20
-0.0232
10
-0.1853
20
-0.0244
10
-0.2326
20
-0.0308
10
-0.2905
20
-0.0386
10
-0.2394
20
-0.0318
10
-0.2613
20
-0.0348
10
-0.2914
20
-0.0389
10
-0.3460
20
-0.0463
10
-0.2923
20
-0.0391
10
-0.2895
20
-0.0387
10
-0.2964
20
-0.0398
10
-0.2997
20
-0.0404
10
-0.2885
20
-0.0388
10
-0.3700
20
-0.0498
10
-0.2925
20
-0.0395
10
-0.3046
20
-0.0411
10
-0.1898
20
-0.0256
10
-0.2876
20
-0.0389
10
-0.2848
20
-0.0386
10
-0.2827
20
-0.0384
10
-0.2858
20
-0.0389
10
-0.2866
20
-0.0390
10
-0.2808
20
-0.0382
10
-0.2998
20
-0.0409
10
-0.2782
20
-0.0380
10
-0.3008
20
-0.0411
10
-0.2957
20
-0.0405
10
-0.2657
20
-0.0365
10
-0.2749
20
-0.0378
10
-0.3000
20
-0.0413
10
-0.3649
20
-0.0502
10
-0.2984
20
-0.0411
10
-0.2925
20
-0.0403
10
-0.2954
20
-0.0407
10
-0.2704
20
-0.0373
10
-0.2928
20
-0.0404
10
-0.3533
20
-0.0487
10
-0.2294
20
-0.0317
10
-0.2231
20
-0.0308
10
-0.3592
20
-0.0499
10
-0.2930
20
-0.0408
10
-0.2949
20
-0.0412
10
-0.3770
20
-0.0528
10
-0.2934
20
-0.0411
10
-0.2082
20
-0.0293
10
-0.2261
20
-0.0318
10
-0.3084
20
-0.0434
10
-0.2913
20
-0.0410
10
-0.2952
20
-0.0416
10
-0.2905
20
-0.0410
10
-0.2937
20
-0.0415
10
-0.0952
20
-0.0135
10
-0.3009
20
-0.0426
10
-0.2947
20
-0.0417
10
-0.2896
20
-0.0411
10
-0.2516
20
-0.0358
10
-0.2928
20
-0.0416
10
-0.2943
20
-0.0418
10
-0.2940
20
-0.0419
10
-0.2933
20
-0.0419
10
-0.2941
20
-0.0420
10
-0.2886
20
-0.0412
10
-0.2942
20
-0.0421
10
-0.2939
20
-0.0421
10
-0.2941
20
-0.0421
10
-0.2877
20
-0.0413
10
-0.2869
20
-0.0413
10
-0.2983
20
-0.0429
10
-0.2859
20
-0.0412
10
-0.2941
20
-0.0424
10
-0.2850
20
-0.0412
10
-0.2945
20
-0.0425
10
-0.3134
20
-0.0454
10
-0.2936
20
-0.0426
10
-0.2426
20
-0.0352
10
-0.2967
20
-0.0431
10
-0.2349
20
-0.0341
10
-0.2989
20
-0.0435
10
-0.2937
20
-0.0428
10
-0.2986
20
-0.0436
10
-0.2982
20
-0.0435
10
-0.2931
20
-0.0428
10
-0.2163
20
-0.0316
10
-0.2825
20
-0.0413
10
-0.2918
20
-0.0427
10
-0.2938
20
-0.0430
10
-0.3196
20
-0.0469
10
-0.2941
20
-0.0432
10
-0.2937
20
-0.0432
10
-0.3244
20
-0.0477
10
-0.2939
20
-0.0433
10
-0.2908
20
-0.0429
10
-0.2802
20
-0.0414
10
-0.2941
20
-0.0434
10
-0.3733
20
-0.0552
10
-0.3033
20
-0.0449
10
-0.2898
20
-0.0430
10
-0.2932
20
-0.0435
10
-0.3757
20
-0.0559
10
-0.2888
20
-0.0430
10
-0.3299
20
-0.0493
10
-0.2951
20
-0.0441
10
-0.2882
20
-0.0431
10
-0.2774
20
-0.0415
10
-0.2921
20
-0.0438
10
-0.1823
20
-0.0273
10
-0.2934
20
-0.0440
10
-0.2875
20
-0.0432
10
-0.2934
20
-0.0441
10
-0.2567
20
-0.0388
10
-0.2911
20
-0.0440
10
-0.2996
20
-0.0453
10
-0.2964
20
-0.0448
10
-0.2865
20
-0.0434
10
-0.2972
20
-0.0450
10
-0.2935
20
-0.0445
10
-0.2971
20
-0.0451
10
-0.2924
20
-0.0444
10
-0.2941
20
-0.0447
10
-0.2901
20
-0.0441
10
-0.3356
20
-0.0510
10
-0.2932
20
-0.0446
10
-0.1480
20
-0.0226
10
-0.2936
20
-0.0448
10
-0.2893
20
-0.0442
10
-0.2853
20
-0.0436
10
-0.2926
20
-0.0448
10
-0.2733
20
-0.0419
10
-0.2913
20
-0.0447
10
-0.2301
20
-0.0353
10
-0.2887
20
-0.0443
10
-0.2975
20
-0.0457
10
-0.2935
20
-0.0451
10
-0.2038
20
-0.0314
10
-0.2903
20
-0.0449
10
-0.2931
20
-0.0453
10
-0.2951
20
-0.0457
10
-0.3063
20
-0.0474
10
-0.2916
20
-0.0452
10
-0.2878
20
-0.0446
10
-0.3691
20
-0.0572
10
-0.2930
20
-0.0454
10
-0.2897
20
-0.0450
10
-0.2618
20
-0.0408
10
-0.2922
20
-0.0456
10
-0.2932
20
-0.0457
10
-0.2907
20
-0.0454
10
-0.3418
20
-0.0533
10
-0.2676
20
-0.0418
10
-0.2958
20
-0.0462
10
-0.2207
20
-0.0345
10
-0.2891
20
-0.0452
10
-0.2962
20
-0.0464
10
-0.2913
20
-0.0456
10
-0.2921
20
-0.0458
10
-0.2870
20
-0.0450
10
-0.2902
20
-0.0456
10
-0.1610
20
-0.0253
10
-0.2941
20
-0.0462
10
-0.2825
20
-0.0444
10
-0.3014
20
-0.0476
10
-0.2254
20
-0.0356
10
-0.2983
20
-0.0471
10
-0.2918
20
-0.0461
10
-0.2909
20
-0.0460
10
-0.2884
20
-0.0458
10
-0.2964
20
-0.0470
10
-0.3645
20
-0.0579
10
-0.2897
20
-0.0460
10
-0.2463
20
-0.0391
10
-0.2948
20
-0.0469
10
-0.2933
20
-0.0467
10
-0.2954
20
-0.0470
10
-0.2370
20
-0.0378
10
-0.2914
20
-0.0466
10
-0.2904
20
-0.0465
10
-0.2798
20
-0.0448
10
-0.1766
20
-0.0283
10
-0.2857
20
-0.0458
10
-0.3480
20
-0.0560
10
-0.1409
20
-0.0227
10
-0.2954
20
-0.0477
10
-0.2890
20
-0.0467
10
-0.3593
20
-0.0581
10
-0.2970
20
-0.0480
10
-0.2874
20
-0.0465
10
-0.2126
20
-0.0345
10
-0.3104
20
-0.0506
10
-0.2993
20
-0.0488
10
-0.3531
20
-0.0576
10
-0.2898
20
-0.0473
10
-0.2960
20
-0.0484
10
-0.3158
20
-0.0517
10
-0.2934
20
-0.0481
10
-0.2908
20
-0.0477
10
-0.1872
20
-0.0308
10
-0.3197
20
-0.0526
10
-0.2763
20
-0.0455
10
-0.3692
20
-0.0609
10
-0.3036
20
-0.0501
10
-0.0857
20
-0.0141
10
-0.2881
20
-0.0477
10
-0.2863
20
-0.0475
10
-0.2974
20
-0.0495
10
-0.3243
20
-0.0541
10
-0.2827
20
-0.0471
10
-0.2957
20
-0.0493
10
-0.1982
20
-0.0331
10
-0.2890
20
-0.0485
10
-0.2508
20
-0.0425
10
-0.3005
20
-0.0510
10
-0.2309
20
-0.0392
10
-0.2901
20
-0.0493
10
-0.3293
20
-0.0562
10
-0.2872
20
-0.0490
10
-0.1929
20
-0.0330
10
-0.2710
20
-0.0464
10
-0.1340
20
-0.0230
10
-0.2795
20
-0.0482
10
-0.2929
20
-0.0505
10
-0.2979
20
-0.0514
10
-0.3065
20
-0.0530
10
-0.3642
20
-0.0631
10
-0.2956
20
-0.0513
10
-0.2882
20
-0.0501
10
-0.2397
20
-0.0417
10
-0.2832
20
-0.0494
10
-0.2182
20
-0.0382
10
-0.2562
20
-0.0451
10
-0.2244
20
-0.0396
10
-0.3112
20
-0.0549
10
-0.2894
20
-0.0511
10
-0.3141
20
-0.0557
10
-0.2631
20
-0.0467
10
-0.3335
20
-0.0594
10
-0.3023
20
-0.0540
10
-0.3588
20
-0.0644
10
-0.2086
20
-0.0375
10
-0.3651
20
-0.0657
10
-0.3179
20
-0.0572
10
-0.2752
20
-0.0496
10
-0.2925
20
-0.0529
10
-0.2840
20
-0.0514
10
-0.2987
20
-0.0543
10
-0.2801
20
-0.0509
10
-0.2956
20
-0.0538
10
-0.3533
20
-0.0646
10
-0.1838
20
-0.0337
10
-0.3395
20
-0.0625
10
-0.3217
20
-0.0594
10
-0.2852
20
-0.0528
10
-0.3059
20
-0.0568
10
-0.3461
20
-0.0642
10
-0.2320
20
-0.0434
10
-0.2433
20
-0.0455
10
-0.2868
20
-0.0537
10
-0.3078
20
-0.0579
10
-0.2809
20
-0.0533
10
-0.1261
20
-0.0240
10
-0.3004
20
-0.0572
10
-0.2911
20
-0.0554
10
-0.2684
20
-0.0512
10
-0.2954
20
-0.0566
10
-0.3100
20
-0.0595
10
-0.2752
20
-0.0530
10
-0.3244
20
-0.0629
10
-0.2822
20
-0.0548
10
-0.1778
20
-0.0346
10
-0.2156
20
-0.0420
10
-0.3010
20
-0.0587
10
-0.2239
20
-0.0437
10
-0.2842
20
-0.0557
10
-0.2486
20
-0.0489
10
-0.3122
20
-0.0615
10
-0.3529
20
-0.0695
10
-0.2050
20
-0.0405
10
-0.3562
20
-0.0704
10
-0.2948
20
-0.0583
10
-0.2894
20
-0.0572
10
-0.3471
20
-0.0698
10
-0.3015
20
-0.0607
10
-0.2761
20
-0.0557
10
-0.2342
20
-0.0474
10
-0.2565
20
-0.0523
10
-0.2683
20
-0.0551
10
-0.0753
20
-0.0155
10
-0.2937
20
-0.0605
10
-0.3380
20
-0.0698
10
-0.3126
20
-0.0646
10
-0.3268
20
-0.0677
10
-0.3017
20
-0.0626
10
-0.2775
20
-0.0576
10
-0.2866
20
-0.0600
10
-0.2801
20
-0.0588
10
-0.1920
20
-0.0406
10
-0.2244
20
-0.0478
10
-0.2142
20
-0.0458
10
-0.2922
20
-0.0629
10
-0.2696
20
-0.0581
10
-0.2381
20
-0.0513
10
-0.1681
20
-0.0366
10
-0.2999
20
-0.0653
10
-0.3417
20
-0.0749
10
-0.3104
20
-0.0682
10
-0.2583
20
-0.0568
10
-0.2010
20
-0.0443
10
-0.1168
20
-0.0257
10
-0.2719
20
-0.0603
10
-0.1871
20
-0.0416
10
-0.2832
20
-0.0630
10
-0.1548
20
-0.0345
10
-0.2755
20
-0.0619
10
-0.3359
20
-0.0760
10
-0.3392
20
-0.0769
10
-0.2434
20
-0.0552
10
-0.2883
20
-0.0662
10
-0.2267
20
-0.0521
10
-0.2605
20
-0.0601
10
-0.2960
20
-0.0684
10
-0.3257
20
-0.0758
10
-0.1815
20
-0.0423
10
-0.2143
20
-0.0503
10
-0.1464
20
-0.0344
10
-0.2592
20
-0.0611
10
-0.3150
20
-0.0742
10
-0.2576
20
-0.0607
10
-0.2571
20
-0.0606
10
-0.2591
20
-0.0611
10
-0.2559
20
-0.0604
10
-0.2583
20
-0.0610
10
-0.2587
20
-0.0611
10
-0.2591
20
-0.0613
10
-0.2581
20
-0.0612
10
-0.2590
20
-0.0614
10
-0.2566
20
-0.0609
10
-0.2551
20
-0.0606
10
-0.2472
20
-0.0588
10
-0.2593
20
-0.0617
10
-0.2632
20
-0.0627
10
-0.3019
20
-0.0722
10
-0.2774
20
-0.0666
10
-0.2681
20
-0.0650
10
-0.1941
20
-0.0474
10
-0.2307
20
-0.0567
10
-0.2509
20
-0.0618
10
-0.2825
20
-0.0696
10
-0.3230
20
-0.0798
10
-0.2581
20
-0.0640
10
-0.2593
20
-0.0643
10
-0.2566
20
-0.0636
10
-0.1908
20
-0.0475
10
-0.3045
20
-0.0761
10
-0.2597
20
-0.0649
10
-0.1386
20
-0.0347
10
-0.3133
20
-0.0784
10
-0.2526
20
-0.0633
10
-0.1076
20
-0.0270
10
-0.2880
20
-0.0725
10
-0.2595
20
-0.0653
10
-0.2548
20
-0.0641
10
-0.2548
20
-0.0642
10
-0.2589
20
-0.0652
10
-0.2576
20
-0.0650
10
-0.2562
20
-0.0646
10
-0.2932
20
-0.0740
10
-0.2356
20
-0.0601
10
-0.2601
20
-0.0665
10
-0.2046
20
-0.0524
10
-0.2699
20
-0.0692
10
-0.2172
20
-0.0558
10
-0.0640
20
-0.0165
10
-0.2516
20
-0.0653
10
-0.2399
20
-0.0625
10
-0.2513
20
-0.0659
10
-0.2575
20
-0.0676
10
-0.2527
20
-0.0664
10
-0.2555
20
-0.0671
10
-0.2594
20
-0.0683
10
-0.2909
20
-0.0767
10
-0.2447
20
-0.0646
10
-0.1982
20
-0.0524
10
-0.2967
20
-0.0785
10
-0.2604
20
-0.0690
10
-0.2599
20
-0.0689
10
-0.2823
20
-0.0750
10
-0.2507
20
-0.0666
10
-0.2805
20
-0.0746
10
-0.2738
20
-0.0729
10
-0.2590
20
-0.0691
10
-0.3014
20
-0.0805
10
-0.2535
20
-0.0679
10
-0.2573
20
-0.0691
10
-0.1902
20
-0.0511
10
-0.2556
20
-0.0687
10
-0.2612
20
-0.0704
10
-0.2505
20
-0.0675
10
-0.2608
20
-0.0703
10
-0.2821
20
-0.0760
10
-0.2719
20
-0.0733
10
-0.2604
20
-0.0702
10
-0.2734
20
-0.0738
10
-0.2224
20
-0.0601
10
-0.2867
20
-0.0775
10
-0.2610
20
-0.0706
10
-0.2715
20
-0.0734
10
-0.2878
20
-0.0778
10
-0.2610
20
-0.0706
10
-0.2615
20
-0.0708
10
-0.2740
20
-0.0743
10
-0.2739
20
-0.0743
10
-0.2591
20
-0.0704
10
-0.2730
20
-0.0742
10
-0.2887
20
-0.0785
10
-0.2717
20
-0.0739
10
-0.2890
20
-0.0787
10
-0.2828
20
-0.0770
10
-0.2498
20
-0.0681
10
-0.2750
20
-0.0750
10
-0.2890
20
-0.0788
10
-0.2495
20
-0.0681
10
-0.2612
20
-0.0713
10
-0.2737
20
-0.0748
10
-0.2617
20
-0.0716
10
-0.2091
20
-0.0572
10
-0.2615
20
-0.0716
10
-0.2860
20
-0.0783
10
-0.2738
20
-0.0750
10
-0.2772
20
-0.0761
10
-0.2571
20
-0.0706
10
-0.2741
20
-0.0753
10
-0.2759
20
-0.0758
10
-0.2588
20
-0.0711
10
-0.2749
20
-0.0756
10
-0.2532
20
-0.0696
10
-0.2713
20
-0.0747
10
-0.2765
20
-0.0761
10
-0.1988
20
-0.0548
10
-0.2553
20
-0.0703
10
-0.2749
20
-0.0757
10
-0.2281
20
-0.0629
10
-0.1800
20
-0.0497
10
-0.2766
20
-0.0764
10
-0.2765
20
-0.0764
10
-0.2759
20
-0.0763
10
-0.2671
20
-0.0738
10
-0.1303
20
-0.0361
10
-0.2483
20
-0.0688
10
-0.2792
20
-0.0774
10
-0.2827
20
-0.0784
10
-0.2716
20
-0.0753
10
-0.2477
20
-0.0687
10
-0.2778
20
-0.0771
10
-0.2589
20
-0.0719
10
-0.2750
20
-0.0764
10
-0.2642
20
-0.0734
10
-0.2489
20
-0.0692
10
-0.2771
20
-0.0771
10
-0.2784
20
-0.0775
10
-0.2784
20
-0.0775
10
-0.2786
20
-0.0776
10
-0.2657
20
-0.0741
10
-0.2789
20
-0.0778
10
-0.2711
20
-0.0756
10
-0.2339
20
-0.0653
10
-0.2850
20
-0.0796
10
-0.2781
20
-0.0777
10
-0.2498
20
-0.0698
10
-0.2787
20
-0.0779
10
-0.2628
20
-0.0735
10
-0.2761
20
-0.0773
10
-0.2741
20
-0.0768
10
-0.2478
20
-0.0695
10
-0.2566
20
-0.0720
10
-0.2479
20
-0.0696
10
-0.2875
20
-0.0807
10
-0.2799
20
-0.0786
10
-0.2523
20
-0.0709
10
-0.2800
20
-0.0787
10
-0.2610
20
-0.0734
10
-0.2546
20
-0.0716
10
-0.2672
20
-0.0752
10
-0.2484
20
-0.0700
10
-0.2479
20
-0.0701
10
-0.2630
20
-0.0745
10
-0.2716
20
-0.0769
10
-0.2414
20
-0.0684
10
-0.2306
20
-0.0654
10
-0.2564
20
-0.0728
10
-0.2616
20
-0.0744
10
-0.2057
20
-0.0585
10
-0.2767
20
-0.0788
10
-0.2618
20
-0.0746
10
-0.2555
20
-0.0728
10
-0.2736
20
-0.0781
10
-0.2630
20
-0.0751
10
-0.2762
20
-0.0788
10
-0.2322
20
-0.0663
10
-0.2485
20
-0.0710
10
-0.2482
20
-0.0709
10
-0.0977
20
-0.0279
10
-0.2565
20
-0.0733
10
-0.2493
20
-0.0713
10
-0.2295
20
-0.0656
10
-0.2525
20
-0.0723
10
-0.2736
20
-0.0783
10
-0.2725
20
-0.0780
10
-0.2714
20
-0.0777
10
-0.2479
20
-0.0710
10
-0.2164
20
-0.0620
10
-0.2792
20
-0.0800
10
-0.2773
20
-0.0795
10
-0.1628
20
-0.0467
10
-0.2499
20
-0.0717
10
-0.2610
20
-0.0750
10
-0.2523
20
-0.0725
10
-0.2693
20
-0.0774
10
-0.2619
20
-0.0753
10
-0.2656
20
-0.0764
10
-0.2489
20
-0.0717
10
-0.2819
20
-0.0812
10
-0.2510
20
-0.0723
10
-0.2510
20
-0.0723
10
-0.2599
20
-0.0749
10
-0.2323
20
-0.0670
10
-0.2785
20
-0.0807
10
-0.2443
20
-0.0708
10
-0.2570
20
-0.0745
10
-0.2599
20
-0.0753
10
-0.2748
20
-0.0797
10
-0.2587
20
-0.0751
10
-0.2459
20
-0.0714
10
-0.2499
20
-0.0726
10
-0.2341
20
-0.0681
10
-0.2333
20
-0.0679
10
-0.2846
20
-0.0828
10
-0.2485
20
-0.0723
10
-0.2465
20
-0.0718
10
-0.2767
20
-0.0806
10
-0.2535
20
-0.0739
10
-0.2328
20
-0.0679
10
-0.2600
20
-0.0758
10
-0.2574
20
-0.0751
10
-0.2358
20
-0.0688
10
-0.2300
20
-0.0671
10
-0.2479
20
-0.0723
10
-0.2318
20
-0.0676
10
-0.2344
20
-0.0685
10
-0.2457
20
-0.0718
10
-0.2334
20
-0.0682
10
-0.2391
20
-0.0699
10
-0.2345
20
-0.0686
10
-0.2348
20
-0.0686
10
-0.2314
20
-0.0677
10
-0.2461
20
-0.0720
10
-0.2434
20
-0.0712
10
-0.2341
20
-0.0685
10
-0.2331
20
-0.0683
10
-0.2246
20
-0.0658
10
-0.2342
20
-0.0686
10
-0.2448
20
-0.0717
10
-0.2551
20
-0.0748
10
-0.2421
20
-0.0710
10
-0.2006
20
-0.0588
10
-0.2348
20
-0.0689
10
-0.2469
20
-0.0725
10
-0.2788
20
-0.0819
10
-0.2288
20
-0.0672
10
-0.2504
20
-0.0736
10
-0.2528
20
-0.0743
10
-0.2504
20
-0.0736
10
-0.2481
20
-0.0729
10
-0.2039
20
-0.0599
10
-0.2132
20
-0.0628
10
-0.2339
20
-0.0689
10
-0.2576
20
-0.0759
10
-0.2439
20
-0.0719
10
-0.2556
20
-0.0754
10
-0.2344
20
-0.0692
10
-0.2424
20
-0.0717
10
-0.2352
20
-0.0696
10
-0.2147
20
-0.0636
10
-0.2535
20
-0.0751
10
-0.2516
20
-0.0746
10
-0.2808
20
-0.0833
10
-0.2093
20
-0.0621
10
-0.2346
20
-0.0696
10
-0.2501
20
-0.0744
10
-0.2887
20
-0.0863
10
-0.2292
20
-0.0685
10
-0.2153
20
-0.0644
10
-0.2165
20
-0.0648
10
-0.2477
20
-0.0743
10
-0.2398
20
-0.0719
10
-0.2338
20
-0.0702
10
-0.2450
20
-0.0737
10
-0.2210
20
-0.0667
10
-0.2343
20
-0.0710
10
-0.2262
20
-0.0685
10
-0.2340
20
-0.0709
10
-0.1983
20
-0.0601
10
-0.1526
20
-0.0463
10
-0.2333
20
-0.0709
10
-0.2364
20
-0.0725
10
-0.2470
20
-0.0758
10
-0.2315
20
-0.0711
10
-0.2392
20
-0.0736
10
-0.2488
20
-0.0767
10
-0.2443
20
-0.0754
10
-0.2318
20
-0.0717
10
-0.2271
20
-0.0710
10
-0.2439
20
-0.0766
10
-0.2385
20
-0.0750
10
-0.2278
20
-0.0718
10
-0.2350
20
-0.0741
10
-0.2304
20
-0.0727
10
-0.1822
20
-0.0575
10
-0.2452
20
-0.0774
10
-0.1212
20
-0.0384
10
-0.2467
20
-0.0783
10
-0.2295
20
-0.0730
10
-0.2339
20
-0.0752
10
-0.1438
20
-0.0463
10
-0.2380
20
-0.0774
10
-0.2411
20
-0.0786
10
-0.2325
20
-0.0761
10
-0.0887
20
-0.0295
10
-0.2272
20
-0.0757
10
-0.2289
20
-0.0764
10
-0.2382
20
-0.0795
10
-0.1685
20
-0.0563
10
-0.1356
20
-0.0463
10
-0.2311
20
-0.0794
10
-0.2329
20
-0.0807
10
-0.1583
20
-0.0558
10
-0.1121
20
-0.0408
10
-0.0488
20
-0.0178
10
-0.1491
20
-0.0558
10
-0.1281
20
-0.0492
10
-0.1396
20
-0.0556
10
-0.0794
20
-0.0321
10
-0.1020
20
-0.0434
10
-0.1198
20
-0.0533
10
-0.1315
20
-0.0602
10
-0.0928
20
-0.0467
10
-0.0676
20
-0.0342
10
-0.1240
20
-0.0660
10
-0.1098
20
-0.0602
10
-0.0327
20
-0.0181
10
-0.0842
20
-0.0508
10
-0.0995
20
-0.0652
10
-0.0518
20
-0.0364
10
-0.1088
20
-0.0813
10
-0.0721
20
-0.0543
10
-0.0915
20
-0.0715
10
-0.1003
20
-0.0890
10
-0.0790
20
-0.0764
10
-0.0557
20
-0.0567
10
-0.0362
20
-0.0374
10
-0.0162
20
-0.0177
10
-0.0875
20
-0.1015
10
-0.0611
20
-0.0779
10
-0.0875
20
-0.1222
10
-0.0397
20
-0.0575
10
-0.1104
20
-0.1603
10
-0.0667
20
-0.0989
10
-0.0893
20
-0.1361
10
-0.1066
20
-0.1704
10
-0.0905
20
-0.1475
10
-0.0686
20
-0.1174
10
-0.0211
20
-0.0370
10
-0.0440
20
-0.0777
10
-0.0882
20
-0.1574
10
-0.1004
20
-0.1807
10
-0.0685
20
-0.1330
10
-0.0482
20
-0.0969
10
-0.0826
20
-0.1668
10
-0.0930
20
-0.1926
10
-0.0680
20
-0.1450
10
-0.0248
20
-0.0568
10
-0.0499
20
-0.1145
10
-0.0750
20
-0.1776
10
-0.0648
20
-0.1557
10
-0.0857
20
-0.2068
10
-0.0500
20
-0.1300
10
-0.0282
20
-0.0763
10
-0.0797
20
-0.2213
10
-0.0581
20
-0.1659
10
-0.0667
20
-0.1912
10
-0.0482
20
-0.1428
10
-0.0306
20
-0.0950
10
-0.0746
20
-0.2357
10
-0.0713
20
-0.2507
10
-0.0590
20
-0.2078
10
-0.0438
20
-0.1546
10
-0.0316
20
-0.1124
10
-0.0488
20
-0.1785
10
-0.0683
20
-0.2679
10
-0.0315
20
-0.1279
10
-0.0548
20
-0.2235
10
-0.0521
20
-0.2392
10
-0.0358
20
-0.1664
10
-0.0303
20
-0.1413
10
-0.0508
20
-0.2545
10
-0.0374
20
-0.1942
10
-0.0067
20
-0.0360
10
-0.0102
20
-0.0553
10
-0.0487
20
-0.2708
10
-0.0259
20
-0.1534
10
-0.0123
20
-0.0747
10
-0.0455
20
-0.2886
10
-0.0137
20
-0.0931
10
-0.0307
20
-0.2099
10
-0.0418
20
-0.3092
10
-0.0295
20
-0.2253
10
-0.0229
20
-0.1799
10
-0.0140
20
-0.1103
10
-0.0294
20
-0.2407
10
-0.0386
20
-0.3331
10
-0.0295
20
-0.2562
10
-0.0134
20
-0.1257
10
-0.0171
20
-0.1653
10
-0.0274
20
-0.2725
10
-0.0119
20
-0.1392
10
-0.0247
20
-0.2896
10
-0.0223
20
-0.3112
10
-0.0012
20
-0.0170
10
-0.0090
20
-0.1509
10
-0.0192
20
-0.3351
10
-0.0086
20
-0.2389
10
-0.0089
20
-0.2548
10
-0.0067
20
-0.2232
10
-0.0079
20
-0.2716
10
-0.0050
20
-0.1949
10
-0.0068
20
-0.2908
10
-0.0041
20
-0.1770
10
-0.0043
20
-0.2080
10
-0.0009
20
-0.1623
10
0.0053
20
-0.2381
10
0.0025
20
-0.1080
10
0.0025
20
-0.0913
10
0.0036
20
-0.1230
10
0.0057
20
-0.1363
10
0.0091
20
-0.2171
10
0.0034
20
-0.0731
10
0.0105
20
-0.2067
10
0.0089
20
-0.1480
10
0.0105
20
-0.1720
10
0.0124
20
-0.1856
10
0.0146
20
-0.1584
10
0.0052
20
-0.0542
10
0.0197
20
-0.1954
10
0.0241
20
-0.1782
10
0.0234
20
-0.1670
10
0.0283
20
-0.1866
10
0.0193
20
-0.1206
10
0.0214
20
-0.1334
10
0.0245
20
-0.1445
10
0.0181
20
-0.1060
10
0.0335
20
-0.1935
10
0.0288
20
-0.1544
10
0.0180
20
-0.0897
10
0.0347
20
-0.1726
10
0.0374
20
-0.1800
10
0.0395
20
-0.1871
10
0.0355
20
-0.1625
10
0.0084
20
-0.0348
10
0.0474
20
-0.1821
10
0.0190
20
-0.0719
10
0.0474
20
-0.1753
10
0.0387
20
-0.1417
10
0.0359
20
-0.1309
10
0.0463
20
-0.1684
10
0.0428
20
-0.1510
10
0.0340
20
-0.1183
10
0.0492
20
-0.1590
10
0.0328
20
-0.1042
10
0.0578
20
-0.1780
10
0.0589
20
-0.1716
10
0.0652
20
-0.1825
10
0.0594
20
-0.1647
10
0.0328
20
-0.0884
10
0.0524
20
-0.1391
10
0.0563
20
-0.1481
10
0.0503
20
-0.1288
10
0.0209
20
-0.0533
10
0.0710
20
-0.1753
10
0.0630
20
-0.1555
10
0.0486
20
-0.1166
10
0.0720
20
-0.1685
10
0.0783
20
-0.1804
10
0.0729
20
-0.1608
10
0.0476
20
-0.1030
10
0.0698
20
-0.1449
10
0.0346
20
-0.0711
10
0.0841
20
-0.1729
10
0.0674
20
-0.1368
10
0.0748
20
-0.1514
10
0.0923
20
-0.1785
10
0.0854
20
-0.1646
10
0.0658
20
-0.1269
10
0.0478
20
-0.0878
10
0.0849
20
-0.1556
10
0.0645
20
-0.1151
10
0.0838
20
-0.1476
10
0.0983
20
-0.1693
10
0.0839
20
-0.1423
10
0.0978
20
-0.1588
10
0.1082
20
-0.1750
10
0.0633
20
-0.1018
10
0.0841
20
-0.1345
10
0.0943
20
-0.1486
10
0.0837
20
-0.1246
10
0.1113
20
-0.1630
10
0.0376
20
-0.0529
10
0.0998
20
-0.1404
10
0.0510
20
-0.0713
10
0.1082
20
-0.1505
10
0.0633
20
-0.0879
10
0.0248
20
-0.0343
10
0.1233
20
-0.1691
10
0.0824
20
-0.1123
10
0.1302
20
-0.1748
10
0.1022
20
-0.1308
10
0.0129
20
-0.0164
10
0.1221
20
-0.1538
10
0.0800
20
-0.0995
10
0.1157
20
-0.1397
10
0.0762
20
-0.0892
10
0.1443
20
-0.1685
10
0.1027
20
-0.1193
10
0.1389
20
-0.1593
10
0.1294
20
-0.1412
10
0.1191
20
-0.1280
10
0.0685
20
-0.0730
10
0.1013
20
-0.1061
10
0.1603
20
-0.1664
10
0.1439
20
-0.1433
10
0.1590
20
-0.1581
10
0.1197
20
-0.1150
10
0.0560
20
-0.0538
10
0.1328
20
-0.1272
10
0.0966
20
-0.0916
10
0.1787
20
-0.1663
10
0.0857
20
-0.0793
10
0.1610
20
-0.1452
10
0.1795
20
-0.1593
10
0.1465
20
-0.1281
10
0.1179
20
-0.1000
10
0.1337
20
-0.1130
10
0.1981
20
-0.1647
10
0.0417
20
-0.0346
10
0.1815
20
-0.1470
10
0.1633
20
-0.1305
10
0.2000
20
-0.1588
10
0.1475
20
-0.1130
10
0.2167
20
-0.1644
10
0.1122
20
-0.0827
10
0.0777
20
-0.0569
10
0.1319
20
-0.0966
10
0.2024
20
-0.1475
10
0.2199
20
-0.1592
10
0.1833
20
-0.1319
10
0.2351
20
-0.1663
10
0.1640
20
-0.1151
10
0.2393
20
-0.1608
10
0.0990
20
-0.0664
10
0.2233
20
-0.1484
10
0.2537
20
-0.1685
10
0.1462
20
-0.0965
10
0.2048
20
-0.1322
10
0.1841
20
-0.1160
10
0.2589
20
-0.1617
10
0.2726
20
-0.1693
10
0.2440
20
-0.1493
10
0.1630
20
-0.0981
10
0.1268
20
-0.0763
10
0.2270
20
-0.1328
10
0.2904
20
-0.1697
10
0.2786
20
-0.1614
10
0.0621
20
-0.0357
10
0.2643
20
-0.1493
10
0.3173
20
-0.1779
10
0.2065
20
-0.1156
10
0.3076
20
-0.1715
10
0.3339
20
-0.1836
10
0.0297
20
-0.0163
10
0.2977
20
-0.1613
10
0.3241
20
-0.1745
10
0.1837
20
-0.0989
10
0.1424
20
-0.0765
10
0.2482
20
-0.1331
10
0.3528
20
-0.1890
10
0.3421
20
-0.1799
10
0.2848
20
-0.1484
10
0.3746
20
-0.1939
10
0.3157
20
-0.1620
10
0.3625
20
-0.1850
10
0.2292
20
-0.1149
10
0.3330
20
-0.1649
10
0.3847
20
-0.1900
10
0.2690
20
-0.1326
10
0.4009
20
-0.1965
10
0.1607
20
-0.0781
10
0.3050
20
-0.1480
10
0.3525
20
-0.1698
10
0.2068
20
-0.0979
10
0.4098
20
-0.1939
10
0.3735
20
-0.1748
10
0.3244
20
-0.1481
10
0.2509
20
-0.1145
10
0.0878
20
-0.0400
10
0.2902
20
-0.1318
10
0.3958
20
-0.1794
10
0.1149
20
-0.0517
10
0.4374
20
-0.1968
10
0.3428
20
-0.1503
10
0.4199
20
-0.1836
10
0.4654
20
-0.2007
10
0.1825
20
-0.0782
10
0.3630
20
-0.1545
10
0.4461
20
-0.1881
10
0.3117
20
-0.1313
10
0.2297
20
-0.0962
10
0.2727
20
-0.1138
10
0.3843
20
-0.1585
10
0.4986
20
-0.2036
10
0.4756
20
-0.1918
10
0.4066
20
-0.1620
10
0.3322
20
-0.1310
10
0.5079
20
-0.1958
10
0.1375
20
-0.0529
10
0.4299
20
-0.1650
10
0.2952
20
-0.1132
10
0.5355
20
-0.2044
10
0.2522
20
-0.0950
10
0.3521
20
-0.1320
10
0.4563
20
-0.1693
10
0.2064
20
-0.0765
10
0.5442
20
-0.1974
10
0.3732
20
-0.1342
10
0.4862
20
-0.1727
10
0.3177
20
-0.1126
10
0.0475
20
-0.0167
10
0.3952
20
-0.1370
10
0.1584
20
-0.0543
10
0.2754
20
-0.0940
10
0.5811
20
-0.1952
10
0.5190
20
-0.1743
10
0.4183
20
-0.1389
10
0.3392
20
-0.1122
10
0.2297
20
-0.0745
10
0.5521
20
-0.1766
10
0.4430
20
-0.1403
10
0.2994
20
-0.0932
10
0.3604
20
-0.1121
10
0.6181
20
-0.1911
10
0.4687
20
-0.1429
10
0.5880
20
-0.1766
10
0.1818
20
-0.0538
10
0.3823
20
-0.1124
10
0.4970
20
-0.1453
10
0.2533
20
-0.0731
10
0.3231
20
-0.0925
10
0.6535
20
-0.1861
10
0.6252
20
-0.1747
10
0.4057
20
-0.1132
10
0.5283
20
-0.1470
10
0.3455
20
-0.0917
10
0.5605
20
-0.1485
10
0.0682
20
-0.0178
10
0.2780
20
-0.0726
10
0.6872
20
-0.1794
10
0.4321
20
-0.1122
10
0.6617
20
-0.1698
10
0.2062
20
-0.0523
10
0.5948
20
-0.1484
10
0.3675
20
-0.0909
10
0.4586
20
-0.1110
10
0.7182
20
-0.1733
10
0.3032
20
-0.0723
10
0.6944
20
-0.1645
10
0.4834
20
-0.1126
10
0.6307
20
-0.1462
10
0.3902
20
-0.0895
10
0.5099
20
-0.1146
10
0.0934
20
-0.0210
10
0.7481
20
-0.1672
10
0.1174
20
-0.0262
10
0.2304
20
-0.0508
10
0.7247
20
-0.1588
10
0.3278
20
-0.0714
10
0.5371
20
-0.1156
10
0.6650
20
-0.1423
10
0.4151
20
-0.0877
10
0.7774
20
-0.1613
10
0.5662
20
-0.1150
10
0.7542
20
-0.1522
10
0.3508
20
-0.0698
10
0.1378
20
-0.0274
10
0.6971
20
-0.1371
10
0.2553
20
-0.0500
10
0.8053
20
-0.1556
10
0.5978
20
-0.1134
10
0.4442
20
-0.0828
10
0.7830
20
-0.1449
10
0.3731
20
-0.0683
10
0.7269
20
-0.1312
10
0.8314
20
-0.1498
10
0.2813
20
-0.0504
10
0.6303
20
-0.1107
10
0.1589
20
-0.0278
10
0.8102
20
-0.1374
10
0.3069
20
-0.0520
10
0.8577
20
-0.1444
10
0.3964
20
-0.0660
10
0.9328
20
-0.1544
10
0.7557
20
-0.1244
10
0.9636
20
-0.1578
10
0.6634
20
-0.1070
10
0.8832
20
-0.1423
10
0.5042
20
-0.0812
10
0.5260
20
-0.0835
10
0.8367
20
-0.1320
10
0.4800
20
-0.0739
10
0.9100
20
-0.1397
10
0.3315
20
-0.0503
10
0.5482
20
-0.0831
10
0.1825
20
-0.0276
10
0.8627
20
-0.1294
10
0.7835
20
-0.1171
10
0.4215
20
-0.0629
10
0.6953
20
-0.1022
10
0.8872
20
-0.1285
10
0.5723
20
-0.0811
10
0.9396
20
-0.1311
10
0.9706
20
-0.1346
10
0.8112
20
-0.1108
10
1.0018
20
-0.1362
10
0.9099
20
-0.1236
10
0.3547
20
-0.0474
10
1.0353
20
-0.1379
10
0.7257
20
-0.0964
10
0.5987
20
-0.0786
10
0.2071
20
-0.0265
10
1.3524
20
-0.1728
10
0.4492
20
-0.0573
10
0.9272
20
-0.1182
10
0.8382
20
-0.1064
10
1.3549
20
-0.1713
10
1.0701
20
-0.1350
10
1.3489
20
-0.1692
10
1.3448
20
-0.1683
10
1.3564
20
-0.1697
10
1.3480
20
-0.1684
10
1.3581
20
-0.1693
10
1.3416
20
-0.1661
10
1.3511
20
-0.1670
10
1.3652
20
-0.1666
10
1.3446
20
-0.1639
10
1.3640
20
-0.1659
10
1.3595
20
-0.1653
10
1.3549
20
-0.1642
10
1.3632
20
-0.1652
10
1.3631
20
-0.1648
10
1.3652
20
-0.1647
10
1.3378
20
-0.1610
10
0.7548
20
-0.0907
10
0.3771
20
-0.0453
10
0.6278
20
-0.0753
10
1.3644
20
-0.1634
10
1.3473
20
-0.1605
10
1.3590
20
-0.1607
10
0.8646
20
-0.1022
10
1.3504
20
-0.1595
10
1.3539
20
-0.1596
10
1.3569
20
-0.1592
10
1.3537
20
-0.1581
10
1.3647
20
-0.1591
10
1.3444
20
-0.1566
10
1.3584
20
-0.1579
10
1.3640
20
-0.1581
10
1.3330
20
-0.1542
10
1.3620
20
-0.1573
10
1.3652
20
-0.1571
10
1.3485
20
-0.1549
10
1.3651
20
-0.1562
10
1.3384
20
-0.1520
10
1.3547
20
-0.1539
10
1.3659
20
-0.1540
10
1.3680
20
-0.1538
10
1.3635
20
-0.1531
10
1.3579
20
-0.1525
10
0.8889
20
-0.0997
10
1.3687
20
-0.1525
10
1.3669
20
-0.1522
10
1.3310
20
-0.1474
10
1.3680
20
-0.1510
10
1.3632
20
-0.1493
10
0.7827
20
-0.0856
10
0.2316
20
-0.0252
10
1.3574
20
-0.1476
10
0.9113
20
-0.0991
10
0.6587
20
-0.0713
10
1.3537
20
-0.1464
10
1.3493
20
-0.1458
10
0.9295
20
-0.1003
10
1.3096
20
-0.1409
10
1.3219
20
-0.1420
10
0.4004
20
-0.0429
10
1.3631
20
-0.1457
10
0.9505
20
-0.1014
10
1.3557
20
-0.1446
10
1.3570
20
-0.1447
10
1.3683
20
-0.1454
10
1.3614
20
-0.1445
10
1.3657
20
-0.1445
10
1.0040
20
-0.1060
10
1.3682
20
-0.1437
10
0.9759
20
-0.1025
10
1.0373
20
-0.1083
10
1.3567
20
-0.1415
10
1.3458
20
-0.1401
10
1.3662
20
-0.1418
10
1.3599
20
-0.1406
10
0.3107
20
-0.0320
10
1.3487
20
-0.1388
10
1.3544
20
-0.1386
10
0.5278
20
-0.0539
10
1.3659
20
-0.1396
10
1.3628
20
-0.1391
10
1.3687
20
-0.1395
10
1.3679
20
-0.1388
10
1.3571
20
-0.1377
10
0.5435
20
-0.0551
10
0.4775
20
-0.0484
10
1.3373
20
-0.1354
10
1.3679
20
-0.1380
10
1.0725
20
-0.1080
10
1.3665
20
-0.1373
10
1.3631
20
-0.1358
10
0.8098
20
-0.0806
10
1.3272
20
-0.1314
10
0.6899
20
-0.0681
10
0.2576
20
-0.0251
10
1.3571
20
-0.1317
10
1.3686
20
-0.1327
10
1.3143
20
-0.1268
10
1.3600
20
-0.1307
10
1.3638
20
-0.1307
10
1.3690
20
-0.1309
10
1.3550
20
-0.1295
10
1.2996
20
-0.1240
10
0.5604
20
-0.0534
10
1.3669
20
-0.1288
10
0.4253
20
-0.0400
10
1.3502
20
-0.1269
10
1.3572
20
-0.1273
10
0.5133
20
-0.0479
10
1.2876
20
-0.1193
10
1.3633
20
-0.1255
10
0.8366
20
-0.0770
10
1.3582
20
-0.1243
10
1.3527
20
-0.1237
10
0.9265
20
-0.0846
10
1.3640
20
-0.1245
10
1.3567
20
-0.1234
10
1.3679
20
-0.1242
10
1.3450
20
-0.1217
10
0.7208
20
-0.0651
10
1.3608
20
-0.1227
10
1.3664
20
-0.1231
10
1.3680
20
-0.1231
10
1.3482
20
-0.1213
10
1.3669
20
-0.1212
10
1.3658
20
-0.1211
10
0.2860
20
-0.0253
10
1.3357
20
-0.1176
10
1.3656
20
-0.1202
10
1.3624
20
-0.1196
10
0.5788
20
-0.0502
10
0.8626
20
-0.0748
10
1.3565
20
-0.1173
10
1.3606
20
-0.1176
10
1.3233
20
-0.1138
10
1.3680
20
-0.1170
10
1.3633
20
-0.1161
10
1.3530
20
-0.1138
10
0.9109
20
-0.0764
10
1.3096
20
-0.1094
10
0.8890
20
-0.0739
10
1.3681
20
-0.1135
10
0.7508
20
-0.0619
10
1.2971
20
-0.1049
10
1.3669
20
-0.1103
10
1.3488
20
-0.1086
10
1.3581
20
-0.1088
10
0.9714
20
-0.0776
10
1.2864
20
-0.1026
10
1.0013
20
-0.0797
10
1.3571
20
-0.1071
10
1.3614
20
-0.1072
10
0.4512
20
-0.0355
10
0.9408
20
-0.0738
10
0.3347
20
-0.0263
10
0.6005
20
-0.0467
10
1.3600
20
-0.1043
10
1.3578
20
-0.1041
10
1.3450
20
-0.1022
10
1.3579
20
-0.1023
10
1.3666
20
-0.1025
10
1.3628
20
-0.1020
10
0.7786
20
-0.0582
10
1.3678
20
-0.1019
10
1.3672
20
-0.1015
10
1.3331
20
-0.0985
10
0.5019
20
-0.0370
10
1.3460
20
-0.0989
10
1.3474
20
-0.0987
10
1.3679
20
-0.0992
10
1.3673
20
-0.0988
10
1.3620
20
-0.0983
10
1.3517
20
-0.0961
10
1.3229
20
-0.0939
10
1.3673
20
-0.0960
10
0.6253
20
-0.0438
10
0.8064
20
-0.0557
10
0.9118
20
-0.0626
10
0.3578
20
-0.0241
10
1.3153
20
-0.0884
10
1.2890
20
-0.0862
10
1.3533
20
-0.0904
10
0.8596
20
-0.0566
10
0.8865
20
-0.0581
10
1.3062
20
-0.0841
10
1.3675
20
-0.0879
10
0.8342
20
-0.0536
10
1.3588
20
-0.0872
10
0.6520
20
-0.0415
10
1.3533
20
-0.0861
10
1.3675
20
-0.0853
10
0.4758
20
-0.0296
10
1.3501
20
-0.0841
10
1.3644
20
-0.0845
10
1.3659
20
-0.0844
10
1.3409
20
-0.0825
10
1.3661
20
-0.0840
10
1.3447
20
-0.0825
10
1.3675
20
-0.0836
10
1.3673
20
-0.0830
10
0.6809
20
-0.0410
10
1.3455
20
-0.0809
10
1.3323
20
-0.0785
10
0.3799
20
-0.0224
10
1.3354
20
-0.0778
10
1.3340
20
-0.0777
10
1.3469
20
-0.0784
10
1.3295
20
-0.0759
10
1.3607
20
-0.0764
10
0.7119
20
-0.0397
10
1.3556
20
-0.0753
10
1.3575
20
-0.0748
10
0.5490
20
-0.0297
10
1.3513
20
-0.0730
10
0.7427
20
-0.0394
10
1.3539
20
-0.0712
10
0.5591
20
-0.0289
10
0.4029
20
-0.0208
10
0.3123
20
-0.0159
10
0.4961
20
-0.0245
10
0.5706
20
-0.0280
10
0.7718
20
-0.0374
10
0.5390
20
-0.0257
10
0.8828
20
-0.0420
10
0.8004
20
-0.0373
10
0.8286
20
-0.0386
10
0.8561
20
-0.0396
10
0.5198
20
-0.0239
10
0.2991
20
-0.0136
10
0.3252
20
-0.0144
10
0.4275
20
-0.0188
10
0.5842
20
-0.0256
10
0.5091
20
-0.0196
10
0.6009
20
-0.0226
10
0.4525
20
-0.0162
10
0.7342
20
-0.0247
10
0.7028
20
-0.0232
10
0.7642
20
-0.0251
10
0.8212
20
-0.0269
10
0.6217
20
-0.0204
10
0.7931
20
-0.0253
10
0.6733
20
-0.0207
10
0.6457
20
-0.0197
10
0.4758
20
-0.0135
10
0.7280
20
-0.0191
10
0.4956
20
-0.0118
10
0.6975
20
-0.0149
10
0.5625
20
-0.0116
10
0.5585
20
-0.0114
10
0.5118
20
-0.0102
10
0.5267
20
-0.0104
10
0.5681
20
-0.0102
10
0.5758
20
-0.0098
10
0.5417
20
-0.0085
10
0.6675
20
-0.0098
10
0.5858
20
-0.0085
10
0.0021
20
-0.0000
10
0.5994
20
-0.0064
10
0.6399
20
-0.0063
10
0.5631
20
-0.0054
10
0.6174
20
-0.0053
10
0.5644
20
-0.0040
10
0.5688
20
-0.0025
10
0.6325
20
-0.0023
10
0.5598
20
-0.0013
10
0.5514
20
-0.0013
10
0.0150
20
-0.0000
10
0.5616
20
-0.0009
10
0.5540
20
-0.0007
10
0.5653
20
-0.0007
10
0.5745
20
-0.0007
10
0.5563
20
-0.0006
10
0.5932
20
-0.0005
10
0.0323
20
-0.0000
10
0.0502
20
-0.0000
10
0.0715
20
-0.0000
10
0.0963
20
-0.0000
10
0.5826
20
-0.0002
10
0.1200
20
-0.0000
10
0.5623
20
-0.0001
10
0.1400
20
-0.0000
10
0.1615
20
-0.0000
10
0.1845
20
-0.0000
10
0.2082
20
-0.0000
10
0.2314
20
-0.0000
10
0.2558
20
-0.0000
10
0.2805
20
-0.0000
10
0.2975
20
-0.0000
10
0.3121
20
-0.0000
10
0.3264
20
-0.0000
10
0.3408
20
-0.0000
10
0.3602
20
-0.0000
10
0.3818
20
-0.0000
10
0.4045
20
-0.0000
10
0.4289
20
-0.0000
10
0.4538
20
-0.0000
10
0.4770
20
-0.0000
10
0.4972
20
-0.0000
10
0.5139
20
-0.0000
10
0.5285
20
-0.0000
10
0.5417
20
-0.0000
10
0.5530
20
-0.0000
10
0.5633
20
-0.0000
10
0.5625
20
-0.0000
10
0.5573
20
-0.0000
10
0.5813
20
0.0000
10
0.5515
20
0.0000
10
0.6092
20
0.0000
10
0.5500
20
0.0000
10
0.6092
20
0.0000
10
0.5813
20
0.0000
10
0.5623
20
0.0001
10
0.5826
20
0.0002
10
0.5932
20
0.0005
10
0.5563
20
0.0006
10
0.5746
20
0.0007
10
0.5653
20
0.0007
10
0.5540
20
0.0007
10
0.5616
20
0.0009
10
0.5514
20
0.0013
10
0.5598
20
0.0013
10
0.6325
20
0.0023
10
0.5688
20
0.0025
10
0.5644
20
0.0040
10
0.6174
20
0.0053
10
0.5631
20
0.0054
10
0.6399
20
0.0063
10
0.5994
20
0.0064
10
0.5858
20
0.0085
10
0.6675
20
0.0098
10
0.5417
20
0.0084
10
0.5758
20
0.0098
10
0.5681
20
0.0102
10
0.5267
20
0.0104
10
0.5118
20
0.0102
10
0.5585
20
0.0113
10
0.5625
20
0.0116
10
0.6975
20
0.0149
10
0.4956
20
0.0117
10
0.7280
20
0.0191
10
0.4758
20
0.0135
10
0.6457
20
0.0197
10
0.6733
20
0.0207
10
0.7931
20
0.0253
10
0.6217
20
0.0203
10
0.8212
20
0.0269
10
0.7642
20
0.0251
10
0.7027
20
0.0232
10
0.7342
20
0.0247
10
0.4525
20
0.0161
10
0.6009
20
0.0226
10
0.5091
20
0.0195
10
0.5842
20
0.0255
10
0.4275
20
0.0187
10
0.3252
20
0.0143
10
0.2991
20
0.0135
10
0.5198
20
0.0238
10
0.8561
20
0.0396
10
0.8286
20
0.0386
10
0.8004
20
0.0373
10
0.8828
20
0.0420
10
0.5390
20
0.0257
10
0.7718
20
0.0374
10
0.5706
20
0.0280
10
0.4961
20
0.0244
10
0.3123
20
0.0158
10
0.4029
20
0.0207
10
0.5591
20
0.0289
10
1.3539
20
0.0712
10
0.7427
20
0.0394
10
0.5490
20
0.0297
10
1.3513
20
0.0731
10
1.3575
20
0.0748
10
1.3556
20
0.0754
10
0.7119
20
0.0397
10
1.3607
20
0.0764
10
1.3295
20
0.0759
10
1.3469
20
0.0784
10
1.3340
20
0.0777
10
1.3354
20
0.0778
10
0.3799
20
0.0223
10
1.3323
20
0.0786
10
0.6809
20
0.0410
10
1.3455
20
0.0810
10
1.3673
20
0.0830
10
1.3675
20
0.0836
10
1.3447
20
0.0825
10
1.3661
20
0.0840
10
1.3409
20
0.0825
10
1.3659
20
0.0844
10
1.3644
20
0.0845
10
0.4758
20
0.0296
10
1.3501
20
0.0841
10
1.3675
20
0.0853
10
1.3533
20
0.0861
10
0.6520
20
0.0415
10
0.8342
20
0.0536
10
1.3588
20
0.0872
10
1.3675
20
0.0879
10
1.3062
20
0.0841
10
0.8865
20
0.0581
10
0.8596
20
0.0566
10
1.3533
20
0.0905
10
1.2890
20
0.0863
10
0.3578
20
0.0240
10
1.3153
20
0.0884
10
0.9118
20
0.0626
10
0.8064
20
0.0557
10
0.6253
20
0.0438
10
1.3673
20
0.0960
10
1.3229
20
0.0939
10
1.3517
20
0.0961
10
1.3620
20
0.0983
10
1.3673
20
0.0989
10
1.3679
20
0.0992
10
1.3474
20
0.0987
10
1.3460
20
0.0989
10
0.5019
20
0.0370
10
1.3331
20
0.0985
10
1.3672
20
0.1015
10
1.3678
20
0.1019
10
0.7786
20
0.0582
10
1.3628
20
0.1021
10
1.3666
20
0.1025
10
1.3579
20
0.1024
10
1.3450
20
0.1022
10
1.3578
20
0.1041
10
1.3600
20
0.1043
10
0.6005
20
0.0467
10
0.3347
20
0.0262
10
0.4512
20
0.0354
10
0.9408
20
0.0739
10
1.3614
20
0.1072
10
1.3571
20
0.1071
10
1.0013
20
0.0797
10
1.2863
20
0.1027
10
0.9714
20
0.0776
10
1.3581
20
0.1088
10
1.3488
20
0.1086
10
1.3669
20
0.1104
10
1.2970
20
0.1050
10
0.7508
20
0.0619
10
1.3681
20
0.1135
10
0.8890
20
0.0739
10
1.3096
20
0.1094
10
0.9109
20
0.0764
10
1.3530
20
0.1138
10
1.3633
20
0.1161
10
1.3680
20
0.1170
10
1.3233
20
0.1138
10
1.3565
20
0.1173
10
1.3606
20
0.1177
10
0.8626
20
0.0748
10
0.5788
20
0.0502
10
1.3624
20
0.1196
10
1.3656
20
0.1202
10
1.3357
20
0.1176
10
0.2860
20
0.0252
10
1.3658
20
0.1211
10
1.3669
20
0.1212
10
1.3482
20
0.1213
10
1.3680
20
0.1231
10
1.3664
20
0.1231
10
1.3608
20
0.1228
10
0.7208
20
0.0651
10
1.3450
20
0.1218
10
1.3679
20
0.1242
10
1.3567
20
0.1234
10
1.3640
20
0.1245
10
0.9265
20
0.0846
10
1.3527
20
0.1237
10
1.3582
20
0.1243
10
0.8366
20
0.0770
10
1.3633
20
0.1255
10
1.2876
20
0.1193
10
0.5133
20
0.0478
10
1.3572
20
0.1273
10
1.3502
20
0.1269
10
0.4253
20
0.0400
10
1.3669
20
0.1288
10
0.5604
20
0.0534
10
1.2996
20
0.1240
10
1.3550
20
0.1295
10
1.3689
20
0.1309
10
1.3638
20
0.1307
10
1.3600
20
0.1307
10
1.3143
20
0.1268
10
1.3686
20
0.1327
10
1.3571
20
0.1317
10
0.2576
20
0.0250
10
0.6899
20
0.0681
10
1.3272
20
0.1314
10
0.8098
20
0.0806
10
1.3631
20
0.1358
10
1.3665
20
0.1373
10
1.0725
20
0.1080
10
1.3679
20
0.1381
10
1.3373
20
0.1354
10
0.4775
20
0.0484
10
0.5435
20
0.0551
10
1.3571
20
0.1377
10
1.3679
20
0.1388
10
1.3687
20
0.1395
10
1.3627
20
0.1391
10
0.5278
20
0.0539
10
1.3659
20
0.1396
10
1.3544
20
0.1386
10
0.3107
20
0.0319
10
1.3487
20
0.1388
10
1.3599
20
0.1407
10
1.3662
20
0.1418
10
1.3458
20
0.1401
10
1.3567
20
0.1415
10
1.0373
20
0.1083
10
0.9759
20
0.1025
10
1.3682
20
0.1437
10
1.0040
20
0.1060
10
1.3657
20
0.1446
10
1.3614
20
0.1445
10
1.3683
20
0.1454
10
1.3570
20
0.1447
10
1.3557
20
0.1447
10
0.9505
20
0.1014
10
1.3631
20
0.1457
10
0.4004
20
0.0429
10
1.3219
20
0.1420
10
1.3096
20
0.1410
10
0.9295
20
0.1004
10
1.3493
20
0.1459
10
1.3537
20
0.1464
10
0.6587
20
0.0713
10
0.2316
20
0.0252
10
0.9113
20
0.0991
10
1.3574
20
0.1476
10
0.7827
20
0.0856
10
1.3632
20
0.1494
10
1.3679
20
0.1511
10
1.3310
20
0.1474
10
1.3669
20
0.1522
10
1.3687
20
0.1525
10
0.8889
20
0.0998
10
1.3579
20
0.1525
10
1.3635
20
0.1531
10
1.3680
20
0.1538
10
1.3659
20
0.1540
10
1.3547
20
0.1539
10
1.3384
20
0.1521
10
1.3651
20
0.1562
10
1.3485
20
0.1549
10
1.3652
20
0.1571
10
1.3620
20
0.1573
10
1.3330
20
0.1542
10
1.3640
20
0.1582
10
1.3584
20
0.1579
10
1.3444
20
0.1567
10
1.3647
20
0.1591
10
1.3537
20
0.1581
10
1.3569
20
0.1592
10
1.3539
20
0.1596
10
1.3504
20
0.1595
10
0.8646
20
0.1022
10
1.3589
20
0.1608
10
1.3473
20
0.1605
10
1.3644
20
0.1635
10
0.6278
20
0.0753
10
0.3771
20
0.0452
10
0.7548
20
0.0907
10
1.3378
20
0.1611
10
1.3652
20
0.1648
10
1.3631
20
0.1649
10
1.3631
20
0.1652
10
1.3549
20
0.1642
10
1.3595
20
0.1653
10
1.3640
20
0.1659
10
1.3446
20
0.1640
10
1.3652
20
0.1667
10
1.3511
20
0.1670
10
1.3416
20
0.1661
10
1.3581
20
0.1693
10
1.3480
20
0.1684
10
1.3564
20
0.1697
10
1.3448
20
0.1683
10
1.3489
20
0.1692
10
1.0701
20
0.1350
10
1.3549
20
0.1714
10
0.8381
20
0.1064
10
0.9271
20
0.1182
10
0.4492
20
0.0573
10
0.2071
20
0.0264
10
1.3524
20
0.1729
10
0.5987
20
0.0786
10
0.7257
20
0.0964
10
1.0352
20
0.1380
10
0.3547
20
0.0473
10
0.9099
20
0.1236
10
1.0018
20
0.1363
10
0.8112
20
0.1108
10
0.9706
20
0.1346
10
0.9396
20
0.1311
10
0.5723
20
0.0810
10
0.8872
20
0.1285
10
0.6953
20
0.1022
10
0.4215
20
0.0629
10
0.7835
20
0.1171
10
0.8626
20
0.1294
10
0.1825
20
0.0275
10
0.3315
20
0.0502
10
0.5482
20
0.0831
10
0.9100
20
0.1397
10
0.4800
20
0.0739
10
0.8367
20
0.1320
10
0.5260
20
0.0835
10
0.5042
20
0.0811
10
0.8832
20
0.1424
10
0.6634
20
0.1070
10
0.9636
20
0.1579
10
0.7557
20
0.1244
10
0.9328
20
0.1545
10
0.3964
20
0.0659
10
0.8577
20
0.1444
10
0.3069
20
0.0520
10
0.8102
20
0.1374
10
0.1589
20
0.0277
10
0.6303
20
0.1107
10
0.2813
20
0.0504
10
0.8314
20
0.1498
10
0.7269
20
0.1312
10
0.3731
20
0.0682
10
0.7830
20
0.1449
10
0.4442
20
0.0827
10
0.5978
20
0.1134
10
0.8052
20
0.1556
10
0.2553
20
0.0499
10
0.6971
20
0.1371
10
0.1378
20
0.0273
10
0.3508
20
0.0697
10
0.7542
20
0.1521
10
0.5662
20
0.1149
10
0.7773
20
0.1614
10
0.4151
20
0.0876
10
0.6650
20
0.1423
10
0.5371
20
0.1155
10
0.3278
20
0.0713
10
0.7247
20
0.1588
10
0.2304
20
0.0507
10
0.1174
20
0.0261
10
0.7481
20
0.1672
10
0.0934
20
0.0209
10
0.5099
20
0.1145
10
0.3902
20
0.0894
10
0.6307
20
0.1462
10
0.4834
20
0.1126
10
0.6944
20
0.1644
10
0.3032
20
0.0722
10
0.7181
20
0.1733
10
0.4586
20
0.1110
10
0.3675
20
0.0908
10
0.5948
20
0.1483
10
0.2062
20
0.0522
10
0.6616
20
0.1697
10
0.4321
20
0.1121
10
0.0682
20
0.0178
10
0.2780
20
0.0725
10
0.6872
20
0.1794
10
0.5605
20
0.1484
10
0.3455
20
0.0916
10
0.5283
20
0.1470
10
0.4057
20
0.1131
10
0.6252
20
0.1747
10
0.6535
20
0.1861
10
0.3231
20
0.0924
10
0.2533
20
0.0730
10
0.4970
20
0.1453
10
0.3823
20
0.1123
10
0.1818
20
0.0538
10
0.5880
20
0.1766
10
0.4687
20
0.1428
10
0.6181
20
0.1911
10
0.3603
20
0.1121
10
0.2994
20
0.0932
10
0.4430
20
0.1403
10
0.5521
20
0.1765
10
0.2297
20
0.0744
10
0.3392
20
0.1121
10
0.4183
20
0.1389
10
0.5190
20
0.1743
10
0.5811
20
0.1952
10
0.2754
20
0.0940
10
0.1584
20
0.0542
10
0.3952
20
0.1370
10
0.0475
20
0.0166
10
0.3177
20
0.1126
10
0.4862
20
0.1726
10
0.3732
20
0.1342
10
0.5442
20
0.1973
10
0.2064
20
0.0765
10
0.4563
20
0.1692
10
0.3521
20
0.1320
10
0.2522
20
0.0949
10
0.5354
20
0.2044
10
0.2952
20
0.1132
10
0.4299
20
0.1650
10
0.1375
20
0.0528
10
0.5079
20
0.1958
10
0.3322
20
0.1309
10
0.4065
20
0.1619
10
0.4756
20
0.1918
10
0.4986
20
0.2036
10
0.3843
20
0.1585
10
0.2727
20
0.1138
10
0.2297
20
0.0962
10
0.3117
20
0.1313
10
0.4461
20
0.1881
10
0.3630
20
0.1545
10
0.1825
20
0.0782
10
0.4654
20
0.2007
10
0.4199
20
0.1836
10
0.3428
20
0.1503
10
0.1149
20
0.0517
10
0.4373
20
0.1968
10
0.3958
20
0.1794
10
0.2902
20
0.1317
10
0.0878
20
0.0400
10
0.2508
20
0.1144
10
0.3244
20
0.1480
10
0.3735
20
0.1748
10
0.4098
20
0.1938
10
0.2068
20
0.0979
10
0.3524
20
0.1697
10
0.3050
20
0.1480
10
0.1607
20
0.0780
10
0.4009
20
0.1965
10
0.2690
20
0.1326
10
0.3847
20
0.1899
10
0.3330
20
0.1648
10
0.2292
20
0.1149
10
0.3625
20
0.1850
10
0.3157
20
0.1620
10
0.3746
20
0.1939
10
0.2848
20
0.1484
10
0.3421
20
0.1799
10
0.3528
20
0.1890
10
0.2482
20
0.1331
10
0.1424
20
0.0764
10
0.1837
20
0.0989
10
0.3241
20
0.1745
10
0.2977
20
0.1613
10
0.0297
20
0.0163
10
0.3339
20
0.1836
10
0.3076
20
0.1715
10
0.2065
20
0.1156
10
0.3172
20
0.1779
10
0.2643
20
0.1493
10
0.0621
20
0.0357
10
0.2786
20
0.1614
10
0.2904
20
0.1697
10
0.2269
20
0.1327
10
0.1268
20
0.0762
10
0.1630
20
0.0981
10
0.2440
20
0.1493
10
0.2726
20
0.1693
10
0.2589
20
0.1617
10
0.1841
20
0.1160
10
0.2048
20
0.1322
10
0.1462
20
0.0964
10
0.2537
20
0.1685
10
0.2233
20
0.1483
10
0.0990
20
0.0664
10
0.2393
20
0.1608
10
0.1640
20
0.1150
10
0.2351
20
0.1663
10
0.1833
20
0.1319
10
0.2199
20
0.1592
10
0.2024
20
0.1474
10
0.0777
20
0.0568
10
0.1319
20
0.0965
10
0.1122
20
0.0826
10
0.2167
20
0.1644
10
0.1475
20
0.1129
10
0.2000
20
0.1588
10
0.1633
20
0.1304
10
0.1815
20
0.1470
10
0.0417
20
0.0346
10
0.1981
20
0.1647
10
0.1337
20
0.1129
10
0.1179
20
0.1000
10
0.1465
20
0.1280
10
0.1795
20
0.1593
10
0.1610
20
0.1452
10
0.0857
20
0.0792
10
0.1787
20
0.1663
10
0.0966
20
0.0916
10
0.1328
20
0.1272
10
0.0560
20
0.0537
10
0.1197
20
0.1150
10
0.1590
20
0.1581
10
0.1439
20
0.1433
10
0.1603
20
0.1664
10
0.1013
20
0.1060
10
0.0685
20
0.0729
10
0.1191
20
0.1280
10
0.1294
20
0.1411
10
0.1388
20
0.1593
10
0.1027
20
0.1192
10
0.1443
20
0.1685
10
0.0762
20
0.0891
10
0.1157
20
0.1396
10
0.0800
20
0.0994
10
0.1221
20
0.1538
10
0.0129
20
0.0163
10
0.1022
20
0.1307
10
0.1302
20
0.1748
10
0.0824
20
0.1123
10
0.1233
20
0.1691
10
0.0248
20
0.0342
10
0.0633
20
0.0878
10
0.1082
20
0.1505
10
0.0510
20
0.0712
10
0.0376
20
0.0529
10
0.0998
20
0.1403
10
0.1113
20
0.1630
10
0.0837
20
0.1245
10
0.0943
20
0.1486
10
0.0841
20
0.1345
10
0.0633
20
0.1017
10
0.1082
20
0.1750
10
0.0978
20
0.1587
10
0.0839
20
0.1422
10
0.0982
20
0.1692
10
0.0837
20
0.1475
10
0.0645
20
0.1150
10
0.0849
20
0.1556
10
0.0478
20
0.0877
10
0.0658
20
0.1268
10
0.0854
20
0.1645
10
0.0922
20
0.1785
10
0.0748
20
0.1514
10
0.0673
20
0.1367
10
0.0346
20
0.0711
10
0.0841
20
0.1729
10
0.0698
20
0.1449
10
0.0476
20
0.1029
10
0.0729
20
0.1607
10
0.0783
20
0.1804
10
0.0720
20
0.1685
10
0.0486
20
0.1165
10
0.0630
20
0.1555
10
0.0710
20
0.1753
10
0.0209
20
0.0532
10
0.0503
20
0.1287
10
0.0563
20
0.1480
10
0.0524
20
0.1390
10
0.0328
20
0.0884
10
0.0594
20
0.1647
10
0.0652
20
0.1825
10
0.0589
20
0.1716
10
0.0578
20
0.1780
10
0.0328
20
0.1042
10
0.0492
20
0.1590
10
0.0340
20
0.1183
10
0.0428
20
0.1510
10
0.0463
20
0.1684
10
0.0359
20
0.1308
10
0.0387
20
0.1417
10
0.0474
20
0.1752
10
0.0189
20
0.0718
10
0.0474
20
0.1820
10
0.0084
20
0.0347
10
0.0355
20
0.1625
10
0.0395
20
0.1871
10
0.0374
20
0.1800
10
0.0347
20
0.1726
10
0.0180
20
0.0896
10
0.0288
20
0.1543
10
0.0335
20
0.1934
10
0.0181
20
0.1060
10
0.0245
20
0.1445
10
0.0214
20
0.1333
10
0.0193
20
0.1206
10
0.0283
20
0.1865
10
0.0234
20
0.1669
10
0.0241
20
0.1782
10
0.0197
20
0.1954
10
0.0052
20
0.0541
10
0.0146
20
0.1584
10
0.0124
20
0.1856
10
0.0105
20
0.1720
10
0.0089
20
0.1480
10
0.0105
20
0.2067
10
0.0034
20
0.0730
10
0.0091
20
0.2170
10
0.0057
20
0.1362
10
0.0036
20
0.1230
10
0.0025
20
0.0912
10
0.0025
20
0.1080
10
0.0053
20
0.2381
10
-0.0009
20
0.1623
10
-0.0043
20
0.2080
10
-0.0041
20
0.1770
10
-0.0068
20
0.2908
10
-0.0050
20
0.1948
10
-0.0079
20
0.2715
10
-0.0067
20
0.2231
10
-0.0089
20
0.2548
10
-0.0086
20
0.2389
10
-0.0192
20
0.3351
10
-0.0090
20
0.1508
10
-0.0012
20
0.0169
10
-0.0223
20
0.3111
10
-0.0247
20
0.2896
10
-0.0119
20
0.1392
10
-0.0274
20
0.2725
10
-0.0171
20
0.1652
10
-0.0134
20
0.1257
10
-0.0295
20
0.2561
10
-0.0386
20
0.3331
10
-0.0294
20
0.2407
10
-0.0140
20
0.1102
10
-0.0230
20
0.1798
10
-0.0295
20
0.2253
10
-0.0419
20
0.3092
10
-0.0307
20
0.2098
10
-0.0137
20
0.0930
10
-0.0455
20
0.2885
10
-0.0123
20
0.0746
10
-0.0259
20
0.1533
10
-0.0487
20
0.2708
10
-0.0102
20
0.0552
10
-0.0067
20
0.0359
10
-0.0374
20
0.1942
10
-0.0508
20
0.2544
10
-0.0303
20
0.1413
10
-0.0358
20
0.1664
10
-0.0521
20
0.2391
10
-0.0548
20
0.2235
10
-0.0315
20
0.1279
10
-0.0683
20
0.2679
10
-0.0488
20
0.1785
10
-0.0316
20
0.1124
10
-0.0438
20
0.1546
10
-0.0590
20
0.2078
10
-0.0713
20
0.2507
10
-0.0747
20
0.2356
10
-0.0306
20
0.0950
10
-0.0482
20
0.1428
10
-0.0667
20
0.1912
10
-0.0581
20
0.1658
10
-0.0797
20
0.2213
10
-0.0282
20
0.0763
10
-0.0500
20
0.1300
10
-0.0857
20
0.2068
10
-0.0648
20
0.1557
10
-0.0751
20
0.1775
10
-0.0499
20
0.1145
10
-0.0248
20
0.0567
10
-0.0680
20
0.1450
10
-0.0930
20
0.1926
10
-0.0826
20
0.1667
10
-0.0482
20
0.0969
10
-0.0685
20
0.1330
10
-0.1005
20
0.1807
10
-0.0882
20
0.1574
10
-0.0440
20
0.0777
10
-0.0211
20
0.0369
10
-0.0686
20
0.1174
10
-0.0905
20
0.1475
10
-0.1066
20
0.1704
10
-0.0893
20
0.1361
10
-0.0667
20
0.0989
10
-0.1104
20
0.1603
10
-0.0397
20
0.0575
10
-0.0876
20
0.1221
10
-0.0611
20
0.0778
10
-0.0875
20
0.1015
10
-0.0162
20
0.0177
10
-0.0362
20
0.0373
10
-0.0557
20
0.0566
10
-0.0790
20
0.0764
10
-0.1003
20
0.0890
10
-0.0915
20
0.0715
10
-0.0721
20
0.0543
10
-0.1089
20
0.0813
10
-0.0518
20
0.0364
10
-0.0996
20
0.0652
10
-0.0842
20
0.0508
10
-0.0327
20
0.0181
10
-0.1098
20
0.0602
10
-0.1240
20
0.0660
10
-0.0676
20
0.0342
10
-0.0928
20
0.0467
10
-0.1315
20
0.0601
10
-0.1198
20
0.0533
10
-0.1020
20
0.0434
10
-0.0794
20
0.0320
10
-0.1396
20
0.0556
10
-0.1281
20
0.0491
10
-0.1491
20
0.0558
10
-0.1121
20
0.0408
10
-0.0488
20
0.0177
10
-0.1583
20
0.0558
10
-0.2329
20
0.0806
10
-0.2312
20
0.0793
10
-0.1356
20
0.0463
10
-0.1685
20
0.0562
10
-0.2382
20
0.0795
10
-0.2289
20
0.0764
10
-0.2272
20
0.0756
10
-0.0887
20
0.0294
10
-0.2325
20
0.0761
10
-0.2411
20
0.0786
10
-0.2380
20
0.0774
10
-0.1438
20
0.0463
10
-0.2339
20
0.0751
10
-0.2295
20
0.0730
10
-0.2467
20
0.0783
10
-0.1212
20
0.0384
10
-0.2452
20
0.0774
10
-0.1822
20
0.0575
10
-0.2304
20
0.0726
10
-0.2350
20
0.0741
10
-0.2278
20
0.0718
10
-0.2385
20
0.0749
10
-0.2439
20
0.0766
10
-0.2271
20
0.0709
10
-0.2318
20
0.0717
10
-0.2443
20
0.0754
10
-0.2488
20
0.0766
10
-0.2392
20
0.0736
10
-0.2315
20
0.0711
10
-0.2470
20
0.0757
10
-0.2364
20
0.0725
10
-0.2333
20
0.0708
10
-0.1526
20
0.0463
10
-0.1983
20
0.0601
10
-0.2340
20
0.0709
10
-0.2262
20
0.0685
10
-0.2343
20
0.0709
10
-0.2210
20
0.0666
10
-0.2450
20
0.0737
10
-0.2339
20
0.0702
10
-0.2398
20
0.0719
10
-0.2478
20
0.0743
10
-0.2165
20
0.0648
10
-0.2153
20
0.0643
10
-0.2292
20
0.0685
10
-0.2887
20
0.0862
10
-0.2502
20
0.0743
10
-0.2346
20
0.0696
10
-0.2093
20
0.0621
10
-0.2808
20
0.0833
10
-0.2516
20
0.0746
10
-0.2535
20
0.0751
10
-0.2147
20
0.0635
10
-0.2352
20
0.0696
10
-0.2425
20
0.0717
10
-0.2344
20
0.0691
10
-0.2556
20
0.0753
10
-0.2439
20
0.0718
10
-0.2577
20
0.0759
10
-0.2340
20
0.0688
10
-0.2133
20
0.0627
10
-0.2481
20
0.0729
10
-0.2039
20
0.0599
10
-0.2504
20
0.0736
10
-0.2528
20
0.0743
10
-0.2505
20
0.0735
10
-0.2288
20
0.0672
10
-0.2788
20
0.0818
10
-0.2469
20
0.0725
10
-0.2348
20
0.0688
10
-0.2006
20
0.0588
10
-0.2421
20
0.0709
10
-0.2551
20
0.0747
10
-0.2448
20
0.0717
10
-0.2342
20
0.0686
10
-0.2246
20
0.0657
10
-0.2331
20
0.0682
10
-0.2341
20
0.0685
10
-0.2434
20
0.0711
10
-0.2461
20
0.0719
10
-0.2314
20
0.0676
10
-0.2348
20
0.0686
10
-0.2346
20
0.0685
10
-0.2391
20
0.0698
10
-0.2334
20
0.0682
10
-0.2457
20
0.0717
10
-0.2344
20
0.0684
10
-0.2318
20
0.0676
10
-0.2479
20
0.0723
10
-0.2300
20
0.0671
10
-0.2358
20
0.0688
10
-0.2574
20
0.0750
10
-0.2600
20
0.0758
10
-0.2328
20
0.0678
10
-0.2535
20
0.0738
10
-0.2767
20
0.0806
10
-0.2465
20
0.0717
10
-0.2846
20
0.0828
10
-0.2485
20
0.0723
10
-0.2333
20
0.0678
10
-0.2341
20
0.0680
10
-0.2499
20
0.0726
10
-0.2459
20
0.0714
10
-0.2587
20
0.0751
10
-0.2748
20
0.0796
10
-0.2599
20
0.0753
10
-0.2570
20
0.0745
10
-0.2785
20
0.0807
10
-0.2443
20
0.0708
10
-0.2323
20
0.0669
10
-0.2599
20
0.0749
10
-0.2510
20
0.0723
10
-0.2819
20
0.0812
10
-0.2510
20
0.0723
10
-0.2490
20
0.0717
10
-0.2656
20
0.0764
10
-0.2619
20
0.0753
10
-0.2693
20
0.0774
10
-0.2523
20
0.0725
10
-0.2610
20
0.0749
10
-0.2500
20
0.0717
10
-0.1628
20
0.0467
10
-0.2773
20
0.0795
10
-0.2792
20
0.0800
10
-0.2164
20
0.0620
10
-0.2479
20
0.0709
10
-0.2714
20
0.0776
10
-0.2725
20
0.0779
10
-0.2736
20
0.0782
10
-0.2526
20
0.0722
10
-0.2295
20
0.0656
10
-0.2493
20
0.0713
10
-0.2565
20
0.0733
10
-0.2482
20
0.0709
10
-0.2485
20
0.0710
10
-0.0977
20
0.0279
10
-0.2322
20
0.0663
10
-0.2762
20
0.0788
10
-0.2630
20
0.0750
10
-0.2736
20
0.0780
10
-0.2555
20
0.0728
10
-0.2618
20
0.0745
10
-0.2767
20
0.0787
10
-0.2057
20
0.0585
10
-0.2616
20
0.0743
10
-0.2564
20
0.0727
10
-0.2306
20
0.0654
10
-0.2716
20
0.0769
10
-0.2414
20
0.0683
10
-0.2630
20
0.0744
10
-0.2479
20
0.0701
10
-0.2485
20
0.0700
10
-0.2672
20
0.0751
10
-0.2546
20
0.0715
10
-0.2610
20
0.0733
10
-0.2800
20
0.0786
10
-0.2523
20
0.0708
10
-0.2799
20
0.0786
10
-0.2875
20
0.0807
10
-0.2479
20
0.0695
10
-0.2566
20
0.0720
10
-0.2478
20
0.0694
10
-0.2741
20
0.0768
10
-0.2761
20
0.0773
10
-0.2628
20
0.0735
10
-0.2787
20
0.0779
10
-0.2498
20
0.0698
10
-0.2781
20
0.0776
10
-0.2850
20
0.0795
10
-0.2789
20
0.0778
10
-0.2711
20
0.0756
10
-0.2339
20
0.0652
10
-0.2657
20
0.0741
10
-0.2786
20
0.0776
10
-0.2784
20
0.0775
10
-0.2784
20
0.0775
10
-0.2771
20
0.0771
10
-0.2489
20
0.0692
10
-0.2750
20
0.0764
10
-0.2642
20
0.0734
10
-0.2589
20
0.0719
10
-0.2778
20
0.0771
10
-0.2477
20
0.0687
10
-0.2716
20
0.0753
10
-0.2827
20
0.0784
10
-0.2792
20
0.0774
10
-0.2483
20
0.0688
10
-0.1303
20
0.0361
10
-0.2759
20
0.0762
10
-0.2671
20
0.0738
10
-0.2765
20
0.0763
10
-0.2766
20
0.0763
10
-0.1800
20
0.0496
10
-0.2281
20
0.0628
10
-0.2749
20
0.0757
10
-0.2553
20
0.0703
10
-0.1988
20
0.0547
10
-0.2765
20
0.0761
10
-0.2713
20
0.0746
10
-0.2532
20
0.0696
10
-0.2749
20
0.0755
10
-0.2588
20
0.0711
10
-0.2588
20
0.0711
10
-0.2759
20
0.0758
10
-0.2741
20
0.0752
10
-0.2571
20
0.0706
10
-0.2772
20
0.0760
10
-0.2738
20
0.0750
10
-0.2860
20
0.0783
10
-0.2615
20
0.0715
10
-0.2617
20
0.0716
10
-0.2091
20
0.0572
10
-0.2737
20
0.0748
10
-0.2612
20
0.0713
10
-0.2495
20
0.0680
10
-0.2890
20
0.0788
10
-0.2750
20
0.0750
10
-0.2498
20
0.0681
10
-0.2828
20
0.0770
10
-0.2890
20
0.0787
10
-0.2717
20
0.0739
10
-0.2887
20
0.0785
10
-0.2730
20
0.0742
10
-0.2591
20
0.0704
10
-0.2739
20
0.0743
10
-0.2740
20
0.0742
10
-0.2615
20
0.0707
10
-0.2610
20
0.0706
10
-0.2878
20
0.0778
10
-0.2715
20
0.0734
10
-0.2610
20
0.0705
10
-0.2867
20
0.0774
10
-0.2224
20
0.0600
10
-0.2734
20
0.0737
10
-0.2604
20
0.0702
10
-0.2719
20
0.0733
10
-0.2608
20
0.0702
10
-0.2821
20
0.0760
10
-0.2505
20
0.0675
10
-0.2612
20
0.0703
10
-0.2556
20
0.0686
10
-0.1902
20
0.0511
10
-0.2573
20
0.0691
10
-0.2535
20
0.0679
10
-0.3015
20
0.0804
10
-0.2590
20
0.0691
10
-0.2738
20
0.0728
10
-0.2805
20
0.0745
10
-0.2507
20
0.0666
10
-0.2823
20
0.0749
10
-0.2600
20
0.0689
10
-0.2604
20
0.0690
10
-0.2967
20
0.0784
10
-0.1982
20
0.0523
10
-0.2447
20
0.0646
10
-0.2909
20
0.0766
10
-0.2594
20
0.0682
10
-0.2555
20
0.0671
10
-0.2527
20
0.0664
10
-0.2575
20
0.0675
10
-0.2513
20
0.0659
10
-0.2399
20
0.0625
10
-0.2516
20
0.0653
10
-0.0640
20
0.0164
10
-0.2172
20
0.0557
10
-0.2699
20
0.0691
10
-0.2046
20
0.0524
10
-0.2601
20
0.0665
10
-0.2356
20
0.0601
10
-0.2932
20
0.0740
10
-0.2562
20
0.0646
10
-0.2576
20
0.0649
10
-0.2589
20
0.0652
10
-0.2548
20
0.0641
10
-0.2595
20
0.0653
10
-0.2548
20
0.0641
10
-0.2880
20
0.0724
10
-0.1076
20
0.0270
10
-0.2526
20
0.0632
10
-0.3133
20
0.0784
10
-0.1386
20
0.0347
10
-0.2597
20
0.0649
10
-0.3045
20
0.0760
10
-0.1908
20
0.0474
10
-0.2566
20
0.0636
10
-0.2593
20
0.0643
10
-0.2582
20
0.0640
10
-0.3230
20
0.0798
10
-0.2825
20
0.0695
10
-0.2509
20
0.0617
10
-0.2307
20
0.0567
10
-0.1941
20
0.0474
10
-0.2681
20
0.0649
10
-0.2774
20
0.0665
10
-0.3019
20
0.0721
10
-0.2632
20
0.0626
10
-0.2593
20
0.0616
10
-0.2551
20
0.0606
10
-0.2472
20
0.0587
10
-0.2566
20
0.0609
10
-0.2590
20
0.0614
10
-0.2581
20
0.0612
10
-0.2591
20
0.0613
10
-0.2587
20
0.0611
10
-0.2583
20
0.0609
10
-0.2559
20
0.0604
10
-0.2591
20
0.0611
10
-0.2571
20
0.0606
10
-0.2576
20
0.0607
10
-0.3150
20
0.0742
10
-0.2592
20
0.0610
10
-0.1464
20
0.0344
10
-0.2143
20
0.0502
10
-0.1815
20
0.0423
10
-0.3257
20
0.0758
10
-0.2960
20
0.0684
10
-0.2605
20
0.0601
10
-0.2267
20
0.0520
10
-0.2883
20
0.0662
10
-0.2434
20
0.0552
10
-0.3392
20
0.0769
10
-0.3359
20
0.0760
10
-0.2755
20
0.0619
10
-0.1548
20
0.0345
10
-0.2833
20
0.0629
10
-0.1871
20
0.0415
10
-0.2719
20
0.0602
10
-0.1168
20
0.0257
10
-0.2010
20
0.0442
10
-0.2583
20
0.0567
10
-0.3104
20
0.0682
10
-0.3417
20
0.0748
10
-0.2999
20
0.0653
10
-0.1681
20
0.0365
10
-0.2696
20
0.0580
10
-0.2381
20
0.0512
10
-0.2922
20
0.0628
10
-0.2142
20
0.0457
10
-0.2244
20
0.0477
10
-0.1920
20
0.0405
10
-0.2801
20
0.0587
10
-0.2866
20
0.0600
10
-0.2775
20
0.0575
10
-0.3017
20
0.0625
10
-0.3268
20
0.0677
10
-0.3126
20
0.0645
10
-0.3381
20
0.0697
10
-0.2937
20
0.0605
10
-0.0753
20
0.0155
10
-0.2683
20
0.0550
10
-0.2565
20
0.0522
10
-0.2342
20
0.0473
10
-0.2761
20
0.0556
10
-0.3016
20
0.0606
10
-0.3471
20
0.0697
10
-0.2894
20
0.0572
10
-0.3562
20
0.0703
10
-0.2948
20
0.0582
10
-0.2050
20
0.0404
10
-0.3529
20
0.0695
10
-0.3122
20
0.0614
10
-0.2486
20
0.0488
10
-0.2842
20
0.0557
10
-0.2239
20
0.0437
10
-0.3010
20
0.0586
10
-0.2156
20
0.0419
10
-0.1778
20
0.0345
10
-0.3244
20
0.0629
10
-0.2822
20
0.0547
10
-0.2752
20
0.0530
10
-0.3100
20
0.0594
10
-0.2954
20
0.0565
10
-0.2685
20
0.0511
10
-0.2911
20
0.0554
10
-0.3004
20
0.0571
10
-0.1261
20
0.0240
10
-0.2809
20
0.0532
10
-0.3078
20
0.0579
10
-0.2868
20
0.0537
10
-0.2433
20
0.0454
10
-0.2320
20
0.0433
10
-0.3461
20
0.0642
10
-0.3059
20
0.0567
10
-0.2852
20
0.0527
10
-0.3217
20
0.0593
10
-0.3395
20
0.0625
10
-0.1838
20
0.0336
10
-0.3533
20
0.0645
10
-0.2956
20
0.0537
10
-0.2801
20
0.0508
10
-0.2988
20
0.0542
10
-0.2840
20
0.0514
10
-0.2925
20
0.0528
10
-0.2752
20
0.0495
10
-0.3651
20
0.0656
10
-0.3179
20
0.0572
10
-0.2086
20
0.0374
10
-0.3588
20
0.0644
10
-0.3023
20
0.0540
10
-0.3335
20
0.0594
10
-0.2631
20
0.0466
10
-0.3141
20
0.0557
10
-0.2894
20
0.0511
10
-0.3112
20
0.0548
10
-0.2244
20
0.0395
10
-0.2563
20
0.0450
10
-0.2182
20
0.0381
10
-0.2832
20
0.0494
10
-0.2397
20
0.0417
10
-0.2882
20
0.0501
10
-0.2956
20
0.0512
10
-0.3642
20
0.0630
10
-0.3065
20
0.0529
10
-0.2980
20
0.0514
10
-0.2929
20
0.0505
10
-0.2795
20
0.0481
10
-0.1340
20
0.0230
10
-0.2711
20
0.0463
10
-0.1929
20
0.0329
10
-0.2872
20
0.0490
10
-0.3293
20
0.0561
10
-0.2901
20
0.0492
10
-0.2310
20
0.0392
10
-0.3005
20
0.0509
10
-0.2508
20
0.0424
10
-0.2890
20
0.0484
10
-0.1982
20
0.0330
10
-0.2957
20
0.0492
10
-0.2827
20
0.0471
10
-0.3243
20
0.0540
10
-0.2974
20
0.0494
10
-0.2863
20
0.0474
10
-0.2881
20
0.0477
10
-0.3692
20
0.0608
10
-0.3036
20
0.0500
10
-0.0857
20
0.0141
10
-0.2763
20
0.0455
10
-0.3197
20
0.0525
10
-0.1872
20
0.0307
10
-0.2908
20
0.0477
10
-0.2934
20
0.0480
10
-0.3158
20
0.0516
10
-0.2960
20
0.0484
10
-0.2898
20
0.0472
10
-0.3532
20
0.0575
10
-0.2993
20
0.0487
10
-0.3104
20
0.0505
10
-0.2126
20
0.0344
10
-0.2874
20
0.0464
10
-0.3593
20
0.0580
10
-0.2970
20
0.0480
10
-0.2890
20
0.0467
10
-0.2954
20
0.0476
10
-0.1409
20
0.0227
10
-0.3480
20
0.0559
10
-0.2857
20
0.0457
10
-0.2798
20
0.0447
10
-0.1766
20
0.0282
10
-0.2904
20
0.0464
10
-0.2914
20
0.0465
10
-0.2370
20
0.0377
10
-0.2954
20
0.0470
10
-0.2933
20
0.0466
10
-0.2948
20
0.0468
10
-0.2897
20
0.0460
10
-0.3645
20
0.0578
10
-0.2463
20
0.0391
10
-0.2964
20
0.0470
10
-0.2884
20
0.0457
10
-0.2909
20
0.0459
10
-0.2918
20
0.0460
10
-0.2983
20
0.0470
10
-0.3014
20
0.0475
10
-0.2254
20
0.0355
10
-0.2825
20
0.0443
10
-0.2941
20
0.0461
10
-0.1610
20
0.0253
10
-0.2902
20
0.0455
10
-0.2870
20
0.0450
10
-0.2921
20
0.0457
10
-0.2913
20
0.0456
10
-0.2962
20
0.0463
10
-0.2891
20
0.0452
10
-0.2207
20
0.0345
10
-0.2958
20
0.0461
10
-0.2676
20
0.0417
10
-0.3418
20
0.0533
10
-0.2907
20
0.0453
10
-0.2932
20
0.0457
10
-0.2922
20
0.0455
10
-0.2618
20
0.0407
10
-0.2897
20
0.0449
10
-0.2930
20
0.0454
10
-0.3691
20
0.0571
10
-0.2878
20
0.0445
10
-0.2916
20
0.0451
10
-0.3063
20
0.0474
10
-0.2951
20
0.0456
10
-0.2931
20
0.0453
10
-0.2903
20
0.0448
10
-0.2038
20
0.0313
10
-0.2935
20
0.0451
10
-0.2975
20
0.0457
10
-0.2887
20
0.0443
10
-0.2301
20
0.0353
10
-0.2913
20
0.0446
10
-0.2733
20
0.0418
10
-0.2926
20
0.0447
10
-0.2853
20
0.0436
10
-0.2893
20
0.0441
10
-0.2936
20
0.0447
10
-0.1480
20
0.0225
10
-0.2932
20
0.0446
10
-0.3356
20
0.0510
10
-0.2901
20
0.0440
10
-0.2941
20
0.0446
10
-0.2924
20
0.0443
10
-0.2971
20
0.0450
10
-0.2935
20
0.0445
10
-0.2972
20
0.0449
10
-0.2865
20
0.0433
10
-0.2964
20
0.0448
10
-0.2996
20
0.0452
10
-0.2911
20
0.0439
10
-0.2567
20
0.0387
10
-0.2934
20
0.0441
10
-0.2875
20
0.0431
10
-0.2934
20
0.0439
10
-0.1823
20
0.0273
10
-0.2921
20
0.0437
10
-0.2774
20
0.0415
10
-0.2882
20
0.0431
10
-0.2951
20
0.0441
10
-0.3299
20
0.0492
10
-0.2888
20
0.0430
10
-0.3757
20
0.0559
10
-0.2932
20
0.0434
10
-0.2898
20
0.0429
10
-0.3033
20
0.0448
10
-0.3733
20
0.0551
10
-0.2941
20
0.0434
10
-0.2802
20
0.0413
10
-0.2908
20
0.0428
10
-0.2939
20
0.0432
10
-0.3244
20
0.0476
10
-0.2937
20
0.0431
10
-0.2941
20
0.0431
10
-0.3196
20
0.0468
10
-0.2938
20
0.0430
10
-0.2918
20
0.0426
10
-0.2825
20
0.0412
10
-0.2163
20
0.0315
10
-0.2931
20
0.0427
10
-0.2982
20
0.0435
10
-0.2986
20
0.0435
10
-0.2937
20
0.0427
10
-0.2989
20
0.0434
10
-0.2349
20
0.0341
10
-0.2967
20
0.0430
10
-0.2426
20
0.0352
10
-0.2936
20
0.0425
10
-0.3134
20
0.0453
10
-0.2945
20
0.0425
10
-0.2850
20
0.0411
10
-0.2941
20
0.0423
10
-0.2860
20
0.0411
10
-0.2983
20
0.0429
10
-0.2869
20
0.0412
10
-0.2877
20
0.0412
10
-0.2940
20
0.0420
10
-0.2941
20
0.0420
10
-0.2942
20
0.0420
10
-0.2886
20
0.0412
10
-0.2941
20
0.0419
10
-0.2933
20
0.0418
10
-0.2940
20
0.0419
10
-0.2943
20
0.0418
10
-0.2928
20
0.0415
10
-0.2516
20
0.0357
10
-0.2896
20
0.0410
10
-0.2947
20
0.0416
10
-0.3009
20
0.0425
10
-0.2937
20
0.0414
10
-0.0952
20
0.0134
10
-0.2905
20
0.0409
10
-0.2952
20
0.0415
10
-0.2913
20
0.0410
10
-0.3084
20
0.0433
10
-0.2261
20
0.0317
10
-0.2082
20
0.0292
10
-0.2934
20
0.0411
10
-0.3770
20
0.0528
10
-0.2949
20
0.0411
10
-0.2930
20
0.0407
10
-0.3592
20
0.0498
10
-0.2231
20
0.0308
10
-0.3533
20
0.0487
10
-0.2294
20
0.0316
10
-0.2928
20
0.0403
10
-0.2704
20
0.0372
10
-0.2954
20
0.0407
10
-0.2925
20
0.0402
10
-0.2984
20
0.0410
10
-0.3649
20
0.0501
10
-0.3001
20
0.0412
10
-0.2749
20
0.0377
10
-0.2657
20
0.0364
10
-0.2957
20
0.0404
10
-0.3008
20
0.0410
10
-0.2782
20
0.0379
10
-0.2998
20
0.0408
10
-0.2808
20
0.0382
10
-0.2867
20
0.0389
10
-0.2858
20
0.0388
10
-0.2827
20
0.0383
10
-0.2848
20
0.0386
10
-0.2876
20
0.0388
10
-0.1898
20
0.0256
10
-0.3046
20
0.0410
10
-0.2925
20
0.0394
10
-0.3700
20
0.0498
10
-0.2997
20
0.0403
10
-0.2885
20
0.0388
10
-0.2964
20
0.0398
10
-0.2895
20
0.0387
10
-0.2923
20
0.0390
10
-0.3460
20
0.0462
10
-0.2914
20
0.0388
10
-0.2613
20
0.0347
10
-0.2905
20
0.0385
10
-0.2394
20
0.0317
10
-0.2326
20
0.0308
10
-0.1853
20
0.0243
10
-0.1764
20
0.0231
10
-0.3746
20
0.0491
10
-0.2924
20
0.0383
10
-0.2964
20
0.0387
10
-0.2199
20
0.0286
10
-0.1946
20
0.0253
10
-0.3389
20
0.0440
10
-0.2966
20
0.0384
10
-0.2473
20
0.0319
10
-0.3018
20
0.0390
10
-0.2922
20
0.0377
10
-0.2920
20
0.0375
10
-0.2124
20
0.0272
10
-0.2999
20
0.0380
10
-0.3325
20
0.0421
10
-0.3783
20
0.0479
10
-0.2267
20
0.0287
10
-0.3018
20
0.0381
10
-0.1668
20
0.0210
10
-0.1047
20
0.0132
10
-0.2287
20
0.0287
10
-0.3829
20
0.0480
10
-0.2559
20
0.0321
10
-0.3026
20
0.0379
10
-0.3008
20
0.0376
10
-0.2953
20
0.0369
10
-0.2978
20
0.0372
10
-0.2952
20
0.0368
10
-0.2948
20
0.0367
10
-0.2943
20
0.0366
10
-0.2866
20
0.0357
10
-0.2941
20
0.0366
10
-0.2875
20
0.0357
10
-0.2857
20
0.0355
10
-0.3011
20
0.0373
10
-0.2942
20
0.0365
10
-0.2849
20
0.0353
10
-0.2950
20
0.0365
10
-0.2250
20
0.0279
10
-0.2885
20
0.0357
10
-0.2948
20
0.0363
10
-0.2895
20
0.0357
10
-0.2829
20
0.0348
10
-0.2812
20
0.0345
10
-0.3815
20
0.0468
10
-0.3266
20
0.0401
10
-0.2945
20
0.0361
10
-0.2308
20
0.0283
10
-0.2905
20
0.0355
10
-0.3214
20
0.0392
10
-0.2792
20
0.0341
10
-0.2945
20
0.0359
10
-0.2973
20
0.0362
10
-0.2916
20
0.0354
10
-0.2948
20
0.0358
10
-0.2361
20
0.0286
10
-0.2973
20
0.0360
10
-0.3144
20
0.0380
10
-0.2765
20
0.0334
10
-0.1811
20
0.0217
10
-0.2943
20
0.0353
10
-0.2924
20
0.0350
10
-0.2728
20
0.0326
10
-0.2921
20
0.0348
10
-0.2922
20
0.0348
10
-0.1998
20
0.0237
10
-0.2228
20
0.0264
10
-0.2952
20
0.0348
10
-0.2435
20
0.0286
10
-0.3089
20
0.0363
10
-0.2942
20
0.0344
10
-0.2272
20
0.0265
10
-0.2222
20
0.0260
10
-0.2282
20
0.0267
10
-0.2691
20
0.0314
10
-0.2295
20
0.0266
10
-0.2332
20
0.0270
10
-0.2168
20
0.0251
10
-0.2264
20
0.0261
10
-0.3055
20
0.0351
10
-0.2955
20
0.0336
10
-0.3637
20
0.0413
10
-0.2512
20
0.0285
10
-0.2651
20
0.0300
10
-0.3574
20
0.0403
10
-0.2875
20
0.0324
10
-0.3695
20
0.0417
10
-0.2867
20
0.0323
10
-0.2942
20
0.0331
10
-0.2858
20
0.0321
10
-0.2311
20
0.0259
10
-0.2885
20
0.0323
10
-0.3023
20
0.0338
10
-0.2263
20
0.0252
10
-0.2850
20
0.0318
10
-0.2277
20
0.0254
10
-0.3011
20
0.0335
10
-0.2988
20
0.0332
10
-0.1140
20
0.0127
10
-0.2284
20
0.0254
10
-0.2895
20
0.0321
10
-0.2252
20
0.0249
10
-0.3027
20
0.0335
10
-0.2200
20
0.0243
10
-0.2979
20
0.0329
10
-0.2974
20
0.0328
10
-0.3748
20
0.0412
10
-0.2275
20
0.0250
10
-0.2834
20
0.0312
10
-0.2906
20
0.0319
10
-0.3015
20
0.0331
10
-0.3490
20
0.0382
10
-0.3029
20
0.0331
10
-0.3035
20
0.0332
10
-0.2276
20
0.0248
10
-0.2041
20
0.0222
10
-0.2279
20
0.0248
10
-0.2915
20
0.0317
10
-0.2819
20
0.0306
10
-0.2294
20
0.0249
10
-0.2924
20
0.0317
10
-0.2956
20
0.0320
10
-0.2924
20
0.0316
10
-0.2250
20
0.0243
10
-0.2944
20
0.0316
10
-0.2925
20
0.0314
10
-0.2599
20
0.0278
10
-0.2203
20
0.0236
10
-0.2801
20
0.0299
10
-0.3794
20
0.0404
10
-0.2285
20
0.0243
10
-0.1766
20
0.0188
10
-0.2276
20
0.0242
10
-0.3408
20
0.0361
10
-0.2274
20
0.0240
10
-0.2283
20
0.0241
10
-0.2298
20
0.0242
10
-0.2287
20
0.0241
10
-0.2268
20
0.0238
10
-0.2954
20
0.0310
10
-0.2778
20
0.0291
10
-0.2281
20
0.0239
10
-0.3831
20
0.0400
10
-0.2246
20
0.0233
10
-0.2475
20
0.0256
10
-0.2956
20
0.0306
10
-0.3883
20
0.0401
10
-0.3862
20
0.0399
10
-0.2332
20
0.0241
10
-0.2271
20
0.0234
10
-0.2224
20
0.0229
10
-0.2309
20
0.0237
10
-0.2181
20
0.0224
10
-0.3340
20
0.0342
10
-0.2361
20
0.0242
10
-0.2750
20
0.0281
10
-0.2271
20
0.0232
10
-0.2402
20
0.0246
10
-0.2948
20
0.0301
10
-0.2086
20
0.0211
10
-0.2296
20
0.0233
10
-0.2293
20
0.0232
10
-0.2285
20
0.0231
10
-0.2299
20
0.0232
10
-0.2296
20
0.0232
10
-0.2270
20
0.0229
10
-0.2273
20
0.0229
10
-0.2233
20
0.0225
10
-0.2282
20
0.0229
10
-0.2291
20
0.0230
10
-0.2300
20
0.0230
10
-0.2975
20
0.0297
10
-0.2954
20
0.0294
10
-0.2270
20
0.0226
10
-0.2291
20
0.0228
10
-0.2719
20
0.0270
10
-0.2979
20
0.0295
10
-0.2985
20
0.0295
10
-0.3279
20
0.0323
10
-0.1687
20
0.0166
10
-0.2300
20
0.0226
10
-0.3003
20
0.0294
10
-0.2952
20
0.0289
10
-0.2270
20
0.0222
10
-0.1877
20
0.0183
10
-0.2279
20
0.0222
10
-0.2295
20
0.0224
10
-0.2270
20
0.0221
10
-0.2211
20
0.0215
10
-0.2272
20
0.0221
10
-0.2278
20
0.0221
10
-0.2951
20
0.0287
10
-0.2204
20
0.0214
10
-0.2933
20
0.0284
10
-0.2280
20
0.0220
10
-0.1232
20
0.0119
10
-0.2552
20
0.0246
10
-0.2295
20
0.0221
10
-0.2280
20
0.0220
10
-0.3022
20
0.0291
10
-0.2290
20
0.0220
10
-0.2283
20
0.0219
10
-0.2681
20
0.0257
10
-0.3044
20
0.0292
10
-0.3021
20
0.0289
10
-0.2262
20
0.0217
10
-0.2948
20
0.0282
10
-0.3013
20
0.0288
10
-0.2257
20
0.0215
10
-0.3070
20
0.0293
10
-0.2273
20
0.0217
10
-0.2956
20
0.0281
10
-0.2872
20
0.0273
10
-0.2881
20
0.0273
10
-0.3030
20
0.0287
10
-0.1922
20
0.0182
10
-0.2945
20
0.0279
10
-0.3029
20
0.0287
10
-0.2863
20
0.0270
10
-0.2890
20
0.0273
10
-0.2947
20
0.0278
10
-0.2270
20
0.0214
10
-0.2301
20
0.0217
10
-0.2942
20
0.0277
10
-0.3221
20
0.0303
10
-0.2954
20
0.0278
10
-0.2272
20
0.0213
10
-0.2232
20
0.0209
10
-0.2932
20
0.0275
10
-0.2957
20
0.0277
10
-0.1836
20
0.0172
10
-0.2899
20
0.0271
10
-0.2308
20
0.0215
10
-0.2857
20
0.0267
10
-0.2296
20
0.0214
10
-0.2261
20
0.0209
10
-0.2283
20
0.0211
10
-0.2138
20
0.0197
10
-0.2842
20
0.0262
10
-0.2912
20
0.0267
10
-0.2971
20
0.0272
10
-0.2274
20
0.0207
10
-0.2931
20
0.0267
10
-0.2277
20
0.0207
10
-0.2829
20
0.0256
10
-0.2923
20
0.0265
10
-0.2297
20
0.0206
10
-0.2976
20
0.0266
10
-0.2813
20
0.0251
10
-0.2635
20
0.0234
10
-0.3097
20
0.0275
10
-0.2449
20
0.0215
10
-0.2300
20
0.0202
10
-0.2793
20
0.0244
10
-0.2940
20
0.0256
10
-0.1310
20
0.0114
10
-0.2983
20
0.0259
10
-0.1975
20
0.0171
10
-0.3672
20
0.0318
10
-0.2519
20
0.0218
10
-0.2964
20
0.0257
10
-0.2340
20
0.0202
10
-0.2294
20
0.0198
10
-0.3733
20
0.0322
10
-0.3603
20
0.0310
10
-0.2178
20
0.0187
10
-0.2318
20
0.0199
10
-0.2364
20
0.0202
10
-0.2769
20
0.0236
10
-0.2307
20
0.0196
10
-0.3001
20
0.0255
10
-0.3785
20
0.0322
10
-0.2297
20
0.0195
10
-0.3153
20
0.0268
10
-0.2940
20
0.0247
10
-0.2288
20
0.0192
10
-0.1800
20
0.0151
10
-0.3832
20
0.0321
10
-0.2282
20
0.0190
10
-0.2393
20
0.0199
10
-0.3509
20
0.0291
10
-0.2304
20
0.0190
10
-0.3016
20
0.0249
10
-0.1373
20
0.0113
10
-0.2744
20
0.0226
10
-0.3871
20
0.0318
10
-0.2965
20
0.0243
10
-0.3903
20
0.0319
10
-0.2956
20
0.0241
10
-0.2936
20
0.0239
10
-0.3925
20
0.0319
10
-0.2214
20
0.0180
10
-0.2169
20
0.0176
10
-0.3013
20
0.0244
10
-0.2912
20
0.0236
10
-0.2905
20
0.0235
10
-0.3013
20
0.0244
10
-0.3022
20
0.0244
10
-0.3022
20
0.0244
10
-0.2925
20
0.0236
10
-0.2897
20
0.0233
10
-0.2931
20
0.0236
10
-0.2594
20
0.0208
10
-0.2946
20
0.0236
10
-0.2889
20
0.0231
10
-0.2285
20
0.0183
10
-0.2276
20
0.0182
10
-0.2245
20
0.0178
10
-0.2709
20
0.0214
10
-0.2023
20
0.0160
10
-0.2949
20
0.0233
10
-0.2882
20
0.0227
10
-0.3418
20
0.0269
10
-0.2202
20
0.0172
10
-0.2428
20
0.0189
10
-0.3027
20
0.0236
10
-0.2876
20
0.0224
10
-0.2973
20
0.0231
10
-0.2245
20
0.0174
10
-0.2957
20
0.0229
10
-0.2949
20
0.0227
10
-0.2947
20
0.0227
10
-0.2943
20
0.0226
10
-0.2319
20
0.0177
10
-0.2945
20
0.0225
10
-0.2302
20
0.0176
10
-0.2945
20
0.0225
10
-0.1705
20
0.0130
10
-0.2261
20
0.0172
10
-0.2197
20
0.0167
10
-0.2673
20
0.0203
10
-0.2861
20
0.0217
10
-0.3044
20
0.0230
10
-0.3349
20
0.0252
10
-0.2925
20
0.0219
10
-0.1765
20
0.0132
10
-0.1433
20
0.0107
10
-0.2847
20
0.0211
10
-0.3007
20
0.0222
10
-0.2986
20
0.0218
10
-0.3012
20
0.0220
10
-0.2948
20
0.0215
10
-0.2273
20
0.0165
10
-0.2309
20
0.0168
10
-0.2503
20
0.0182
10
-0.2832
20
0.0206
10
-0.2942
20
0.0213
10
-0.3108
20
0.0224
10
-0.3003
20
0.0217
10
-0.1513
20
0.0109
10
-0.2633
20
0.0189
10
-0.3060
20
0.0219
10
-0.3286
20
0.0235
10
-0.2962
20
0.0211
10
-0.2920
20
0.0207
10
-0.2569
20
0.0181
10
-0.2814
20
0.0199
10
-0.2070
20
0.0146
10
-0.2996
20
0.0211
10
-0.2934
20
0.0207
10
-0.2949
20
0.0207
10
-0.2584
20
0.0182
10
-0.3002
20
0.0211
10
-0.2224
20
0.0156
10
-0.2293
20
0.0160
10
-0.2318
20
0.0162
10
-0.2293
20
0.0159
10
-0.2941
20
0.0203
10
-0.2341
20
0.0162
10
-0.2793
20
0.0192
10
-0.2944
20
0.0203
10
-0.2947
20
0.0202
10
-0.2912
20
0.0199
10
-0.2586
20
0.0177
10
-0.2614
20
0.0177
10
-0.2295
20
0.0155
10
-0.2771
20
0.0187
10
-0.2474
20
0.0167
10
-0.3012
20
0.0203
10
-0.2367
20
0.0160
10
-0.2907
20
0.0194
10
-0.2280
20
0.0152
10
-0.2948
20
0.0196
10
-0.2630
20
0.0175
10
-0.3226
20
0.0214
10
-0.2740
20
0.0181
10
-0.1577
20
0.0104
10
-0.2604
20
0.0171
10
-0.2903
20
0.0190
10
-0.2975
20
0.0194
10
-0.2652
20
0.0172
10
-0.2944
20
0.0190
10
-0.2393
20
0.0154
10
-0.2712
20
0.0174
10
-0.2294
20
0.0147
10
-0.2938
20
0.0188
10
-0.2943
20
0.0188
10
-0.2899
20
0.0185
10
-0.2122
20
0.0135
10
-0.2940
20
0.0186
10
-0.3020
20
0.0191
10
-0.2934
20
0.0184
10
-0.2983
20
0.0188
10
-0.2680
20
0.0168
10
-0.2309
20
0.0145
10
-0.2980
20
0.0187
10
-0.2594
20
0.0161
10
-0.3073
20
0.0188
10
-0.2960
20
0.0181
10
-0.2421
20
0.0148
10
-0.2547
20
0.0155
10
-0.2655
20
0.0161
10
-0.2884
20
0.0173
10
-0.2550
20
0.0153
10
-0.2163
20
0.0130
10
-0.2558
20
0.0153
10
-0.2937
20
0.0175
10
-0.2262
20
0.0135
10
-0.2944
20
0.0174
10
-0.2938
20
0.0174
10
-0.2635
20
0.0156
10
-0.2872
20
0.0169
10
-0.3162
20
0.0185
10
-0.2965
20
0.0173
10
-0.2165
20
0.0126
10
-0.2860
20
0.0166
10
-0.2587
20
0.0150
10
-0.2307
20
0.0133
10
-0.2199
20
0.0127
10
-0.2930
20
0.0168
10
-0.2841
20
0.0163
10
-0.2625
20
0.0150
10
-0.3695
20
0.0211
10
-0.1716
20
0.0098
10
-0.3030
20
0.0173
10
-0.3760
20
0.0214
10
-0.2513
20
0.0143
10
-0.2820
20
0.0160
10
-0.3620
20
0.0206
10
-0.2325
20
0.0132
10
-0.2686
20
0.0152
10
-0.2996
20
0.0169
10
-0.3815
20
0.0215
10
-0.2932
20
0.0165
10
-0.2204
20
0.0124
10
-0.2800
20
0.0157
10
-0.2966
20
0.0166
10
-0.3940
20
0.0220
10
-0.2450
20
0.0136
10
-0.3963
20
0.0220
10
-0.2234
20
0.0124
10
-0.3865
20
0.0215
10
-0.2928
20
0.0163
10
-0.2266
20
0.0126
10
-0.3908
20
0.0217
10
-0.2238
20
0.0124
10
-0.3976
20
0.0220
10
-0.2938
20
0.0163
10
-0.2774
20
0.0153
10
-0.2561
20
0.0141
10
-0.2612
20
0.0144
10
-0.2313
20
0.0127
10
-0.2948
20
0.0161
10
-0.3521
20
0.0192
10
-0.2749
20
0.0148
10
-0.2927
20
0.0158
10
-0.2933
20
0.0158
10
-0.2304
20
0.0122
10
-0.2719
20
0.0144
10
-0.2972
20
0.0157
10
-0.2213
20
0.0117
10
-0.2295
20
0.0121
10
-0.2951
20
0.0155
10
-0.2925
20
0.0153
10
-0.2942
20
0.0154
10
-0.2935
20
0.0153
10
-0.3005
20
0.0156
10
-0.2271
20
0.0117
10
-0.1866
20
0.0096
10
-0.2284
20
0.0118
10
-0.2952
20
0.0152
10
-0.2945
20
0.0151
10
-0.3426
20
0.0175
10
-0.1829
20
0.0093
10
-0.2686
20
0.0136
10
-0.3117
20
0.0158
10
-0.1915
20
0.0096
10
-0.2937
20
0.0148
10
-0.2910
20
0.0145
10
-0.2563
20
0.0127
10
-0.2946
20
0.0146
10
-0.2332
20
0.0115
10
-0.2657
20
0.0131
10
-0.3036
20
0.0148
10
-0.1617
20
0.0079
10
-0.2955
20
0.0144
10
-0.2980
20
0.0144
10
-0.2902
20
0.0140
10
-0.2297
20
0.0110
10
-0.2484
20
0.0119
10
-0.2580
20
0.0124
10
-0.2596
20
0.0124
10
-0.2642
20
0.0126
10
-0.2720
20
0.0129
10
-0.3353
20
0.0159
10
-0.1967
20
0.0092
10
-0.2360
20
0.0110
10
-0.2544
20
0.0118
10
-0.2625
20
0.0121
10
-0.2894
20
0.0132
10
-0.2832
20
0.0128
10
-0.1795
20
0.0081
10
-0.2807
20
0.0126
10
-0.2853
20
0.0128
10
-0.2389
20
0.0107
10
-0.2751
20
0.0123
10
-0.2782
20
0.0124
10
-0.2876
20
0.0128
10
-0.3013
20
0.0134
10
-0.2934
20
0.0130
10
-0.3289
20
0.0145
10
-0.2545
20
0.0112
10
-0.2713
20
0.0119
10
-0.2679
20
0.0117
10
-0.2309
20
0.0101
10
-0.3078
20
0.0134
10
-0.2313
20
0.0100
10
-0.2945
20
0.0127
10
-0.2018
20
0.0087
10
-0.2554
20
0.0110
10
-0.2412
20
0.0103
10
-0.2288
20
0.0097
10
-0.2957
20
0.0124
10
-0.2643
20
0.0110
10
-0.2634
20
0.0109
10
-0.2563
20
0.0106
10
-0.2745
20
0.0113
10
-0.2581
20
0.0106
10
-0.2516
20
0.0104
10
-0.2985
20
0.0123
10
-0.3231
20
0.0132
10
-0.2602
20
0.0106
10
-0.2620
20
0.0106
10
-0.2930
20
0.0118
10
-0.1761
20
0.0070
10
-0.2436
20
0.0097
10
-0.2573
20
0.0101
10
-0.2193
20
0.0086
10
-0.2293
20
0.0090
10
-0.2248
20
0.0088
10
-0.2657
20
0.0103
10
-0.2068
20
0.0080
10
-0.2780
20
0.0107
10
-0.2631
20
0.0100
10
-0.2275
20
0.0086
10
-0.3044
20
0.0115
10
-0.2635
20
0.0099
10
-0.2216
20
0.0082
10
-0.2311
20
0.0086
10
-0.2605
20
0.0097
10
-0.2921
20
0.0108
10
-0.2594
20
0.0096
10
-0.2813
20
0.0104
10
-0.2945
20
0.0109
10
-0.2457
20
0.0090
10
-0.2626
20
0.0095
10
-0.2608
20
0.0095
10
-0.2841
20
0.0103
10
-0.2892
20
0.0104
10
-0.2604
20
0.0094
10
-0.2866
20
0.0103
10
-0.2625
20
0.0094
10
-0.2166
20
0.0078
10
-0.3167
20
0.0113
10
-0.2539
20
0.0090
10
-0.2305
20
0.0082
10
-0.2270
20
0.0080
10
-0.2577
20
0.0091
10
-0.2909
20
0.0102
10
-0.2594
20
0.0091
10
-0.2203
20
0.0077
10
-0.3019
20
0.0105
10
-0.2960
20
0.0103
10
-0.2614
20
0.0090
10
-0.2566
20
0.0088
10
-0.2544
20
0.0087
10
-0.2555
20
0.0087
10
-0.2606
20
0.0089
10
-0.2118
20
0.0071
10
-0.2201
20
0.0074
10
-0.2634
20
0.0089
10
-0.2990
20
0.0100
10
-0.2662
20
0.0089
10
-0.1703
20
0.0057
10
-0.2642
20
0.0087
10
-0.2610
20
0.0086
10
-0.2732
20
0.0089
10
-0.2613
20
0.0085
10
-0.1656
20
0.0053
10
-0.2316
20
0.0075
10
-0.2486
20
0.0080
10
-0.2659
20
0.0085
10
-0.2154
20
0.0069
10
-0.2945
20
0.0094
10
-0.2696
20
0.0086
10
-0.2328
20
0.0074
10
-0.2622
20
0.0083
10
-0.2315
20
0.0073
10
-0.3122
20
0.0098
10
-0.2189
20
0.0068
10
-0.2591
20
0.0079
10
-0.2599
20
0.0080
10
-0.2769
20
0.0084
10
-0.2232
20
0.0067
10
-0.2296
20
0.0069
10
-0.2672
20
0.0080
10
-0.2622
20
0.0078
10
-0.2628
20
0.0078
10
-0.2608
20
0.0077
10
-0.2608
20
0.0076
10
-0.2964
20
0.0086
10
-0.2572
20
0.0074
10
-0.2310
20
0.0067
10
-0.2288
20
0.0066
10
-0.2663
20
0.0076
10
-0.3084
20
0.0088
10
-0.2617
20
0.0074
10
-0.2270
20
0.0064
10
-0.2513
20
0.0071
10
-0.2804
20
0.0079
10
-0.2940
20
0.0081
10
-0.3707
20
0.0102
10
-0.2294
20
0.0063
10
-0.3775
20
0.0104
10
-0.3833
20
0.0105
10
-0.3628
20
0.0099
10
-0.2658
20
0.0072
10
-0.3966
20
0.0107
10
-0.3886
20
0.0105
10
-0.2588
20
0.0070
10
-0.3990
20
0.0108
10
-0.3931
20
0.0106
10
-0.2996
20
0.0081
10
-0.2643
20
0.0071
10
-0.2326
20
0.0062
10
-0.3051
20
0.0082
10
-0.2838
20
0.0076
10
-0.4005
20
0.0107
10
-0.2595
20
0.0069
10
-0.2922
20
0.0078
10
-0.2339
20
0.0062
10
-0.2681
20
0.0071
10
-0.2686
20
0.0071
10
-0.2663
20
0.0070
10
-0.3026
20
0.0079
10
-0.2898
20
0.0076
10
-0.2687
20
0.0070
10
-0.2609
20
0.0068
10
-0.2562
20
0.0067
10
-0.2223
20
0.0058
10
-0.3528
20
0.0092
10
-0.2870
20
0.0074
10
-0.2689
20
0.0069
10
-0.2532
20
0.0065
10
-0.2638
20
0.0067
10
-0.2673
20
0.0068
10
-0.2298
20
0.0058
10
-0.2619
20
0.0066
10
-0.2567
20
0.0063
10
-0.2367
20
0.0058
10
-0.2540
20
0.0063
10
-0.2609
20
0.0064
10
-0.2687
20
0.0066
10
-0.2683
20
0.0066
10
-0.2550
20
0.0063
10
-0.3430
20
0.0084
10
-0.2689
20
0.0065
10
-0.2687
20
0.0065
10
-0.2687
20
0.0065
10
-0.2588
20
0.0062
10
-0.2689
20
0.0064
10
-0.2269
20
0.0053
10
-0.2689
20
0.0062
10
-0.2618
20
0.0061
10
-0.2193
20
0.0050
10
-0.2585
20
0.0059
10
-0.2397
20
0.0054
10
-0.2591
20
0.0059
10
-0.2687
20
0.0061
10
-0.2315
20
0.0052
10
-0.2634
20
0.0059
10
-0.2610
20
0.0058
10
-0.2681
20
0.0060
10
-0.3356
20
0.0074
10
-0.2683
20
0.0059
10
-0.2671
20
0.0058
10
-0.2686
20
0.0059
10
-0.2640
20
0.0058
10
-0.2418
20
0.0052
10
-0.2580
20
0.0055
10
-0.2669
20
0.0057
10
-0.2603
20
0.0055
10
-0.2312
20
0.0048
10
-0.2665
20
0.0055
10
-0.2566
20
0.0052
10
-0.2636
20
0.0053
10
-0.2574
20
0.0051
10
-0.2747
20
0.0054
10
-0.2164
20
0.0043
10
-0.2638
20
0.0052
10
-0.2270
20
0.0045
10
-0.2707
20
0.0053
10
-0.3291
20
0.0064
10
-0.2438
20
0.0046
10
-0.2202
20
0.0042
10
-0.2589
20
0.0049
10
-0.2665
20
0.0050
10
-0.2789
20
0.0052
10
-0.3233
20
0.0058
10
-0.2666
20
0.0048
10
-0.2456
20
0.0044
10
-0.2667
20
0.0047
10
-0.2635
20
0.0046
10
-0.2823
20
0.0049
10
-0.2552
20
0.0043
10
-0.2971
20
0.0050
10
-0.2858
20
0.0046
10
-0.2946
20
0.0048
10
-0.3169
20
0.0051
10
-0.2639
20
0.0042
10
-0.2919
20
0.0046
10
-0.2891
20
0.0046
10
-0.3005
20
0.0047
10
-0.2482
20
0.0038
10
-0.3058
20
0.0047
10
-0.3033
20
0.0046
10
-0.3125
20
0.0047
10
-0.2572
20
0.0039
10
-0.2244
20
0.0034
10
-0.2556
20
0.0038
10
-0.3089
20
0.0045
10
-0.2614
20
0.0037
10
-0.2563
20
0.0036
10
-0.2508
20
0.0035
10
-0.2597
20
0.0033
10
-0.2524
20
0.0030
10
-0.2328
20
0.0027
10
-0.2582
20
0.0028
10
-0.2532
20
0.0028
10
-0.2538
20
0.0027
10
-0.2565
20
0.0023
10
-0.2546
20
0.0022
10
-0.2555
20
0.0022
10
-0.2297
20
0.0019
10
-0.2187
20
0.0017
10
-0.2222
20
0.0007
10
-0.2163
20
0.0000
43
0.0120
0
LWPOLYLINE
8
back_panel
90
5152
10
-0.1526
20
-0.0000
10
-0.0688
20
-0.0021
10
-0.1639
20
-0.0076
10
-0.1244
20
-0.0077
10
-0.1712
20
-0.0123
10
-0.1751
20
-0.0136
10
-0.1425
20
-0.0167
10
-0.0930
20
-0.0136
10
-0.1555
20
-0.0234
10
-0.1694
20
-0.0270
10
-0.1644
20
-0.0265
10
-0.1148
20
-0.0241
10
-0.1337
20
-0.0322
10
-0.1667
20
-0.0417
10
-0.1487
20
-0.0379
10
-0.1601
20
-0.0410
10
-0.1660
20
-0.0588
10
-0.1587
20
-0.0574
10
-0.1455
20
-0.0542
10
-0.1282
20
-0.0486
10
-0.1083
20
-0.0412
10
-0.0869
20
-0.0332
10
-0.0645
20
-0.0259
10
-0.1642
20
-0.0771
10
-0.1567
20
-0.0754
10
-0.1429
20
-0.0724
10
-0.0416
20
-0.0213
10
-0.1251
20
-0.0675
10
-0.1052
20
-0.0611
10
-0.1631
20
-0.0950
10
-0.1547
20
-0.0929
10
-0.1402
20
-0.0901
10
-0.0843
20
-0.0549
10
-0.1650
20
-0.1121
10
-0.1566
20
-0.1096
10
-0.1229
20
-0.0864
10
-0.1419
20
-0.1065
10
-0.1683
20
-0.1300
10
-0.1040
20
-0.0816
10
-0.1609
20
-0.1268
10
-0.0625
20
-0.0493
10
-0.1247
20
-0.1036
10
-0.1471
20
-0.1238
10
-0.1699
20
-0.1482
10
-0.1634
20
-0.1448
10
-0.0835
20
-0.0770
10
-0.1297
20
-0.1217
10
-0.1509
20
-0.1423
10
-0.1056
20
-0.1005
10
-0.0197
20
-0.0190
10
-0.1712
20
-0.1650
10
-0.1650
20
-0.1617
10
-0.1742
20
-0.1819
10
-0.1528
20
-0.1596
10
-0.1338
20
-0.1408
10
-0.1692
20
-0.1783
10
-0.1099
20
-0.1199
10
-0.0404
20
-0.0450
10
-0.1736
20
-0.1940
10
-0.1577
20
-0.1763
10
-0.0849
20
-0.0976
10
-0.1361
20
-0.1589
10
-0.1795
20
-0.2103
10
-0.0618
20
-0.0728
10
-0.1622
20
-0.1925
10
-0.1141
20
-0.1396
10
-0.1854
20
-0.2283
10
-0.1684
20
-0.2088
10
-0.1412
20
-0.1758
10
-0.1749
20
-0.2279
10
-0.1904
20
-0.2498
10
-0.1461
20
-0.1926
10
-0.0885
20
-0.1179
10
-0.1164
20
-0.1588
10
-0.1524
20
-0.2097
10
-0.1796
20
-0.2509
10
-0.1923
20
-0.2782
10
-0.1583
20
-0.2302
10
-0.1213
20
-0.1765
10
-0.0923
20
-0.1387
10
-0.0627
20
-0.0949
10
-0.1268
20
-0.1941
10
-0.1807
20
-0.2792
10
-0.1624
20
-0.2542
10
-0.1971
20
-0.3097
10
-0.1326
20
-0.2118
10
-0.1908
20
-0.3079
10
-0.0953
20
-0.1587
10
-0.1382
20
-0.2325
10
-0.1985
20
-0.3400
10
-0.1636
20
-0.2816
10
-0.1788
20
-0.3082
10
-0.0398
20
-0.0688
10
-0.0654
20
-0.1161
10
-0.1895
20
-0.3369
10
-0.0998
20
-0.1774
10
-0.1420
20
-0.2566
10
-0.1055
20
-0.1956
10
-0.1989
20
-0.3722
10
-0.1766
20
-0.3353
10
-0.1625
20
-0.3095
10
-0.1113
20
-0.2143
10
-0.1867
20
-0.3648
10
-0.1436
20
-0.2834
10
-0.0692
20
-0.1376
10
-0.1164
20
-0.2346
10
-0.1726
20
-0.3602
10
-0.1609
20
-0.3359
10
-0.1925
20
-0.4091
10
-0.1200
20
-0.2580
10
-0.0732
20
-0.1585
10
-0.0194
20
-0.0421
10
-0.1430
20
-0.3111
10
-0.1767
20
-0.3902
10
-0.0404
20
-0.0914
10
-0.1585
20
-0.3590
10
-0.2002
20
-0.4535
10
-0.0775
20
-0.1782
10
-0.1641
20
-0.3802
10
-0.1213
20
-0.2838
10
-0.1429
20
-0.3379
10
-0.0827
20
-0.1965
10
-0.1889
20
-0.4502
10
-0.1557
20
-0.3743
10
-0.0889
20
-0.2159
10
-0.1942
20
-0.4903
10
-0.1426
20
-0.3613
10
-0.0931
20
-0.2365
10
-0.1201
20
-0.3103
10
-0.1643
20
-0.4259
10
-0.1562
20
-0.4078
10
-0.1436
20
-0.3797
10
-0.1485
20
-0.3936
10
-0.1823
20
-0.4851
10
-0.0424
20
-0.1134
10
-0.0957
20
-0.2593
10
-0.1210
20
-0.3373
10
-0.1879
20
-0.5256
10
-0.1621
20
-0.4535
10
-0.1224
20
-0.3618
10
-0.0959
20
-0.2837
10
-0.1753
20
-0.5189
10
-0.0456
20
-0.1359
10
-0.1819
20
-0.5586
10
-0.1571
20
-0.4842
10
-0.1241
20
-0.3833
10
-0.1268
20
-0.4016
10
-0.0497
20
-0.1582
10
-0.1711
20
-0.5511
10
-0.1296
20
-0.4181
10
-0.0946
20
-0.3089
10
-0.1318
20
-0.4346
10
-0.0539
20
-0.1790
10
-0.1757
20
-0.5895
10
-0.0586
20
-0.1976
10
-0.1522
20
-0.5156
10
-0.0638
20
-0.2176
10
-0.0190
20
-0.0651
10
-0.1673
20
-0.5816
10
-0.0675
20
-0.2387
10
-0.0943
20
-0.3358
10
-0.1281
20
-0.4563
10
-0.1507
20
-0.5464
10
-0.1705
20
-0.6191
10
-0.1644
20
-0.6109
10
-0.0957
20
-0.3612
10
-0.0684
20
-0.2604
10
-0.1493
20
-0.5762
10
-0.1234
20
-0.4825
10
-0.1655
20
-0.6485
10
-0.0977
20
-0.3844
10
-0.1612
20
-0.6403
10
-0.0996
20
-0.4046
10
-0.1479
20
-0.6049
10
-0.1616
20
-0.6763
10
-0.1223
20
-0.5125
10
-0.1005
20
-0.4219
10
-0.0674
20
-0.2840
10
-0.1582
20
-0.6683
10
-0.1458
20
-0.6338
10
-0.1598
20
-0.7037
10
-0.1232
20
-0.5432
10
-0.1569
20
-0.6954
10
-0.0976
20
-0.4361
10
-0.0192
20
-0.0876
10
-0.1595
20
-0.7305
10
-0.1577
20
-0.7227
10
-0.1432
20
-0.6618
10
-0.1240
20
-0.5729
10
-0.0656
20
-0.3090
10
-0.1586
20
-0.7502
10
-0.1246
20
-0.6016
10
-0.1562
20
-0.7572
10
-0.1419
20
-0.6888
10
-0.1599
20
-0.7770
10
-0.0914
20
-0.4524
10
-0.1617
20
-0.8059
10
-0.1675
20
-0.8366
10
-0.1428
20
-0.7160
10
-0.1249
20
-0.6297
10
-0.1647
20
-0.8307
10
-0.1584
20
-0.7998
10
-0.1721
20
-0.8690
10
-0.1516
20
-0.7711
10
-0.1461
20
-0.7438
10
-0.1541
20
-0.7845
10
-0.1688
20
-0.8639
10
-0.1726
20
-0.9041
10
-0.1250
20
-0.6573
10
-0.0634
20
-0.3348
10
-0.1699
20
-0.9000
10
-0.1618
20
-0.8757
10
-0.1257
20
-0.6843
10
-0.1517
20
-0.8275
10
-0.0202
20
-0.1106
10
-0.1444
20
-0.7967
10
-0.1555
20
-0.8608
10
-0.1279
20
-0.7113
10
-0.1327
20
-0.7391
10
-0.1689
20
-0.9414
10
-0.0643
20
-0.3595
10
-0.1369
20
-0.7679
10
-0.1618
20
-0.9094
10
-0.1668
20
-0.9382
10
-0.0841
20
-0.4752
10
-0.1567
20
-0.8972
10
-0.0873
20
-0.5066
10
-0.0656
20
-0.3823
10
-0.0912
20
-0.5397
10
-0.1586
20
-0.9452
10
-0.1633
20
-0.9806
10
-0.0947
20
-0.5706
10
-0.0222
20
-0.1341
10
-0.1547
20
-0.9363
10
-0.0663
20
-0.4019
10
-0.1611
20
-0.9786
10
-0.0980
20
-0.5995
10
-0.1011
20
-0.6277
10
-0.1330
20
-0.8270
10
-0.1261
20
-0.7961
10
-0.1038
20
-0.6552
10
-0.1360
20
-0.8603
10
-0.0662
20
-0.4188
10
-0.0249
20
-0.1582
10
-0.1541
20
-0.9831
10
-0.1198
20
-0.7662
10
-0.1063
20
-0.6825
10
-0.1147
20
-0.7374
10
-0.0336
20
-0.2173
10
-0.1095
20
-0.7096
10
-0.1505
20
-0.9773
10
-0.0304
20
-0.1972
10
-0.0275
20
-0.1787
10
-0.1565
20
-1.0215
10
-0.0365
20
-0.2387
10
-0.1364
20
-0.8966
10
-0.1537
20
-1.0195
10
-0.1488
20
-1.0237
10
-0.1352
20
-0.9362
10
-0.1449
20
-1.0184
10
-0.1495
20
-1.0584
10
-0.0608
20
-0.4320
10
-0.0366
20
-0.2610
10
-0.1460
20
-1.0567
10
-0.1338
20
-0.9768
10
-0.1428
20
-1.0617
10
-0.1108
20
-0.8280
10
-0.1314
20
-0.9865
10
-0.1059
20
-0.7965
10
-0.1008
20
-0.7665
10
-0.1388
20
-1.0560
10
-0.1423
20
-1.0908
10
-0.1118
20
-0.8620
10
-0.0952
20
-0.7375
10
-0.1312
20
-1.0174
10
-0.1392
20
-1.0892
10
-0.0903
20
-0.7099
10
-0.1556
20
-1.2243
10
-0.0860
20
-0.6823
10
-0.1288
20
-1.0258
10
-0.1547
20
-1.2361
10
-0.0354
20
-0.2847
10
-0.1117
20
-0.8983
10
-0.1358
20
-1.0945
10
-0.0812
20
-0.6546
10
-0.1487
20
-1.2109
10
-0.0542
20
-0.4430
10
-0.1330
20
-1.0886
10
-0.1366
20
-1.1197
10
-0.1490
20
-1.2238
10
-0.1284
20
-1.0551
10
-0.0760
20
-0.6271
10
-0.1346
20
-1.1194
10
-0.1124
20
-0.9368
10
-0.1402
20
-1.1709
10
-0.1445
20
-1.2099
10
-0.1474
20
-1.2345
10
-0.1362
20
-1.1480
10
-0.1452
20
-1.2235
10
-0.1403
20
-1.1912
10
-0.0705
20
-0.5990
10
-0.1349
20
-1.1485
10
-0.1371
20
-1.1706
10
-0.1452
20
-1.2408
10
-0.1138
20
-0.9761
10
-0.1241
20
-1.0646
10
-0.1306
20
-1.1223
10
-0.1427
20
-1.2364
10
-0.1394
20
-1.2099
10
-0.1413
20
-1.2264
10
-0.1371
20
-1.1913
10
-0.1278
20
-1.1189
10
-0.0649
20
-0.5692
10
-0.1238
20
-1.0877
10
-0.1301
20
-1.1489
10
-0.1320
20
-1.1720
10
-0.1391
20
-1.2401
10
-0.1133
20
-1.0156
10
-0.1351
20
-1.2109
10
-0.1368
20
-1.2391
10
-0.1314
20
-1.1907
10
-0.1350
20
-1.2279
10
-0.1254
20
-1.1485
10
-0.1078
20
-0.9892
10
-0.0337
20
-0.3094
10
-0.1193
20
-1.0976
10
-0.0582
20
-0.5366
10
-0.0826
20
-0.7688
10
-0.1301
20
-1.2115
10
-0.0857
20
-0.7986
10
-0.1330
20
-1.2410
10
-0.1326
20
-1.2417
10
-0.1190
20
-1.1183
10
-0.1119
20
-1.0531
10
-0.1244
20
-1.1705
10
-0.0881
20
-0.8309
10
-0.1304
20
-1.2401
10
-0.1242
20
-1.1912
10
-0.0770
20
-0.7399
10
-0.1066
20
-1.0278
10
-0.1164
20
-1.1247
10
-0.1282
20
-1.2413
10
-0.1270
20
-1.2430
10
-0.1242
20
-1.2282
10
-0.1162
20
-1.1507
10
-0.0873
20
-0.8653
10
-0.0504
20
-0.4998
10
-0.1220
20
-1.2114
10
-0.1092
20
-1.0864
10
-0.1149
20
-1.1483
10
-0.0705
20
-0.7112
10
-0.1175
20
-1.1903
10
-0.1052
20
-1.0665
10
-0.1223
20
-1.2434
10
-0.1222
20
-1.2436
10
-0.1145
20
-1.1707
10
-0.1212
20
-1.2403
10
-0.0867
20
-0.9007
10
-0.0321
20
-0.3337
10
-0.1067
20
-1.1176
10
-0.0895
20
-0.9380
10
-0.0930
20
-0.9767
10
-0.0647
20
-0.6833
10
-0.1035
20
-1.0992
10
-0.1171
20
-1.2442
10
-0.0950
20
-1.0154
10
-0.1164
20
-1.2438
10
-0.1140
20
-1.2417
10
-0.1141
20
-1.2443
10
-0.1025
20
-1.1259
10
-0.1044
20
-1.1477
10
-0.0417
20
-0.4592
10
-0.0590
20
-0.6559
10
-0.0944
20
-1.0530
10
-0.1112
20
-1.2443
10
-0.0816
20
-0.9154
10
-0.1021
20
-1.1497
10
-0.1037
20
-1.1706
10
-0.0315
20
-0.3567
10
-0.1043
20
-1.1905
10
-0.0833
20
-0.9511
10
-0.1090
20
-1.2445
10
-0.1077
20
-1.2440
10
-0.1077
20
-1.2444
10
-0.0856
20
-0.9890
10
-0.1064
20
-1.2303
10
-0.1042
20
-1.2127
10
-0.1066
20
-1.2405
10
-0.0928
20
-1.0868
10
-0.0659
20
-0.7726
10
-0.0876
20
-1.0285
10
-0.0680
20
-0.8020
10
-0.1052
20
-1.2454
10
-0.0899
20
-1.0661
10
-0.0530
20
-0.6285
10
-0.0317
20
-0.3770
10
-0.1039
20
-1.2454
10
-0.1034
20
-1.2449
10
-0.1033
20
-1.2452
10
-0.0905
20
-1.0984
10
-0.0683
20
-0.8345
10
-0.0914
20
-1.1179
10
-0.1008
20
-1.2396
10
-0.0897
20
-1.1254
10
-0.0991
20
-1.2449
10
-0.0309
20
-0.3946
10
-0.0900
20
-1.1485
10
-0.0973
20
-1.2435
10
-0.0791
20
-1.0170
10
-0.0576
20
-0.7431
10
-0.0671
20
-0.8688
10
-0.0463
20
-0.6001
10
-0.0959
20
-1.2456
10
-0.0751
20
-0.9781
10
-0.0954
20
-1.2453
10
-0.0951
20
-1.2459
10
-0.0876
20
-1.1505
10
-0.0803
20
-1.0549
10
-0.0891
20
-1.1717
10
-0.0934
20
-1.2414
10
-0.0888
20
-1.1927
10
-0.0669
20
-0.9040
10
-0.0694
20
-0.9401
10
-0.0809
20
-1.0961
10
-0.0799
20
-1.0890
10
-0.0778
20
-1.0636
10
-0.0901
20
-1.2341
10
-0.0833
20
-1.1502
10
-0.0877
20
-1.2153
10
-0.0888
20
-1.2322
10
-0.0806
20
-1.1200
10
-0.0838
20
-1.1729
10
-0.0801
20
-1.1246
10
-0.0871
20
-1.2380
10
-0.0874
20
-1.2430
10
-0.0502
20
-0.7140
10
-0.0837
20
-1.1940
10
-0.0718
20
-1.0268
10
-0.0783
20
-1.1207
10
-0.0797
20
-1.1517
10
-0.0584
20
-0.8464
10
-0.0282
20
-0.4098
10
-0.0852
20
-1.2416
10
-0.0853
20
-1.2433
10
-0.0748
20
-1.0933
10
-0.0722
20
-1.0559
10
-0.0764
20
-1.1215
10
-0.0388
20
-0.5696
10
-0.0546
20
-0.8052
10
-0.0690
20
-1.0179
10
-0.0739
20
-1.0906
10
-0.0806
20
-1.1942
10
-0.0757
20
-1.1229
10
-0.0790
20
-1.1738
10
-0.0812
20
-1.2162
10
-0.0729
20
-1.0915
10
-0.0814
20
-1.2266
10
-0.0583
20
-0.8777
10
-0.0542
20
-0.8176
10
-0.0653
20
-0.9872
10
-0.0757
20
-1.1519
10
-0.0757
20
-1.1512
10
-0.0450
20
-0.6858
10
-0.0695
20
-1.0606
10
-0.0795
20
-1.2154
10
-0.0547
20
-0.8373
10
-0.0506
20
-0.7755
10
-0.0775
20
-1.1947
10
-0.0798
20
-1.2325
10
-0.0793
20
-1.2286
10
-0.0754
20
-1.1730
10
-0.0678
20
-1.0579
10
-0.0777
20
-1.2147
10
-0.0786
20
-1.2299
10
-0.0623
20
-0.9795
10
-0.0782
20
-1.2311
10
-0.0578
20
-0.9119
10
-0.0597
20
-0.9481
10
-0.0738
20
-1.1747
10
-0.0747
20
-1.1918
10
-0.0744
20
-1.1948
10
-0.0750
20
-1.2143
10
-0.0748
20
-1.2123
10
-0.0629
20
-1.0233
10
-0.0627
20
-1.0199
10
-0.0535
20
-0.8714
10
-0.0403
20
-0.6585
10
-0.0479
20
-0.7895
10
-0.0692
20
-1.1518
10
-0.0555
20
-0.9422
10
-0.0530
20
-0.9067
10
-0.0684
20
-1.1753
10
-0.0488
20
-0.8430
10
-0.0468
20
-0.8088
10
-0.0480
20
-0.8405
10
-0.0241
20
-0.4235
10
-0.0460
20
-0.8131
10
-0.0354
20
-0.6309
10
-0.0549
20
-0.9812
10
-0.0299
20
-0.5359
10
-0.0548
20
-0.9838
10
-0.0414
20
-0.7462
10
-0.0471
20
-0.8760
10
-0.0463
20
-0.8739
10
-0.0405
20
-0.7797
10
-0.0478
20
-0.9454
10
-0.0457
20
-0.9103
10
-0.0473
20
-0.9438
10
-0.0392
20
-0.7843
10
-0.0452
20
-0.9085
10
-0.0295
20
-0.6021
10
-0.0207
20
-0.4335
10
-0.0342
20
-0.7179
10
-0.0305
20
-0.6901
10
-0.0319
20
-0.7517
10
-0.0320
20
-0.7580
10
-0.0276
20
-0.6622
10
-0.0208
20
-0.4999
10
-0.0283
20
-0.7296
10
-0.0222
20
-0.5713
10
-0.0243
20
-0.6342
10
-0.0160
20
-0.4381
10
-0.0257
20
-0.7231
10
-0.0240
20
-0.6951
10
-0.0217
20
-0.6383
10
-0.0227
20
-0.6671
10
-0.0202
20
-0.6049
10
-0.0150
20
-0.5740
10
-0.0118
20
-0.4677
10
-0.0131
20
-0.5383
10
-0.0072
20
-0.4477
10
-0.0081
20
-0.5425
10
-0.0051
20
-0.5052
10
-0.0034
20
-0.4332
10
-0.0017
20
-0.4423
10
-0.0011
20
-0.4318
10
-0.0010
20
-0.4781
10
-0.0000
20
-0.0177
10
-0.0002
20
-0.4323
10
-0.0000
20
-0.0398
10
-0.0000
20
-0.0616
10
-0.0000
20
-0.0847
10
-0.0000
20
-0.1085
10
-0.0000
20
-0.1328
10
-0.0000
20
-0.1583
10
-0.0000
20
-0.1783
10
-0.0000
20
-0.1956
10
-0.0000
20
-0.2147
10
-0.0000
20
-0.2372
10
-0.0000
20
-0.2607
10
-0.0000
20
-0.2855
10
-0.0000
20
-0.3103
10
-0.0000
20
-0.3347
10
-0.0000
20
-0.3559
10
-0.0000
20
-0.3726
10
-0.0000
20
-0.3863
10
-0.0000
20
-0.3999
10
-0.0000
20
-0.4127
10
-0.0000
20
-0.4215
10
-0.0000
20
-0.4212
10
-0.0000
20
-0.4301
10
-0.0000
20
-0.4268
10
-0.0000
20
-0.4280
10
0.0001
20
-0.4323
10
0.0010
20
-0.4781
10
0.0010
20
-0.4318
10
0.0016
20
-0.4423
10
0.0034
20
-0.4332
10
0.0050
20
-0.5052
10
0.0080
20
-0.5425
10
0.0071
20
-0.4477
10
0.0130
20
-0.5383
10
0.0118
20
-0.4677
10
0.0149
20
-0.5740
10
0.0201
20
-0.6049
10
0.0226
20
-0.6671
10
0.0216
20
-0.6383
10
0.0239
20
-0.6951
10
0.0256
20
-0.7231
10
0.0159
20
-0.4381
10
0.0242
20
-0.6342
10
0.0221
20
-0.5713
10
0.0282
20
-0.7296
10
0.0207
20
-0.4999
10
0.0275
20
-0.6622
10
0.0319
20
-0.7580
10
0.0318
20
-0.7517
10
0.0304
20
-0.6901
10
0.0341
20
-0.7179
10
0.0207
20
-0.4335
10
0.0294
20
-0.6021
10
0.0451
20
-0.9085
10
0.0391
20
-0.7843
10
0.0472
20
-0.9438
10
0.0456
20
-0.9103
10
0.0477
20
-0.9454
10
0.0404
20
-0.7797
10
0.0462
20
-0.8739
10
0.0470
20
-0.8760
10
0.0413
20
-0.7462
10
0.0547
20
-0.9838
10
0.0299
20
-0.5359
10
0.0548
20
-0.9812
10
0.0353
20
-0.6309
10
0.0459
20
-0.8131
10
0.0241
20
-0.4235
10
0.0479
20
-0.8405
10
0.0467
20
-0.8088
10
0.0487
20
-0.8430
10
0.0683
20
-1.1753
10
0.0529
20
-0.9067
10
0.0554
20
-0.9422
10
0.0690
20
-1.1518
10
0.0478
20
-0.7895
10
0.0403
20
-0.6585
10
0.0534
20
-0.8714
10
0.0626
20
-1.0199
10
0.0628
20
-1.0233
10
0.0747
20
-1.2123
10
0.0749
20
-1.2143
10
0.0743
20
-1.1948
10
0.0745
20
-1.1919
10
0.0737
20
-1.1747
10
0.0596
20
-0.9481
10
0.0577
20
-0.9119
10
0.0781
20
-1.2311
10
0.0622
20
-0.9795
10
0.0785
20
-1.2299
10
0.0776
20
-1.2147
10
0.0677
20
-1.0579
10
0.0753
20
-1.1730
10
0.0792
20
-1.2286
10
0.0797
20
-1.2325
10
0.0774
20
-1.1947
10
0.0505
20
-0.7755
10
0.0546
20
-0.8373
10
0.0793
20
-1.2154
10
0.0694
20
-1.0606
10
0.0449
20
-0.6858
10
0.0756
20
-1.1512
10
0.0756
20
-1.1519
10
0.0652
20
-0.9872
10
0.0541
20
-0.8176
10
0.0582
20
-0.8777
10
0.0813
20
-1.2266
10
0.0727
20
-1.0915
10
0.0811
20
-1.2162
10
0.0789
20
-1.1738
10
0.0756
20
-1.1229
10
0.0804
20
-1.1942
10
0.0738
20
-1.0906
10
0.0689
20
-1.0179
10
0.0545
20
-0.8052
10
0.0387
20
-0.5696
10
0.0763
20
-1.1215
10
0.0721
20
-1.0559
10
0.0746
20
-1.0933
10
0.0852
20
-1.2433
10
0.0851
20
-1.2417
10
0.0282
20
-0.4098
10
0.0583
20
-0.8464
10
0.0796
20
-1.1517
10
0.0782
20
-1.1207
10
0.0717
20
-1.0268
10
0.0835
20
-1.1940
10
0.0501
20
-0.7140
10
0.0872
20
-1.2430
10
0.0870
20
-1.2380
10
0.0799
20
-1.1246
10
0.0837
20
-1.1729
10
0.0805
20
-1.1200
10
0.0886
20
-1.2322
10
0.0876
20
-1.2154
10
0.0832
20
-1.1502
10
0.0900
20
-1.2341
10
0.0777
20
-1.0637
10
0.0797
20
-1.0890
10
0.0808
20
-1.0961
10
0.0693
20
-0.9401
10
0.0668
20
-0.9040
10
0.0887
20
-1.1927
10
0.0933
20
-1.2414
10
0.0890
20
-1.1717
10
0.0802
20
-1.0549
10
0.0875
20
-1.1505
10
0.0949
20
-1.2459
10
0.0953
20
-1.2454
10
0.0750
20
-0.9781
10
0.0958
20
-1.2457
10
0.0462
20
-0.6001
10
0.0670
20
-0.8688
10
0.0575
20
-0.7431
10
0.0790
20
-1.0170
10
0.0972
20
-1.2435
10
0.0309
20
-0.3946
10
0.0899
20
-1.1486
10
0.0990
20
-1.2449
10
0.0895
20
-1.1254
10
0.1007
20
-1.2396
10
0.0913
20
-1.1180
10
0.0682
20
-0.8345
10
0.0903
20
-1.0984
10
0.1031
20
-1.2452
10
0.1032
20
-1.2449
10
0.1038
20
-1.2454
10
0.0316
20
-0.3770
10
0.0529
20
-0.6285
10
0.0898
20
-1.0661
10
0.1051
20
-1.2454
10
0.0679
20
-0.8020
10
0.0875
20
-1.0285
10
0.0658
20
-0.7726
10
0.0927
20
-1.0868
10
0.1064
20
-1.2405
10
0.1041
20
-1.2127
10
0.1063
20
-1.2303
10
0.0854
20
-0.9890
10
0.1075
20
-1.2444
10
0.1076
20
-1.2440
10
0.0832
20
-0.9511
10
0.1088
20
-1.2446
10
0.1042
20
-1.1905
10
0.0315
20
-0.3567
10
0.1036
20
-1.1706
10
0.1020
20
-1.1497
10
0.0815
20
-0.9154
10
0.1111
20
-1.2443
10
0.0943
20
-1.0530
10
0.0589
20
-0.6559
10
0.0416
20
-0.4592
10
0.1043
20
-1.1478
10
0.1024
20
-1.1259
10
0.1140
20
-1.2443
10
0.1138
20
-1.2418
10
0.1163
20
-1.2439
10
0.0949
20
-1.0154
10
0.1170
20
-1.2442
10
0.1034
20
-1.0992
10
0.0646
20
-0.6833
10
0.0929
20
-0.9767
10
0.0894
20
-0.9380
10
0.1066
20
-1.1177
10
0.0320
20
-0.3337
10
0.0866
20
-0.9007
10
0.1211
20
-1.2403
10
0.1144
20
-1.1707
10
0.1220
20
-1.2436
10
0.1222
20
-1.2434
10
0.1051
20
-1.0665
10
0.1173
20
-1.1903
10
0.0704
20
-0.7112
10
0.1148
20
-1.1483
10
0.1091
20
-1.0864
10
0.1218
20
-1.2114
10
0.0503
20
-0.4998
10
0.0872
20
-0.8653
10
0.1160
20
-1.1507
10
0.1241
20
-1.2282
10
0.1268
20
-1.2430
10
0.1281
20
-1.2413
10
0.1162
20
-1.1248
10
0.1065
20
-1.0278
10
0.0769
20
-0.7399
10
0.1241
20
-1.1912
10
0.1303
20
-1.2402
10
0.0880
20
-0.8309
10
0.1243
20
-1.1706
10
0.1118
20
-1.0531
10
0.1189
20
-1.1184
10
0.1324
20
-1.2417
10
0.1329
20
-1.2411
10
0.0856
20
-0.7986
10
0.1300
20
-1.2115
10
0.0825
20
-0.7688
10
0.0581
20
-0.5366
10
0.1192
20
-1.0976
10
0.0337
20
-0.3094
10
0.1077
20
-0.9892
10
0.1253
20
-1.1485
10
0.1348
20
-1.2279
10
0.1313
20
-1.1907
10
0.1366
20
-1.2391
10
0.1350
20
-1.2110
10
0.1132
20
-1.0156
10
0.1390
20
-1.2401
10
0.1318
20
-1.1720
10
0.1300
20
-1.1489
10
0.1237
20
-1.0877
10
0.0648
20
-0.5692
10
0.1277
20
-1.1189
10
0.1370
20
-1.1913
10
0.1411
20
-1.2265
10
0.1393
20
-1.2100
10
0.1425
20
-1.2364
10
0.1305
20
-1.1224
10
0.1239
20
-1.0646
10
0.1136
20
-0.9761
10
0.1451
20
-1.2408
10
0.1369
20
-1.1706
10
0.1347
20
-1.1485
10
0.0704
20
-0.5990
10
0.1401
20
-1.1912
10
0.1450
20
-1.2235
10
0.1361
20
-1.1480
10
0.1473
20
-1.2345
10
0.1444
20
-1.2099
10
0.1400
20
-1.1709
10
0.1123
20
-0.9368
10
0.1344
20
-1.1194
10
0.0760
20
-0.6271
10
0.1282
20
-1.0551
10
0.1489
20
-1.2238
10
0.1365
20
-1.1198
10
0.1329
20
-1.0886
10
0.0542
20
-0.4430
10
0.1485
20
-1.2109
10
0.0811
20
-0.6547
10
0.1357
20
-1.0945
10
0.1116
20
-0.8983
10
0.0354
20
-0.2847
10
0.1545
20
-1.2361
10
0.1286
20
-1.0258
10
0.0859
20
-0.6823
10
0.1555
20
-1.2243
10
0.0902
20
-0.7099
10
0.1390
20
-1.0892
10
0.1311
20
-1.0174
10
0.0951
20
-0.7375
10
0.1117
20
-0.8620
10
0.1422
20
-1.0908
10
0.1387
20
-1.0560
10
0.1008
20
-0.7665
10
0.1058
20
-0.7965
10
0.1313
20
-0.9865
10
0.1107
20
-0.8280
10
0.1427
20
-1.0617
10
0.1337
20
-0.9768
10
0.1459
20
-1.0567
10
0.0365
20
-0.2610
10
0.0608
20
-0.4320
10
0.1493
20
-1.0584
10
0.1448
20
-1.0184
10
0.1351
20
-0.9362
10
0.1487
20
-1.0237
10
0.1536
20
-1.0195
10
0.1363
20
-0.8967
10
0.0365
20
-0.2387
10
0.1563
20
-1.0215
10
0.0274
20
-0.1787
10
0.0303
20
-0.1972
10
0.1504
20
-0.9773
10
0.1095
20
-0.7096
10
0.0336
20
-0.2173
10
0.1146
20
-0.7374
10
0.1062
20
-0.6825
10
0.1197
20
-0.7663
10
0.1540
20
-0.9831
10
0.0248
20
-0.1582
10
0.0661
20
-0.4188
10
0.1359
20
-0.8603
10
0.1037
20
-0.6552
10
0.1260
20
-0.7961
10
0.1329
20
-0.8270
10
0.1010
20
-0.6277
10
0.0979
20
-0.5995
10
0.1610
20
-0.9787
10
0.0663
20
-0.4019
10
0.0221
20
-0.1341
10
0.1546
20
-0.9363
10
0.0946
20
-0.5706
10
0.1632
20
-0.9806
10
0.1584
20
-0.9452
10
0.0911
20
-0.5397
10
0.0656
20
-0.3823
10
0.0872
20
-0.5066
10
0.1565
20
-0.8972
10
0.0840
20
-0.4752
10
0.1667
20
-0.9382
10
0.1617
20
-0.9094
10
0.1368
20
-0.7679
10
0.0642
20
-0.3595
10
0.1688
20
-0.9414
10
0.1326
20
-0.7392
10
0.1278
20
-0.7113
10
0.1554
20
-0.8608
10
0.1443
20
-0.7968
10
0.0202
20
-0.1106
10
0.1516
20
-0.8276
10
0.1256
20
-0.6843
10
0.1617
20
-0.8758
10
0.1698
20
-0.9000
10
0.0634
20
-0.3348
10
0.1249
20
-0.6573
10
0.1725
20
-0.9041
10
0.1687
20
-0.8639
10
0.1540
20
-0.7845
10
0.1460
20
-0.7438
10
0.1515
20
-0.7712
10
0.1720
20
-0.8690
10
0.1583
20
-0.7998
10
0.1646
20
-0.8307
10
0.1248
20
-0.6297
10
0.1427
20
-0.7160
10
0.1674
20
-0.8366
10
0.1616
20
-0.8059
10
0.0913
20
-0.4524
10
0.1598
20
-0.7771
10
0.1419
20
-0.6888
10
0.1561
20
-0.7572
10
0.1246
20
-0.6016
10
0.1585
20
-0.7502
10
0.0656
20
-0.3090
10
0.1239
20
-0.5729
10
0.1432
20
-0.6618
10
0.1576
20
-0.7227
10
0.1594
20
-0.7305
10
0.0191
20
-0.0876
10
0.0975
20
-0.4361
10
0.1568
20
-0.6954
10
0.1231
20
-0.5432
10
0.1597
20
-0.7037
10
0.1457
20
-0.6338
10
0.1581
20
-0.6683
10
0.0674
20
-0.2840
10
0.1005
20
-0.4219
10
0.1222
20
-0.5125
10
0.1616
20
-0.6763
10
0.1479
20
-0.6049
10
0.0995
20
-0.4046
10
0.1611
20
-0.6403
10
0.0976
20
-0.3844
10
0.1655
20
-0.6486
10
0.1233
20
-0.4826
10
0.1493
20
-0.5763
10
0.0683
20
-0.2604
10
0.0956
20
-0.3612
10
0.1643
20
-0.6109
10
0.1704
20
-0.6191
10
0.1506
20
-0.5464
10
0.1281
20
-0.4563
10
0.0942
20
-0.3358
10
0.0675
20
-0.2387
10
0.1672
20
-0.5816
10
0.0190
20
-0.0651
10
0.0637
20
-0.2176
10
0.1521
20
-0.5156
10
0.0585
20
-0.1976
10
0.1757
20
-0.5895
10
0.0538
20
-0.1790
10
0.1317
20
-0.4346
10
0.0945
20
-0.3089
10
0.1295
20
-0.4182
10
0.1710
20
-0.5511
10
0.0496
20
-0.1582
10
0.1268
20
-0.4016
10
0.1240
20
-0.3833
10
0.1570
20
-0.4842
10
0.1818
20
-0.5586
10
0.0455
20
-0.1359
10
0.1753
20
-0.5190
10
0.0959
20
-0.2837
10
0.1223
20
-0.3619
10
0.1620
20
-0.4536
10
0.1878
20
-0.5256
10
0.1210
20
-0.3373
10
0.0957
20
-0.2593
10
0.0423
20
-0.1134
10
0.1822
20
-0.4852
10
0.1484
20
-0.3936
10
0.1436
20
-0.3798
10
0.1562
20
-0.4079
10
0.1642
20
-0.4260
10
0.1200
20
-0.3103
10
0.0930
20
-0.2366
10
0.1426
20
-0.3613
10
0.1941
20
-0.4903
10
0.0888
20
-0.2159
10
0.1556
20
-0.3743
10
0.1888
20
-0.4502
10
0.0827
20
-0.1965
10
0.1429
20
-0.3379
10
0.1213
20
-0.2838
10
0.1641
20
-0.3803
10
0.0774
20
-0.1782
10
0.2001
20
-0.4535
10
0.1585
20
-0.3590
10
0.0404
20
-0.0914
10
0.1767
20
-0.3902
10
0.1430
20
-0.3111
10
0.0194
20
-0.0421
10
0.0731
20
-0.1585
10
0.1200
20
-0.2581
10
0.1924
20
-0.4091
10
0.1608
20
-0.3359
10
0.1726
20
-0.3602
10
0.1163
20
-0.2346
10
0.0691
20
-0.1376
10
0.1435
20
-0.2834
10
0.1867
20
-0.3648
10
0.1113
20
-0.2143
10
0.1624
20
-0.3095
10
0.1766
20
-0.3353
10
0.1989
20
-0.3722
10
0.1054
20
-0.1956
10
0.1420
20
-0.2566
10
0.0997
20
-0.1775
10
0.1895
20
-0.3369
10
0.0654
20
-0.1161
10
0.0398
20
-0.0688
10
0.1787
20
-0.3082
10
0.1635
20
-0.2816
10
0.1984
20
-0.3400
10
0.1382
20
-0.2325
10
0.0952
20
-0.1587
10
0.1908
20
-0.3079
10
0.1326
20
-0.2118
10
0.1971
20
-0.3097
10
0.1623
20
-0.2542
10
0.1806
20
-0.2792
10
0.1268
20
-0.1941
10
0.0627
20
-0.0949
10
0.0922
20
-0.1387
10
0.1213
20
-0.1765
10
0.1582
20
-0.2302
10
0.1923
20
-0.2782
10
0.1796
20
-0.2509
10
0.1523
20
-0.2097
10
0.1164
20
-0.1588
10
0.0885
20
-0.1179
10
0.1461
20
-0.1926
10
0.1903
20
-0.2498
10
0.1748
20
-0.2279
10
0.1412
20
-0.1758
10
0.1683
20
-0.2088
10
0.1854
20
-0.2283
10
0.1140
20
-0.1396
10
0.1621
20
-0.1925
10
0.0618
20
-0.0728
10
0.1795
20
-0.2103
10
0.1361
20
-0.1589
10
0.0848
20
-0.0976
10
0.1577
20
-0.1763
10
0.1735
20
-0.1940
10
0.0404
20
-0.0450
10
0.1099
20
-0.1199
10
0.1692
20
-0.1783
10
0.1338
20
-0.1408
10
0.1527
20
-0.1596
10
0.1742
20
-0.1819
10
0.1650
20
-0.1617
10
0.0197
20
-0.0190
10
0.1712
20
-0.1650
10
0.1055
20
-0.1005
10
0.1509
20
-0.1423
10
0.1296
20
-0.1217
10
0.0835
20
-0.0770
10
0.1633
20
-0.1448
10
0.1699
20
-0.1482
10
0.1471
20
-0.1238
10
0.1247
20
-0.1037
10
0.0625
20
-0.0493
10
0.1609
20
-0.1268
10
0.1040
20
-0.0816
10
0.1683
20
-0.1300
10
0.1419
20
-0.1065
10
0.1228
20
-0.0864
10
0.1566
20
-0.1096
10
0.1649
20
-0.1121
10
0.0842
20
-0.0549
10
0.1402
20
-0.0901
10
0.1547
20
-0.0929
10
0.1630
20
-0.0950
10
0.1052
20
-0.0611
10
0.1251
20
-0.0675
10
0.0416
20
-0.0213
10
0.1428
20
-0.0724
10
0.1566
20
-0.0754
10
0.1641
20
-0.0771
10
0.0645
20
-0.0259
10
0.0868
20
-0.0332
10
0.1083
20
-0.0412
10
0.1282
20
-0.0486
10
0.1455
20
-0.0542
10
0.1587
20
-0.0574
10
0.1659
20
-0.0588
10
0.1601
20
-0.0410
10
0.1487
20
-0.0379
10
0.1667
20
-0.0417
10
0.1337
20
-0.0322
10
0.1148
20
-0.0241
10
0.1643
20
-0.0266
10
0.1694
20
-0.0270
10
0.1555
20
-0.0234
10
0.0929
20
-0.0136
10
0.1425
20
-0.0167
10
0.1750
20
-0.0136
10
0.1712
20
-0.0123
10
0.1244
20
-0.0077
10
0.1639
20
-0.0076
10
0.0688
20
-0.0021
10
0.1526
20
-0.0000
10
0.1799
20
0.0022
10
0.1770
20
0.0036
10
0.1795
20
0.0051
10
0.1029
20
0.0051
10
0.1711
20
0.0086
10
0.8280
20
0.0521
10
0.1372
20
0.0087
10
0.8460
20
0.0537
10
0.8315
20
0.0538
10
0.8241
20
0.0534
10
0.8422
20
0.0548
10
0.8506
20
0.0554
10
0.8263
20
0.0543
10
0.8454
20
0.0559
10
0.8290
20
0.0549
10
0.8298
20
0.0552
10
0.8424
20
0.0561
10
0.8229
20
0.0549
10
0.8319
20
0.0557
10
0.8486
20
0.0569
10
0.8391
20
0.0568
10
0.8458
20
0.0574
10
0.8213
20
0.0560
10
0.8493
20
0.0581
10
0.8263
20
0.0565
10
0.8420
20
0.0578
10
0.8395
20
0.0577
10
0.8203
20
0.0567
10
0.8065
20
0.0560
10
0.8324
20
0.0583
10
0.8029
20
0.0563
10
0.8390
20
0.0592
10
0.8035
20
0.0568
10
0.8289
20
0.0588
10
0.8232
20
0.0584
10
0.8260
20
0.0586
10
0.8090
20
0.0574
10
0.8367
20
0.0595
10
0.8371
20
0.0595
10
0.8053
20
0.0574
10
0.8006
20
0.0572
10
0.8324
20
0.0595
10
0.8468
20
0.0607
10
0.8187
20
0.0587
10
0.8227
20
0.0591
10
0.8196
20
0.0589
10
0.8372
20
0.0604
10
0.8511
20
0.0615
10
0.8311
20
0.0603
10
0.8430
20
0.0612
10
0.0432
20
0.0031
10
0.8080
20
0.0588
10
0.8428
20
0.0614
10
0.8486
20
0.0618
10
0.8456
20
0.0617
10
0.8212
20
0.0600
10
0.8078
20
0.0592
10
0.8093
20
0.0594
10
0.8020
20
0.0589
10
0.8016
20
0.0588
10
0.8062
20
0.0592
10
0.8198
20
0.0604
10
0.8499
20
0.0627
10
0.7993
20
0.0590
10
0.8105
20
0.0599
10
0.8397
20
0.0621
10
0.8506
20
0.0631
10
0.8011
20
0.0594
10
0.8282
20
0.0615
10
0.8015
20
0.0596
10
0.8470
20
0.0633
10
0.8482
20
0.0634
10
0.8045
20
0.0602
10
0.8448
20
0.0633
10
0.8081
20
0.0606
10
0.8035
20
0.0604
10
0.7984
20
0.0601
10
0.8402
20
0.0633
10
0.8429
20
0.0636
10
0.8449
20
0.0638
10
0.8363
20
0.0631
10
0.8485
20
0.0641
10
0.8330
20
0.0630
10
0.8410
20
0.0638
10
0.8178
20
0.0620
10
0.8509
20
0.0645
10
0.8092
20
0.0614
10
0.8037
20
0.0610
10
0.8346
20
0.0634
10
0.8391
20
0.0638
10
0.8245
20
0.0628
10
0.8360
20
0.0638
10
0.7987
20
0.0610
10
0.8295
20
0.0634
10
0.8139
20
0.0622
10
0.7966
20
0.0610
10
0.8116
20
0.0623
10
0.8182
20
0.0628
10
0.8002
20
0.0615
10
0.7942
20
0.0612
10
0.8417
20
0.0649
10
0.8329
20
0.0642
10
0.8271
20
0.0638
10
0.8211
20
0.0634
10
0.8384
20
0.0648
10
0.7968
20
0.0616
10
0.8380
20
0.0654
10
0.8019
20
0.0626
10
0.8105
20
0.0634
10
0.7992
20
0.0626
10
0.8231
20
0.0646
10
0.8392
20
0.0660
10
0.8326
20
0.0655
10
0.8371
20
0.0659
10
0.8018
20
0.0632
10
0.8100
20
0.0640
10
0.8081
20
0.0641
10
0.8512
20
0.0675
10
0.8075
20
0.0642
10
0.8486
20
0.0675
10
0.8046
20
0.0641
10
0.8131
20
0.0649
10
0.8074
20
0.0645
10
0.7968
20
0.0637
10
0.8510
20
0.0680
10
0.8502
20
0.0680
10
0.8010
20
0.0642
10
0.8485
20
0.0680
10
0.8464
20
0.0678
10
0.8196
20
0.0657
10
0.8315
20
0.0668
10
0.8435
20
0.0679
10
0.8505
20
0.0686
10
0.8446
20
0.0683
10
0.7938
20
0.0642
10
0.8088
20
0.0655
10
0.8340
20
0.0675
10
0.8342
20
0.0676
10
0.8051
20
0.0653
10
0.8487
20
0.0689
10
0.8299
20
0.0674
10
0.8458
20
0.0689
10
0.8395
20
0.0685
10
0.7975
20
0.0651
10
0.8404
20
0.0686
10
0.8487
20
0.0694
10
0.8421
20
0.0689
10
0.7989
20
0.0655
10
0.8360
20
0.0685
10
0.8372
20
0.0687
10
0.7971
20
0.0654
10
0.8355
20
0.0686
10
0.7926
20
0.0651
10
0.7870
20
0.0647
10
0.8386
20
0.0690
10
0.8136
20
0.0670
10
0.8021
20
0.0661
10
0.8173
20
0.0674
10
0.8101
20
0.0668
10
0.8353
20
0.0693
10
0.8257
20
0.0687
10
0.8113
20
0.0676
10
0.8307
20
0.0693
10
0.8445
20
0.0705
10
0.8071
20
0.0674
10
0.7951
20
0.0665
10
0.8052
20
0.0675
10
0.8032
20
0.0673
10
0.8334
20
0.0699
10
0.8179
20
0.0687
10
0.8105
20
0.0682
10
0.8496
20
0.0715
10
0.8396
20
0.0707
10
0.8215
20
0.0693
10
0.8353
20
0.0705
10
0.8512
20
0.0719
10
0.8153
20
0.0690
10
0.8031
20
0.0681
10
0.8249
20
0.0700
10
0.8514
20
0.0722
10
0.8349
20
0.0709
10
0.8351
20
0.0711
10
0.8083
20
0.0693
10
0.8483
20
0.0729
10
0.8089
20
0.0696
10
0.8102
20
0.0697
10
0.7846
20
0.0676
10
0.8026
20
0.0692
10
0.8508
20
0.0734
10
0.8091
20
0.0700
10
0.7950
20
0.0688
10
0.8503
20
0.0737
10
0.8148
20
0.0709
10
0.8205
20
0.0714
10
0.7999
20
0.0696
10
0.8108
20
0.0706
10
0.8451
20
0.0739
10
0.7969
20
0.0699
10
0.8058
20
0.0708
10
0.8491
20
0.0747
10
0.7957
20
0.0701
10
0.8491
20
0.0749
10
0.8316
20
0.0735
10
0.8462
20
0.0750
10
0.8422
20
0.0746
10
0.8508
20
0.0755
10
0.8127
20
0.0722
10
0.8442
20
0.0750
10
0.7978
20
0.0709
10
0.8337
20
0.0742
10
0.8335
20
0.0741
10
0.8407
20
0.0748
10
0.8082
20
0.0719
10
0.8373
20
0.0746
10
0.8019
20
0.0715
10
0.8364
20
0.0746
10
0.7802
20
0.0696
10
0.8107
20
0.0725
10
0.8105
20
0.0727
10
0.8394
20
0.0758
10
0.8527
20
0.0770
10
0.8057
20
0.0728
10
0.7970
20
0.0720
10
0.7939
20
0.0718
10
0.8179
20
0.0741
10
0.8271
20
0.0750
10
0.8071
20
0.0732
10
0.8487
20
0.0771
10
0.8258
20
0.0750
10
0.7790
20
0.0708
10
0.8126
20
0.0742
10
0.7828
20
0.0715
10
0.8319
20
0.0760
10
0.8505
20
0.0777
10
0.8211
20
0.0754
10
0.8033
20
0.0738
10
0.8456
20
0.0777
10
0.8227
20
0.0757
10
0.8504
20
0.0784
10
0.8191
20
0.0756
10
0.8092
20
0.0748
10
0.8350
20
0.0773
10
0.8360
20
0.0778
10
0.8023
20
0.0747
10
0.7943
20
0.0742
10
0.8403
20
0.0786
10
0.8360
20
0.0782
10
0.8338
20
0.0782
10
0.7964
20
0.0747
10
0.1621
20
0.0152
10
0.7858
20
0.0739
10
0.8362
20
0.0786
10
0.8126
20
0.0766
10
0.8084
20
0.0764
10
0.8057
20
0.0761
10
0.8182
20
0.0773
10
0.8087
20
0.0764
10
0.8468
20
0.0802
10
0.8318
20
0.0790
10
0.8502
20
0.0809
10
0.7970
20
0.0758
10
0.8111
20
0.0773
10
0.8110
20
0.0775
10
0.8013
20
0.0767
10
0.7935
20
0.0759
10
0.8080
20
0.0775
10
0.7989
20
0.0767
10
0.8465
20
0.0813
10
0.8274
20
0.0795
10
0.7735
20
0.0744
10
0.8190
20
0.0789
10
0.8416
20
0.0812
10
0.8227
20
0.0795
10
0.8505
20
0.0826
10
0.8394
20
0.0815
10
0.7810
20
0.0759
10
0.7734
20
0.0752
10
0.8090
20
0.0787
10
0.8406
20
0.0819
10
0.8447
20
0.0824
10
0.8347
20
0.0814
10
0.7941
20
0.0777
10
0.8355
20
0.0820
10
0.8018
20
0.0787
10
0.8341
20
0.0819
10
0.8052
20
0.0794
10
0.8362
20
0.0825
10
0.8320
20
0.0823
10
0.8355
20
0.0826
10
0.8493
20
0.0840
10
0.8322
20
0.0824
10
0.8401
20
0.0832
10
0.8452
20
0.0837
10
0.7964
20
0.0790
10
0.8199
20
0.0813
10
0.8511
20
0.0845
10
0.8006
20
0.0796
10
0.8252
20
0.0823
10
0.8167
20
0.0819
10
0.7873
20
0.0790
10
0.8523
20
0.0856
10
0.8074
20
0.0813
10
0.8029
20
0.0815
10
0.7965
20
0.0808
10
0.8308
20
0.0843
10
0.1840
20
0.0187
10
0.8176
20
0.0831
10
0.7767
20
0.0789
10
0.8020
20
0.0816
10
0.7751
20
0.0790
10
0.7929
20
0.0810
10
0.7899
20
0.0809
10
0.7663
20
0.0786
10
0.8410
20
0.0864
10
0.8061
20
0.0829
10
0.8216
20
0.0846
10
0.8105
20
0.0835
10
0.8085
20
0.0833
10
0.8077
20
0.0833
10
0.8462
20
0.0872
10
0.8270
20
0.0855
10
0.7930
20
0.0820
10
0.8314
20
0.0861
10
0.8348
20
0.0865
10
0.8045
20
0.0834
10
0.8326
20
0.0863
10
0.8348
20
0.0866
10
0.8328
20
0.0864
10
0.7637
20
0.0793
10
0.8340
20
0.0866
10
0.7998
20
0.0832
10
0.1828
20
0.0191
10
0.7954
20
0.0830
10
0.8460
20
0.0883
10
0.8492
20
0.0886
10
0.8347
20
0.0873
10
0.8306
20
0.0869
10
0.8372
20
0.0876
10
0.8400
20
0.0879
10
0.8305
20
0.0871
10
0.8346
20
0.0876
10
0.8491
20
0.0895
10
0.7849
20
0.0829
10
0.8388
20
0.0887
10
0.8426
20
0.0897
10
0.7607
20
0.0810
10
0.7562
20
0.0809
10
0.7996
20
0.0859
10
0.8438
20
0.0907
10
0.7707
20
0.0836
10
0.7946
20
0.0865
10
0.8475
20
0.0925
10
0.7907
20
0.0863
10
0.7651
20
0.0838
10
0.8285
20
0.0910
10
0.8317
20
0.0915
10
0.8494
20
0.0935
10
0.8288
20
0.0915
10
0.7806
20
0.0862
10
0.8387
20
0.0927
10
0.7920
20
0.0877
10
0.7782
20
0.0862
10
0.8145
20
0.0903
10
0.7474
20
0.0828
10
0.7543
20
0.0837
10
0.7982
20
0.0886
10
0.8164
20
0.0907
10
0.7959
20
0.0884
10
0.7926
20
0.0881
10
0.8329
20
0.0930
10
0.8161
20
0.0911
10
0.8505
20
0.0950
10
0.8439
20
0.0944
10
0.7952
20
0.0890
10
0.8017
20
0.0900
10
0.7992
20
0.0897
10
0.8382
20
0.0941
10
0.8220
20
0.0924
10
0.8040
20
0.0905
10
0.7887
20
0.0890
10
0.8083
20
0.0916
10
0.7665
20
0.0869
10
0.8438
20
0.0958
10
0.8208
20
0.0933
10
0.8465
20
0.0962
10
0.8099
20
0.0926
10
0.8301
20
0.0949
10
0.8300
20
0.0949
10
0.7928
20
0.0907
10
0.8074
20
0.0925
10
0.7557
20
0.0866
10
0.7921
20
0.0908
10
0.8260
20
0.0947
10
0.7954
20
0.0913
10
0.8464
20
0.0972
10
0.8337
20
0.0960
10
0.8145
20
0.0938
10
0.8280
20
0.0954
10
0.7919
20
0.0917
10
0.8322
20
0.0965
10
0.8162
20
0.0947
10
0.8303
20
0.0964
10
0.7992
20
0.0928
10
0.8158
20
0.0949
10
0.7957
20
0.0927
10
0.7914
20
0.0924
10
0.8253
20
0.0966
10
0.7911
20
0.0926
10
0.8325
20
0.0975
10
0.8390
20
0.0984
10
0.8329
20
0.0980
10
0.8278
20
0.0974
10
0.7833
20
0.0924
10
0.8361
20
0.0986
10
0.8263
20
0.0977
10
0.7933
20
0.0939
10
0.8199
20
0.0972
10
0.7904
20
0.0938
10
0.8037
20
0.0954
10
0.7682
20
0.0912
10
0.1828
20
0.0217
10
0.7354
20
0.0875
10
0.8200
20
0.0980
10
0.7739
20
0.0925
10
0.7978
20
0.0954
10
0.8232
20
0.0984
10
0.8335
20
0.0997
10
0.7821
20
0.0936
10
0.8012
20
0.0961
10
0.7456
20
0.0895
10
0.8303
20
0.0997
10
0.7614
20
0.0916
10
0.8125
20
0.0977
10
0.7437
20
0.0896
10
0.8111
20
0.0978
10
0.8412
20
0.1015
10
0.8284
20
0.1001
10
0.8079
20
0.0977
10
0.8245
20
0.0999
10
0.8242
20
0.1000
10
0.8443
20
0.1025
10
0.8282
20
0.1005
10
0.8253
20
0.1003
10
0.8394
20
0.1022
10
0.8118
20
0.0993
10
0.8355
20
0.1023
10
0.7867
20
0.0966
10
0.7844
20
0.0963
10
0.8300
20
0.1020
10
0.8097
20
0.0996
10
0.7837
20
0.0964
10
0.7925
20
0.0976
10
0.8192
20
0.1009
10
0.8071
20
0.0995
10
0.7840
20
0.0966
10
0.8162
20
0.1006
10
0.8311
20
0.1026
10
0.8014
20
0.0992
10
0.8261
20
0.1024
10
0.8291
20
0.1030
10
0.8467
20
0.1053
10
0.8430
20
0.1049
10
0.7708
20
0.0960
10
0.8193
20
0.1022
10
0.8405
20
0.1049
10
0.8281
20
0.1034
10
0.8300
20
0.1038
10
0.8209
20
0.1028
10
0.7587
20
0.0952
10
0.8238
20
0.1036
10
0.8336
20
0.1052
10
0.7826
20
0.0988
10
0.8434
20
0.1065
10
0.8479
20
0.1071
10
0.7892
20
0.0998
10
0.8359
20
0.1058
10
0.8239
20
0.1043
10
0.8154
20
0.1035
10
0.8205
20
0.1042
10
0.8318
20
0.1061
10
0.7257
20
0.0927
10
0.8253
20
0.1056
10
0.7760
20
0.0994
10
0.7975
20
0.1022
10
0.7714
20
0.0992
10
0.8311
20
0.1069
10
0.8043
20
0.1034
10
0.8358
20
0.1078
10
0.8330
20
0.1074
10
0.8018
20
0.1035
10
0.1785
20
0.0230
10
0.7788
20
0.1006
10
0.7347
20
0.0950
10
0.8033
20
0.1040
10
0.7536
20
0.0977
10
0.8226
20
0.1068
10
0.7324
20
0.0951
10
0.8248
20
0.1072
10
0.7678
20
0.1000
10
0.8386
20
0.1092
10
0.8017
20
0.1045
10
0.8261
20
0.1077
10
0.8084
20
0.1056
10
0.7841
20
0.1024
10
0.7760
20
0.1017
10
0.7932
20
0.1041
10
0.8247
20
0.1084
10
0.8414
20
0.1109
10
0.8070
20
0.1064
10
0.7835
20
0.1033
10
0.8103
20
0.1069
10
0.7957
20
0.1050
10
0.8055
20
0.1064
10
0.7746
20
0.1024
10
0.7753
20
0.1025
10
0.7767
20
0.1028
10
0.8373
20
0.1109
10
0.8284
20
0.1098
10
0.8406
20
0.1114
10
0.7911
20
0.1050
10
0.8115
20
0.1077
10
0.8085
20
0.1074
10
0.7800
20
0.1037
10
0.7887
20
0.1049
10
0.8025
20
0.1069
10
0.7741
20
0.1031
10
0.7972
20
0.1062
10
0.8115
20
0.1082
10
0.7479
20
0.0997
10
0.7961
20
0.1063
10
0.8210
20
0.1097
10
0.7718
20
0.1035
10
0.7608
20
0.1020
10
0.8408
20
0.1129
10
0.7685
20
0.1033
10
0.8130
20
0.1093
10
0.8436
20
0.1136
10
0.7899
20
0.1064
10
0.7522
20
0.1014
10
0.7629
20
0.1029
10
0.7709
20
0.1040
10
0.7550
20
0.1019
10
0.7482
20
0.1012
10
0.8270
20
0.1118
10
0.8021
20
0.1086
10
0.8046
20
0.1091
10
0.8021
20
0.1088
10
0.8112
20
0.1100
10
0.7411
20
0.1007
10
0.8303
20
0.1129
10
0.7815
20
0.1063
10
0.8303
20
0.1130
10
0.8030
20
0.1093
10
0.7785
20
0.1060
10
0.7664
20
0.1045
10
0.8146
20
0.1111
10
0.7440
20
0.1016
10
0.7991
20
0.1091
10
0.8268
20
0.1129
10
0.7760
20
0.1060
10
0.8048
20
0.1100
10
0.7280
20
0.0995
10
0.7622
20
0.1042
10
0.7969
20
0.1090
10
0.7931
20
0.1085
10
0.8449
20
0.1158
10
0.7324
20
0.1004
10
0.7727
20
0.1059
10
0.8322
20
0.1142
10
0.8028
20
0.1102
10
0.7578
20
0.1041
10
0.8139
20
0.1119
10
0.8007
20
0.1101
10
0.7947
20
0.1093
10
0.7643
20
0.1051
10
0.8017
20
0.1104
10
0.7755
20
0.1068
10
0.7947
20
0.1095
10
0.7169
20
0.0988
10
0.7586
20
0.1046
10
0.7842
20
0.1082
10
0.7987
20
0.1103
10
0.7914
20
0.1093
10
0.8249
20
0.1140
10
0.7962
20
0.1101
10
0.8085
20
0.1118
10
0.7611
20
0.1053
10
0.8058
20
0.1115
10
0.7516
20
0.1041
10
0.7913
20
0.1096
10
0.7461
20
0.1034
10
0.7957
20
0.1103
10
0.8109
20
0.1125
10
0.7366
20
0.1022
10
0.7858
20
0.1091
10
0.7713
20
0.1073
10
0.7869
20
0.1095
10
0.7878
20
0.1096
10
0.7862
20
0.1094
10
0.7803
20
0.1086
10
0.7746
20
0.1080
10
0.7887
20
0.1100
10
0.8160
20
0.1139
10
0.7718
20
0.1078
10
0.7235
20
0.1011
10
0.7959
20
0.1113
10
0.7349
20
0.1028
10
0.8312
20
0.1165
10
0.7540
20
0.1058
10
0.7832
20
0.1100
10
0.7444
20
0.1045
10
0.8151
20
0.1145
10
0.7646
20
0.1075
10
0.8343
20
0.1174
10
0.7761
20
0.1095
10
0.8079
20
0.1141
10
0.7753
20
0.1098
10
0.7786
20
0.1103
10
0.7239
20
0.1027
10
0.7230
20
0.1026
10
0.7277
20
0.1033
10
0.7973
20
0.1132
10
0.7221
20
0.1026
10
0.8347
20
0.1186
10
0.8082
20
0.1149
10
0.8342
20
0.1189
10
0.7355
20
0.1050
10
0.7835
20
0.1120
10
0.7657
20
0.1096
10
0.8360
20
0.1197
10
0.7228
20
0.1035
10
0.7655
20
0.1098
10
0.7556
20
0.1085
10
0.8092
20
0.1162
10
0.8034
20
0.1155
10
0.7720
20
0.1111
10
0.8106
20
0.1167
10
0.7557
20
0.1088
10
0.7663
20
0.1105
10
0.7458
20
0.1076
10
0.7680
20
0.1109
10
0.7691
20
0.1110
10
0.8195
20
0.1183
10
0.7950
20
0.1151
10
0.7405
20
0.1073
10
0.8146
20
0.1181
10
0.8184
20
0.1189
10
0.7360
20
0.1069
10
0.7572
20
0.1100
10
0.8175
20
0.1189
10
0.7770
20
0.1131
10
0.7185
20
0.1047
10
0.7588
20
0.1108
10
0.7607
20
0.1111
10
0.7110
20
0.1039
10
0.8362
20
0.1223
10
0.7971
20
0.1166
10
0.8109
20
0.1186
10
0.7920
20
0.1158
10
0.7471
20
0.1094
10
0.7902
20
0.1157
10
0.7746
20
0.1135
10
0.7913
20
0.1160
10
0.7372
20
0.1082
10
0.8166
20
0.1198
10
0.8129
20
0.1199
10
0.7107
20
0.1050
10
0.7118
20
0.1052
10
0.7571
20
0.1120
10
0.7486
20
0.1107
10
0.7508
20
0.1114
10
0.8142
20
0.1209
10
0.7114
20
0.1058
10
0.7454
20
0.1109
10
0.7334
20
0.1101
10
0.7641
20
0.1148
10
0.8000
20
0.1203
10
0.8095
20
0.1222
10
0.7693
20
0.1162
10
0.8104
20
0.1225
10
0.7833
20
0.1185
10
0.8188
20
0.1240
10
0.8066
20
0.1224
10
0.8218
20
0.1253
10
0.8205
20
0.1252
10
0.7099
20
0.1084
10
0.7492
20
0.1146
10
0.8200
20
0.1257
10
0.8099
20
0.1245
10
0.7346
20
0.1129
10
0.7130
20
0.1101
10
0.7882
20
0.1217
10
0.7025
20
0.1088
10
0.7029
20
0.1089
10
0.8208
20
0.1276
10
0.7695
20
0.1197
10
0.7028
20
0.1094
10
0.7995
20
0.1245
10
0.8057
20
0.1260
10
0.7912
20
0.1237
10
0.7252
20
0.1139
10
0.8213
20
0.1293
10
0.1498
20
0.0237
10
0.8051
20
0.1271
10
0.7928
20
0.1252
10
0.6942
20
0.1098
10
0.7826
20
0.1240
10
0.6943
20
0.1104
10
0.7033
20
0.1118
10
0.8093
20
0.1290
10
0.8122
20
0.1296
10
0.8104
20
0.1294
10
0.7028
20
0.1122
10
0.6937
20
0.1110
10
0.7166
20
0.1147
10
0.5836
20
0.0934
10
0.8092
20
0.1296
10
0.5636
20
0.0903
10
0.6622
20
0.1061
10
0.6430
20
0.1031
10
0.6805
20
0.1093
10
0.6803
20
0.1093
10
0.6033
20
0.0971
10
0.6237
20
0.1004
10
0.6042
20
0.0976
10
0.6229
20
0.1007
10
0.7589
20
0.1227
10
0.6422
20
0.1039
10
0.5432
20
0.0880
10
0.5847
20
0.0951
10
0.6617
20
0.1079
10
0.7095
20
0.1157
10
0.7056
20
0.1152
10
0.6944
20
0.1134
10
0.6621
20
0.1084
10
0.7979
20
0.1311
10
0.6803
20
0.1119
10
0.8113
20
0.1337
10
0.6797
20
0.1120
10
0.7219
20
0.1193
10
0.5642
20
0.0936
10
0.8015
20
0.1330
10
0.5225
20
0.0867
10
0.7832
20
0.1302
10
0.8098
20
0.1347
10
0.6943
20
0.1157
10
0.6428
20
0.1072
10
0.7754
20
0.1293
10
0.7471
20
0.1247
10
0.7778
20
0.1303
10
0.5413
20
0.0909
10
0.7026
20
0.1180
10
0.5211
20
0.0878
10
0.1714
20
0.0289
10
0.5612
20
0.0948
10
0.7906
20
0.1340
10
0.6234
20
0.1058
10
0.5012
20
0.0851
10
0.1869
20
0.0318
10
0.5814
20
0.0988
10
0.7971
20
0.1356
10
0.6617
20
0.1130
10
0.6013
20
0.1027
10
0.8021
20
0.1371
10
0.7645
20
0.1307
10
0.6944
20
0.1189
10
0.6213
20
0.1064
10
0.4829
20
0.0828
10
0.7358
20
0.1262
10
0.7543
20
0.1296
10
0.6411
20
0.1101
10
0.7361
20
0.1265
10
0.5433
20
0.0934
10
0.6609
20
0.1141
10
0.1856
20
0.0321
10
0.6042
20
0.1045
10
0.7887
20
0.1366
10
0.6801
20
0.1179
10
0.6799
20
0.1182
10
0.1196
20
0.0208
10
0.5018
20
0.0873
10
0.7255
20
0.1262
10
0.7650
20
0.1332
10
0.7701
20
0.1348
10
0.8019
20
0.1405
10
0.7141
20
0.1253
10
0.7167
20
0.1260
10
0.6953
20
0.1226
10
0.6426
20
0.1133
10
0.4674
20
0.0826
10
0.7519
20
0.1332
10
0.7100
20
0.1258
10
0.5843
20
0.1037
10
0.7993
20
0.1420
10
0.7747
20
0.1389
10
0.7031
20
0.1267
10
0.5220
20
0.0941
10
0.4652
20
0.0841
10
0.7882
20
0.1426
10
0.7806
20
0.1415
10
0.6617
20
0.1200
10
0.7561
20
0.1377
10
0.6231
20
0.1137
10
0.7866
20
0.1436
10
0.4524
20
0.0827
10
0.7071
20
0.1294
10
0.4801
20
0.0879
10
0.6939
20
0.1272
10
0.5638
20
0.1035
10
0.7392
20
0.1360
10
0.7737
20
0.1425
10
0.7841
20
0.1446
10
0.4529
20
0.0838
10
0.4823
20
0.0893
10
0.4981
20
0.0924
10
0.6805
20
0.1262
10
0.7247
20
0.1346
10
0.7599
20
0.1413
10
0.5178
20
0.0965
10
0.6796
20
0.1270
10
0.5380
20
0.1006
10
0.7277
20
0.1367
10
0.5582
20
0.1049
10
0.6602
20
0.1243
10
0.7643
20
0.1439
10
0.6399
20
0.1205
10
0.6196
20
0.1168
10
0.1835
20
0.0346
10
0.5787
20
0.1091
10
0.5991
20
0.1130
10
0.7592
20
0.1432
10
0.6424
20
0.1215
10
0.4394
20
0.0831
10
0.7709
20
0.1458
10
0.6037
20
0.1144
10
0.7425
20
0.1407
10
0.7184
20
0.1364
10
0.1848
20
0.0351
10
0.7429
20
0.1412
10
0.7678
20
0.1460
10
0.7114
20
0.1362
10
0.5428
20
0.1041
10
0.6970
20
0.1342
10
0.7459
20
0.1443
10
0.7169
20
0.1387
10
0.5008
20
0.0970
10
0.7563
20
0.1476
10
0.7041
20
0.1374
10
0.6620
20
0.1293
10
0.7497
20
0.1465
10
0.4384
20
0.0857
10
0.7307
20
0.1433
10
0.4659
20
0.0916
10
0.7529
20
0.1480
10
0.5838
20
0.1152
10
0.4259
20
0.0843
10
0.6229
20
0.1236
10
0.6938
20
0.1381
10
0.7094
20
0.1416
10
0.6815
20
0.1366
10
0.7283
20
0.1461
10
0.7214
20
0.1447
10
0.7337
20
0.1474
10
0.7421
20
0.1496
10
0.7367
20
0.1494
10
0.6795
20
0.1378
10
0.4488
20
0.0912
10
0.7399
20
0.1506
10
0.4388
20
0.0893
10
0.5213
20
0.1062
10
0.7138
20
0.1456
10
0.4600
20
0.0941
10
0.6602
20
0.1356
10
0.6424
20
0.1322
10
0.5635
20
0.1165
10
0.4241
20
0.0877
10
0.7242
20
0.1499
10
0.6393
20
0.1324
10
0.7194
20
0.1490
10
0.6985
20
0.1450
10
0.4508
20
0.0937
10
0.4265
20
0.0888
10
0.6037
20
0.1260
10
0.6184
20
0.1292
10
0.4108
20
0.0858
10
0.7297
20
0.1526
10
0.7053
20
0.1479
10
0.7261
20
0.1523
10
0.4753
20
0.0998
10
0.4804
20
0.1011
10
0.5974
20
0.1260
10
0.6624
20
0.1403
10
0.7160
20
0.1519
10
0.7108
20
0.1510
10
0.5764
20
0.1228
10
0.4939
20
0.1056
10
0.7196
20
0.1544
10
0.5553
20
0.1193
10
0.6944
20
0.1495
10
0.7176
20
0.1546
10
0.5345
20
0.1153
10
0.5137
20
0.1109
10
0.6826
20
0.1481
10
0.4117
20
0.0894
10
0.6229
20
0.1355
10
0.7067
20
0.1542
10
0.5427
20
0.1185
10
0.4088
20
0.0894
10
0.6797
20
0.1491
10
0.4364
20
0.0959
10
0.5841
20
0.1285
10
0.7102
20
0.1564
10
0.4997
20
0.1101
10
0.1904
20
0.0420
10
0.6991
20
0.1542
10
0.7083
20
0.1568
10
0.6604
20
0.1467
10
0.3931
20
0.0874
10
0.1904
20
0.0426
10
0.6428
20
0.1444
10
0.1780
20
0.0400
10
0.6952
20
0.1564
10
0.6397
20
0.1442
10
0.1625
20
0.0366
10
0.4637
20
0.1047
10
0.3952
20
0.0894
10
0.4368
20
0.0988
10
0.6965
20
0.1587
10
0.6980
20
0.1591
10
0.6628
20
0.1514
10
0.4445
20
0.1017
10
0.6184
20
0.1418
10
0.4262
20
0.0979
10
0.6832
20
0.1571
10
0.6039
20
0.1391
10
0.6806
20
0.1568
10
0.4218
20
0.0975
10
0.5214
20
0.1215
10
0.5641
20
0.1315
10
0.5967
20
0.1397
10
0.6817
20
0.1599
10
0.6613
20
0.1553
10
0.6827
20
0.1609
10
0.3896
20
0.0918
10
0.4124
20
0.0973
10
0.1876
20
0.0446
10
0.3708
20
0.0881
10
0.6230
20
0.1481
10
0.5751
20
0.1375
10
0.4485
20
0.1073
10
0.3678
20
0.0882
10
0.4787
20
0.1150
10
0.6631
20
0.1596
10
0.6408
20
0.1544
10
0.6427
20
0.1554
10
0.4535
20
0.1097
10
0.6625
20
0.1603
10
0.3965
20
0.0964
10
0.5535
20
0.1349
10
0.4065
20
0.0991
10
0.5844
20
0.1428
10
0.6631
20
0.1622
10
0.4717
20
0.1162
10
0.5324
20
0.1314
10
0.6196
20
0.1535
10
0.5437
20
0.1348
10
0.4912
20
0.1221
10
0.1877
20
0.0467
10
0.5115
20
0.1273
10
0.6418
20
0.1610
10
0.6034
20
0.1518
10
0.4344
20
0.1093
10
0.4994
20
0.1257
10
0.3733
20
0.0941
10
0.4344
20
0.1096
10
0.6426
20
0.1624
10
0.4252
20
0.1076
10
0.3469
20
0.0883
10
0.6425
20
0.1638
10
0.6227
20
0.1588
10
0.4417
20
0.1128
10
0.5978
20
0.1528
10
0.1362
20
0.0349
10
0.3655
20
0.0941
10
0.4623
20
0.1191
10
0.1939
20
0.0501
10
0.4124
20
0.1067
10
0.1935
20
0.0504
10
0.5646
20
0.1470
10
0.6207
20
0.1619
10
0.4457
20
0.1165
10
0.3877
20
0.1014
10
0.3445
20
0.0902
10
0.3491
20
0.0921
10
0.5754
20
0.1521
10
0.4203
20
0.1114
10
0.6223
20
0.1651
10
0.5224
20
0.1387
10
0.6217
20
0.1657
10
0.5841
20
0.1560
10
0.3964
20
0.1062
10
0.0204
20
0.0055
10
0.6029
20
0.1622
10
0.3252
20
0.0881
10
0.1829
20
0.0497
10
0.5989
20
0.1629
10
0.5533
20
0.1507
10
0.4774
20
0.1306
10
0.1919
20
0.0526
10
0.4469
20
0.1228
10
0.3260
20
0.0905
10
0.5443
20
0.1513
10
0.3739
20
0.1042
10
0.6019
20
0.1679
10
0.4051
20
0.1130
10
0.5316
20
0.1484
10
0.6005
20
0.1678
10
0.1707
20
0.0477
10
0.3420
20
0.0968
10
0.1986
20
0.0562
10
0.5766
20
0.1637
10
0.3227
20
0.0916
10
0.5104
20
0.1452
10
0.1978
20
0.0563
10
0.4323
20
0.1231
10
0.5641
20
0.1608
10
0.3634
20
0.1037
10
0.5831
20
0.1665
10
0.1907
20
0.0546
10
0.4998
20
0.1433
10
0.4549
20
0.1304
10
0.4232
20
0.1213
10
0.4388
20
0.1259
10
0.4705
20
0.1352
10
0.4899
20
0.1409
10
0.4456
20
0.1289
10
0.3495
20
0.1014
10
0.3040
20
0.0883
10
0.4326
20
0.1257
10
0.3043
20
0.0887
10
0.4109
20
0.1204
10
0.4599
20
0.1350
10
0.5788
20
0.1703
10
0.5813
20
0.1716
10
0.5546
20
0.1638
10
0.5231
20
0.1558
10
0.3857
20
0.1152
10
0.1974
20
0.0593
10
0.3947
20
0.1196
10
0.3255
20
0.0986
10
0.5626
20
0.1711
10
0.5436
20
0.1654
10
0.2063
20
0.0630
10
0.1885
20
0.0575
10
0.5324
20
0.1629
10
0.2052
20
0.0629
10
0.4188
20
0.1285
10
0.0772
20
0.0239
10
0.4775
20
0.1477
10
0.3008
20
0.0931
10
0.5567
20
0.1723
10
0.4449
20
0.1383
10
0.1947
20
0.0606
10
0.1516
20
0.0473
10
0.3193
20
0.0997
10
0.5600
20
0.1752
10
0.2830
20
0.0888
10
0.3027
20
0.0950
10
0.5107
20
0.1611
10
0.3393
20
0.1074
10
0.3723
20
0.1184
10
0.4369
20
0.1395
10
0.2055
20
0.0658
10
0.4301
20
0.1376
10
0.2828
20
0.0905
10
0.1775
20
0.0569
10
0.4437
20
0.1426
10
0.5007
20
0.1610
10
0.4900
20
0.1581
10
0.5348
20
0.1730
10
0.4212
20
0.1363
10
0.5416
20
0.1753
10
0.4039
20
0.1308
10
0.4539
20
0.1479
10
0.3617
20
0.1179
10
0.5224
20
0.1705
10
0.2816
20
0.0920
10
0.4701
20
0.1538
10
0.1953
20
0.0644
10
0.4595
20
0.1515
10
0.3475
20
0.1146
10
0.2017
20
0.0667
10
0.5382
20
0.1781
10
0.4299
20
0.1423
10
0.4091
20
0.1355
10
0.5129
20
0.1730
10
0.2650
20
0.0897
10
0.1862
20
0.0634
10
0.2966
20
0.1014
10
0.4432
20
0.1518
10
0.2800
20
0.0960
10
0.3925
20
0.1349
10
0.2642
20
0.0911
10
0.5205
20
0.1795
10
0.3219
20
0.1112
10
0.3843
20
0.1329
10
0.2173
20
0.0752
10
0.4781
20
0.1658
10
0.2049
20
0.0710
10
0.4365
20
0.1515
10
0.2184
20
0.0760
10
0.4919
20
0.1715
10
0.5164
20
0.1803
10
0.4438
20
0.1552
10
0.1847
20
0.0646
10
0.3160
20
0.1109
10
0.2638
20
0.0925
10
0.5004
20
0.1757
10
0.1630
20
0.0573
10
0.4167
20
0.1468
10
0.4282
20
0.1509
10
0.2996
20
0.1057
10
0.4714
20
0.1681
10
0.2464
20
0.0882
10
0.2474
20
0.0886
10
0.4515
20
0.1620
10
0.4188
20
0.1505
10
0.3372
20
0.1215
10
0.2274
20
0.0822
10
0.2795
20
0.1010
10
0.3699
20
0.1340
10
0.2134
20
0.0774
10
0.1025
20
0.0372
10
0.2261
20
0.0823
10
0.4948
20
0.1810
10
0.4599
20
0.1682
10
0.2187
20
0.0801
10
0.1904
20
0.0697
10
0.4302
20
0.1577
10
0.4984
20
0.1836
10
0.1931
20
0.0712
10
0.4068
20
0.1499
10
0.2622
20
0.0972
10
0.4024
20
0.1497
10
0.4382
20
0.1638
10
0.2440
20
0.0917
10
0.4775
20
0.1797
10
0.2605
20
0.0981
10
0.2281
20
0.0862
10
0.2472
20
0.0935
10
0.2750
20
0.1040
10
0.1967
20
0.0746
10
0.4736
20
0.1803
10
0.2037
20
0.0776
10
0.2236
20
0.0854
10
0.3903
20
0.1494
10
0.4273
20
0.1637
10
0.1720
20
0.0662
10
0.2927
20
0.1128
10
0.4169
20
0.1608
10
0.4434
20
0.1712
10
0.3438
20
0.1331
10
0.4761
20
0.1854
10
0.4167
20
0.1632
10
0.4535
20
0.1785
10
0.4592
20
0.1809
10
0.3133
20
0.1243
10
0.1228
20
0.0488
10
0.3823
20
0.1518
10
0.2181
20
0.0867
10
0.4046
20
0.1624
10
0.4391
20
0.1770
10
0.2081
20
0.0841
10
0.2402
20
0.0970
10
0.3673
20
0.1485
10
0.4290
20
0.1737
10
0.2764
20
0.1121
10
0.2605
20
0.1058
10
0.2281
20
0.0926
10
0.1808
20
0.0735
10
0.2938
20
0.1194
10
0.4558
20
0.1859
10
0.2460
20
0.1005
10
0.4023
20
0.1647
10
0.2183
20
0.0898
10
0.4267
20
0.1757
10
0.2562
20
0.1057
10
0.4420
20
0.1825
10
0.1908
20
0.0793
10
0.3881
20
0.1622
10
0.2024
20
0.0847
10
0.4152
20
0.1739
10
0.3137
20
0.1317
10
0.4403
20
0.1849
10
0.2709
20
0.1141
10
0.4159
20
0.1754
10
0.1408
20
0.0599
10
0.4029
20
0.1725
10
0.4273
20
0.1833
10
0.2167
20
0.0931
10
0.4265
20
0.1836
10
0.3580
20
0.1547
10
0.3418
20
0.1490
10
0.2446
20
0.1072
10
0.2275
20
0.0997
10
0.4141
20
0.1818
10
0.4024
20
0.1772
10
0.2383
20
0.1051
10
0.2583
20
0.1141
10
0.3806
20
0.1685
10
0.1553
20
0.0689
10
0.4141
20
0.1837
10
0.2715
20
0.1210
10
0.3863
20
0.1729
10
0.3643
20
0.1632
10
0.4013
20
0.1805
10
0.2840
20
0.1289
10
0.2531
20
0.1150
10
0.4009
20
0.1831
10
0.2146
20
0.0984
10
0.2143
20
0.0983
10
0.2423
20
0.1119
10
0.2252
20
0.1044
10
0.2054
20
0.0954
10
0.2012
20
0.0936
10
0.1667
20
0.0776
10
0.2548
20
0.1195
10
0.3171
20
0.1490
10
0.1885
20
0.0890
10
0.2942
20
0.1394
10
0.1776
20
0.0842
10
0.3825
20
0.1814
10
0.3797
20
0.1802
10
0.2666
20
0.1274
10
0.3394
20
0.1643
10
0.3564
20
0.1728
10
0.3801
20
0.1848
10
0.3615
20
0.1761
10
0.2760
20
0.1347
10
0.2400
20
0.1172
10
0.2231
20
0.1100
10
0.2111
20
0.1041
10
0.2523
20
0.1254
10
0.2628
20
0.1324
10
0.2815
20
0.1428
10
0.2705
20
0.1375
10
0.2980
20
0.1519
10
0.3555
20
0.1835
10
0.3578
20
0.1853
10
0.3159
20
0.1639
10
0.2379
20
0.1247
10
0.1975
20
0.1041
10
0.2715
20
0.1433
10
0.2220
20
0.1173
10
0.3560
20
0.1883
10
0.3318
20
0.1761
10
0.2505
20
0.1331
10
0.3355
20
0.1788
10
0.2613
20
0.1395
10
0.2075
20
0.1114
10
0.2830
20
0.1525
10
0.1857
20
0.1002
10
0.1743
20
0.0959
10
0.2969
20
0.1645
10
0.1481
20
0.0824
10
0.1624
20
0.0905
10
0.2710
20
0.1515
10
0.1312
20
0.0736
10
0.3315
20
0.1874
10
0.2361
20
0.1342
10
0.3322
20
0.1903
10
0.2600
20
0.1490
10
0.2210
20
0.1267
10
0.2489
20
0.1429
10
0.3115
20
0.1807
10
0.3314
20
0.1928
10
0.3079
20
0.1795
10
0.1124
20
0.0657
10
0.2818
20
0.1649
10
0.2059
20
0.1209
10
0.1946
20
0.1159
10
0.2697
20
0.1632
10
0.1833
20
0.1118
10
0.0452
20
0.0276
10
0.2931
20
0.1804
10
0.2580
20
0.1602
10
0.3076
20
0.1914
10
0.2337
20
0.1457
10
0.2466
20
0.1538
10
0.1716
20
0.1081
10
0.0912
20
0.0575
10
0.2190
20
0.1390
10
0.2782
20
0.1781
10
0.2865
20
0.1837
10
0.3064
20
0.1986
10
0.2043
20
0.1326
10
0.3027
20
0.1967
10
0.1588
20
0.1036
10
0.2660
20
0.1753
10
0.1929
20
0.1283
10
0.2545
20
0.1709
10
0.2848
20
0.1931
10
0.1429
20
0.0972
10
0.2429
20
0.1656
10
0.1826
20
0.1249
10
0.2306
20
0.1591
10
0.2853
20
0.1971
10
0.2715
20
0.1891
10
0.2615
20
0.1852
10
0.2171
20
0.1542
10
0.1704
20
0.1214
10
0.1248
20
0.0897
10
0.2509
20
0.1812
10
0.2043
20
0.1477
10
0.2835
20
0.2050
10
0.2786
20
0.2048
10
0.1932
20
0.1430
10
0.2396
20
0.1775
10
0.2574
20
0.1915
10
0.2696
20
0.2015
10
0.2618
20
0.1962
10
0.1569
20
0.1177
10
0.1825
20
0.1392
10
0.0677
20
0.0517
10
0.2276
20
0.1740
10
0.2658
20
0.2035
10
0.2491
20
0.1908
10
0.2157
20
0.1685
10
0.1049
20
0.0830
10
0.2499
20
0.1988
10
0.1706
20
0.1359
10
0.2377
20
0.1895
10
0.2039
20
0.1634
10
0.2632
20
0.2117
10
0.1403
20
0.1130
10
0.2537
20
0.2057
10
0.2584
20
0.2111
10
0.1933
20
0.1585
10
0.2256
20
0.1870
10
0.2483
20
0.2091
10
0.2367
20
0.1996
10
0.1830
20
0.1545
10
0.1570
20
0.1330
10
0.2139
20
0.1836
10
0.2381
20
0.2087
10
0.1218
20
0.1071
10
0.1721
20
0.1515
10
0.2028
20
0.1793
10
0.2451
20
0.2181
10
0.2235
20
0.1989
10
0.2407
20
0.2161
10
0.1927
20
0.1748
10
0.2334
20
0.2139
10
0.0837
20
0.0772
10
0.1403
20
0.1295
10
0.1830
20
0.1711
10
0.1591
20
0.1491
10
0.2113
20
0.1981
10
0.2237
20
0.2101
10
0.2301
20
0.2227
10
0.2260
20
0.2193
10
0.2003
20
0.1947
10
0.1731
20
0.1683
10
0.2126
20
0.2094
10
0.1016
20
0.1010
10
0.2200
20
0.2188
10
0.1908
20
0.1907
10
0.2012
20
0.2072
10
0.1424
20
0.1468
10
0.1613
20
0.1662
10
0.1819
20
0.1876
10
0.1211
20
0.1252
10
0.2133
20
0.2209
10
0.2173
20
0.2259
10
0.1729
20
0.1855
10
0.2075
20
0.2237
10
0.1903
20
0.2060
10
0.2023
20
0.2206
10
0.2056
20
0.2283
10
0.1809
20
0.2035
10
0.1456
20
0.1643
10
0.1623
20
0.1840
10
0.1923
20
0.2199
10
0.1232
20
0.1436
10
0.1958
20
0.2287
10
0.1725
20
0.2021
10
0.1954
20
0.2302
10
0.1007
20
0.1199
10
0.1830
20
0.2187
10
0.0800
20
0.0962
10
0.0613
20
0.0738
10
0.0425
20
0.0513
10
0.1483
20
0.1825
10
0.1626
20
0.2016
10
0.1862
20
0.2322
10
0.1736
20
0.2182
10
0.1853
20
0.2338
10
0.1266
20
0.1616
10
0.1763
20
0.2334
10
0.1635
20
0.2194
10
0.1500
20
0.2015
10
0.1750
20
0.2374
10
0.1018
20
0.1389
10
0.1303
20
0.1799
10
0.0209
20
0.0292
10
0.1645
20
0.2343
10
0.0797
20
0.1149
10
0.1513
20
0.2206
10
0.1635
20
0.2394
10
0.1331
20
0.1995
10
0.1047
20
0.1571
10
0.1498
20
0.2310
10
0.1523
20
0.2359
10
0.1518
20
0.2409
10
0.0581
20
0.0929
10
0.1084
20
0.1751
10
0.1341
20
0.2221
10
0.1386
20
0.2297
10
0.0802
20
0.1338
10
0.1408
20
0.2386
10
0.1400
20
0.2415
10
0.1111
20
0.1930
10
0.1257
20
0.2281
10
0.0392
20
0.0721
10
0.0815
20
0.1519
10
0.1299
20
0.2423
10
0.1282
20
0.2408
10
0.0581
20
0.1108
10
0.1098
20
0.2102
10
0.1202
20
0.2329
10
0.0838
20
0.1689
10
0.1117
20
0.2267
10
0.1175
20
0.2402
10
0.1179
20
0.2456
10
0.1038
20
0.2218
10
0.0854
20
0.1850
10
0.0588
20
0.1287
10
0.1078
20
0.2396
10
0.0996
20
0.2310
10
0.1051
20
0.2438
10
0.0848
20
0.1998
10
0.0375
20
0.0896
10
0.1035
20
0.2495
10
0.0594
20
0.1458
10
0.0923
20
0.2297
10
0.0201
20
0.0512
10
0.0816
20
0.2116
10
0.0959
20
0.2488
10
0.0908
20
0.2391
10
0.0930
20
0.2452
10
0.0599
20
0.1620
10
0.0919
20
0.2533
10
0.0373
20
0.1069
10
0.0810
20
0.2360
10
0.0756
20
0.2204
10
0.0604
20
0.1773
10
0.0857
20
0.2527
10
0.0823
20
0.2456
10
0.0789
20
0.2478
10
0.0753
20
0.2376
10
0.0813
20
0.2566
10
0.0605
20
0.1912
10
0.0733
20
0.2383
10
0.0379
20
0.1239
10
0.0687
20
0.2281
10
0.0757
20
0.2565
10
0.0734
20
0.2499
10
0.0590
20
0.2031
10
0.0726
20
0.2609
10
0.0648
20
0.2340
10
0.0384
20
0.1402
10
0.0692
20
0.2544
10
0.0189
20
0.0712
10
0.0565
20
0.2135
10
0.0681
20
0.2614
10
0.0662
20
0.2561
10
0.0661
20
0.2663
10
0.0599
20
0.2413
10
0.0387
20
0.1558
10
0.0925
20
0.3772
10
0.0545
20
0.2224
10
0.0909
20
0.3716
10
0.0921
20
0.3768
10
0.0909
20
0.3725
10
0.0941
20
0.3860
10
0.0892
20
0.3662
10
0.0892
20
0.3677
10
0.0873
20
0.3613
10
0.0934
20
0.3866
10
0.0906
20
0.3778
10
0.0870
20
0.3634
10
0.0941
20
0.3929
10
0.0891
20
0.3733
10
0.0919
20
0.3860
10
0.0848
20
0.3569
10
0.0939
20
0.3953
10
0.0881
20
0.3712
10
0.0874
20
0.3690
10
0.0543
20
0.2294
10
0.0934
20
0.3945
10
0.0865
20
0.3656
10
0.0875
20
0.3719
10
0.0847
20
0.3597
10
0.0887
20
0.3769
10
0.0935
20
0.3976
10
0.0872
20
0.3709
10
0.0872
20
0.3707
10
0.0885
20
0.3762
10
0.0935
20
0.3975
10
0.0847
20
0.3602
10
0.0858
20
0.3651
10
0.0881
20
0.3751
10
0.0881
20
0.3751
10
0.0862
20
0.3678
10
0.0876
20
0.3737
10
0.0919
20
0.3921
10
0.0884
20
0.3782
10
0.0619
20
0.2649
10
0.0858
20
0.3671
10
0.0935
20
0.4002
10
0.0861
20
0.3694
10
0.0860
20
0.3693
10
0.0931
20
0.3995
10
0.0870
20
0.3735
10
0.0916
20
0.3940
10
0.0850
20
0.3657
10
0.0855
20
0.3682
10
0.0880
20
0.3789
10
0.0847
20
0.3659
10
0.0933
20
0.4028
10
0.0838
20
0.3621
10
0.0894
20
0.3863
10
0.0843
20
0.3645
10
0.0868
20
0.3758
10
0.0894
20
0.3873
10
0.0891
20
0.3862
10
0.0621
20
0.2691
10
0.0839
20
0.3637
10
0.0838
20
0.3631
10
0.0817
20
0.3544
10
0.0821
20
0.3558
10
0.0897
20
0.3888
10
0.0925
20
0.4012
10
0.0885
20
0.3844
10
0.0840
20
0.3649
10
0.0911
20
0.3960
10
0.0882
20
0.3835
10
0.0805
20
0.3505
10
0.0855
20
0.3723
10
0.0879
20
0.3837
10
0.0928
20
0.4051
10
0.0596
20
0.2604
10
0.0885
20
0.3867
10
0.0905
20
0.3976
10
0.0893
20
0.3937
10
0.0387
20
0.1706
10
0.0889
20
0.3922
10
0.0831
20
0.3673
10
0.0818
20
0.3623
10
0.0887
20
0.3930
10
0.0835
20
0.3701
10
0.0839
20
0.3720
10
0.0899
20
0.3989
10
0.0819
20
0.3642
10
0.0887
20
0.3943
10
0.0825
20
0.3668
10
0.0883
20
0.3928
10
0.0806
20
0.3586
10
0.0781
20
0.3481
10
0.0877
20
0.3914
10
0.0886
20
0.3960
10
0.0810
20
0.3620
10
0.0844
20
0.3773
10
0.0886
20
0.3962
10
0.0806
20
0.3605
10
0.0904
20
0.4044
10
0.0872
20
0.3904
10
0.0857
20
0.3841
10
0.0882
20
0.3956
10
0.0881
20
0.3953
10
0.0882
20
0.3964
10
0.0885
20
0.3984
10
0.0835
20
0.3761
10
0.0875
20
0.3944
10
0.0607
20
0.2740
10
0.0802
20
0.3617
10
0.0885
20
0.3994
10
0.0826
20
0.3731
10
0.0814
20
0.3679
10
0.0869
20
0.3928
10
0.0824
20
0.3727
10
0.0796
20
0.3600
10
0.0804
20
0.3635
10
0.0879
20
0.3975
10
0.0790
20
0.3577
10
0.0879
20
0.3979
10
0.0813
20
0.3684
10
0.0902
20
0.4088
10
0.0877
20
0.3982
10
0.0805
20
0.3656
10
0.0802
20
0.3642
10
0.0868
20
0.3945
10
0.0858
20
0.3905
10
0.0820
20
0.3731
10
0.0799
20
0.3637
10
0.0811
20
0.3695
10
0.0883
20
0.4024
10
0.0878
20
0.4001
10
0.0877
20
0.3996
10
0.0768
20
0.3501
10
0.0828
20
0.3777
10
0.0795
20
0.3625
10
0.0805
20
0.3673
10
0.0871
20
0.3975
10
0.0875
20
0.3993
10
0.0887
20
0.4047
10
0.0810
20
0.3698
10
0.0792
20
0.3621
10
0.0877
20
0.4014
10
0.0605
20
0.2770
10
0.0877
20
0.4019
10
0.0872
20
0.3999
10
0.0809
20
0.3710
10
0.0596
20
0.2733
10
0.0874
20
0.4009
10
0.0871
20
0.3997
10
0.0843
20
0.3870
10
0.0882
20
0.4052
10
0.0784
20
0.3604
10
0.0544
20
0.2504
10
0.0780
20
0.3598
10
0.0851
20
0.3925
10
0.0869
20
0.4008
10
0.0818
20
0.3779
10
0.0793
20
0.3664
10
0.0579
20
0.2678
10
0.0801
20
0.3703
10
0.0883
20
0.4091
10
0.0808
20
0.3742
10
0.0880
20
0.4079
10
0.0790
20
0.3669
10
0.0850
20
0.3950
10
0.0781
20
0.3632
10
0.0866
20
0.4029
10
0.0863
20
0.4018
10
0.0867
20
0.4039
10
0.0607
20
0.2827
10
0.0804
20
0.3747
10
0.0861
20
0.4021
10
0.0835
20
0.3906
10
0.0790
20
0.3702
10
0.0787
20
0.3692
10
0.0743
20
0.3484
10
0.0824
20
0.3867
10
0.0817
20
0.3847
10
0.0804
20
0.3785
10
0.0773
20
0.3644
10
0.0853
20
0.4021
10
0.0748
20
0.3529
10
0.0847
20
0.4003
10
0.0853
20
0.4035
10
0.0848
20
0.4012
10
0.0801
20
0.3791
10
0.0829
20
0.3927
10
0.0774
20
0.3667
10
0.0755
20
0.3578
10
0.0831
20
0.3948
10
0.0847
20
0.4033
10
0.0848
20
0.4038
10
0.0811
20
0.3867
10
0.0773
20
0.3688
10
0.0777
20
0.3705
10
0.0845
20
0.4031
10
0.0843
20
0.4020
10
0.0827
20
0.3949
10
0.0742
20
0.3548
10
0.0743
20
0.3554
10
0.0781
20
0.3735
10
0.0182
20
0.0871
10
0.0772
20
0.3697
10
0.0858
20
0.4111
10
0.0609
20
0.2925
10
0.0749
20
0.3595
10
0.0836
20
0.4030
10
0.0594
20
0.2865
10
0.0382
20
0.1844
10
0.0825
20
0.3981
10
0.0811
20
0.3915
10
0.0727
20
0.3518
10
0.0833
20
0.4028
10
0.0814
20
0.3939
10
0.0782
20
0.3796
10
0.0795
20
0.3863
10
0.0826
20
0.4017
10
0.0825
20
0.4012
10
0.0808
20
0.3931
10
0.0828
20
0.4028
10
0.0845
20
0.4115
10
0.0741
20
0.3615
10
0.0792
20
0.3862
10
0.0817
20
0.3991
10
0.0825
20
0.4033
10
0.0755
20
0.3694
10
0.0722
20
0.3536
10
0.0726
20
0.3558
10
0.0805
20
0.3948
10
0.0801
20
0.3931
10
0.0823
20
0.4039
10
0.0764
20
0.3758
10
0.0818
20
0.4024
10
0.0720
20
0.3542
10
0.0818
20
0.4026
10
0.0807
20
0.3969
10
0.0758
20
0.3730
10
0.0832
20
0.4108
10
0.0822
20
0.4061
10
0.0721
20
0.3563
10
0.0753
20
0.3726
10
0.0752
20
0.3717
10
0.0615
20
0.3047
10
0.0779
20
0.3860
10
0.0805
20
0.3997
10
0.0798
20
0.3959
10
0.0567
20
0.2814
10
0.0789
20
0.3920
10
0.0746
20
0.3711
10
0.0754
20
0.3757
10
0.0762
20
0.3797
10
0.0803
20
0.4011
10
0.0726
20
0.3626
10
0.0785
20
0.3921
10
0.0789
20
0.3941
10
0.0795
20
0.3979
10
0.0803
20
0.4021
10
0.0779
20
0.3899
10
0.0778
20
0.3895
10
0.0591
20
0.2959
10
0.0794
20
0.3983
10
0.0741
20
0.3719
10
0.0781
20
0.3918
10
0.0784
20
0.3940
10
0.0784
20
0.3942
10
0.0796
20
0.4003
10
0.0711
20
0.3574
10
0.0752
20
0.3782
10
0.0773
20
0.3890
10
0.0776
20
0.3905
10
0.0812
20
0.4092
10
0.0740
20
0.3725
10
0.0704
20
0.3546
10
0.0793
20
0.3995
10
0.0802
20
0.4039
10
0.0725
20
0.3654
10
0.0776
20
0.3910
10
0.0734
20
0.3704
10
0.0791
20
0.3992
10
0.0778
20
0.3924
10
0.0793
20
0.4004
10
0.0782
20
0.3948
10
0.0809
20
0.4086
10
0.0781
20
0.3949
10
0.0779
20
0.3945
10
0.0796
20
0.4027
10
0.0784
20
0.3972
10
0.0821
20
0.4159
10
0.0787
20
0.3996
10
0.0792
20
0.4022
10
0.0740
20
0.3759
10
0.0784
20
0.3983
10
0.0755
20
0.3834
10
0.0776
20
0.3943
10
0.0790
20
0.4014
10
0.0725
20
0.3688
10
0.0786
20
0.3996
10
0.0799
20
0.4064
10
0.0749
20
0.3814
10
0.0782
20
0.3981
10
0.0779
20
0.3970
10
0.0778
20
0.3964
10
0.0772
20
0.3936
10
0.0774
20
0.3949
10
0.0744
20
0.3798
10
0.0695
20
0.3549
10
0.0782
20
0.3994
10
0.0802
20
0.4095
10
0.0793
20
0.4048
10
0.0726
20
0.3709
10
0.0789
20
0.4032
10
0.0623
20
0.3184
10
0.0793
20
0.4054
10
0.0723
20
0.3697
10
0.0742
20
0.3796
10
0.0774
20
0.3962
10
0.0729
20
0.3732
10
0.0784
20
0.4014
10
0.0773
20
0.3958
10
0.0761
20
0.3898
10
0.0793
20
0.4060
10
0.0787
20
0.4034
10
0.0779
20
0.3991
10
0.0787
20
0.4036
10
0.0798
20
0.4095
10
0.0720
20
0.3693
10
0.0756
20
0.3886
10
0.0791
20
0.4067
10
0.0770
20
0.3962
10
0.0690
20
0.3546
10
0.0691
20
0.3554
10
0.0817
20
0.4203
10
0.0690
20
0.3551
10
0.0782
20
0.4024
10
0.0693
20
0.3567
10
0.0796
20
0.4099
10
0.0688
20
0.3544
10
0.0714
20
0.3682
10
0.0743
20
0.3829
10
0.0715
20
0.3685
10
0.0772
20
0.3981
10
0.0771
20
0.3976
10
0.0727
20
0.3755
10
0.0690
20
0.3564
10
0.0772
20
0.3999
10
0.0531
20
0.2753
10
0.0782
20
0.4055
10
0.0786
20
0.4079
10
0.0737
20
0.3824
10
0.0742
20
0.3853
10
0.0681
20
0.3538
10
0.0736
20
0.3829
10
0.0738
20
0.3839
10
0.0589
20
0.3065
10
0.0724
20
0.3774
10
0.0706
20
0.3683
10
0.0636
20
0.3315
10
0.0755
20
0.3944
10
0.0812
20
0.4240
10
0.0779
20
0.4069
10
0.0780
20
0.4087
10
0.0772
20
0.4049
10
0.0768
20
0.4032
10
0.0823
20
0.4321
10
0.0691
20
0.3628
10
0.0375
20
0.1970
10
0.0708
20
0.3725
10
0.0551
20
0.2900
10
0.0704
20
0.3707
10
0.0709
20
0.3747
10
0.0728
20
0.3856
10
0.0692
20
0.3668
10
0.0728
20
0.3865
10
0.0730
20
0.3883
10
0.0711
20
0.3783
10
0.0728
20
0.3872
10
0.0726
20
0.3864
10
0.0730
20
0.3893
10
0.0727
20
0.3879
10
0.0773
20
0.4120
10
0.0726
20
0.3876
10
0.0728
20
0.3886
10
0.0655
20
0.3502
10
0.0729
20
0.3894
10
0.0729
20
0.3896
10
0.0732
20
0.3913
10
0.0730
20
0.3907
10
0.0653
20
0.3497
10
0.0724
20
0.3880
10
0.0818
20
0.4387
10
0.0666
20
0.3601
10
0.0590
20
0.3188
10
0.0602
20
0.3309
10
0.0796
20
0.4384
10
0.0807
20
0.4462
10
0.0627
20
0.3479
10
0.0536
20
0.2980
10
0.0375
20
0.2084
10
0.0417
20
0.2326
10
0.0755
20
0.4289
10
0.0796
20
0.4533
10
0.0449
20
0.2565
10
0.0497
20
0.2837
10
0.0386
20
0.2207
10
0.0179
20
0.1036
10
0.0630
20
0.3646
10
0.0646
20
0.3754
10
0.0453
20
0.2665
10
0.0634
20
0.3743
10
0.0630
20
0.3728
10
0.0628
20
0.3718
10
0.0492
20
0.2915
10
0.0625
20
0.3715
10
0.0515
20
0.3071
10
0.0599
20
0.3571
10
0.0660
20
0.3936
10
0.0756
20
0.4564
10
0.0765
20
0.4631
10
0.0672
20
0.4101
10
0.0605
20
0.3728
10
0.0603
20
0.3726
10
0.0604
20
0.3735
10
0.0606
20
0.3754
10
0.0601
20
0.3735
10
0.0717
20
0.4484
10
0.0746
20
0.4696
10
0.0669
20
0.4231
10
0.0468
20
0.2984
10
0.0380
20
0.2438
10
0.0535
20
0.3453
10
0.0421
20
0.2754
10
0.0484
20
0.3186
10
0.0703
20
0.4684
10
0.0711
20
0.4747
10
0.0495
20
0.3307
10
0.0179
20
0.1204
10
0.0530
20
0.3614
10
0.0674
20
0.4615
10
0.0641
20
0.4409
10
0.0540
20
0.3725
10
0.0695
20
0.4797
10
0.0505
20
0.3527
10
0.0549
20
0.3877
10
0.0397
20
0.2849
10
0.0562
20
0.4038
10
0.0422
20
0.3053
10
0.0401
20
0.2951
10
0.0563
20
0.4170
10
0.0182
20
0.1364
10
0.0605
20
0.4532
10
0.0442
20
0.3421
10
0.0610
20
0.4807
10
0.0615
20
0.4871
10
0.0547
20
0.4355
10
0.0612
20
0.4905
10
0.0589
20
0.4733
10
0.0313
20
0.2524
10
0.0184
20
0.1518
10
0.0383
20
0.3183
10
0.0396
20
0.3303
10
0.0555
20
0.4639
10
0.0588
20
0.4934
10
0.0521
20
0.4488
10
0.0297
20
0.2636
10
0.0507
20
0.4589
10
0.0302
20
0.2741
10
0.0183
20
0.1661
10
0.0419
20
0.3816
10
0.0403
20
0.3682
10
0.0432
20
0.3977
10
0.0388
20
0.3576
10
0.0369
20
0.3490
10
0.0432
20
0.4115
10
0.0184
20
0.1797
10
0.0495
20
0.5017
10
0.0493
20
0.5025
10
0.0421
20
0.4310
10
0.0275
20
0.2840
10
0.0482
20
0.4990
10
0.0327
20
0.3394
10
0.0180
20
0.1924
10
0.0275
20
0.2953
10
0.0413
20
0.4459
10
0.0283
20
0.3078
10
0.0444
20
0.4834
10
0.0452
20
0.4932
10
0.0427
20
0.4699
10
0.0417
20
0.4597
10
0.0208
20
0.2299
10
0.0279
20
0.3188
10
0.0178
20
0.2042
10
0.0189
20
0.2164
10
0.0286
20
0.3298
10
0.0201
20
0.2422
10
0.0407
20
0.5087
10
0.0401
20
0.5084
10
0.0357
20
0.5089
10
0.0164
20
0.2528
10
0.0322
20
0.5132
10
0.0316
20
0.5129
10
0.0157
20
0.2747
10
0.0280
20
0.5131
10
0.0204
20
0.3768
10
0.0211
20
0.3930
10
0.0195
20
0.3643
10
0.0217
20
0.4073
10
0.0185
20
0.3546
10
0.0177
20
0.3468
10
0.0134
20
0.2632
10
0.0212
20
0.4286
10
0.0139
20
0.2862
10
0.0237
20
0.4885
10
0.0227
20
0.4724
10
0.0237
20
0.4993
10
0.0216
20
0.4597
10
0.0207
20
0.4442
10
0.0139
20
0.2978
10
0.0154
20
0.3375
10
0.0229
20
0.5071
10
0.0138
20
0.3093
10
0.0135
20
0.3201
10
0.0215
20
0.5167
10
0.0212
20
0.5162
10
0.0134
20
0.3286
10
0.0203
20
0.5126
10
0.0161
20
0.5154
10
0.0113
20
0.5182
10
0.0102
20
0.5197
10
0.0000
20
0.5210
10
0.0000
20
0.5194
10
0.0000
20
0.5169
10
0.0000
20
0.5093
10
0.0000
20
0.5146
10
0.0000
20
0.5005
10
0.0000
20
0.4892
10
0.0000
20
0.4720
10
0.0000
20
0.4596
10
0.0000
20
0.3919
10
0.0000
20
0.3761
10
0.0000
20
0.4057
10
0.0000
20
0.4284
10
0.0000
20
0.3282
10
0.0000
20
0.3541
10
0.0000
20
0.3212
10
0.0000
20
0.4448
10
0.0000
20
0.3460
10
0.0000
20
0.3095
10
0.0000
20
0.3367
10
0.0000
20
0.3633
10
0.0000
20
0.2994
10
0.0000
20
0.2883
10
0.0000
20
0.2779
10
-0.0000
20
0.2671
10
-0.0000
20
0.2551
10
-0.0000
20
0.2400
10
-0.0000
20
0.2251
10
-0.0000
20
0.2125
10
-0.0000
20
0.2017
10
-0.0000
20
0.1772
10
-0.0000
20
0.1899
10
-0.0000
20
0.1637
10
-0.0000
20
0.1497
10
-0.0000
20
0.1348
10
-0.0000
20
0.1187
10
-0.0000
20
0.1016
10
-0.0000
20
0.0863
10
-0.0000
20
0.0709
10
-0.0000
20
0.0516
10
-0.0000
20
0.0305
10
-0.0000
20
0.0069
10
-0.0102
20
0.5197
10
-0.0113
20
0.5182
10
-0.0161
20
0.5154
10
-0.0203
20
0.5126
10
-0.0134
20
0.3286
10
-0.0212
20
0.5162
10
-0.0215
20
0.5167
10
-0.0135
20
0.3201
10
-0.0138
20
0.3093
10
-0.0229
20
0.5071
10
-0.0154
20
0.3375
10
-0.0206
20
0.4442
10
-0.0138
20
0.2978
10
-0.0216
20
0.4597
10
-0.0236
20
0.4993
10
-0.0227
20
0.4724
10
-0.0236
20
0.4885
10
-0.0139
20
0.2862
10
-0.0212
20
0.4286
10
-0.0134
20
0.2632
10
-0.0177
20
0.3468
10
-0.0185
20
0.3546
10
-0.0217
20
0.4073
10
-0.0211
20
0.3930
10
-0.0195
20
0.3643
10
-0.0204
20
0.3768
10
-0.0280
20
0.5131
10
-0.0157
20
0.2747
10
-0.0316
20
0.5129
10
-0.0322
20
0.5132
10
-0.0164
20
0.2528
10
-0.0356
20
0.5089
10
-0.0401
20
0.5084
10
-0.0406
20
0.5087
10
-0.0201
20
0.2422
10
-0.0286
20
0.3298
10
-0.0189
20
0.2164
10
-0.0279
20
0.3188
10
-0.0179
20
0.2042
10
-0.0208
20
0.2299
10
-0.0417
20
0.4597
10
-0.0427
20
0.4699
10
-0.0452
20
0.4932
10
-0.0443
20
0.4834
10
-0.0283
20
0.3078
10
-0.0412
20
0.4459
10
-0.0275
20
0.2953
10
-0.0180
20
0.1924
10
-0.0327
20
0.3394
10
-0.0481
20
0.4990
10
-0.0275
20
0.2840
10
-0.0421
20
0.4310
10
-0.0492
20
0.5025
10
-0.0495
20
0.5017
10
-0.0184
20
0.1797
10
-0.0432
20
0.4115
10
-0.0368
20
0.3490
10
-0.0388
20
0.3576
10
-0.0432
20
0.3977
10
-0.0403
20
0.3682
10
-0.0418
20
0.3817
10
-0.0302
20
0.2741
10
-0.0183
20
0.1661
10
-0.0507
20
0.4589
10
-0.0297
20
0.2636
10
-0.0521
20
0.4488
10
-0.0588
20
0.4934
10
-0.0555
20
0.4640
10
-0.0395
20
0.3303
10
-0.0383
20
0.3184
10
-0.0184
20
0.1518
10
-0.0313
20
0.2524
10
-0.0588
20
0.4733
10
-0.0612
20
0.4905
10
-0.0546
20
0.4355
10
-0.0614
20
0.4871
10
-0.0609
20
0.4807
10
-0.0442
20
0.3421
10
-0.0605
20
0.4532
10
-0.0182
20
0.1364
10
-0.0563
20
0.4171
10
-0.0401
20
0.2951
10
-0.0422
20
0.3053
10
-0.0561
20
0.4038
10
-0.0397
20
0.2849
10
-0.0549
20
0.3877
10
-0.0505
20
0.3527
10
-0.0694
20
0.4797
10
-0.0540
20
0.3725
10
-0.0641
20
0.4409
10
-0.0674
20
0.4615
10
-0.0530
20
0.3614
10
-0.0179
20
0.1204
10
-0.0710
20
0.4747
10
-0.0495
20
0.3307
10
-0.0703
20
0.4684
10
-0.0484
20
0.3186
10
-0.0421
20
0.2754
10
-0.0535
20
0.3453
10
-0.0380
20
0.2438
10
-0.0468
20
0.2984
10
-0.0669
20
0.4231
10
-0.0746
20
0.4696
10
-0.0716
20
0.4484
10
-0.0601
20
0.3735
10
-0.0605
20
0.3754
10
-0.0603
20
0.3735
10
-0.0603
20
0.3726
10
-0.0605
20
0.3728
10
-0.0672
20
0.4101
10
-0.0764
20
0.4631
10
-0.0756
20
0.4564
10
-0.0660
20
0.3936
10
-0.0599
20
0.3571
10
-0.0515
20
0.3071
10
-0.0625
20
0.3715
10
-0.0492
20
0.2915
10
-0.0628
20
0.3718
10
-0.0630
20
0.3728
10
-0.0634
20
0.3743
10
-0.0453
20
0.2665
10
-0.0646
20
0.3754
10
-0.0630
20
0.3646
10
-0.0179
20
0.1036
10
-0.0386
20
0.2207
10
-0.0496
20
0.2837
10
-0.0449
20
0.2565
10
-0.0796
20
0.4533
10
-0.0755
20
0.4289
10
-0.0417
20
0.2326
10
-0.0536
20
0.2980
10
-0.0375
20
0.2084
10
-0.0627
20
0.3479
10
-0.0807
20
0.4462
10
-0.0795
20
0.4384
10
-0.0602
20
0.3309
10
-0.0590
20
0.3189
10
-0.0666
20
0.3601
10
-0.0818
20
0.4387
10
-0.0724
20
0.3880
10
-0.0653
20
0.3497
10
-0.0730
20
0.3907
10
-0.0732
20
0.3913
10
-0.0729
20
0.3896
10
-0.0728
20
0.3894
10
-0.0655
20
0.3502
10
-0.0727
20
0.3886
10
-0.0726
20
0.3876
10
-0.0772
20
0.4120
10
-0.0727
20
0.3879
10
-0.0730
20
0.3893
10
-0.0726
20
0.3864
10
-0.0727
20
0.3872
10
-0.0730
20
0.3883
10
-0.0728
20
0.3865
10
-0.0692
20
0.3668
10
-0.0728
20
0.3856
10
-0.0709
20
0.3748
10
-0.0704
20
0.3707
10
-0.0551
20
0.2900
10
-0.0708
20
0.3725
10
-0.0375
20
0.1970
10
-0.0691
20
0.3628
10
-0.0823
20
0.4321
10
-0.0768
20
0.4032
10
-0.0772
20
0.4050
10
-0.0780
20
0.4087
10
-0.0779
20
0.4069
10
-0.0811
20
0.4240
10
-0.0755
20
0.3944
10
-0.0635
20
0.3315
10
-0.0706
20
0.3683
10
-0.0724
20
0.3774
10
-0.0589
20
0.3066
10
-0.0738
20
0.3839
10
-0.0736
20
0.3829
10
-0.0681
20
0.3538
10
-0.0742
20
0.3853
10
-0.0736
20
0.3824
10
-0.0786
20
0.4079
10
-0.0782
20
0.4055
10
-0.0531
20
0.2753
10
-0.0772
20
0.3999
10
-0.0690
20
0.3564
10
-0.0727
20
0.3755
10
-0.0771
20
0.3977
10
-0.0772
20
0.3982
10
-0.0715
20
0.3685
10
-0.0743
20
0.3829
10
-0.0714
20
0.3682
10
-0.0688
20
0.3544
10
-0.0796
20
0.4099
10
-0.0693
20
0.3567
10
-0.0782
20
0.4024
10
-0.0690
20
0.3551
10
-0.0817
20
0.4203
10
-0.0691
20
0.3554
10
-0.0689
20
0.3547
10
-0.0770
20
0.3962
10
-0.0791
20
0.4067
10
-0.0756
20
0.3886
10
-0.0720
20
0.3693
10
-0.0798
20
0.4095
10
-0.0787
20
0.4037
10
-0.0778
20
0.3992
10
-0.0787
20
0.4034
10
-0.0793
20
0.4060
10
-0.0761
20
0.3898
10
-0.0773
20
0.3958
10
-0.0784
20
0.4015
10
-0.0774
20
0.3962
10
-0.0729
20
0.3732
10
-0.0742
20
0.3796
10
-0.0722
20
0.3697
10
-0.0793
20
0.4054
10
-0.0623
20
0.3184
10
-0.0789
20
0.4032
10
-0.0726
20
0.3709
10
-0.0792
20
0.4048
10
-0.0802
20
0.4095
10
-0.0782
20
0.3995
10
-0.0695
20
0.3549
10
-0.0744
20
0.3798
10
-0.0774
20
0.3949
10
-0.0772
20
0.3936
10
-0.0778
20
0.3964
10
-0.0779
20
0.3970
10
-0.0782
20
0.3981
10
-0.0799
20
0.4064
10
-0.0749
20
0.3814
10
-0.0785
20
0.3996
10
-0.0725
20
0.3688
10
-0.0790
20
0.4014
10
-0.0776
20
0.3943
10
-0.0754
20
0.3834
10
-0.0784
20
0.3983
10
-0.0740
20
0.3759
10
-0.0792
20
0.4022
10
-0.0787
20
0.3996
10
-0.0821
20
0.4159
10
-0.0784
20
0.3972
10
-0.0796
20
0.4027
10
-0.0779
20
0.3945
10
-0.0781
20
0.3949
10
-0.0809
20
0.4086
10
-0.0782
20
0.3948
10
-0.0793
20
0.4004
10
-0.0778
20
0.3924
10
-0.0791
20
0.3992
10
-0.0734
20
0.3704
10
-0.0776
20
0.3910
10
-0.0725
20
0.3654
10
-0.0802
20
0.4039
10
-0.0793
20
0.3995
10
-0.0704
20
0.3546
10
-0.0739
20
0.3725
10
-0.0812
20
0.4092
10
-0.0776
20
0.3905
10
-0.0752
20
0.3782
10
-0.0773
20
0.3890
10
-0.0711
20
0.3574
10
-0.0796
20
0.4003
10
-0.0784
20
0.3942
10
-0.0784
20
0.3940
10
-0.0781
20
0.3918
10
-0.0741
20
0.3719
10
-0.0794
20
0.3983
10
-0.0591
20
0.2959
10
-0.0778
20
0.3895
10
-0.0779
20
0.3899
10
-0.0803
20
0.4021
10
-0.0795
20
0.3979
10
-0.0789
20
0.3941
10
-0.0785
20
0.3921
10
-0.0726
20
0.3626
10
-0.0803
20
0.4011
10
-0.0762
20
0.3797
10
-0.0754
20
0.3757
10
-0.0746
20
0.3711
10
-0.0789
20
0.3920
10
-0.0798
20
0.3959
10
-0.0567
20
0.2814
10
-0.0805
20
0.3997
10
-0.0779
20
0.3860
10
-0.0615
20
0.3047
10
-0.0752
20
0.3718
10
-0.0753
20
0.3726
10
-0.0720
20
0.3563
10
-0.0821
20
0.4061
10
-0.0831
20
0.4108
10
-0.0758
20
0.3731
10
-0.0807
20
0.3969
10
-0.0818
20
0.4026
10
-0.0720
20
0.3542
10
-0.0818
20
0.4024
10
-0.0764
20
0.3758
10
-0.0823
20
0.4039
10
-0.0801
20
0.3931
10
-0.0805
20
0.3949
10
-0.0726
20
0.3558
10
-0.0722
20
0.3536
10
-0.0755
20
0.3694
10
-0.0825
20
0.4033
10
-0.0817
20
0.3991
10
-0.0792
20
0.3862
10
-0.0741
20
0.3615
10
-0.0845
20
0.4115
10
-0.0827
20
0.4028
10
-0.0808
20
0.3931
10
-0.0825
20
0.4012
10
-0.0826
20
0.4017
10
-0.0795
20
0.3863
10
-0.0781
20
0.3796
10
-0.0814
20
0.3939
10
-0.0832
20
0.4028
10
-0.0727
20
0.3518
10
-0.0811
20
0.3915
10
-0.0825
20
0.3981
10
-0.0382
20
0.1844
10
-0.0594
20
0.2865
10
-0.0836
20
0.4030
10
-0.0749
20
0.3595
10
-0.0609
20
0.2925
10
-0.0858
20
0.4111
10
-0.0772
20
0.3697
10
-0.0780
20
0.3735
10
-0.0743
20
0.3554
10
-0.0742
20
0.3548
10
-0.0182
20
0.0871
10
-0.0827
20
0.3949
10
-0.0842
20
0.4021
10
-0.0845
20
0.4031
10
-0.0777
20
0.3705
10
-0.0773
20
0.3688
10
-0.0811
20
0.3867
10
-0.0848
20
0.4038
10
-0.0847
20
0.4033
10
-0.0831
20
0.3948
10
-0.0755
20
0.3578
10
-0.0774
20
0.3667
10
-0.0829
20
0.3927
10
-0.0801
20
0.3791
10
-0.0847
20
0.4012
10
-0.0853
20
0.4036
10
-0.0847
20
0.4003
10
-0.0748
20
0.3529
10
-0.0853
20
0.4021
10
-0.0773
20
0.3644
10
-0.0804
20
0.3785
10
-0.0817
20
0.3847
10
-0.0824
20
0.3867
10
-0.0743
20
0.3484
10
-0.0787
20
0.3692
10
-0.0790
20
0.3702
10
-0.0835
20
0.3906
10
-0.0861
20
0.4022
10
-0.0803
20
0.3747
10
-0.0607
20
0.2827
10
-0.0867
20
0.4039
10
-0.0863
20
0.4018
10
-0.0866
20
0.4029
10
-0.0781
20
0.3632
10
-0.0850
20
0.3950
10
-0.0790
20
0.3669
10
-0.0880
20
0.4079
10
-0.0808
20
0.3742
10
-0.0883
20
0.4091
10
-0.0801
20
0.3703
10
-0.0580
20
0.2678
10
-0.0793
20
0.3664
10
-0.0818
20
0.3779
10
-0.0869
20
0.4009
10
-0.0851
20
0.3926
10
-0.0780
20
0.3598
10
-0.0545
20
0.2504
10
-0.0784
20
0.3604
10
-0.0882
20
0.4052
10
-0.0843
20
0.3870
10
-0.0871
20
0.3997
10
-0.0874
20
0.4009
10
-0.0809
20
0.3710
10
-0.0872
20
0.3999
10
-0.0596
20
0.2733
10
-0.0877
20
0.4019
10
-0.0605
20
0.2770
10
-0.0877
20
0.4014
10
-0.0792
20
0.3621
10
-0.0810
20
0.3698
10
-0.0886
20
0.4047
10
-0.0875
20
0.3994
10
-0.0871
20
0.3975
10
-0.0805
20
0.3673
10
-0.0795
20
0.3625
10
-0.0828
20
0.3777
10
-0.0768
20
0.3501
10
-0.0877
20
0.3996
10
-0.0878
20
0.4001
10
-0.0883
20
0.4024
10
-0.0811
20
0.3695
10
-0.0799
20
0.3637
10
-0.0820
20
0.3731
10
-0.0858
20
0.3905
10
-0.0868
20
0.3945
10
-0.0802
20
0.3642
10
-0.0805
20
0.3656
10
-0.0877
20
0.3982
10
-0.0902
20
0.4089
10
-0.0813
20
0.3684
10
-0.0879
20
0.3979
10
-0.0790
20
0.3577
10
-0.0878
20
0.3975
10
-0.0804
20
0.3635
10
-0.0796
20
0.3600
10
-0.0869
20
0.3928
10
-0.0824
20
0.3727
10
-0.0814
20
0.3679
10
-0.0826
20
0.3731
10
-0.0885
20
0.3994
10
-0.0802
20
0.3617
10
-0.0607
20
0.2740
10
-0.0875
20
0.3944
10
-0.0835
20
0.3761
10
-0.0885
20
0.3984
10
-0.0882
20
0.3964
10
-0.0881
20
0.3953
10
-0.0882
20
0.3956
10
-0.0857
20
0.3841
10
-0.0904
20
0.4044
10
-0.0872
20
0.3904
10
-0.0806
20
0.3605
10
-0.0886
20
0.3962
10
-0.0844
20
0.3774
10
-0.0810
20
0.3620
10
-0.0886
20
0.3960
10
-0.0877
20
0.3914
10
-0.0781
20
0.3481
10
-0.0806
20
0.3586
10
-0.0883
20
0.3928
10
-0.0825
20
0.3668
10
-0.0887
20
0.3943
10
-0.0819
20
0.3642
10
-0.0899
20
0.3989
10
-0.0839
20
0.3720
10
-0.0835
20
0.3701
10
-0.0887
20
0.3930
10
-0.0818
20
0.3623
10
-0.0831
20
0.3673
10
-0.0889
20
0.3922
10
-0.0893
20
0.3937
10
-0.0387
20
0.1706
10
-0.0905
20
0.3976
10
-0.0885
20
0.3868
10
-0.0597
20
0.2605
10
-0.0928
20
0.4051
10
-0.0879
20
0.3837
10
-0.0855
20
0.3723
10
-0.0805
20
0.3505
10
-0.0882
20
0.3835
10
-0.0911
20
0.3960
10
-0.0840
20
0.3650
10
-0.0885
20
0.3845
10
-0.0925
20
0.4012
10
-0.0897
20
0.3888
10
-0.0821
20
0.3558
10
-0.0817
20
0.3544
10
-0.0838
20
0.3631
10
-0.0839
20
0.3637
10
-0.0891
20
0.3862
10
-0.0621
20
0.2691
10
-0.0894
20
0.3873
10
-0.0868
20
0.3758
10
-0.0843
20
0.3645
10
-0.0894
20
0.3863
10
-0.0838
20
0.3621
10
-0.0933
20
0.4028
10
-0.0847
20
0.3659
10
-0.0880
20
0.3789
10
-0.0855
20
0.3682
10
-0.0850
20
0.3657
10
-0.0916
20
0.3941
10
-0.0870
20
0.3735
10
-0.0930
20
0.3995
10
-0.0860
20
0.3693
10
-0.0861
20
0.3694
10
-0.0935
20
0.4002
10
-0.0858
20
0.3671
10
-0.0884
20
0.3782
10
-0.0619
20
0.2649
10
-0.0918
20
0.3921
10
-0.0876
20
0.3737
10
-0.0862
20
0.3678
10
-0.0880
20
0.3751
10
-0.0881
20
0.3751
10
-0.0858
20
0.3651
10
-0.0935
20
0.3976
10
-0.0847
20
0.3602
10
-0.0885
20
0.3762
10
-0.0872
20
0.3707
10
-0.0872
20
0.3709
10
-0.0935
20
0.3976
10
-0.0887
20
0.3769
10
-0.0847
20
0.3597
10
-0.0875
20
0.3719
10
-0.0864
20
0.3656
10
-0.0934
20
0.3946
10
-0.0543
20
0.2294
10
-0.0874
20
0.3690
10
-0.0881
20
0.3712
10
-0.0939
20
0.3953
10
-0.0848
20
0.3569
10
-0.0919
20
0.3860
10
-0.0891
20
0.3733
10
-0.0941
20
0.3929
10
-0.0870
20
0.3634
10
-0.0906
20
0.3778
10
-0.0934
20
0.3866
10
-0.0873
20
0.3613
10
-0.0892
20
0.3677
10
-0.0892
20
0.3663
10
-0.0941
20
0.3861
10
-0.0909
20
0.3725
10
-0.0921
20
0.3769
10
-0.0909
20
0.3716
10
-0.0545
20
0.2224
10
-0.0925
20
0.3773
10
-0.0599
20
0.2413
10
-0.0387
20
0.1558
10
-0.0661
20
0.2663
10
-0.0662
20
0.2561
10
-0.0681
20
0.2614
10
-0.0566
20
0.2135
10
-0.0189
20
0.0712
10
-0.0692
20
0.2544
10
-0.0384
20
0.1402
10
-0.0648
20
0.2340
10
-0.0727
20
0.2609
10
-0.0590
20
0.2031
10
-0.0734
20
0.2499
10
-0.0757
20
0.2565
10
-0.0687
20
0.2281
10
-0.0379
20
0.1239
10
-0.0733
20
0.2383
10
-0.0605
20
0.1912
10
-0.0813
20
0.2566
10
-0.0753
20
0.2376
10
-0.0789
20
0.2478
10
-0.0823
20
0.2457
10
-0.0857
20
0.2527
10
-0.0604
20
0.1773
10
-0.0756
20
0.2204
10
-0.0810
20
0.2360
10
-0.0373
20
0.1069
10
-0.0919
20
0.2533
10
-0.0599
20
0.1620
10
-0.0930
20
0.2452
10
-0.0908
20
0.2391
10
-0.0960
20
0.2488
10
-0.0817
20
0.2116
10
-0.0201
20
0.0512
10
-0.0923
20
0.2297
10
-0.0594
20
0.1458
10
-0.1035
20
0.2495
10
-0.0375
20
0.0896
10
-0.0848
20
0.1998
10
-0.1051
20
0.2438
10
-0.0997
20
0.2311
10
-0.1079
20
0.2396
10
-0.0589
20
0.1287
10
-0.0854
20
0.1850
10
-0.1038
20
0.2218
10
-0.1179
20
0.2456
10
-0.1175
20
0.2403
10
-0.1117
20
0.2267
10
-0.0838
20
0.1689
10
-0.1202
20
0.2329
10
-0.1098
20
0.2102
10
-0.0581
20
0.1108
10
-0.1283
20
0.2408
10
-0.1299
20
0.2423
10
-0.0815
20
0.1519
10
-0.0393
20
0.0721
10
-0.1258
20
0.2281
10
-0.1111
20
0.1930
10
-0.1400
20
0.2416
10
-0.1408
20
0.2386
10
-0.0803
20
0.1338
10
-0.1386
20
0.2297
10
-0.1341
20
0.2221
10
-0.1084
20
0.1751
10
-0.0581
20
0.0929
10
-0.1518
20
0.2409
10
-0.1523
20
0.2359
10
-0.1498
20
0.2310
10
-0.1048
20
0.1571
10
-0.1331
20
0.1995
10
-0.1635
20
0.2394
10
-0.1513
20
0.2206
10
-0.0797
20
0.1149
10
-0.1645
20
0.2344
10
-0.0209
20
0.0292
10
-0.1303
20
0.1799
10
-0.1018
20
0.1389
10
-0.1750
20
0.2374
10
-0.1500
20
0.2015
10
-0.1635
20
0.2194
10
-0.1763
20
0.2334
10
-0.1266
20
0.1616
10
-0.1853
20
0.2338
10
-0.1736
20
0.2183
10
-0.1862
20
0.2322
10
-0.1627
20
0.2016
10
-0.1483
20
0.1825
10
-0.0425
20
0.0513
10
-0.0613
20
0.0738
10
-0.0800
20
0.0962
10
-0.1830
20
0.2187
10
-0.1008
20
0.1199
10
-0.1955
20
0.2302
10
-0.1726
20
0.2021
10
-0.1958
20
0.2287
10
-0.1232
20
0.1436
10
-0.1923
20
0.2199
10
-0.1623
20
0.1840
10
-0.1456
20
0.1643
10
-0.1809
20
0.2035
10
-0.2056
20
0.2283
10
-0.2023
20
0.2206
10
-0.1903
20
0.2060
10
-0.2075
20
0.2238
10
-0.1729
20
0.1855
10
-0.2173
20
0.2260
10
-0.2133
20
0.2210
10
-0.1211
20
0.1252
10
-0.1819
20
0.1876
10
-0.1613
20
0.1662
10
-0.1424
20
0.1468
10
-0.2012
20
0.2072
10
-0.1908
20
0.1907
10
-0.2200
20
0.2188
10
-0.1017
20
0.1010
10
-0.2126
20
0.2094
10
-0.1731
20
0.1683
10
-0.2003
20
0.1947
10
-0.2260
20
0.2194
10
-0.2301
20
0.2227
10
-0.2237
20
0.2101
10
-0.2113
20
0.1981
10
-0.1591
20
0.1491
10
-0.1830
20
0.1712
10
-0.1403
20
0.1296
10
-0.0838
20
0.0772
10
-0.2334
20
0.2139
10
-0.1927
20
0.1749
10
-0.2407
20
0.2161
10
-0.2235
20
0.1989
10
-0.2451
20
0.2182
10
-0.2028
20
0.1794
10
-0.1721
20
0.1516
10
-0.1218
20
0.1071
10
-0.2381
20
0.2087
10
-0.2139
20
0.1836
10
-0.1570
20
0.1330
10
-0.1830
20
0.1545
10
-0.2367
20
0.1996
10
-0.2483
20
0.2091
10
-0.2257
20
0.1870
10
-0.1933
20
0.1585
10
-0.2584
20
0.2111
10
-0.2537
20
0.2057
10
-0.1403
20
0.1130
10
-0.2632
20
0.2117
10
-0.2039
20
0.1634
10
-0.2377
20
0.1895
10
-0.1707
20
0.1360
10
-0.2499
20
0.1988
10
-0.1050
20
0.0830
10
-0.2157
20
0.1685
10
-0.2491
20
0.1908
10
-0.2658
20
0.2036
10
-0.2276
20
0.1740
10
-0.0677
20
0.0517
10
-0.1825
20
0.1392
10
-0.1569
20
0.1177
10
-0.2618
20
0.1962
10
-0.2696
20
0.2016
10
-0.2574
20
0.1915
10
-0.2396
20
0.1775
10
-0.1932
20
0.1430
10
-0.2786
20
0.2049
10
-0.2835
20
0.2051
10
-0.2043
20
0.1478
10
-0.2509
20
0.1812
10
-0.1248
20
0.0897
10
-0.1704
20
0.1214
10
-0.2171
20
0.1542
10
-0.2615
20
0.1852
10
-0.2715
20
0.1892
10
-0.2853
20
0.1971
10
-0.2306
20
0.1591
10
-0.1826
20
0.1250
10
-0.2429
20
0.1656
10
-0.1429
20
0.0972
10
-0.2848
20
0.1932
10
-0.2545
20
0.1709
10
-0.1929
20
0.1283
10
-0.2661
20
0.1753
10
-0.1588
20
0.1036
10
-0.3027
20
0.1968
10
-0.2043
20
0.1326
10
-0.3064
20
0.1986
10
-0.2865
20
0.1837
10
-0.2782
20
0.1782
10
-0.2190
20
0.1390
10
-0.0912
20
0.0575
10
-0.1717
20
0.1082
10
-0.2466
20
0.1539
10
-0.2337
20
0.1457
10
-0.3076
20
0.1914
10
-0.2580
20
0.1603
10
-0.2931
20
0.1804
10
-0.0452
20
0.0276
10
-0.1833
20
0.1118
10
-0.2697
20
0.1632
10
-0.1946
20
0.1159
10
-0.2059
20
0.1210
10
-0.2818
20
0.1649
10
-0.1124
20
0.0657
10
-0.3079
20
0.1795
10
-0.3314
20
0.1928
10
-0.3115
20
0.1807
10
-0.2490
20
0.1429
10
-0.2210
20
0.1268
10
-0.2600
20
0.1490
10
-0.3322
20
0.1903
10
-0.2362
20
0.1342
10
-0.3315
20
0.1875
10
-0.1312
20
0.0736
10
-0.2710
20
0.1515
10
-0.1625
20
0.0905
10
-0.1481
20
0.0824
10
-0.2969
20
0.1646
10
-0.1743
20
0.0959
10
-0.1857
20
0.1002
10
-0.2830
20
0.1525
10
-0.2075
20
0.1114
10
-0.2613
20
0.1395
10
-0.3355
20
0.1788
10
-0.2505
20
0.1332
10
-0.3318
20
0.1762
10
-0.3560
20
0.1883
10
-0.2220
20
0.1173
10
-0.2715
20
0.1434
10
-0.1975
20
0.1041
10
-0.2379
20
0.1247
10
-0.3159
20
0.1639
10
-0.3578
20
0.1854
10
-0.3555
20
0.1835
10
-0.2980
20
0.1519
10
-0.2705
20
0.1375
10
-0.2815
20
0.1428
10
-0.2628
20
0.1324
10
-0.2523
20
0.1255
10
-0.2111
20
0.1042
10
-0.2231
20
0.1100
10
-0.2400
20
0.1173
10
-0.2760
20
0.1347
10
-0.3615
20
0.1761
10
-0.3801
20
0.1849
10
-0.3564
20
0.1728
10
-0.3394
20
0.1643
10
-0.2666
20
0.1275
10
-0.3797
20
0.1803
10
-0.3825
20
0.1814
10
-0.1776
20
0.0842
10
-0.2942
20
0.1394
10
-0.1885
20
0.0890
10
-0.3171
20
0.1491
10
-0.2548
20
0.1195
10
-0.1667
20
0.0776
10
-0.2012
20
0.0936
10
-0.2054
20
0.0954
10
-0.2252
20
0.1044
10
-0.2424
20
0.1119
10
-0.2143
20
0.0983
10
-0.2146
20
0.0984
10
-0.4009
20
0.1832
10
-0.2531
20
0.1150
10
-0.2840
20
0.1289
10
-0.4013
20
0.1805
10
-0.3643
20
0.1633
10
-0.3863
20
0.1729
10
-0.2715
20
0.1210
10
-0.4141
20
0.1837
10
-0.1553
20
0.0689
10
-0.3806
20
0.1685
10
-0.2583
20
0.1141
10
-0.2383
20
0.1051
10
-0.4024
20
0.1772
10
-0.4141
20
0.1818
10
-0.2276
20
0.0998
10
-0.2446
20
0.1072
10
-0.3418
20
0.1490
10
-0.3580
20
0.1547
10
-0.4265
20
0.1836
10
-0.2167
20
0.0931
10
-0.4273
20
0.1834
10
-0.4029
20
0.1726
10
-0.1408
20
0.0599
10
-0.4159
20
0.1754
10
-0.2709
20
0.1141
10
-0.4403
20
0.1850
10
-0.3138
20
0.1317
10
-0.4152
20
0.1739
10
-0.2024
20
0.0848
10
-0.3881
20
0.1622
10
-0.1908
20
0.0793
10
-0.4420
20
0.1826
10
-0.2562
20
0.1057
10
-0.4267
20
0.1758
10
-0.2183
20
0.0898
10
-0.4023
20
0.1648
10
-0.2460
20
0.1005
10
-0.4558
20
0.1860
10
-0.2938
20
0.1195
10
-0.2281
20
0.0927
10
-0.1808
20
0.0735
10
-0.2606
20
0.1058
10
-0.2764
20
0.1121
10
-0.4290
20
0.1738
10
-0.3673
20
0.1486
10
-0.2402
20
0.0971
10
-0.2081
20
0.0841
10
-0.4391
20
0.1771
10
-0.4046
20
0.1625
10
-0.2181
20
0.0867
10
-0.3823
20
0.1519
10
-0.1229
20
0.0488
10
-0.3133
20
0.1244
10
-0.4592
20
0.1809
10
-0.4535
20
0.1785
10
-0.4167
20
0.1632
10
-0.4761
20
0.1855
10
-0.3438
20
0.1331
10
-0.4435
20
0.1713
10
-0.4169
20
0.1609
10
-0.2927
20
0.1128
10
-0.1720
20
0.0662
10
-0.4273
20
0.1637
10
-0.3903
20
0.1495
10
-0.2237
20
0.0854
10
-0.2037
20
0.0777
10
-0.4736
20
0.1804
10
-0.1967
20
0.0746
10
-0.2750
20
0.1040
10
-0.2472
20
0.0935
10
-0.2281
20
0.0862
10
-0.2606
20
0.0982
10
-0.4775
20
0.1798
10
-0.2440
20
0.0917
10
-0.4382
20
0.1639
10
-0.4024
20
0.1497
10
-0.2622
20
0.0972
10
-0.4068
20
0.1500
10
-0.1931
20
0.0712
10
-0.4984
20
0.1836
10
-0.4302
20
0.1577
10
-0.1904
20
0.0697
10
-0.2187
20
0.0801
10
-0.4599
20
0.1683
10
-0.4949
20
0.1810
10
-0.2261
20
0.0823
10
-0.1025
20
0.0372
10
-0.2134
20
0.0774
10
-0.3699
20
0.1340
10
-0.2795
20
0.1010
10
-0.2274
20
0.0822
10
-0.3372
20
0.1215
10
-0.4188
20
0.1505
10
-0.4515
20
0.1621
10
-0.2474
20
0.0886
10
-0.2464
20
0.0882
10
-0.4714
20
0.1681
10
-0.2996
20
0.1057
10
-0.4282
20
0.1509
10
-0.4167
20
0.1468
10
-0.1630
20
0.0573
10
-0.5004
20
0.1758
10
-0.2638
20
0.0926
10
-0.3160
20
0.1109
10
-0.1847
20
0.0646
10
-0.4438
20
0.1552
10
-0.5165
20
0.1804
10
-0.4920
20
0.1715
10
-0.2184
20
0.0760
10
-0.4365
20
0.1516
10
-0.4782
20
0.1658
10
-0.2049
20
0.0710
10
-0.3843
20
0.1330
10
-0.2173
20
0.0752
10
-0.3219
20
0.1112
10
-0.5205
20
0.1796
10
-0.2642
20
0.0911
10
-0.3926
20
0.1349
10
-0.2800
20
0.0960
10
-0.4432
20
0.1518
10
-0.2966
20
0.1015
10
-0.1862
20
0.0634
10
-0.2650
20
0.0897
10
-0.5129
20
0.1731
10
-0.4091
20
0.1356
10
-0.4300
20
0.1424
10
-0.5382
20
0.1782
10
-0.2018
20
0.0667
10
-0.3475
20
0.1147
10
-0.4595
20
0.1515
10
-0.1953
20
0.0644
10
-0.4702
20
0.1539
10
-0.2816
20
0.0921
10
-0.5224
20
0.1705
10
-0.3617
20
0.1179
10
-0.4539
20
0.1479
10
-0.4039
20
0.1308
10
-0.5416
20
0.1754
10
-0.4212
20
0.1363
10
-0.5348
20
0.1731
10
-0.4900
20
0.1582
10
-0.5008
20
0.1610
10
-0.4438
20
0.1427
10
-0.1776
20
0.0569
10
-0.2828
20
0.0906
10
-0.4301
20
0.1377
10
-0.2055
20
0.0658
10
-0.4369
20
0.1395
10
-0.3723
20
0.1184
10
-0.3393
20
0.1075
10
-0.5107
20
0.1611
10
-0.3027
20
0.0950
10
-0.2830
20
0.0888
10
-0.5600
20
0.1753
10
-0.3194
20
0.0998
10
-0.1517
20
0.0473
10
-0.1947
20
0.0606
10
-0.4449
20
0.1383
10
-0.5567
20
0.1724
10
-0.3009
20
0.0931
10
-0.4775
20
0.1477
10
-0.0772
20
0.0239
10
-0.4188
20
0.1285
10
-0.2053
20
0.0629
10
-0.5324
20
0.1629
10
-0.1885
20
0.0576
10
-0.2063
20
0.0630
10
-0.5436
20
0.1655
10
-0.5626
20
0.1712
10
-0.3255
20
0.0987
10
-0.3947
20
0.1196
10
-0.1974
20
0.0593
10
-0.3858
20
0.1153
10
-0.5231
20
0.1558
10
-0.5546
20
0.1638
10
-0.5813
20
0.1716
10
-0.5788
20
0.1703
10
-0.4599
20
0.1350
10
-0.4109
20
0.1204
10
-0.3043
20
0.0887
10
-0.4326
20
0.1258
10
-0.3040
20
0.0883
10
-0.3495
20
0.1014
10
-0.4456
20
0.1290
10
-0.4899
20
0.1409
10
-0.4705
20
0.1353
10
-0.4388
20
0.1259
10
-0.4232
20
0.1214
10
-0.4550
20
0.1305
10
-0.4999
20
0.1433
10
-0.1907
20
0.0546
10
-0.5831
20
0.1665
10
-0.3635
20
0.1038
10
-0.5641
20
0.1608
10
-0.4323
20
0.1232
10
-0.1979
20
0.0563
10
-0.5104
20
0.1452
10
-0.3228
20
0.0917
10
-0.5767
20
0.1637
10
-0.1986
20
0.0562
10
-0.3420
20
0.0968
10
-0.1707
20
0.0477
10
-0.6005
20
0.1679
10
-0.5316
20
0.1484
10
-0.4051
20
0.1131
10
-0.6019
20
0.1680
10
-0.3739
20
0.1043
10
-0.5443
20
0.1513
10
-0.3260
20
0.0905
10
-0.4469
20
0.1228
10
-0.1919
20
0.0526
10
-0.4774
20
0.1307
10
-0.5533
20
0.1507
10
-0.5989
20
0.1629
10
-0.1829
20
0.0497
10
-0.3252
20
0.0881
10
-0.6029
20
0.1622
10
-0.3964
20
0.1062
10
-0.0204
20
0.0055
10
-0.5841
20
0.1561
10
-0.6217
20
0.1657
10
-0.5224
20
0.1387
10
-0.6223
20
0.1651
10
-0.4203
20
0.1115
10
-0.5754
20
0.1521
10
-0.3491
20
0.0921
10
-0.3445
20
0.0902
10
-0.3877
20
0.1014
10
-0.4457
20
0.1165
10
-0.6208
20
0.1620
10
-0.5646
20
0.1471
10
-0.1935
20
0.0504
10
-0.4125
20
0.1068
10
-0.1939
20
0.0501
10
-0.4623
20
0.1192
10
-0.3656
20
0.0941
10
-0.1362
20
0.0349
10
-0.5978
20
0.1528
10
-0.4417
20
0.1129
10
-0.6227
20
0.1589
10
-0.6425
20
0.1638
10
-0.3469
20
0.0884
10
-0.4252
20
0.1076
10
-0.6426
20
0.1624
10
-0.4344
20
0.1096
10
-0.3733
20
0.0942
10
-0.4994
20
0.1258
10
-0.4344
20
0.1094
10
-0.6034
20
0.1518
10
-0.6418
20
0.1610
10
-0.5115
20
0.1274
10
-0.1877
20
0.0467
10
-0.4912
20
0.1221
10
-0.5437
20
0.1349
10
-0.6196
20
0.1535
10
-0.5324
20
0.1315
10
-0.4717
20
0.1162
10
-0.6631
20
0.1623
10
-0.5844
20
0.1429
10
-0.4065
20
0.0992
10
-0.5535
20
0.1349
10
-0.3965
20
0.0965
10
-0.6625
20
0.1603
10
-0.4535
20
0.1097
10
-0.6427
20
0.1554
10
-0.6408
20
0.1544
10
-0.6631
20
0.1596
10
-0.4787
20
0.1150
10
-0.3679
20
0.0882
10
-0.4485
20
0.1074
10
-0.5752
20
0.1376
10
-0.6230
20
0.1481
10
-0.3708
20
0.0881
10
-0.1877
20
0.0446
10
-0.4124
20
0.0974
10
-0.3896
20
0.0918
10
-0.6827
20
0.1609
10
-0.6613
20
0.1554
10
-0.6817
20
0.1599
10
-0.5967
20
0.1398
10
-0.5641
20
0.1316
10
-0.5214
20
0.1216
10
-0.4218
20
0.0975
10
-0.6806
20
0.1569
10
-0.6039
20
0.1391
10
-0.6832
20
0.1572
10
-0.4262
20
0.0979
10
-0.6185
20
0.1419
10
-0.4446
20
0.1018
10
-0.6628
20
0.1515
10
-0.6980
20
0.1592
10
-0.6965
20
0.1587
10
-0.4368
20
0.0989
10
-0.3952
20
0.0894
10
-0.4637
20
0.1047
10
-0.1625
20
0.0367
10
-0.6397
20
0.1443
10
-0.6952
20
0.1565
10
-0.1780
20
0.0400
10
-0.6429
20
0.1445
10
-0.1905
20
0.0426
10
-0.3931
20
0.0875
10
-0.6604
20
0.1468
10
-0.7083
20
0.1568
10
-0.6991
20
0.1543
10
-0.1904
20
0.0420
10
-0.4998
20
0.1102
10
-0.7102
20
0.1564
10
-0.5841
20
0.1285
10
-0.4364
20
0.0960
10
-0.6798
20
0.1492
10
-0.4088
20
0.0895
10
-0.5428
20
0.1185
10
-0.7067
20
0.1543
10
-0.6229
20
0.1355
10
-0.4117
20
0.0894
10
-0.6826
20
0.1482
10
-0.5138
20
0.1109
10
-0.5346
20
0.1153
10
-0.7177
20
0.1546
10
-0.6944
20
0.1495
10
-0.5554
20
0.1193
10
-0.7196
20
0.1545
10
-0.4939
20
0.1057
10
-0.5764
20
0.1229
10
-0.7108
20
0.1511
10
-0.7160
20
0.1520
10
-0.6625
20
0.1403
10
-0.5974
20
0.1261
10
-0.4805
20
0.1012
10
-0.4753
20
0.0999
10
-0.7262
20
0.1523
10
-0.7053
20
0.1479
10
-0.7297
20
0.1526
10
-0.4108
20
0.0858
10
-0.6184
20
0.1292
10
-0.6037
20
0.1260
10
-0.4265
20
0.0888
10
-0.4508
20
0.0938
10
-0.6986
20
0.1451
10
-0.7194
20
0.1490
10
-0.6394
20
0.1324
10
-0.7242
20
0.1499
10
-0.4241
20
0.0878
10
-0.5635
20
0.1165
10
-0.6425
20
0.1323
10
-0.6602
20
0.1356
10
-0.4600
20
0.0942
10
-0.7138
20
0.1457
10
-0.5214
20
0.1062
10
-0.4388
20
0.0893
10
-0.7399
20
0.1506
10
-0.4488
20
0.0912
10
-0.6795
20
0.1379
10
-0.7367
20
0.1494
10
-0.7421
20
0.1497
10
-0.7337
20
0.1475
10
-0.7214
20
0.1448
10
-0.7283
20
0.1461
10
-0.6815
20
0.1367
10
-0.7094
20
0.1417
10
-0.6938
20
0.1382
10
-0.6229
20
0.1236
10
-0.4259
20
0.0843
10
-0.5838
20
0.1153
10
-0.7529
20
0.1481
10
-0.4659
20
0.0916
10
-0.7307
20
0.1434
10
-0.4384
20
0.0858
10
-0.7497
20
0.1466
10
-0.6620
20
0.1294
10
-0.7041
20
0.1375
10
-0.7563
20
0.1476
10
-0.5008
20
0.0971
10
-0.7169
20
0.1388
10
-0.7459
20
0.1444
10
-0.6970
20
0.1343
10
-0.5428
20
0.1042
10
-0.7114
20
0.1363
10
-0.7678
20
0.1460
10
-0.7429
20
0.1413
10
-0.1848
20
0.0351
10
-0.7185
20
0.1364
10
-0.7425
20
0.1408
10
-0.6038
20
0.1145
10
-0.7709
20
0.1459
10
-0.4394
20
0.0831
10
-0.6424
20
0.1215
10
-0.7592
20
0.1433
10
-0.5991
20
0.1131
10
-0.5787
20
0.1092
10
-0.1835
20
0.0346
10
-0.6196
20
0.1168
10
-0.6399
20
0.1206
10
-0.7643
20
0.1439
10
-0.6602
20
0.1243
10
-0.5582
20
0.1050
10
-0.7277
20
0.1368
10
-0.5380
20
0.1007
10
-0.6796
20
0.1271
10
-0.5178
20
0.0965
10
-0.7599
20
0.1413
10
-0.7247
20
0.1346
10
-0.6805
20
0.1263
10
-0.4981
20
0.0924
10
-0.4823
20
0.0893
10
-0.4529
20
0.0839
10
-0.7841
20
0.1447
10
-0.7737
20
0.1426
10
-0.7392
20
0.1361
10
-0.5638
20
0.1035
10
-0.6939
20
0.1273
10
-0.4801
20
0.0880
10
-0.7071
20
0.1295
10
-0.4524
20
0.0827
10
-0.7866
20
0.1436
10
-0.6231
20
0.1137
10
-0.7561
20
0.1377
10
-0.6617
20
0.1200
10
-0.7806
20
0.1416
10
-0.7882
20
0.1427
10
-0.4652
20
0.0842
10
-0.5220
20
0.0942
10
-0.7032
20
0.1267
10
-0.7747
20
0.1389
10
-0.7993
20
0.1421
10
-0.5843
20
0.1038
10
-0.7100
20
0.1259
10
-0.7519
20
0.1333
10
-0.4674
20
0.0827
10
-0.6426
20
0.1134
10
-0.6953
20
0.1226
10
-0.7167
20
0.1261
10
-0.7141
20
0.1253
10
-0.8019
20
0.1406
10
-0.7701
20
0.1348
10
-0.7651
20
0.1332
10
-0.7255
20
0.1263
10
-0.5018
20
0.0873
10
-0.1196
20
0.0208
10
-0.6799
20
0.1182
10
-0.6801
20
0.1179
10
-0.7887
20
0.1367
10
-0.6042
20
0.1046
10
-0.1856
20
0.0321
10
-0.6609
20
0.1142
10
-0.5433
20
0.0934
10
-0.7361
20
0.1266
10
-0.6411
20
0.1102
10
-0.7543
20
0.1296
10
-0.7358
20
0.1263
10
-0.4829
20
0.0828
10
-0.6213
20
0.1065
10
-0.6944
20
0.1190
10
-0.7645
20
0.1307
10
-0.8021
20
0.1371
10
-0.6014
20
0.1028
10
-0.6617
20
0.1130
10
-0.7971
20
0.1357
10
-0.5814
20
0.0989
10
-0.1869
20
0.0318
10
-0.5012
20
0.0852
10
-0.6234
20
0.1059
10
-0.7906
20
0.1341
10
-0.5613
20
0.0948
10
-0.1714
20
0.0289
10
-0.5211
20
0.0878
10
-0.7026
20
0.1181
10
-0.5413
20
0.0909
10
-0.7778
20
0.1304
10
-0.7471
20
0.1247
10
-0.7754
20
0.1294
10
-0.6429
20
0.1072
10
-0.6943
20
0.1158
10
-0.8098
20
0.1348
10
-0.7832
20
0.1303
10
-0.5225
20
0.0868
10
-0.8016
20
0.1331
10
-0.5642
20
0.0937
10
-0.7219
20
0.1194
10
-0.6797
20
0.1121
10
-0.8113
20
0.1337
10
-0.6803
20
0.1119
10
-0.7979
20
0.1312
10
-0.6621
20
0.1084
10
-0.6944
20
0.1135
10
-0.7057
20
0.1152
10
-0.7095
20
0.1158
10
-0.6617
20
0.1079
10
-0.5847
20
0.0952
10
-0.5432
20
0.0880
10
-0.6423
20
0.1040
10
-0.7589
20
0.1228
10
-0.6229
20
0.1007
10
-0.6043
20
0.0976
10
-0.6237
20
0.1005
10
-0.6033
20
0.0971
10
-0.6803
20
0.1094
10
-0.6805
20
0.1093
10
-0.6430
20
0.1031
10
-0.6622
20
0.1062
10
-0.5636
20
0.0904
10
-0.8092
20
0.1297
10
-0.5836
20
0.0935
10
-0.7166
20
0.1147
10
-0.6937
20
0.1110
10
-0.7028
20
0.1123
10
-0.8105
20
0.1295
10
-0.8122
20
0.1296
10
-0.8093
20
0.1291
10
-0.7033
20
0.1119
10
-0.6944
20
0.1105
10
-0.7826
20
0.1241
10
-0.6942
20
0.1099
10
-0.7928
20
0.1253
10
-0.8051
20
0.1272
10
-0.1499
20
0.0237
10
-0.8213
20
0.1294
10
-0.7252
20
0.1140
10
-0.7912
20
0.1238
10
-0.8057
20
0.1260
10
-0.7995
20
0.1246
10
-0.7028
20
0.1095
10
-0.7696
20
0.1198
10
-0.8208
20
0.1277
10
-0.7030
20
0.1090
10
-0.7025
20
0.1089
10
-0.7882
20
0.1218
10
-0.7130
20
0.1102
10
-0.7347
20
0.1130
10
-0.8100
20
0.1245
10
-0.8200
20
0.1257
10
-0.7493
20
0.1147
10
-0.7099
20
0.1084
10
-0.8205
20
0.1252
10
-0.8218
20
0.1254
10
-0.8066
20
0.1224
10
-0.8188
20
0.1241
10
-0.7833
20
0.1186
10
-0.8105
20
0.1226
10
-0.7693
20
0.1163
10
-0.8095
20
0.1222
10
-0.8000
20
0.1203
10
-0.7641
20
0.1149
10
-0.7334
20
0.1102
10
-0.7454
20
0.1110
10
-0.7114
20
0.1059
10
-0.8142
20
0.1210
10
-0.7508
20
0.1114
10
-0.7486
20
0.1108
10
-0.7571
20
0.1120
10
-0.7118
20
0.1053
10
-0.7107
20
0.1051
10
-0.8129
20
0.1199
10
-0.8166
20
0.1199
10
-0.7372
20
0.1082
10
-0.7913
20
0.1161
10
-0.7746
20
0.1136
10
-0.7902
20
0.1158
10
-0.7471
20
0.1094
10
-0.7920
20
0.1159
10
-0.8109
20
0.1187
10
-0.7971
20
0.1167
10
-0.8363
20
0.1223
10
-0.7111
20
0.1040
10
-0.7607
20
0.1112
10
-0.7589
20
0.1109
10
-0.7186
20
0.1048
10
-0.7771
20
0.1131
10
-0.8175
20
0.1190
10
-0.7572
20
0.1101
10
-0.7360
20
0.1070
10
-0.8184
20
0.1189
10
-0.8146
20
0.1182
10
-0.7405
20
0.1074
10
-0.7950
20
0.1151
10
-0.8195
20
0.1184
10
-0.7691
20
0.1111
10
-0.7680
20
0.1109
10
-0.7458
20
0.1076
10
-0.7664
20
0.1105
10
-0.7557
20
0.1089
10
-0.8106
20
0.1168
10
-0.7720
20
0.1111
10
-0.8034
20
0.1156
10
-0.8092
20
0.1163
10
-0.7556
20
0.1086
10
-0.7655
20
0.1098
10
-0.7228
20
0.1036
10
-0.8360
20
0.1198
10
-0.7657
20
0.1097
10
-0.7836
20
0.1121
10
-0.7355
20
0.1051
10
-0.8342
20
0.1190
10
-0.8082
20
0.1150
10
-0.8347
20
0.1186
10
-0.7221
20
0.1026
10
-0.7278
20
0.1034
10
-0.7973
20
0.1133
10
-0.7230
20
0.1027
10
-0.7239
20
0.1027
10
-0.7786
20
0.1104
10
-0.7753
20
0.1099
10
-0.8079
20
0.1142
10
-0.7762
20
0.1095
10
-0.8343
20
0.1175
10
-0.7646
20
0.1076
10
-0.8151
20
0.1146
10
-0.7444
20
0.1046
10
-0.7832
20
0.1100
10
-0.7540
20
0.1059
10
-0.8312
20
0.1166
10
-0.7350
20
0.1029
10
-0.7959
20
0.1114
10
-0.7236
20
0.1012
10
-0.7718
20
0.1079
10
-0.8160
20
0.1140
10
-0.7887
20
0.1101
10
-0.7746
20
0.1081
10
-0.7803
20
0.1087
10
-0.7862
20
0.1095
10
-0.7878
20
0.1097
10
-0.7869
20
0.1096
10
-0.7713
20
0.1074
10
-0.7858
20
0.1092
10
-0.7366
20
0.1023
10
-0.8109
20
0.1126
10
-0.7957
20
0.1104
10
-0.7461
20
0.1034
10
-0.7913
20
0.1097
10
-0.7516
20
0.1041
10
-0.8059
20
0.1116
10
-0.7611
20
0.1054
10
-0.8085
20
0.1119
10
-0.7962
20
0.1102
10
-0.8249
20
0.1140
10
-0.7914
20
0.1094
10
-0.7987
20
0.1104
10
-0.7842
20
0.1083
10
-0.7587
20
0.1047
10
-0.7169
20
0.0989
10
-0.7948
20
0.1096
10
-0.7755
20
0.1069
10
-0.8017
20
0.1105
10
-0.7643
20
0.1052
10
-0.7947
20
0.1094
10
-0.8007
20
0.1102
10
-0.8139
20
0.1119
10
-0.7578
20
0.1041
10
-0.8028
20
0.1103
10
-0.8322
20
0.1143
10
-0.7325
20
0.1005
10
-0.7727
20
0.1060
10
-0.8449
20
0.1159
10
-0.7931
20
0.1086
10
-0.7969
20
0.1091
10
-0.7622
20
0.1043
10
-0.7280
20
0.0996
10
-0.8048
20
0.1100
10
-0.7761
20
0.1061
10
-0.8268
20
0.1129
10
-0.7441
20
0.1016
10
-0.7991
20
0.1091
10
-0.8146
20
0.1111
10
-0.7664
20
0.1046
10
-0.7786
20
0.1061
10
-0.8030
20
0.1094
10
-0.8303
20
0.1130
10
-0.7816
20
0.1064
10
-0.8303
20
0.1129
10
-0.7412
20
0.1008
10
-0.8112
20
0.1101
10
-0.8021
20
0.1089
10
-0.8046
20
0.1091
10
-0.8021
20
0.1086
10
-0.8270
20
0.1119
10
-0.7482
20
0.1012
10
-0.7550
20
0.1019
10
-0.7629
20
0.1030
10
-0.7709
20
0.1041
10
-0.7523
20
0.1015
10
-0.7899
20
0.1064
10
-0.8436
20
0.1137
10
-0.8131
20
0.1094
10
-0.7686
20
0.1033
10
-0.8409
20
0.1130
10
-0.7609
20
0.1021
10
-0.7718
20
0.1035
10
-0.8210
20
0.1098
10
-0.7961
20
0.1064
10
-0.7479
20
0.0998
10
-0.8115
20
0.1082
10
-0.7973
20
0.1063
10
-0.7741
20
0.1032
10
-0.8025
20
0.1070
10
-0.7887
20
0.1050
10
-0.7800
20
0.1038
10
-0.8085
20
0.1075
10
-0.8115
20
0.1078
10
-0.7912
20
0.1051
10
-0.8406
20
0.1115
10
-0.8284
20
0.1098
10
-0.8373
20
0.1110
10
-0.7767
20
0.1029
10
-0.7753
20
0.1026
10
-0.7746
20
0.1024
10
-0.8055
20
0.1064
10
-0.7958
20
0.1051
10
-0.8103
20
0.1070
10
-0.7835
20
0.1034
10
-0.8070
20
0.1064
10
-0.8415
20
0.1109
10
-0.8247
20
0.1084
10
-0.7932
20
0.1042
10
-0.7760
20
0.1017
10
-0.7841
20
0.1025
10
-0.8084
20
0.1056
10
-0.8261
20
0.1077
10
-0.8018
20
0.1045
10
-0.8386
20
0.1093
10
-0.7679
20
0.1000
10
-0.8248
20
0.1073
10
-0.7324
20
0.0952
10
-0.8226
20
0.1069
10
-0.7536
20
0.0978
10
-0.8033
20
0.1040
10
-0.7347
20
0.0951
10
-0.7788
20
0.1007
10
-0.1785
20
0.0231
10
-0.8019
20
0.1035
10
-0.8330
20
0.1075
10
-0.8358
20
0.1078
10
-0.8043
20
0.1035
10
-0.8311
20
0.1069
10
-0.7714
20
0.0992
10
-0.7975
20
0.1022
10
-0.7760
20
0.0994
10
-0.8253
20
0.1056
10
-0.7257
20
0.0928
10
-0.8318
20
0.1062
10
-0.8206
20
0.1043
10
-0.8154
20
0.1036
10
-0.8239
20
0.1043
10
-0.8359
20
0.1059
10
-0.7893
20
0.0999
10
-0.8480
20
0.1072
10
-0.7826
20
0.0989
10
-0.8336
20
0.1053
10
-0.8434
20
0.1065
10
-0.8239
20
0.1037
10
-0.7587
20
0.0953
10
-0.8209
20
0.1029
10
-0.8300
20
0.1039
10
-0.8281
20
0.1034
10
-0.8405
20
0.1049
10
-0.8193
20
0.1023
10
-0.8431
20
0.1050
10
-0.7708
20
0.0960
10
-0.8467
20
0.1053
10
-0.8291
20
0.1031
10
-0.8261
20
0.1025
10
-0.8014
20
0.0992
10
-0.8311
20
0.1026
10
-0.8162
20
0.1007
10
-0.7840
20
0.0967
10
-0.8071
20
0.0995
10
-0.8192
20
0.1009
10
-0.7925
20
0.0976
10
-0.7837
20
0.0965
10
-0.8097
20
0.0996
10
-0.8300
20
0.1021
10
-0.7845
20
0.0964
10
-0.7868
20
0.0967
10
-0.8355
20
0.1023
10
-0.8118
20
0.0994
10
-0.8393
20
0.1022
10
-0.8253
20
0.1004
10
-0.8444
20
0.1025
10
-0.8242
20
0.1001
10
-0.8282
20
0.1006
10
-0.8245
20
0.1000
10
-0.8079
20
0.0978
10
-0.8284
20
0.1002
10
-0.8412
20
0.1015
10
-0.8111
20
0.0978
10
-0.7437
20
0.0897
10
-0.8125
20
0.0978
10
-0.7614
20
0.0917
10
-0.8304
20
0.0998
10
-0.7456
20
0.0895
10
-0.8013
20
0.0962
10
-0.7822
20
0.0937
10
-0.8335
20
0.0998
10
-0.8232
20
0.0985
10
-0.7978
20
0.0954
10
-0.7739
20
0.0926
10
-0.8201
20
0.0981
10
-0.7355
20
0.0876
10
-0.7682
20
0.0913
10
-0.1828
20
0.0217
10
-0.8037
20
0.0955
10
-0.7905
20
0.0939
10
-0.8199
20
0.0972
10
-0.7933
20
0.0940
10
-0.8263
20
0.0978
10
-0.8361
20
0.0987
10
-0.7833
20
0.0925
10
-0.8278
20
0.0975
10
-0.8329
20
0.0981
10
-0.8390
20
0.0985
10
-0.8325
20
0.0976
10
-0.7911
20
0.0927
10
-0.8253
20
0.0967
10
-0.7914
20
0.0925
10
-0.7957
20
0.0928
10
-0.8159
20
0.0950
10
-0.7992
20
0.0929
10
-0.8303
20
0.0965
10
-0.8162
20
0.0948
10
-0.8323
20
0.0966
10
-0.7919
20
0.0918
10
-0.8281
20
0.0955
10
-0.8145
20
0.0939
10
-0.8337
20
0.0961
10
-0.8465
20
0.0973
10
-0.7954
20
0.0914
10
-0.8260
20
0.0948
10
-0.7922
20
0.0909
10
-0.7557
20
0.0866
10
-0.8074
20
0.0925
10
-0.7928
20
0.0908
10
-0.8300
20
0.0950
10
-0.8301
20
0.0950
10
-0.8099
20
0.0926
10
-0.8208
20
0.0934
10
-0.8465
20
0.0963
10
-0.8438
20
0.0959
10
-0.7665
20
0.0870
10
-0.8084
20
0.0917
10
-0.7887
20
0.0892
10
-0.8040
20
0.0906
10
-0.8221
20
0.0925
10
-0.8382
20
0.0942
10
-0.7992
20
0.0898
10
-0.8017
20
0.0900
10
-0.7952
20
0.0891
10
-0.8439
20
0.0943
10
-0.8505
20
0.0951
10
-0.8162
20
0.0912
10
-0.8329
20
0.0930
10
-0.7926
20
0.0882
10
-0.8165
20
0.0908
10
-0.7982
20
0.0888
10
-0.7959
20
0.0885
10
-0.7543
20
0.0838
10
-0.8146
20
0.0904
10
-0.7474
20
0.0829
10
-0.7782
20
0.0862
10
-0.7920
20
0.0877
10
-0.8387
20
0.0927
10
-0.8288
20
0.0916
10
-0.7806
20
0.0863
10
-0.8317
20
0.0916
10
-0.8494
20
0.0935
10
-0.8285
20
0.0911
10
-0.7651
20
0.0839
10
-0.7908
20
0.0864
10
-0.8475
20
0.0925
10
-0.7946
20
0.0867
10
-0.7707
20
0.0837
10
-0.8438
20
0.0908
10
-0.7996
20
0.0860
10
-0.7562
20
0.0810
10
-0.8426
20
0.0898
10
-0.7607
20
0.0811
10
-0.8388
20
0.0888
10
-0.7849
20
0.0830
10
-0.8491
20
0.0895
10
-0.8346
20
0.0877
10
-0.8306
20
0.0872
10
-0.8372
20
0.0877
10
-0.8400
20
0.0880
10
-0.8307
20
0.0870
10
-0.8347
20
0.0874
10
-0.8460
20
0.0883
10
-0.7954
20
0.0830
10
-0.8492
20
0.0887
10
-0.1828
20
0.0191
10
-0.7999
20
0.0832
10
-0.8341
20
0.0867
10
-0.7637
20
0.0794
10
-0.8329
20
0.0865
10
-0.8327
20
0.0864
10
-0.8348
20
0.0867
10
-0.8045
20
0.0835
10
-0.8348
20
0.0866
10
-0.8314
20
0.0862
10
-0.7930
20
0.0821
10
-0.8270
20
0.0856
10
-0.8085
20
0.0834
10
-0.8077
20
0.0833
10
-0.8461
20
0.0873
10
-0.8216
20
0.0847
10
-0.8105
20
0.0836
10
-0.8061
20
0.0831
10
-0.8410
20
0.0864
10
-0.7899
20
0.0811
10
-0.7663
20
0.0786
10
-0.7929
20
0.0811
10
-0.7751
20
0.0791
10
-0.7767
20
0.0791
10
-0.8020
20
0.0816
10
-0.8177
20
0.0832
10
-0.8029
20
0.0817
10
-0.1840
20
0.0187
10
-0.7966
20
0.0809
10
-0.8308
20
0.0843
10
-0.8074
20
0.0814
10
-0.8523
20
0.0857
10
-0.8168
20
0.0820
10
-0.7873
20
0.0790
10
-0.8252
20
0.0823
10
-0.8006
20
0.0796
10
-0.8201
20
0.0816
10
-0.8512
20
0.0846
10
-0.7965
20
0.0790
10
-0.8453
20
0.0838
10
-0.8493
20
0.0842
10
-0.8402
20
0.0833
10
-0.8322
20
0.0825
10
-0.8320
20
0.0824
10
-0.8355
20
0.0827
10
-0.8363
20
0.0826
10
-0.8052
20
0.0795
10
-0.8342
20
0.0820
10
-0.8356
20
0.0821
10
-0.8019
20
0.0787
10
-0.7941
20
0.0778
10
-0.8349
20
0.0816
10
-0.8448
20
0.0825
10
-0.8406
20
0.0819
10
-0.8090
20
0.0788
10
-0.8396
20
0.0817
10
-0.7734
20
0.0753
10
-0.7810
20
0.0760
10
-0.8505
20
0.0826
10
-0.8227
20
0.0796
10
-0.8416
20
0.0813
10
-0.8191
20
0.0791
10
-0.7989
20
0.0770
10
-0.7735
20
0.0745
10
-0.8274
20
0.0796
10
-0.8465
20
0.0813
10
-0.8080
20
0.0776
10
-0.7936
20
0.0760
10
-0.8014
20
0.0767
10
-0.8111
20
0.0776
10
-0.8110
20
0.0775
10
-0.7971
20
0.0759
10
-0.8319
20
0.0791
10
-0.8502
20
0.0809
10
-0.8468
20
0.0803
10
-0.8084
20
0.0766
10
-0.8183
20
0.0775
10
-0.8087
20
0.0765
10
-0.8057
20
0.0762
10
-0.8126
20
0.0768
10
-0.8363
20
0.0788
10
-0.7859
20
0.0740
10
-0.1621
20
0.0153
10
-0.8340
20
0.0784
10
-0.7964
20
0.0748
10
-0.8403
20
0.0787
10
-0.8360
20
0.0783
10
-0.7944
20
0.0743
10
-0.8360
20
0.0779
10
-0.8023
20
0.0747
10
-0.8352
20
0.0776
10
-0.8193
20
0.0758
10
-0.8093
20
0.0748
10
-0.8504
20
0.0785
10
-0.8212
20
0.0757
10
-0.8227
20
0.0758
10
-0.8456
20
0.0778
10
-0.8033
20
0.0739
10
-0.8126
20
0.0744
10
-0.8320
20
0.0762
10
-0.7828
20
0.0716
10
-0.8505
20
0.0777
10
-0.8259
20
0.0751
10
-0.7791
20
0.0708
10
-0.8182
20
0.0744
10
-0.8487
20
0.0771
10
-0.8071
20
0.0733
10
-0.8271
20
0.0751
10
-0.8056
20
0.0731
10
-0.7940
20
0.0720
10
-0.8396
20
0.0760
10
-0.7971
20
0.0721
10
-0.8527
20
0.0771
10
-0.8104
20
0.0730
10
-0.8107
20
0.0725
10
-0.8364
20
0.0747
10
-0.8374
20
0.0748
10
-0.7802
20
0.0697
10
-0.8020
20
0.0716
10
-0.8127
20
0.0725
10
-0.8444
20
0.0753
10
-0.8336
20
0.0743
10
-0.8337
20
0.0743
10
-0.8082
20
0.0720
10
-0.8407
20
0.0748
10
-0.7979
20
0.0710
10
-0.8508
20
0.0756
10
-0.8421
20
0.0746
10
-0.8461
20
0.0749
10
-0.8316
20
0.0736
10
-0.8492
20
0.0751
10
-0.7957
20
0.0702
10
-0.8492
20
0.0748
10
-0.8059
20
0.0709
10
-0.7969
20
0.0700
10
-0.8451
20
0.0739
10
-0.8147
20
0.0712
10
-0.8205
20
0.0715
10
-0.8108
20
0.0707
10
-0.8000
20
0.0697
10
-0.8091
20
0.0704
10
-0.7951
20
0.0689
10
-0.8502
20
0.0737
10
-0.8026
20
0.0693
10
-0.7846
20
0.0677
10
-0.8508
20
0.0734
10
-0.8102
20
0.0697
10
-0.8089
20
0.0696
10
-0.8483
20
0.0729
10
-0.8083
20
0.0693
10
-0.8251
20
0.0704
10
-0.8351
20
0.0712
10
-0.8152
20
0.0693
10
-0.8515
20
0.0724
10
-0.8349
20
0.0709
10
-0.8032
20
0.0682
10
-0.8354
20
0.0707
10
-0.8512
20
0.0720
10
-0.8215
20
0.0694
10
-0.8396
20
0.0708
10
-0.8497
20
0.0717
10
-0.8180
20
0.0690
10
-0.8105
20
0.0683
10
-0.8337
20
0.0702
10
-0.8032
20
0.0674
10
-0.8052
20
0.0676
10
-0.7952
20
0.0667
10
-0.8112
20
0.0679
10
-0.8445
20
0.0706
10
-0.8072
20
0.0675
10
-0.8307
20
0.0693
10
-0.8356
20
0.0696
10
-0.8257
20
0.0687
10
-0.8135
20
0.0673
10
-0.8102
20
0.0669
10
-0.8172
20
0.0675
10
-0.8021
20
0.0662
10
-0.7870
20
0.0648
10
-0.8385
20
0.0690
10
-0.7926
20
0.0652
10
-0.7971
20
0.0655
10
-0.8354
20
0.0686
10
-0.8371
20
0.0687
10
-0.7989
20
0.0656
10
-0.8398
20
0.0689
10
-0.8359
20
0.0685
10
-0.8487
20
0.0695
10
-0.8420
20
0.0688
10
-0.7975
20
0.0652
10
-0.8404
20
0.0687
10
-0.8458
20
0.0690
10
-0.8299
20
0.0674
10
-0.8487
20
0.0689
10
-0.8051
20
0.0653
10
-0.8342
20
0.0677
10
-0.8341
20
0.0676
10
-0.8088
20
0.0655
10
-0.7938
20
0.0643
10
-0.8445
20
0.0683
10
-0.8437
20
0.0682
10
-0.8506
20
0.0686
10
-0.8465
20
0.0681
10
-0.8315
20
0.0669
10
-0.8196
20
0.0657
10
-0.8131
20
0.0652
10
-0.8010
20
0.0642
10
-0.8484
20
0.0680
10
-0.8502
20
0.0681
10
-0.8511
20
0.0681
10
-0.7968
20
0.0638
10
-0.8074
20
0.0646
10
-0.8075
20
0.0645
10
-0.8487
20
0.0677
10
-0.8046
20
0.0642
10
-0.8513
20
0.0677
10
-0.8081
20
0.0642
10
-0.8100
20
0.0641
10
-0.8018
20
0.0634
10
-0.8326
20
0.0656
10
-0.8370
20
0.0659
10
-0.8231
20
0.0647
10
-0.8391
20
0.0659
10
-0.7992
20
0.0626
10
-0.8105
20
0.0635
10
-0.8019
20
0.0627
10
-0.8379
20
0.0654
10
-0.7969
20
0.0618
10
-0.8212
20
0.0635
10
-0.8383
20
0.0648
10
-0.8329
20
0.0644
10
-0.8271
20
0.0639
10
-0.7942
20
0.0612
10
-0.8115
20
0.0625
10
-0.8138
20
0.0626
10
-0.8003
20
0.0616
10
-0.8416
20
0.0647
10
-0.8182
20
0.0629
10
-0.7966
20
0.0610
10
-0.8361
20
0.0640
10
-0.7987
20
0.0611
10
-0.8295
20
0.0634
10
-0.8349
20
0.0637
10
-0.8245
20
0.0629
10
-0.8391
20
0.0639
10
-0.8037
20
0.0611
10
-0.8092
20
0.0615
10
-0.8366
20
0.0635
10
-0.8331
20
0.0632
10
-0.8177
20
0.0620
10
-0.8410
20
0.0637
10
-0.8508
20
0.0644
10
-0.8485
20
0.0642
10
-0.8430
20
0.0637
10
-0.7984
20
0.0602
10
-0.8081
20
0.0609
10
-0.8447
20
0.0636
10
-0.8035
20
0.0605
10
-0.8401
20
0.0632
10
-0.8449
20
0.0633
10
-0.8045
20
0.0603
10
-0.8470
20
0.0634
10
-0.8481
20
0.0633
10
-0.8015
20
0.0597
10
-0.8400
20
0.0625
10
-0.8011
20
0.0596
10
-0.8282
20
0.0615
10
-0.8506
20
0.0631
10
-0.8105
20
0.0600
10
-0.7993
20
0.0591
10
-0.8500
20
0.0628
10
-0.8197
20
0.0604
10
-0.8062
20
0.0593
10
-0.8016
20
0.0589
10
-0.8093
20
0.0595
10
-0.8020
20
0.0589
10
-0.8079
20
0.0593
10
-0.8457
20
0.0621
10
-0.8431
20
0.0617
10
-0.8212
20
0.0600
10
-0.8488
20
0.0621
10
-0.8080
20
0.0591
10
-0.8431
20
0.0614
10
-0.0433
20
0.0031
10
-0.8312
20
0.0603
10
-0.8512
20
0.0617
10
-0.8373
20
0.0606
10
-0.8196
20
0.0589
10
-0.8228
20
0.0591
10
-0.8468
20
0.0608
10
-0.8187
20
0.0587
10
-0.8375
20
0.0600
10
-0.8006
20
0.0573
10
-0.8324
20
0.0595
10
-0.8370
20
0.0598
10
-0.8053
20
0.0575
10
-0.8090
20
0.0575
10
-0.8232
20
0.0585
10
-0.8260
20
0.0587
10
-0.8288
20
0.0586
10
-0.8036
20
0.0568
10
-0.8391
20
0.0593
10
-0.8029
20
0.0564
10
-0.8324
20
0.0584
10
-0.8066
20
0.0561
10
-0.8398
20
0.0582
10
-0.8204
20
0.0568
10
-0.8421
20
0.0580
10
-0.8493
20
0.0582
10
-0.8262
20
0.0565
10
-0.8213
20
0.0561
10
-0.8393
20
0.0572
10
-0.8458
20
0.0575
10
-0.8488
20
0.0572
10
-0.8427
20
0.0567
10
-0.8319
20
0.0557
10
-0.8229
20
0.0549
10
-0.8298
20
0.0552
10
-0.8456
20
0.0562
10
-0.8290
20
0.0550
10
-0.8263
20
0.0543
10
-0.8508
20
0.0558
10
-0.8424
20
0.0551
10
-0.8242
20
0.0535
10
-0.8315
20
0.0538
10
-0.8463
20
0.0541
10
-0.1373
20
0.0087
10
-0.8282
20
0.0523
10
-0.1711
20
0.0086
10
-0.1029
20
0.0051
10
-0.1795
20
0.0051
10
-0.1770
20
0.0036
10
-0.1800
20
0.0022
43
0.0120
0
ENDSEC
0
EOF