0
SECTION
2
HEADER
9
$SMII_SCALE
1
1.0
9
$SMII_SEAM_ALLOWANCE
1
0.01
0
ENDSEC
0
SECTION
2
ENTITIES
0
LWPOLYLINE
8
chest_circumference_to_neck_circumference_left
90
97
70
1
10
-0.0563
20
-0.0015
10
-0.0801
20
-0.0048
10
-0.0484
20
-0.0060
10
-0.1095
20
-0.0186
10
-0.0143
20
-0.0038
10
-0.1073
20
-0.0396
10
-0.0767
20
-0.0309
10
-0.0576
20
-0.0280
10
-0.1072
20
-0.0567
10
-0.0787
20
-0.0467
10
-0.0472
20
-0.0289
10
-0.0771
20
-0.0479
10
-0.0790
20
-0.0517
10
-0.0775
20
-0.0591
10
-0.0426
20
-0.0434
10
-0.0253
20
-0.0272
10
-0.0447
20
-0.0547
10
-0.0439
20
-0.0592
10
-0.0214
20
-0.0465
10
-0.0106
20
-0.0289
10
-0.0134
20
-0.0546
10
-0.0093
20
-0.0485
10
-0.0095
20
-0.0584
10
0.0112
20
-0.0468
10
0.0150
20
-0.0485
10
0.0218
20
-0.0570
10
0.0111
20
-0.0259
10
0.0251
20
-0.0519
10
0.0297
20
-0.0460
10
0.0551
20
-0.0522
10
0.0289
20
-0.0263
10
0.0577
20
-0.0465
10
0.0606
20
-0.0458
10
0.0629
20
-0.0396
10
0.0648
20
-0.0388
10
0.0901
20
-0.0416
10
0.0483
20
-0.0200
10
0.0923
20
-0.0364
10
0.0876
20
-0.0316
10
0.0658
20
-0.0198
10
0.1002
20
-0.0272
10
0.1274
20
-0.0296
10
0.1317
20
-0.0255
10
0.1323
20
-0.0210
10
0.1270
20
-0.0175
10
0.0872
20
-0.0114
10
0.0951
20
-0.0103
10
0.0914
20
-0.0094
10
0.0264
20
-0.0009
10
0.1314
20
-0.0030
10
0.0646
20
0.0035
10
0.1319
20
0.0144
10
0.0838
20
0.0127
10
0.0480
20
0.0090
10
0.1309
20
0.0312
10
0.0992
20
0.0305
10
0.1270
20
0.0459
10
0.0825
20
0.0373
10
0.0603
20
0.0283
10
0.0892
20
0.0464
10
0.0120
20
0.0067
10
0.0844
20
0.0606
10
0.0466
20
0.0375
10
0.0782
20
0.0661
10
0.0230
20
0.0253
10
0.0466
20
0.0603
10
0.0441
20
0.0605
10
0.0424
20
0.0666
10
0.0194
20
0.0485
10
0.0104
20
0.0367
10
0.0120
20
0.0583
10
0.0068
20
0.0672
10
-0.0167
20
0.0620
10
-0.0233
20
0.0647
10
-0.0187
20
0.0458
10
-0.0244
20
0.0525
10
-0.0161
20
0.0228
10
-0.0540
20
0.0599
10
-0.0556
20
0.0526
10
-0.0527
20
0.0404
10
-0.0817
20
0.0538
10
-0.0842
20
0.0532
10
-0.0848
20
0.0470
10
-0.0553
20
0.0272
10
-0.1100
20
0.0490
10
-0.1111
20
0.0478
10
-0.1049
20
0.0403
10
-0.1169
20
0.0429
10
-0.0513
20
0.0172
10
-0.0804
20
0.0240
10
-0.1175
20
0.0247
10
-0.1147
20
0.0227
10
-0.0788
20
0.0089
10
-0.0272
20
0.0022
10
-0.0981
20
0.0066
10
-0.1097
20
0.0046
10
-0.1154
20
0.0016
43
0.0134
0
LINE
8
chest_circumference_to_neck_circumference_left_GRAIN
10
0.0045
20
-0.1224
11
0.0045
21
0.1274
0
LWPOLYLINE
8
chest_circumference_to_neck_circumference_left_GRAIN
90
3
70
1
10
0.0045
20
-0.1224
10
-0.0090
20
-0.0924
10
0.0180
20
-0.0924
0
LWPOLYLINE
8
chest_circumference_to_neck_circumference_left_GRAIN
90
3
70
1
10
0.0045
20
0.1274
10
-0.0090
20
0.0974
10
0.0180
20
0.0974
0
TEXT
8
chest_circumference_to_neck_circumference_left_LABEL
10
0.0045
20
0.0025
40
0.0600
1
chest_circumference_to_neck_circumference_left
0
LWPOLYLINE
8
chest_circumference_to_neck_circumference_left_SEAM
90
97
70
1
10
-0.0563
20
-0.0015
10
-0.0801
20
-0.0048
10
-0.0484
20
-0.0060
10
-0.1095
20
-0.0186
10
-0.0143
20
-0.0038
10
-0.1073
20
-0.0396
10
-0.0767
20
-0.0309
10
-0.0576
20
-0.0280
10
-0.1072
20
-0.0567
10
-0.0787
20
-0.0467
10
-0.0472
20
-0.0289
10
-0.0771
20
-0.0479
10
-0.0790
20
-0.0517
10
-0.0775
20
-0.0591
10
-0.0426
20
-0.0434
10
-0.0253
20
-0.0272
10
-0.0447
20
-0.0547
10
-0.0439
20
-0.0592
10
-0.0214
20
-0.0465
10
-0.0106
20
-0.0289
10
-0.0134
20
-0.0546
10
-0.0093
20
-0.0485
10
-0.0095
20
-0.0584
10
0.0112
20
-0.0468
10
0.0150
20
-0.0485
10
0.0218
20
-0.0570
10
0.0111
20
-0.0259
10
0.0251
20
-0.0519
10
0.0297
20
-0.0460
10
0.0551
20
-0.0522
10
0.0289
20
-0.0263
10
0.0577
20
-0.0465
10
0.0606
20
-0.0458
10
0.0629
20
-0.0396
10
0.0648
20
-0.0388
10
0.0901
20
-0.0416
10
0.0483
20
-0.0200
10
0.0923
20
-0.0364
10
0.0876
20
-0.0316
10
0.0658
20
-0.0198
10
0.1002
20
-0.0272
10
0.1274
20
-0.0296
10
0.1317
20
-0.0255
10
0.1323
20
-0.0210
10
0.1270
20
-0.0175
10
0.0872
20
-0.0114
10
0.0951
20
-0.0103
10
0.0914
20
-0.0094
10
0.0264
20
-0.0009
10
0.1314
20
-0.0030
10
0.0646
20
0.0035
10
0.1319
20
0.0144
10
0.0838
20
0.0127
10
0.0480
20
0.0090
10
0.1309
20
0.0312
10
0.0992
20
0.0305
10
0.1270
20
0.0459
10
0.0825
20
0.0373
10
0.0603
20
0.0283
10
0.0892
20
0.0464
10
0.0120
20
0.0067
10
0.0844
20
0.0606
10
0.0466
20
0.0375
10
0.0782
20
0.0661
10
0.0230
20
0.0253
10
0.0466
20
0.0603
10
0.0441
20
0.0605
10
0.0424
20
0.0666
10
0.0194
20
0.0485
10
0.0104
20
0.0367
10
0.0120
20
0.0583
10
0.0068
20
0.0672
10
-0.0167
20
0.0620
10
-0.0233
20
0.0647
10
-0.0187
20
0.0458
10
-0.0244
20
0.0525
10
-0.0161
20
0.0228
10
-0.0540
20
0.0599
10
-0.0556
20
0.0526
10
-0.0527
20
0.0404
10
-0.0817
20
0.0538
10
-0.0842
20
0.0532
10
-0.0848
20
0.0470
10
-0.0553
20
0.0272
10
-0.1100
20
0.0490
10
-0.1111
20
0.0478
10
-0.1049
20
0.0403
10
-0.1169
20
0.0429
10
-0.0513
20
0.0172
10
-0.0804
20
0.0240
10
-0.1175
20
0.0247
10
-0.1147
20
0.0227
10
-0.0788
20
0.0089
10
-0.0272
20
0.0022
10
-0.0981
20
0.0066
10
-0.1097
20
0.0046
10
-0.1154
20
0.0016
43
0.0134
0
LWPOLYLINE
8
chest_circumference_to_neck_circumference_left_CUT
90
97
70
1
10
-0.1967
20
-0.0075
10
-0.2349
20
-0.0127
10
-0.1603
20
-0.0154
10
-0.6450
20
-0.1154
10
-0.1357
20
-0.0362
10
-0.3842
20
-0.1319
10
-0.0739
20
-0.0440
10
-0.1259
20
-0.0521
10
-0.2379
20
-0.1169
10
-0.0732
20
-0.0589
10
-0.4804
20
-0.2895
10
-0.0875
20
-0.0387
10
-0.0930
20
-0.0499
10
-0.0873
20
-0.0782
10
-0.0351
20
-0.0547
10
-0.1125
20
-0.1273
10
-0.0589
20
-0.0515
10
-0.0538
20
-0.0802
10
-0.0118
20
-0.0565
10
-0.0305
20
-0.0871
10
-0.0326
20
-0.1060
10
-0.0235
20
-0.0928
10
-0.0233
20
-0.0816
10
0.0119
20
-0.0617
10
0.0066
20
-0.0594
10
0.0597
20
-0.1268
10
0.0767
20
-0.1766
10
0.0231
20
-0.0765
10
0.0349
20
-0.0611
10
0.0988
20
-0.0768
10
0.1513
20
-0.1288
10
0.0549
20
-0.0610
10
0.0708
20
-0.0571
10
0.0735
20
-0.0497
10
0.0668
20
-0.0525
10
0.1608
20
-0.0630
10
0.2531
20
-0.1106
10
0.1438
20
-0.0699
10
0.0957
20
-0.0208
10
0.1542
20
-0.0525
10
0.0982
20
-0.0405
10
0.1323
20
-0.0434
10
0.1442
20
-0.0320
10
0.1468
20
-0.0146
10
0.1320
20
-0.0047
10
0.1811
20
-0.0121
10
0.1629
20
-0.0146
10
0.0940
20
0.0038
10
0.2701
20
-0.0190
10
0.4788
20
-0.0231
10
0.1687
20
0.0069
10
0.3447
20
0.0356
10
0.0828
20
0.0261
10
0.2138
20
0.0396
10
0.2424
20
0.0473
10
0.1531
20
0.0451
10
0.2067
20
0.0750
10
0.0787
20
0.0502
10
0.1973
20
0.0982
10
0.3659
20
0.2036
10
0.1500
20
0.0927
10
0.3280
20
0.2250
10
0.1610
20
0.1231
10
0.2866
20
0.2368
10
0.0776
20
0.0823
10
0.0705
20
0.0718
10
0.0545
20
0.0731
10
0.0500
20
0.0897
10
0.0098
20
0.0579
10
0.0270
20
0.0804
10
0.0256
20
0.0614
10
0.0135
20
0.0823
10
-0.0155
20
0.0760
10
-0.0425
20
0.0873
10
-0.0449
20
0.0968
10
-0.0537
20
0.1071
10
-0.0426
20
0.0675
10
-0.0619
20
0.0864
10
-0.0693
20
0.0525
10
-0.0720
20
0.0641
10
-0.0802
20
0.0678
10
-0.0967
20
0.0641
10
-0.0988
20
0.0403
10
-0.1670
20
0.0861
10
-0.1136
20
0.0648
10
-0.1289
20
0.0484
10
-0.1397
20
0.0616
10
-0.2771
20
0.0914
10
-0.2283
20
0.0723
10
-0.0788
20
0.0374
10
-0.1604
20
0.0390
10
-0.1211
20
0.0109
10
-0.0821
20
-0.0042
10
-0.4258
20
0.0403
10
-0.0988
20
0.0201
10
-0.1140
20
0.0174
10
-0.1651
20
-0.0092
43
0.0134
0
LWPOLYLINE
8
chest_circumference_to_neck_circumference_right
90
97
70
1
10
-0.0563
20
-0.0015
10
-0.0801
20
-0.0048
10
-0.0484
20
-0.0060
10
-0.1095
20
-0.0186
10
-0.0143
20
-0.0038
10
-0.1073
20
-0.0396
10
-0.0767
20
-0.0310
10
-0.0576
20
-0.0280
10
-0.1072
20
-0.0567
10
-0.0787
20
-0.0467
10
-0.0472
20
-0.0289
10
-0.0772
20
-0.0480
10
-0.0790
20
-0.0518
10
-0.0775
20
-0.0591
10
-0.0426
20
-0.0434
10
-0.0253
20
-0.0272
10
-0.0447
20
-0.0547
10
-0.0439
20
-0.0592
10
-0.0214
20
-0.0465
10
-0.0106
20
-0.0289
10
-0.0134
20
-0.0546
10
-0.0093
20
-0.0485
10
-0.0097
20
-0.0587
10
0.0112
20
-0.0467
10
0.0151
20
-0.0485
10
0.0218
20
-0.0570
10
0.0111
20
-0.0259
10
0.0251
20
-0.0519
10
0.0297
20
-0.0460
10
0.0551
20
-0.0522
10
0.0289
20
-0.0263
10
0.0577
20
-0.0465
10
0.0606
20
-0.0458
10
0.0629
20
-0.0396
10
0.0649
20
-0.0388
10
0.0902
20
-0.0416
10
0.0483
20
-0.0200
10
0.0923
20
-0.0364
10
0.0875
20
-0.0316
10
0.0658
20
-0.0198
10
0.1002
20
-0.0272
10
0.1274
20
-0.0296
10
0.1317
20
-0.0254
10
0.1323
20
-0.0210
10
0.1270
20
-0.0174
10
0.0872
20
-0.0114
10
0.0951
20
-0.0103
10
0.0914
20
-0.0094
10
0.0264
20
-0.0009
10
0.1318
20
-0.0029
10
0.0646
20
0.0035
10
0.1319
20
0.0144
10
0.0837
20
0.0127
10
0.0479
20
0.0090
10
0.1309
20
0.0312
10
0.0992
20
0.0305
10
0.1270
20
0.0459
10
0.0824
20
0.0373
10
0.0603
20
0.0283
10
0.0892
20
0.0464
10
0.0120
20
0.0068
10
0.0838
20
0.0602
10
0.0466
20
0.0375
10
0.0782
20
0.0661
10
0.0230
20
0.0253
10
0.0466
20
0.0603
10
0.0441
20
0.0606
10
0.0424
20
0.0666
10
0.0193
20
0.0484
10
0.0103
20
0.0367
10
0.0120
20
0.0583
10
0.0068
20
0.0672
10
-0.0168
20
0.0620
10
-0.0233
20
0.0648
10
-0.0187
20
0.0457
10
-0.0244
20
0.0525
10
-0.0161
20
0.0228
10
-0.0540
20
0.0599
10
-0.0556
20
0.0526
10
-0.0527
20
0.0404
10
-0.0816
20
0.0538
10
-0.0842
20
0.0532
10
-0.0848
20
0.0470
10
-0.0553
20
0.0272
10
-0.1100
20
0.0490
10
-0.1111
20
0.0479
10
-0.1049
20
0.0403
10
-0.1169
20
0.0429
10
-0.0514
20
0.0170
10
-0.0804
20
0.0240
10
-0.1178
20
0.0248
10
-0.1148
20
0.0228
10
-0.0789
20
0.0089
10
-0.0272
20
0.0023
10
-0.0980
20
0.0066
10
-0.1096
20
0.0046
10
-0.1154
20
0.0016
43
0.0134
0
LINE
8
chest_circumference_to_neck_circumference_right_GRAIN
10
0.0044
20
-0.1226
11
0.0044
21
0.1276
0
LWPOLYLINE
8
chest_circumference_to_neck_circumference_right_GRAIN
90
3
70
1
10
0.0044
20
-0.1226
10
-0.0091
20
-0.0926
10
0.0180
20
-0.0926
0
LWPOLYLINE
8
chest_circumference_to_neck_circumference_right_GRAIN
90
3
70
1
10
0.0044
20
0.1276
10
-0.0091
20
0.0976
10
0.0180
20
0.0976
0
TEXT
8
chest_circumference_to_neck_circumference_right_LABEL
10
0.0044
20
0.0025
40
0.0600
1
chest_circumference_to_neck_circumference_right
0
LWPOLYLINE
8
chest_circumference_to_neck_circumference_right_SEAM
90
97
70
1
10
-0.0563
20
-0.0015
10
-0.0801
20
-0.0048
10
-0.0484
20
-0.0060
10
-0.1095
20
-0.0186
10
-0.0143
20
-0.0038
10
-0.1073
20
-0.0396
10
-0.0767
20
-0.0310
10
-0.0576
20
-0.0280
10
-0.1072
20
-0.0567
10
-0.0787
20
-0.0467
10
-0.0472
20
-0.0289
10
-0.0772
20
-0.0480
10
-0.0790
20
-0.0518
10
-0.0775
20
-0.0591
10
-0.0426
20
-0.0434
10
-0.0253
20
-0.0272
10
-0.0447
20
-0.0547
10
-0.0439
20
-0.0592
10
-0.0214
20
-0.0465
10
-0.0106
20
-0.0289
10
-0.0134
20
-0.0546
10
-0.0093
20
-0.0485
10
-0.0097
20
-0.0587
10
0.0112
20
-0.0467
10
0.0151
20
-0.0485
10
0.0218
20
-0.0570
10
0.0111
20
-0.0259
10
0.0251
20
-0.0519
10
0.0297
20
-0.0460
10
0.0551
20
-0.0522
10
0.0289
20
-0.0263
10
0.0577
20
-0.0465
10
0.0606
20
-0.0458
10
0.0629
20
-0.0396
10
0.0649
20
-0.0388
10
0.0902
20
-0.0416
10
0.0483
20
-0.0200
10
0.0923
20
-0.0364
10
0.0875
20
-0.0316
10
0.0658
20
-0.0198
10
0.1002
20
-0.0272
10
0.1274
20
-0.0296
10
0.1317
20
-0.0254
10
0.1323
20
-0.0210
10
0.1270
20
-0.0174
10
0.0872
20
-0.0114
10
0.0951
20
-0.0103
10
0.0914
20
-0.0094
10
0.0264
20
-0.0009
10
0.1318
20
-0.0029
10
0.0646
20
0.0035
10
0.1319
20
0.0144
10
0.0837
20
0.0127
10
0.0479
20
0.0090
10
0.1309
20
0.0312
10
0.0992
20
0.0305
10
0.1270
20
0.0459
10
0.0824
20
0.0373
10
0.0603
20
0.0283
10
0.0892
20
0.0464
10
0.0120
20
0.0068
10
0.0838
20
0.0602
10
0.0466
20
0.0375
10
0.0782
20
0.0661
10
0.0230
20
0.0253
10
0.0466
20
0.0603
10
0.0441
20
0.0606
10
0.0424
20
0.0666
10
0.0193
20
0.0484
10
0.0103
20
0.0367
10
0.0120
20
0.0583
10
0.0068
20
0.0672
10
-0.0168
20
0.0620
10
-0.0233
20
0.0648
10
-0.0187
20
0.0457
10
-0.0244
20
0.0525
10
-0.0161
20
0.0228
10
-0.0540
20
0.0599
10
-0.0556
20
0.0526
10
-0.0527
20
0.0404
10
-0.0816
20
0.0538
10
-0.0842
20
0.0532
10
-0.0848
20
0.0470
10
-0.0553
20
0.0272
10
-0.1100
20
0.0490
10
-0.1111
20
0.0479
10
-0.1049
20
0.0403
10
-0.1169
20
0.0429
10
-0.0514
20
0.0170
10
-0.0804
20
0.0240
10
-0.1178
20
0.0248
10
-0.1148
20
0.0228
10
-0.0789
20
0.0089
10
-0.0272
20
0.0023
10
-0.0980
20
0.0066
10
-0.1096
20
0.0046
10
-0.1154
20
0.0016
43
0.0134
0
LWPOLYLINE
8
chest_circumference_to_neck_circumference_right_CUT
90
97
70
1
10
-0.1964
20
-0.0075
10
-0.2337
20
-0.0126
10
-0.1600
20
-0.0153
10
-0.6467
20
-0.1155
10
-0.1357
20
-0.0362
10
-0.3829
20
-0.1313
10
-0.0738
20
-0.0441
10
-0.1261
20
-0.0522
10
-0.2376
20
-0.1168
10
-0.0731
20
-0.0589
10
-0.4833
20
-0.2912
10
-0.0876
20
-0.0387
10
-0.0930
20
-0.0500
10
-0.0873
20
-0.0782
10
-0.0350
20
-0.0547
10
-0.1128
20
-0.1277
10
-0.0589
20
-0.0515
10
-0.0537
20
-0.0802
10
-0.0118
20
-0.0565
10
-0.0305
20
-0.0870
10
-0.0326
20
-0.1059
10
-0.0244
20
-0.0941
10
-0.0240
20
-0.0823
10
0.0119
20
-0.0618
10
0.0065
20
-0.0593
10
0.0598
20
-0.1270
10
0.0769
20
-0.1769
10
0.0231
20
-0.0765
10
0.0350
20
-0.0611
10
0.0989
20
-0.0768
10
0.1513
20
-0.1287
10
0.0550
20
-0.0610
10
0.0708
20
-0.0570
10
0.0735
20
-0.0497
10
0.0668
20
-0.0525
10
0.1607
20
-0.0630
10
0.2535
20
-0.1108
10
0.1440
20
-0.0700
10
0.0957
20
-0.0208
10
0.1544
20
-0.0525
10
0.0982
20
-0.0405
10
0.1324
20
-0.0434
10
0.1443
20
-0.0319
10
0.1468
20
-0.0145
10
0.1319
20
-0.0047
10
0.1818
20
-0.0122
10
0.1640
20
-0.0146
10
0.0940
20
0.0038
10
0.2684
20
-0.0188
10
0.4836
20
-0.0228
10
0.1694
20
0.0070
10
0.3437
20
0.0354
10
0.0828
20
0.0261
10
0.2142
20
0.0397
10
0.2425
20
0.0473
10
0.1530
20
0.0451
10
0.2066
20
0.0750
10
0.0786
20
0.0502
10
0.1984
20
0.0989
10
0.3652
20
0.2031
10
0.1496
20
0.0925
10
0.3240
20
0.2221
10
0.1605
20
0.1226
10
0.2880
20
0.2379
10
0.0777
20
0.0824
10
0.0705
20
0.0718
10
0.0545
20
0.0731
10
0.0500
20
0.0897
10
0.0097
20
0.0579
10
0.0270
20
0.0804
10
0.0256
20
0.0615
10
0.0134
20
0.0824
10
-0.0155
20
0.0760
10
-0.0426
20
0.0875
10
-0.0450
20
0.0973
10
-0.0538
20
0.1076
10
-0.0426
20
0.0675
10
-0.0619
20
0.0864
10
-0.0693
20
0.0525
10
-0.0720
20
0.0641
10
-0.0800
20
0.0678
10
-0.0967
20
0.0643
10
-0.0988
20
0.0403
10
-0.1669
20
0.0860
10
-0.1132
20
0.0647
10
-0.1292
20
0.0488
10
-0.1398
20
0.0616
10
-0.2726
20
0.0902
10
-0.2348
20
0.0753
10
-0.0786
20
0.0374
10
-0.1628
20
0.0392
10
-0.1211
20
0.0108
10
-0.0822
20
-0.0042
10
-0.4295
20
0.0405
10
-0.0987
20
0.0201
10
-0.1139
20
0.0175
10
-0.1656
20
-0.0091
43
0.0134
0
LWPOLYLINE
8
hip_circumference_to_waist_circumference_left
90
196
70
1
10
-0.1598
20
-0.0014
10
-0.1414
20
-0.0059
10
-0.0994
20
-0.0060
10
-0.1623
20
-0.0187
10
-0.1560
20
-0.0207
10
-0.0262
20
-0.0045
10
-0.1333
20
-0.0231
10
-0.1363
20
-0.0244
10
-0.1298
20
-0.0284
10
-0.1633
20
-0.0382
10
-0.0673
20
-0.0172
10
-0.1419
20
-0.0393
10
-0.1205
20
-0.0344
10
-0.1310
20
-0.0420
10
-0.1622
20
-0.0570
10
-0.1590
20
-0.0589
10
-0.1479
20
-0.0579
10
-0.1039
20
-0.0418
10
-0.1598
20
-0.0760
10
-0.1172
20
-0.0571
10
-0.1498
20
-0.0777
10
-0.1376
20
-0.0793
10
-0.0781
20
-0.0478
10
-0.1519
20
-0.0958
10
-0.1160
20
-0.0791
10
-0.1355
20
-0.0979
10
-0.0961
20
-0.0712
10
-0.1387
20
-0.1165
10
-0.1170
20
-0.1016
10
-0.1156
20
-0.1180
10
-0.0321
20
-0.0357
10
-0.0691
20
-0.0866
10
-0.0892
20
-0.1195
10
-0.0896
20
-0.1358
10
-0.0616
20
-0.1082
10
-0.0348
20
-0.0663
10
-0.0576
20
-0.1263
10
-0.0635
20
-0.1632
10
-0.0313
20
-0.0947
10
-0.0276
20
-0.1335
10
-0.0328
20
-0.1631
10
-0.0307
20
-0.1561
10
-0.0280
20
-0.1550
10
-0.0114
20
-0.1693
10
-0.0065
20
-0.1683
10
0.0049
20
-0.1322
10
0.0085
20
-0.0958
10
0.0204
20
-0.1592
10
0.0105
20
-0.0701
10
0.0250
20
-0.1456
10
0.0274
20
-0.1443
10
0.0356
20
-0.1247
10
0.0462
20
-0.1445
10
0.0135
20
-0.0415
10
0.0497
20
-0.1288
10
0.0434
20
-0.1067
10
0.0657
20
-0.1429
10
0.0577
20
-0.1198
10
0.0693
20
-0.1267
10
0.0495
20
-0.0849
10
0.0880
20
-0.1276
10
0.0924
20
-0.1156
10
0.0878
20
-0.1056
10
0.0530
20
-0.0625
10
0.0829
20
-0.0940
10
0.1035
20
-0.1115
10
0.1137
20
-0.1170
10
0.1175
20
-0.1174
10
0.1161
20
-0.1129
10
0.0985
20
-0.0890
10
0.0876
20
-0.0784
10
0.1084
20
-0.0931
10
0.0804
20
-0.0676
10
0.1269
20
-0.1019
10
0.1284
20
-0.1012
10
0.1262
20
-0.0981
10
0.0933
20
-0.0621
10
0.1351
20
-0.0861
10
0.0576
20
-0.0359
10
0.1025
20
-0.0557
10
0.1009
20
-0.0544
10
0.0197
20
-0.0108
10
0.1348
20
-0.0688
10
0.1242
20
-0.0574
10
0.1003
20
-0.0435
10
0.1341
20
-0.0512
10
0.1218
20
-0.0459
10
0.1288
20
-0.0439
10
0.1081
20
-0.0312
10
0.1271
20
-0.0345
10
0.1331
20
-0.0329
10
0.0913
20
-0.0206
10
0.1300
20
-0.0247
10
0.1205
20
-0.0183
10
0.1261
20
-0.0165
10
0.1112
20
-0.0140
10
0.1342
20
-0.0156
10
0.0615
20
-0.0065
10
0.1256
20
-0.0093
10
0.1315
20
-0.0079
10
0.1336
20
-0.0009
10
0.1116
20
0.0011
10
0.1289
20
0.0041
10
0.0961
20
0.0071
10
0.1313
20
0.0133
10
0.1273
20
0.0163
10
0.1146
20
0.0170
10
0.1251
20
0.0251
10
0.1124
20
0.0267
10
0.1149
20
0.0320
10
0.1106
20
0.0349
10
0.1161
20
0.0385
10
0.1174
20
0.0447
10
0.1148
20
0.0471
10
0.1080
20
0.0463
10
0.1081
20
0.0510
10
0.1015
20
0.0514
10
0.1007
20
0.0564
10
0.0949
20
0.0563
10
0.1069
20
0.0710
10
0.0931
20
0.0635
10
0.0971
20
0.0715
10
0.0832
20
0.0665
10
0.0845
20
0.0750
10
0.0767
20
0.0713
10
0.0936
20
0.0907
10
0.0749
20
0.0763
10
0.0691
20
0.0747
10
0.0794
20
0.0883
10
0.0659
20
0.0754
10
0.0670
20
0.0794
10
0.0614
20
0.0771
10
0.0633
20
0.0873
10
0.0735
20
0.1048
10
0.0500
20
0.0773
10
0.0484
20
0.0770
10
0.0483
20
0.0804
10
0.0536
20
0.0974
10
0.0369
20
0.0800
10
0.0461
20
0.1119
10
0.0337
20
0.0832
10
0.0283
20
0.0797
10
0.0237
20
0.0820
10
0.0234
20
0.0987
10
0.0175
20
0.0838
10
0.0120
20
0.0880
10
0.0140
20
0.1146
10
0.0102
20
0.0869
10
0.0084
20
0.1329
10
0.0040
20
0.0883
10
0.0032
20
0.0920
10
-0.0033
20
0.0913
10
-0.0087
20
0.0949
10
-0.0112
20
0.0911
10
-0.0150
20
0.0944
10
-0.0242
20
0.1281
10
-0.0202
20
0.0998
10
-0.0224
20
0.0932
10
-0.0351
20
0.0930
10
-0.0522
20
0.1155
10
-0.0546
20
0.0987
10
-0.0603
20
0.0959
10
-0.0681
20
0.0992
10
-0.0786
20
0.0929
10
-0.0803
20
0.0896
10
-0.0771
20
0.0831
10
-0.0898
20
0.0913
10
-0.1021
20
0.0878
10
-0.0993
20
0.0794
10
-0.0837
20
0.0634
10
-0.1137
20
0.0790
10
-0.1173
20
0.0761
10
-0.1147
20
0.0682
10
-0.1250
20
0.0707
10
-0.1051
20
0.0545
10
-0.1278
20
0.0644
10
-0.0771
20
0.0369
10
-0.1326
20
0.0589
10
-0.1375
20
0.0580
10
-0.1387
20
0.0550
10
-0.1196
20
0.0453
10
-0.1382
20
0.0469
10
-0.1413
20
0.0434
10
-0.1332
20
0.0379
10
-0.1460
20
0.0388
10
-0.1067
20
0.0274
10
-0.1475
20
0.0348
10
-0.0585
20
0.0123
10
-0.1426
20
0.0263
10
-0.0870
20
0.0129
10
-0.1554
20
0.0207
10
-0.1323
20
0.0143
10
-0.1491
20
0.0140
10
-0.1487
20
0.0101
10
-0.1422
20
0.0062
10
-0.1603
20
0.0014
43
0.0141
0
LINE
8
hip_circumference_to_waist_circumference_left_GRAIN
10
-0.0087
20
-0.1676
11
-0.0087
21
0.1345
0
LWPOLYLINE
8
hip_circumference_to_waist_circumference_left_GRAIN
90
3
70
1
10
-0.0087
20
-0.1676
10
-0.0250
20
-0.1314
10
0.0076
20
-0.1314
0
LWPOLYLINE
8
hip_circumference_to_waist_circumference_left_GRAIN
90
3
70
1
10
-0.0087
20
0.1345
10
-0.0250
20
0.0983
10
0.0076
20
0.0983
0
TEXT
8
hip_circumference_to_waist_circumference_left_LABEL
10
-0.0087
20
-0.0165
40
0.0600
1
hip_circumference_to_waist_circumference_left
0
LWPOLYLINE
8
hip_circumference_to_waist_circumference_left_SEAM
90
196
70
1
10
-0.1598
20
-0.0014
10
-0.1414
20
-0.0059
10
-0.0994
20
-0.0060
10
-0.1623
20
-0.0187
10
-0.1560
20
-0.0207
10
-0.0262
20
-0.0045
10
-0.1333
20
-0.0231
10
-0.1363
20
-0.0244
10
-0.1298
20
-0.0284
10
-0.1633
20
-0.0382
10
-0.0673
20
-0.0172
10
-0.1419
20
-0.0393
10
-0.1205
20
-0.0344
10
-0.1310
20
-0.0420
10
-0.1622
20
-0.0570
10
-0.1590
20
-0.0589
10
-0.1479
20
-0.0579
10
-0.1039
20
-0.0418
10
-0.1598
20
-0.0760
10
-0.1172
20
-0.0571
10
-0.1498
20
-0.0777
10
-0.1376
20
-0.0793
10
-0.0781
20
-0.0478
10
-0.1519
20
-0.0958
10
-0.1160
20
-0.0791
10
-0.1355
20
-0.0979
10
-0.0961
20
-0.0712
10
-0.1387
20
-0.1165
10
-0.1170
20
-0.1016
10
-0.1156
20
-0.1180
10
-0.0321
20
-0.0357
10
-0.0691
20
-0.0866
10
-0.0892
20
-0.1195
10
-0.0896
20
-0.1358
10
-0.0616
20
-0.1082
10
-0.0348
20
-0.0663
10
-0.0576
20
-0.1263
10
-0.0635
20
-0.1632
10
-0.0313
20
-0.0947
10
-0.0276
20
-0.1335
10
-0.0328
20
-0.1631
10
-0.0307
20
-0.1561
10
-0.0280
20
-0.1550
10
-0.0114
20
-0.1693
10
-0.0065
20
-0.1683
10
0.0049
20
-0.1322
10
0.0085
20
-0.0958
10
0.0204
20
-0.1592
10
0.0105
20
-0.0701
10
0.0250
20
-0.1456
10
0.0274
20
-0.1443
10
0.0356
20
-0.1247
10
0.0462
20
-0.1445
10
0.0135
20
-0.0415
10
0.0497
20
-0.1288
10
0.0434
20
-0.1067
10
0.0657
20
-0.1429
10
0.0577
20
-0.1198
10
0.0693
20
-0.1267
10
0.0495
20
-0.0849
10
0.0880
20
-0.1276
10
0.0924
20
-0.1156
10
0.0878
20
-0.1056
10
0.0530
20
-0.0625
10
0.0829
20
-0.0940
10
0.1035
20
-0.1115
10
0.1137
20
-0.1170
10
0.1175
20
-0.1174
10
0.1161
20
-0.1129
10
0.0985
20
-0.0890
10
0.0876
20
-0.0784
10
0.1084
20
-0.0931
10
0.0804
20
-0.0676
10
0.1269
20
-0.1019
10
0.1284
20
-0.1012
10
0.1262
20
-0.0981
10
0.0933
20
-0.0621
10
0.1351
20
-0.0861
10
0.0576
20
-0.0359
10
0.1025
20
-0.0557
10
0.1009
20
-0.0544
10
0.0197
20
-0.0108
10
0.1348
20
-0.0688
10
0.1242
20
-0.0574
10
0.1003
20
-0.0435
10
0.1341
20
-0.0512
10
0.1218
20
-0.0459
10
0.1288
20
-0.0439
10
0.1081
20
-0.0312
10
0.1271
20
-0.0345
10
0.1331
20
-0.0329
10
0.0913
20
-0.0206
10
0.1300
20
-0.0247
10
0.1205
20
-0.0183
10
0.1261
20
-0.0165
10
0.1112
20
-0.0140
10
0.1342
20
-0.0156
10
0.0615
20
-0.0065
10
0.1256
20
-0.0093
10
0.1315
20
-0.0079
10
0.1336
20
-0.0009
10
0.1116
20
0.0011
10
0.1289
20
0.0041
10
0.0961
20
0.0071
10
0.1313
20
0.0133
10
0.1273
20
0.0163
10
0.1146
20
0.0170
10
0.1251
20
0.0251
10
0.1124
20
0.0267
10
0.1149
20
0.0320
10
0.1106
20
0.0349
10
0.1161
20
0.0385
10
0.1174
20
0.0447
10
0.1148
20
0.0471
10
0.1080
20
0.0463
10
0.1081
20
0.0510
10
0.1015
20
0.0514
10
0.1007
20
0.0564
10
0.0949
20
0.0563
10
0.1069
20
0.0710
10
0.0931
20
0.0635
10
0.0971
20
0.0715
10
0.0832
20
0.0665
10
0.0845
20
0.0750
10
0.0767
20
0.0713
10
0.0936
20
0.0907
10
0.0749
20
0.0763
10
0.0691
20
0.0747
10
0.0794
20
0.0883
10
0.0659
20
0.0754
10
0.0670
20
0.0794
10
0.0614
20
0.0771
10
0.0633
20
0.0873
10
0.0735
20
0.1048
10
0.0500
20
0.0773
10
0.0484
20
0.0770
10
0.0483
20
0.0804
10
0.0536
20
0.0974
10
0.0369
20
0.0800
10
0.0461
20
0.1119
10
0.0337
20
0.0832
10
0.0283
20
0.0797
10
0.0237
20
0.0820
10
0.0234
20
0.0987
10
0.0175
20
0.0838
10
0.0120
20
0.0880
10
0.0140
20
0.1146
10
0.0102
20
0.0869
10
0.0084
20
0.1329
10
0.0040
20
0.0883
10
0.0032
20
0.0920
10
-0.0033
20
0.0913
10
-0.0087
20
0.0949
10
-0.0112
20
0.0911
10
-0.0150
20
0.0944
10
-0.0242
20
0.1281
10
-0.0202
20
0.0998
10
-0.0224
20
0.0932
10
-0.0351
20
0.0930
10
-0.0522
20
0.1155
10
-0.0546
20
0.0987
10
-0.0603
20
0.0959
10
-0.0681
20
0.0992
10
-0.0786
20
0.0929
10
-0.0803
20
0.0896
10
-0.0771
20
0.0831
10
-0.0898
20
0.0913
10
-0.1021
20
0.0878
10
-0.0993
20
0.0794
10
-0.0837
20
0.0634
10
-0.1137
20
0.0790
10
-0.1173
20
0.0761
10
-0.1147
20
0.0682
10
-0.1250
20
0.0707
10
-0.1051
20
0.0545
10
-0.1278
20
0.0644
10
-0.0771
20
0.0369
10
-0.1326
20
0.0589
10
-0.1375
20
0.0580
10
-0.1387
20
0.0550
10
-0.1196
20
0.0453
10
-0.1382
20
0.0469
10
-0.1413
20
0.0434
10
-0.1332
20
0.0379
10
-0.1460
20
0.0388
10
-0.1067
20
0.0274
10
-0.1475
20
0.0348
10
-0.0585
20
0.0123
10
-0.1426
20
0.0263
10
-0.0870
20
0.0129
10
-0.1554
20
0.0207
10
-0.1323
20
0.0143
10
-0.1491
20
0.0140
10
-0.1487
20
0.0101
10
-0.1422
20
0.0062
10
-0.1603
20
0.0014
43
0.0141
0
LWPOLYLINE
8
hip_circumference_to_waist_circumference_left_CUT
90
196
70
1
10
-0.1722
20
-0.0129
10
-0.1431
20
-0.0200
10
-0.2384
20
-0.0197
10
-0.2181
20
-0.0156
10
-0.1574
20
-0.0351
10
-0.6103
20
-0.0917
10
-0.1372
20
-0.0095
10
-0.1675
20
-0.0217
10
-0.1642
20
-0.0237
10
-0.5564
20
-0.1385
10
-0.4412
20
-0.1134
10
-0.5829
20
-0.1554
10
-0.1847
20
-0.0637
10
-0.1383
20
-0.0299
10
-0.1918
20
-0.0554
10
-0.1623
20
-0.0734
10
-0.1448
20
-0.0718
10
-0.2325
20
-0.1040
10
-0.3501
20
-0.1760
10
-0.2892
20
-0.1490
10
-0.1902
20
-0.0865
10
-0.1350
20
-0.0939
10
-0.3492
20
-0.2074
10
-0.3273
20
-0.1931
10
-0.1860
20
-0.1273
10
-0.2621
20
-0.2011
10
-0.1946
20
-0.1552
10
-0.2377
20
-0.2010
10
-0.1290
20
-0.1269
10
-0.1272
20
-0.1492
10
-0.1434
20
-0.1651
10
-0.0808
20
-0.0788
10
-0.1032
20
-0.1154
10
-0.1045
20
-0.1703
10
-0.0506
20
-0.1172
10
-0.0964
20
-0.1889
10
-0.0713
20
-0.1227
10
-0.0931
20
-0.2596
10
-0.0404
20
-0.1473
10
-0.0418
20
-0.1329
10
-0.0901
20
-0.4104
10
-0.0191
20
-0.1665
10
-0.0306
20
-0.1714
10
-0.0153
20
-0.1845
10
0.0045
20
-0.1805
10
0.0188
20
-0.1351
10
0.0127
20
-0.1950
10
0.0765
20
-0.5358
10
0.0641
20
-0.4243
10
0.0147
20
-0.1670
10
0.0384
20
-0.1544
10
0.0372
20
-0.1575
10
0.1056
20
-0.2850
10
0.1269
20
-0.3521
10
0.1299
20
-0.3593
10
0.0849
20
-0.2012
10
0.1202
20
-0.2587
10
0.0836
20
-0.1519
10
0.1020
20
-0.1629
10
0.1032
20
-0.1655
10
0.0932
20
-0.1545
10
0.1076
20
-0.1150
10
0.0999
20
-0.0981
10
0.2862
20
-0.3296
10
0.0732
20
-0.1043
10
0.0955
20
-0.1232
10
0.1095
20
-0.1307
10
0.1376
20
-0.1339
10
0.1288
20
-0.1064
10
0.1092
20
-0.0797
10
0.2230
20
-0.1913
10
0.2875
20
-0.2368
10
0.2934
20
-0.2423
10
0.1250
20
-0.1180
10
0.1496
20
-0.1073
10
0.1373
20
-0.0893
10
0.1652
20
-0.1197
10
0.5871
20
-0.3621
10
0.2121
20
-0.1192
10
0.2071
20
-0.1170
10
0.1085
20
-0.0425
10
0.9611
20
-0.5013
10
0.1991
20
-0.1170
10
0.1331
20
-0.0463
10
0.1870
20
-0.0776
10
0.2793
20
-0.0985
10
0.1639
20
-0.0487
10
0.1636
20
-0.0488
10
0.1778
20
-0.0575
10
0.1278
20
-0.0489
10
0.1851
20
-0.0334
10
0.2450
20
-0.0509
10
0.1852
20
-0.0446
10
0.1526
20
-0.0228
10
0.1850
20
-0.0123
10
0.3937
20
-0.0483
10
0.6613
20
-0.0674
10
0.4109
20
-0.0360
10
0.1270
20
-0.0235
10
0.1428
20
-0.0198
10
0.1520
20
0.0115
10
0.2179
20
0.0055
10
0.2364
20
0.0087
10
0.2027
20
0.0117
10
0.1659
20
0.0052
10
0.1323
20
0.0302
10
0.1535
20
0.0290
10
0.1609
20
0.0346
10
0.1333
20
0.0382
10
0.1326
20
0.0369
10
0.1359
20
0.0346
10
0.1287
20
0.0299
10
0.1330
20
0.0497
10
0.1195
20
0.0618
10
0.1225
20
0.0622
10
0.1226
20
0.0641
10
0.1136
20
0.0647
10
0.1127
20
0.0706
10
0.1250
20
0.0708
10
0.1630
20
0.1172
10
0.1260
20
0.0973
10
0.1258
20
0.0970
10
0.1006
20
0.0878
10
0.1022
20
0.0990
10
0.1318
20
0.1130
10
0.1969
20
0.1878
10
0.0685
20
0.0892
10
0.1053
20
0.0993
10
0.1954
20
0.2190
10
0.0929
20
0.1208
10
0.0881
20
0.1034
10
0.0800
20
0.1001
10
0.0767
20
0.0823
10
0.1654
20
0.2341
10
0.0424
20
0.0901
10
0.0620
20
0.0942
10
0.0624
20
0.0784
10
0.0853
20
0.1509
10
0.0664
20
0.1311
10
0.1213
20
0.3220
10
0.0225
20
0.0928
10
0.0274
20
0.0958
10
0.0377
20
0.0909
10
0.0366
20
0.1702
10
0.0112
20
0.1062
10
0.0266
20
0.0946
10
0.0628
20
0.5710
10
0.0180
20
0.2466
10
0.0143
20
0.3399
10
-0.0014
20
0.1788
10
0.0143
20
0.1073
10
0.0003
20
0.1059
10
-0.0126
20
0.1145
10
-0.0141
20
0.1123
10
-0.0026
20
0.1023
10
-0.0692
20
0.3467
10
-0.0347
20
0.1011
10
-0.0327
20
0.1072
10
-0.0282
20
0.1072
10
-0.0613
20
0.1508
10
-0.0675
20
0.1081
10
-0.0608
20
0.1114
10
-0.0692
20
0.1149
10
-0.0894
20
0.1029
10
-0.0961
20
0.0897
10
-0.1124
20
0.1226
10
-0.0875
20
0.1066
10
-0.1201
20
0.0973
10
-0.1116
20
0.0719
10
-0.1550
20
0.1166
10
-0.1152
20
0.0958
10
-0.1339
20
0.0811
10
-0.1362
20
0.0881
10
-0.1827
20
0.0997
10
-0.1936
20
0.1086
10
-0.4309
20
0.2124
10
-0.2921
20
0.1373
10
-0.1313
20
0.0736
10
-0.1477
20
0.0703
10
-0.1567
20
0.0483
10
-0.1906
20
0.0656
10
-0.1442
20
0.0616
10
-0.1623
20
0.0407
10
-0.1839
20
0.0555
10
-0.2770
20
0.0619
10
-0.3769
20
0.0908
10
-0.5538
20
0.1229
10
-0.3918
20
0.0820
10
-0.5256
20
0.1042
10
-0.3125
20
0.0528
10
-0.3350
20
0.0554
10
-0.2297
20
0.0264
10
-0.1646
20
0.0278
10
-0.1620
20
0.0016
10
-0.1784
20
0.0112
10
-0.1763
20
0.0118
43
0.0141
0
LWPOLYLINE
8
hip_circumference_to_waist_circumference_right
90
192
70
1
10
-0.1106
20
-0.0015
10
-0.1288
20
-0.0041
10
-0.0961
20
-0.0070
10
-0.1312
20
-0.0133
10
-0.1274
20
-0.0163
10
-0.1146
20
-0.0170
10
-0.1251
20
-0.0250
10
-0.1124
20
-0.0266
10
-0.1151
20
-0.0320
10
-0.1106
20
-0.0349
10
-0.1172
20
-0.0401
10
-0.1175
20
-0.0445
10
-0.1149
20
-0.0471
10
-0.1077
20
-0.0461
10
-0.1082
20
-0.0509
10
-0.1005
20
-0.0521
10
-0.1008
20
-0.0563
10
-0.0951
20
-0.0563
10
-0.1069
20
-0.0710
10
-0.0931
20
-0.0635
10
-0.0974
20
-0.0717
10
-0.0835
20
-0.0665
10
-0.0845
20
-0.0749
10
-0.0768
20
-0.0713
10
-0.0934
20
-0.0904
10
-0.0750
20
-0.0763
10
-0.0688
20
-0.0744
10
-0.0793
20
-0.0882
10
-0.0660
20
-0.0756
10
-0.0671
20
-0.0795
10
-0.0616
20
-0.0773
10
-0.0632
20
-0.0871
10
-0.0735
20
-0.1048
10
-0.0502
20
-0.0775
10
-0.0484
20
-0.0769
10
-0.0482
20
-0.0802
10
-0.0537
20
-0.0975
10
-0.0370
20
-0.0799
10
-0.0461
20
-0.1118
10
-0.0323
20
-0.0808
10
-0.0246
20
-0.0802
10
-0.0235
20
-0.0986
10
-0.0176
20
-0.0841
10
-0.0120
20
-0.0878
10
-0.0141
20
-0.1150
10
-0.0102
20
-0.0869
10
-0.0084
20
-0.1328
10
-0.0040
20
-0.0883
10
-0.0033
20
-0.0919
10
0.0031
20
-0.0913
10
0.0086
20
-0.0951
10
0.0121
20
-0.0911
10
0.0184
20
-0.1016
10
0.0242
20
-0.1281
10
0.0203
20
-0.1001
10
0.0222
20
-0.0933
10
0.0349
20
-0.0929
10
0.0522
20
-0.1157
10
0.0545
20
-0.0989
10
0.0601
20
-0.0959
10
0.0679
20
-0.0992
10
0.0784
20
-0.0931
10
0.0803
20
-0.0898
10
0.0772
20
-0.0834
10
0.0895
20
-0.0912
10
0.1019
20
-0.0879
10
0.0995
20
-0.0797
10
0.0836
20
-0.0634
10
0.1134
20
-0.0790
10
0.1173
20
-0.0764
10
0.1146
20
-0.0682
10
0.1250
20
-0.0708
10
0.1045
20
-0.0541
10
0.1279
20
-0.0645
10
0.0771
20
-0.0369
10
0.1266
20
-0.0575
10
0.1350
20
-0.0589
10
0.1386
20
-0.0566
10
0.1376
20
-0.0538
10
0.1199
20
-0.0454
10
0.1380
20
-0.0469
10
0.1413
20
-0.0435
10
0.1336
20
-0.0376
10
0.1459
20
-0.0388
10
0.1067
20
-0.0274
10
0.1474
20
-0.0348
10
0.0585
20
-0.0123
10
0.1435
20
-0.0260
10
0.0872
20
-0.0129
10
0.1554
20
-0.0207
10
0.1323
20
-0.0144
10
0.1500
20
-0.0132
10
0.1424
20
-0.0063
10
0.1601
20
-0.0015
10
0.1562
20
0.0030
10
0.1451
20
0.0059
10
0.1001
20
0.0060
10
0.1578
20
0.0168
10
0.1624
20
0.0194
10
0.1481
20
0.0201
10
0.0268
20
0.0045
10
0.1350
20
0.0236
10
0.1360
20
0.0249
10
0.1298
20
0.0282
10
0.1632
20
0.0379
10
0.1555
20
0.0379
10
0.0675
20
0.0172
10
0.1419
20
0.0393
10
0.1203
20
0.0342
10
0.1304
20
0.0417
10
0.1625
20
0.0577
10
0.1486
20
0.0580
10
0.1036
20
0.0416
10
0.1597
20
0.0761
10
0.1165
20
0.0567
10
0.1499
20
0.0784
10
0.1327
20
0.0780
10
0.0777
20
0.0476
10
0.1518
20
0.0957
10
0.1158
20
0.0788
10
0.1347
20
0.0976
10
0.0959
20
0.0713
10
0.1387
20
0.1164
10
0.1159
20
0.1016
10
0.1160
20
0.1182
10
0.0322
20
0.0356
10
0.0855
20
0.1109
10
0.0897
20
0.1218
10
0.0908
20
0.1355
10
0.0849
20
0.1323
10
0.0621
20
0.1088
10
0.0347
20
0.0658
10
0.0584
20
0.1285
10
0.0636
20
0.1626
10
0.0315
20
0.0947
10
0.0276
20
0.1328
10
0.0328
20
0.1630
10
0.0284
20
0.1548
10
0.0082
20
0.1701
10
0.0033
20
0.1618
10
-0.0047
20
0.1329
10
-0.0084
20
0.0958
10
-0.0203
20
0.1591
10
-0.0104
20
0.0701
10
-0.0248
20
0.1451
10
-0.0271
20
0.1448
10
-0.0353
20
0.1247
10
-0.0461
20
0.1444
10
-0.0135
20
0.0416
10
-0.0500
20
0.1295
10
-0.0430
20
0.1062
10
-0.0656
20
0.1429
10
-0.0576
20
0.1199
10
-0.0693
20
0.1270
10
-0.0495
20
0.0849
10
-0.0877
20
0.1277
10
-0.0907
20
0.1243
10
-0.0920
20
0.1136
10
-0.0524
20
0.0620
10
-0.0823
20
0.0936
10
-0.1078
20
0.1144
10
-0.1178
20
0.1167
10
-0.1008
20
0.0919
10
-0.0876
20
0.0784
10
-0.1081
20
0.0929
10
-0.0796
20
0.0671
10
-0.1190
20
0.0977
10
-0.1284
20
0.1015
10
-0.0932
20
0.0622
10
-0.1354
20
0.0862
10
-0.0572
20
0.0359
10
-0.1022
20
0.0554
10
-0.0197
20
0.0108
10
-0.1350
20
0.0691
10
-0.1224
20
0.0562
10
-0.1003
20
0.0436
10
-0.1340
20
0.0512
10
-0.1218
20
0.0460
10
-0.1285
20
0.0432
10
-0.1075
20
0.0312
10
-0.1264
20
0.0344
10
-0.1333
20
0.0331
10
-0.0913
20
0.0207
10
-0.1300
20
0.0248
10
-0.1206
20
0.0185
10
-0.1260
20
0.0166
10
-0.1112
20
0.0140
10
-0.1341
20
0.0156
10
-0.0611
20
0.0066
10
-0.1277
20
0.0093
10
-0.1313
20
0.0082
10
-0.1346
20
0.0017
43
0.0141
0
LINE
8
hip_circumference_to_waist_circumference_right_GRAIN
10
0.0092
20
-0.1350
11
0.0092
21
0.1680
0
LWPOLYLINE
8
hip_circumference_to_waist_circumference_right_GRAIN
90
3
70
1
10
0.0092
20
-0.1350
10
-0.0072
20
-0.0986
10
0.0255
20
-0.0986
0
LWPOLYLINE
8
hip_circumference_to_waist_circumference_right_GRAIN
90
3
70
1
10
0.0092
20
0.1680
10
-0.0072
20
0.1316
10
0.0255
20
0.1316
0
TEXT
8
hip_circumference_to_waist_circumference_right_LABEL
10
0.0092
20
0.0165
40
0.0600
1
hip_circumference_to_waist_circumference_right
0
LWPOLYLINE
8
hip_circumference_to_waist_circumference_right_SEAM
90
192
70
1
10
-0.1106
20
-0.0015
10
-0.1288
20
-0.0041
10
-0.0961
20
-0.0070
10
-0.1312
20
-0.0133
10
-0.1274
20
-0.0163
10
-0.1146
20
-0.0170
10
-0.1251
20
-0.0250
10
-0.1124
20
-0.0266
10
-0.1151
20
-0.0320
10
-0.1106
20
-0.0349
10
-0.1172
20
-0.0401
10
-0.1175
20
-0.0445
10
-0.1149
20
-0.0471
10
-0.1077
20
-0.0461
10
-0.1082
20
-0.0509
10
-0.1005
20
-0.0521
10
-0.1008
20
-0.0563
10
-0.0951
20
-0.0563
10
-0.1069
20
-0.0710
10
-0.0931
20
-0.0635
10
-0.0974
20
-0.0717
10
-0.0835
20
-0.0665
10
-0.0845
20
-0.0749
10
-0.0768
20
-0.0713
10
-0.0934
20
-0.0904
10
-0.0750
20
-0.0763
10
-0.0688
20
-0.0744
10
-0.0793
20
-0.0882
10
-0.0660
20
-0.0756
10
-0.0671
20
-0.0795
10
-0.0616
20
-0.0773
10
-0.0632
20
-0.0871
10
-0.0735
20
-0.1048
10
-0.0502
20
-0.0775
10
-0.0484
20
-0.0769
10
-0.0482
20
-0.0802
10
-0.0537
20
-0.0975
10
-0.0370
20
-0.0799
10
-0.0461
20
-0.1118
10
-0.0323
20
-0.0808
10
-0.0246
20
-0.0802
10
-0.0235
20
-0.0986
10
-0.0176
20
-0.0841
10
-0.0120
20
-0.0878
10
-0.0141
20
-0.1150
10
-0.0102
20
-0.0869
10
-0.0084
20
-0.1328
10
-0.0040
20
-0.0883
10
-0.0033
20
-0.0919
10
0.0031
20
-0.0913
10
0.0086
20
-0.0951
10
0.0121
20
-0.0911
10
0.0184
20
-0.1016
10
0.0242
20
-0.1281
10
0.0203
20
-0.1001
10
0.0222
20
-0.0933
10
0.0349
20
-0.0929
10
0.0522
20
-0.1157
10
0.0545
20
-0.0989
10
0.0601
20
-0.0959
10
0.0679
20
-0.0992
10
0.0784
20
-0.0931
10
0.0803
20
-0.0898
10
0.0772
20
-0.0834
10
0.0895
20
-0.0912
10
0.1019
20
-0.0879
10
0.0995
20
-0.0797
10
0.0836
20
-0.0634
10
0.1134
20
-0.0790
10
0.1173
20
-0.0764
10
0.1146
20
-0.0682
10
0.1250
20
-0.0708
10
0.1045
20
-0.0541
10
0.1279
20
-0.0645
10
0.0771
20
-0.0369
10
0.1266
20
-0.0575
10
0.1350
20
-0.0589
10
0.1386
20
-0.0566
10
0.1376
20
-0.0538
10
0.1199
20
-0.0454
10
0.1380
20
-0.0469
10
0.1413
20
-0.0435
10
0.1336
20
-0.0376
10
0.1459
20
-0.0388
10
0.1067
20
-0.0274
10
0.1474
20
-0.0348
10
0.0585
20
-0.0123
10
0.1435
20
-0.0260
10
0.0872
20
-0.0129
10
0.1554
20
-0.0207
10
0.1323
20
-0.0144
10
0.1500
20
-0.0132
10
0.1424
20
-0.0063
10
0.1601
20
-0.0015
10
0.1562
20
0.0030
10
0.1451
20
0.0059
10
0.1001
20
0.0060
10
0.1578
20
0.0168
10
0.1624
20
0.0194
10
0.1481
20
0.0201
10
0.0268
20
0.0045
10
0.1350
20
0.0236
10
0.1360
20
0.0249
10
0.1298
20
0.0282
10
0.1632
20
0.0379
10
0.1555
20
0.0379
10
0.0675
20
0.0172
10
0.1419
20
0.0393
10
0.1203
20
0.0342
10
0.1304
20
0.0417
10
0.1625
20
0.0577
10
0.1486
20
0.0580
10
0.1036
20
0.0416
10
0.1597
20
0.0761
10
0.1165
20
0.0567
10
0.1499
20
0.0784
10
0.1327
20
0.0780
10
0.0777
20
0.0476
10
0.1518
20
0.0957
10
0.1158
20
0.0788
10
0.1347
20
0.0976
10
0.0959
20
0.0713
10
0.1387
20
0.1164
10
0.1159
20
0.1016
10
0.1160
20
0.1182
10
0.0322
20
0.0356
10
0.0855
20
0.1109
10
0.0897
20
0.1218
10
0.0908
20
0.1355
10
0.0849
20
0.1323
10
0.0621
20
0.1088
10
0.0347
20
0.0658
10
0.0584
20
0.1285
10
0.0636
20
0.1626
10
0.0315
20
0.0947
10
0.0276
20
0.1328
10
0.0328
20
0.1630
10
0.0284
20
0.1548
10
0.0082
20
0.1701
10
0.0033
20
0.1618
10
-0.0047
20
0.1329
10
-0.0084
20
0.0958
10
-0.0203
20
0.1591
10
-0.0104
20
0.0701
10
-0.0248
20
0.1451
10
-0.0271
20
0.1448
10
-0.0353
20
0.1247
10
-0.0461
20
0.1444
10
-0.0135
20
0.0416
10
-0.0500
20
0.1295
10
-0.0430
20
0.1062
10
-0.0656
20
0.1429
10
-0.0576
20
0.1199
10
-0.0693
20
0.1270
10
-0.0495
20
0.0849
10
-0.0877
20
0.1277
10
-0.0907
20
0.1243
10
-0.0920
20
0.1136
10
-0.0524
20
0.0620
10
-0.0823
20
0.0936
10
-0.1078
20
0.1144
10
-0.1178
20
0.1167
10
-0.1008
20
0.0919
10
-0.0876
20
0.0784
10
-0.1081
20
0.0929
10
-0.0796
20
0.0671
10
-0.1190
20
0.0977
10
-0.1284
20
0.1015
10
-0.0932
20
0.0622
10
-0.1354
20
0.0862
10
-0.0572
20
0.0359
10
-0.1022
20
0.0554
10
-0.0197
20
0.0108
10
-0.1350
20
0.0691
10
-0.1224
20
0.0562
10
-0.1003
20
0.0436
10
-0.1340
20
0.0512
10
-0.1218
20
0.0460
10
-0.1285
20
0.0432
10
-0.1075
20
0.0312
10
-0.1264
20
0.0344
10
-0.1333
20
0.0331
10
-0.0913
20
0.0207
10
-0.1300
20
0.0248
10
-0.1206
20
0.0185
10
-0.1260
20
0.0166
10
-0.1112
20
0.0140
10
-0.1341
20
0.0156
10
-0.0611
20
0.0066
10
-0.1277
20
0.0093
10
-0.1313
20
0.0082
10
-0.1346
20
0.0017
43
0.0141
0
LWPOLYLINE
8
hip_circumference_to_waist_circumference_right_CUT
90
192
70
1
10
-0.2138
20
-0.0020
10
-0.2511
20
-0.0073
10
-0.2027
20
-0.0116
10
-0.1648
20
-0.0049
10
-0.1326
20
-0.0301
10
-0.1535
20
-0.0289
10
-0.1610
20
-0.0347
10
-0.1338
20
-0.0381
10
-0.1334
20
-0.0372
10
-0.1351
20
-0.0362
10
-0.1310
20
-0.0329
10
-0.1320
20
-0.0501
10
-0.1199
20
-0.0620
10
-0.1237
20
-0.0625
10
-0.1237
20
-0.0627
10
-0.1154
20
-0.0640
10
-0.1157
20
-0.0703
10
-0.1245
20
-0.0702
10
-0.1621
20
-0.1168
10
-0.1271
20
-0.0979
10
-0.1270
20
-0.0977
10
-0.1003
20
-0.0878
10
-0.1016
20
-0.0986
10
-0.1312
20
-0.1125
10
-0.1957
20
-0.1870
10
-0.0684
20
-0.0890
10
-0.1065
20
-0.1008
10
-0.1960
20
-0.2192
10
-0.0925
20
-0.1203
10
-0.0879
20
-0.1030
10
-0.0794
20
-0.0996
10
-0.0767
20
-0.0823
10
-0.1654
20
-0.2343
10
-0.0421
20
-0.0897
10
-0.0612
20
-0.0957
10
-0.0625
20
-0.0785
10
-0.0858
20
-0.1516
10
-0.0663
20
-0.1312
10
-0.1148
20
-0.3003
10
-0.0228
20
-0.0942
10
-0.0378
20
-0.0955
10
-0.0338
20
-0.1617
10
-0.0110
20
-0.1055
10
-0.0267
20
-0.0949
10
-0.0626
20
-0.5647
10
-0.0181
20
-0.2454
10
-0.0143
20
-0.3396
10
0.0010
20
-0.1821
10
-0.0146
20
-0.1071
10
-0.0006
20
-0.1058
10
0.0110
20
-0.1138
10
0.0099
20
-0.1151
10
0.0051
20
-0.1069
10
0.0884
20
-0.4831
10
0.0347
20
-0.1011
10
0.0330
20
-0.1071
10
0.0280
20
-0.1073
10
0.0615
20
-0.1515
10
0.0675
20
-0.1080
10
0.0608
20
-0.1115
10
0.0690
20
-0.1149
10
0.0886
20
-0.1034
10
0.0964
20
-0.0906
10
0.1114
20
-0.1218
10
0.0871
20
-0.1064
10
0.1196
20
-0.0979
10
0.1120
20
-0.0723
10
0.1551
20
-0.1167
10
0.1143
20
-0.0954
10
0.1341
20
-0.0821
10
0.1360
20
-0.0880
10
0.1823
20
-0.0993
10
0.1949
20
-0.1095
10
0.4475
20
-0.2214
10
0.3272
20
-0.1562
10
0.1227
20
-0.0712
10
0.1380
20
-0.0736
10
0.1559
20
-0.0627
10
0.1489
20
-0.0435
10
0.1968
20
-0.0661
10
0.1435
20
-0.0616
10
0.1626
20
-0.0420
10
0.1812
20
-0.0563
10
0.2932
20
-0.0667
10
0.3757
20
-0.0906
10
0.5533
20
-0.1229
10
0.3729
20
-0.0773
10
0.5481
20
-0.1055
10
0.3296
20
-0.0548
10
0.3338
20
-0.0552
10
0.2168
20
-0.0230
10
0.1844
20
-0.0251
10
0.1711
20
-0.0131
10
0.1854
20
-0.0092
10
0.1640
20
0.0156
10
0.1469
20
0.0200
10
0.2508
20
0.0198
10
0.1627
20
0.0033
10
0.2115
20
0.0309
10
0.1476
20
0.0343
10
0.6309
20
0.0965
10
0.1430
20
0.0106
10
0.1572
20
0.0297
10
0.1673
20
0.0244
10
0.2651
20
0.0531
10
0.1538
20
0.0520
10
0.5369
20
0.1420
10
0.6123
20
0.1644
10
0.1836
20
0.0636
10
0.1378
20
0.0296
10
0.2201
20
0.0707
10
0.1463
20
0.0722
10
0.2298
20
0.1026
10
0.3519
20
0.1777
10
0.2786
20
0.1448
10
0.1994
20
0.0936
10
0.1289
20
0.0920
10
0.4205
20
0.2533
10
0.3308
20
0.1951
10
0.1839
20
0.1263
10
0.2532
20
0.1948
10
0.1956
20
0.1558
10
0.2304
20
0.1925
10
0.1302
20
0.1276
10
0.1303
20
0.1521
10
0.1358
20
0.1575
10
0.0980
20
0.1042
10
0.1036
20
0.1186
10
0.1070
20
0.1604
10
0.0763
20
0.1436
10
0.0510
20
0.1176
10
0.0960
20
0.1880
10
0.0721
20
0.1249
10
0.0924
20
0.2565
10
0.0404
20
0.1465
10
0.0418
20
0.1323
10
0.0615
20
0.2477
10
0.0237
20
0.1761
10
0.0040
20
0.1909
10
-0.0098
20
0.1673
10
-0.0186
20
0.1355
10
-0.0127
20
0.1947
10
-0.0761
20
0.5317
10
-0.0643
20
0.4261
10
-0.0135
20
0.1609
10
-0.0372
20
0.1576
10
-0.0372
20
0.1575
10
-0.1029
20
0.2767
10
-0.1256
20
0.3481
10
-0.1430
20
0.3901
10
-0.0877
20
0.2059
10
-0.1213
20
0.2606
10
-0.0838
20
0.1524
10
-0.1022
20
0.1636
10
-0.1036
20
0.1665
10
-0.0878
20
0.1489
10
-0.1041
20
0.1304
10
-0.1068
20
0.1096
10
-0.2295
20
0.2694
10
-0.0727
20
0.1039
10
-0.1014
20
0.1274
10
-0.1501
20
0.1387
10
-0.1118
20
0.0829
10
-0.2053
20
0.1785
10
-0.2892
20
0.2376
10
-0.3669
20
0.3080
10
-0.1119
20
0.1100
10
-0.1797
20
0.1375
10
-0.1617
20
0.1174
10
-0.5735
20
0.3516
10
-0.2101
20
0.1175
10
-0.3976
20
0.1989
10
-0.9339
20
0.4885
10
-0.2042
20
0.1198
10
-0.1311
20
0.0449
10
-0.1903
20
0.0783
10
-0.2826
20
0.0990
10
-0.1584
20
0.0462
10
-0.1605
20
0.0453
10
-0.1837
20
0.0587
10
-0.1266
20
0.0488
10
-0.1922
20
0.0356
10
-0.2458
20
0.0514
10
-0.1853
20
0.0449
10
-0.1518
20
0.0224
10
-0.1813
20
0.0119
10
-0.3841
20
0.0473
10
-0.6622
20
0.0669
10
-0.4040
20
0.0349
10
-0.1296
20
0.0235
10
-0.1412
20
0.0199
10
-0.1563
20
-0.0096
43
0.0141
0
LWPOLYLINE
8
thigh_circumference_to_hip_circumference_left
90
187
70
1
10
-0.0607
20
0.0000
10
-0.0778
20
-0.0010
10
-0.0333
20
-0.0003
10
-0.1631
20
-0.0044
10
-0.1060
20
-0.0034
10
-0.1611
20
-0.0086
10
-0.1274
20
-0.0070
10
-0.1609
20
-0.0142
10
-0.1656
20
-0.0199
10
-0.1634
20
-0.0250
10
-0.1226
20
-0.0289
10
-0.1360
20
-0.0333
10
-0.1009
20
-0.0248
10
-0.1582
20
-0.0409
10
-0.0782
20
-0.0212
10
-0.1617
20
-0.0488
10
-0.0554
20
-0.0203
10
-0.1532
20
-0.0657
10
-0.1165
20
-0.0511
10
-0.1561
20
-0.0716
10
-0.0932
20
-0.0454
10
-0.0728
20
-0.0414
10
-0.1440
20
-0.0874
10
-0.1289
20
-0.0795
10
-0.1489
20
-0.0933
10
-0.1051
20
-0.0702
10
-0.0283
20
-0.0210
10
-0.0862
20
-0.0665
10
-0.1398
20
-0.1154
10
-0.0490
20
-0.0414
10
-0.1149
20
-0.0983
10
-0.0982
20
-0.0909
10
-0.0043
20
-0.0041
10
-0.0645
20
-0.0632
10
-0.0811
20
-0.0882
10
-0.0916
20
-0.1101
10
-0.0623
20
-0.0855
10
-0.0744
20
-0.1042
10
-0.0427
20
-0.0619
10
-0.0551
20
-0.0992
10
-0.0215
20
-0.0410
10
-0.0357
20
-0.0770
10
-0.0342
20
-0.0967
10
-0.0158
20
-0.0603
10
-0.0104
20
-0.0727
10
0.0023
20
-0.0229
10
0.0064
20
-0.0319
10
0.0207
20
-0.0886
10
0.0094
20
-0.0410
10
0.0175
20
-0.0703
10
0.0152
20
-0.0585
10
0.0488
20
-0.0860
10
0.0459
20
-0.0585
10
0.0742
20
-0.0870
10
0.0397
20
-0.0407
10
0.1217
20
-0.1214
10
0.0778
20
-0.0764
10
0.1267
20
-0.1134
10
0.1326
20
-0.1133
10
0.1336
20
-0.1096
10
0.1289
20
-0.1038
10
0.0730
20
-0.0587
10
0.1192
20
-0.0932
10
0.1070
20
-0.0831
10
0.1258
20
-0.0956
10
0.1201
20
-0.0894
10
0.1335
20
-0.0976
10
0.1330
20
-0.0931
10
0.1278
20
-0.0869
10
0.0353
20
-0.0235
10
0.1222
20
-0.0781
10
0.0674
20
-0.0423
10
0.1258
20
-0.0762
10
0.1001
20
-0.0600
10
0.1217
20
-0.0675
10
0.1208
20
-0.0659
10
0.0911
20
-0.0473
10
0.1143
20
-0.0588
10
0.1079
20
-0.0538
10
0.1185
20
-0.0548
10
0.1164
20
-0.0491
10
0.0620
20
-0.0255
10
0.1099
20
-0.0422
10
0.0851
20
-0.0309
10
0.0979
20
-0.0348
10
0.1115
20
-0.0352
10
0.1039
20
-0.0292
10
0.1101
20
-0.0278
10
0.1076
20
-0.0232
10
0.0781
20
-0.0123
10
0.0304
20
-0.0042
10
0.1061
20
-0.0135
10
0.0951
20
-0.0105
10
0.1045
20
-0.0074
10
0.1017
20
0.0007
10
0.0930
20
0.0025
10
0.1028
20
0.0064
10
0.0745
20
0.0068
10
0.0997
20
0.0108
10
0.1024
20
0.0139
10
0.0993
20
0.0166
10
0.1040
20
0.0215
10
0.0525
20
0.0115
10
0.1049
20
0.0268
10
0.1080
20
0.0338
10
0.0710
20
0.0247
10
0.1094
20
0.0410
10
0.1108
20
0.0449
10
0.0872
20
0.0387
10
0.1140
20
0.0543
10
0.1171
20
0.0609
10
0.1014
20
0.0547
10
0.1184
20
0.0668
10
0.0484
20
0.0290
10
0.0640
20
0.0391
10
0.0254
20
0.0159
10
0.1216
20
0.0761
10
0.0872
20
0.0567
10
0.1233
20
0.0830
10
0.1060
20
0.0737
10
0.1205
20
0.0856
10
0.1209
20
0.0921
10
0.1303
20
0.1045
10
0.0906
20
0.0756
10
0.1277
20
0.1092
10
0.0688
20
0.0600
10
0.1202
20
0.1126
10
0.0457
20
0.0461
10
0.1086
20
0.1156
10
0.0693
20
0.0776
10
0.0909
20
0.1162
10
0.0894
20
0.1155
10
0.0668
20
0.0934
10
0.0206
20
0.0332
10
0.0666
20
0.1156
10
0.0425
20
0.0807
10
0.0400
20
0.0927
10
0.0382
20
0.0916
10
0.0172
20
0.0500
10
0.0381
20
0.1153
10
0.0151
20
0.0666
10
0.0073
20
0.1192
10
0.0017
20
0.1191
10
-0.0160
20
0.1092
10
-0.0190
20
0.1052
10
-0.0193
20
0.0940
10
-0.0078
20
0.0195
10
-0.0480
20
0.1093
10
-0.0453
20
0.0743
10
-0.0694
20
0.0934
10
-0.0442
20
0.0563
10
-0.0925
20
0.0974
10
-0.0407
20
0.0382
10
-0.1131
20
0.1000
10
-0.0697
20
0.0597
10
-0.0944
20
0.0785
10
-0.1115
20
0.0797
10
-0.0932
20
0.0616
10
-0.1311
20
0.0802
10
-0.0678
20
0.0403
10
-0.1467
20
0.0794
10
-0.0385
20
0.0197
10
-0.1566
20
0.0768
10
-0.1354
20
0.0622
10
-0.1655
20
0.0749
10
-0.0915
20
0.0408
10
-0.1681
20
0.0714
10
-0.1524
20
0.0610
10
-0.1578
20
0.0581
10
-0.1566
20
0.0565
10
-0.1144
20
0.0408
10
-0.1650
20
0.0540
10
-0.0639
20
0.0200
10
-0.1688
20
0.0508
10
-0.1351
20
0.0396
10
-0.1453
20
0.0374
10
-0.1433
20
0.0361
10
-0.0888
20
0.0200
10
-0.1553
20
0.0345
10
-0.1639
20
0.0342
10
-0.1673
20
0.0325
10
-0.1114
20
0.0184
10
-0.1289
20
0.0165
10
-0.1664
20
0.0199
10
-0.1504
20
0.0140
10
-0.1641
20
0.0102
10
-0.1637
20
0.0062
43
0.0166
0
LINE
8
thigh_circumference_to_hip_circumference_left_GRAIN
10
-0.0102
20
-0.1461
11
-0.0102
21
0.1563
0
LWPOLYLINE
8
thigh_circumference_to_hip_circumference_left_GRAIN
90
3
70
1
10
-0.0102
20
-0.1461
10
-0.0265
20
-0.1098
10
0.0061
20
-0.1098
0
LWPOLYLINE
8
thigh_circumference_to_hip_circumference_left_GRAIN
90
3
70
1
10
-0.0102
20
0.1563
10
-0.0265
20
0.1200
10
0.0061
20
0.1200
0
TEXT
8
thigh_circumference_to_hip_circumference_left_LABEL
10
-0.0102
20
0.0051
40
0.0600
1
thigh_circumference_to_hip_circumference_left
0
LWPOLYLINE
8
thigh_circumference_to_hip_circumference_left_SEAM
90
187
70
1
10
-0.0607
20
0.0000
10
-0.0778
20
-0.0010
10
-0.0333
20
-0.0003
10
-0.1631
20
-0.0044
10
-0.1060
20
-0.0034
10
-0.1611
20
-0.0086
10
-0.1274
20
-0.0070
10
-0.1609
20
-0.0142
10
-0.1656
20
-0.0199
10
-0.1634
20
-0.0250
10
-0.1226
20
-0.0289
10
-0.1360
20
-0.0333
10
-0.1009
20
-0.0248
10
-0.1582
20
-0.0409
10
-0.0782
20
-0.0212
10
-0.1617
20
-0.0488
10
-0.0554
20
-0.0203
10
-0.1532
20
-0.0657
10
-0.1165
20
-0.0511
10
-0.1561
20
-0.0716
10
-0.0932
20
-0.0454
10
-0.0728
20
-0.0414
10
-0.1440
20
-0.0874
10
-0.1289
20
-0.0795
10
-0.1489
20
-0.0933
10
-0.1051
20
-0.0702
10
-0.0283
20
-0.0210
10
-0.0862
20
-0.0665
10
-0.1398
20
-0.1154
10
-0.0490
20
-0.0414
10
-0.1149
20
-0.0983
10
-0.0982
20
-0.0909
10
-0.0043
20
-0.0041
10
-0.0645
20
-0.0632
10
-0.0811
20
-0.0882
10
-0.0916
20
-0.1101
10
-0.0623
20
-0.0855
10
-0.0744
20
-0.1042
10
-0.0427
20
-0.0619
10
-0.0551
20
-0.0992
10
-0.0215
20
-0.0410
10
-0.0357
20
-0.0770
10
-0.0342
20
-0.0967
10
-0.0158
20
-0.0603
10
-0.0104
20
-0.0727
10
0.0023
20
-0.0229
10
0.0064
20
-0.0319
10
0.0207
20
-0.0886
10
0.0094
20
-0.0410
10
0.0175
20
-0.0703
10
0.0152
20
-0.0585
10
0.0488
20
-0.0860
10
0.0459
20
-0.0585
10
0.0742
20
-0.0870
10
0.0397
20
-0.0407
10
0.1217
20
-0.1214
10
0.0778
20
-0.0764
10
0.1267
20
-0.1134
10
0.1326
20
-0.1133
10
0.1336
20
-0.1096
10
0.1289
20
-0.1038
10
0.0730
20
-0.0587
10
0.1192
20
-0.0932
10
0.1070
20
-0.0831
10
0.1258
20
-0.0956
10
0.1201
20
-0.0894
10
0.1335
20
-0.0976
10
0.1330
20
-0.0931
10
0.1278
20
-0.0869
10
0.0353
20
-0.0235
10
0.1222
20
-0.0781
10
0.0674
20
-0.0423
10
0.1258
20
-0.0762
10
0.1001
20
-0.0600
10
0.1217
20
-0.0675
10
0.1208
20
-0.0659
10
0.0911
20
-0.0473
10
0.1143
20
-0.0588
10
0.1079
20
-0.0538
10
0.1185
20
-0.0548
10
0.1164
20
-0.0491
10
0.0620
20
-0.0255
10
0.1099
20
-0.0422
10
0.0851
20
-0.0309
10
0.0979
20
-0.0348
10
0.1115
20
-0.0352
10
0.1039
20
-0.0292
10
0.1101
20
-0.0278
10
0.1076
20
-0.0232
10
0.0781
20
-0.0123
10
0.0304
20
-0.0042
10
0.1061
20
-0.0135
10
0.0951
20
-0.0105
10
0.1045
20
-0.0074
10
0.1017
20
0.0007
10
0.0930
20
0.0025
10
0.1028
20
0.0064
10
0.0745
20
0.0068
10
0.0997
20
0.0108
10
0.1024
20
0.0139
10
0.0993
20
0.0166
10
0.1040
20
0.0215
10
0.0525
20
0.0115
10
0.1049
20
0.0268
10
0.1080
20
0.0338
10
0.0710
20
0.0247
10
0.1094
20
0.0410
10
0.1108
20
0.0449
10
0.0872
20
0.0387
10
0.1140
20
0.0543
10
0.1171
20
0.0609
10
0.1014
20
0.0547
10
0.1184
20
0.0668
10
0.0484
20
0.0290
10
0.0640
20
0.0391
10
0.0254
20
0.0159
10
0.1216
20
0.0761
10
0.0872
20
0.0567
10
0.1233
20
0.0830
10
0.1060
20
0.0737
10
0.1205
20
0.0856
10
0.1209
20
0.0921
10
0.1303
20
0.1045
10
0.0906
20
0.0756
10
0.1277
20
0.1092
10
0.0688
20
0.0600
10
0.1202
20
0.1126
10
0.0457
20
0.0461
10
0.1086
20
0.1156
10
0.0693
20
0.0776
10
0.0909
20
0.1162
10
0.0894
20
0.1155
10
0.0668
20
0.0934
10
0.0206
20
0.0332
10
0.0666
20
0.1156
10
0.0425
20
0.0807
10
0.0400
20
0.0927
10
0.0382
20
0.0916
10
0.0172
20
0.0500
10
0.0381
20
0.1153
10
0.0151
20
0.0666
10
0.0073
20
0.1192
10
0.0017
20
0.1191
10
-0.0160
20
0.1092
10
-0.0190
20
0.1052
10
-0.0193
20
0.0940
10
-0.0078
20
0.0195
10
-0.0480
20
0.1093
10
-0.0453
20
0.0743
10
-0.0694
20
0.0934
10
-0.0442
20
0.0563
10
-0.0925
20
0.0974
10
-0.0407
20
0.0382
10
-0.1131
20
0.1000
10
-0.0697
20
0.0597
10
-0.0944
20
0.0785
10
-0.1115
20
0.0797
10
-0.0932
20
0.0616
10
-0.1311
20
0.0802
10
-0.0678
20
0.0403
10
-0.1467
20
0.0794
10
-0.0385
20
0.0197
10
-0.1566
20
0.0768
10
-0.1354
20
0.0622
10
-0.1655
20
0.0749
10
-0.0915
20
0.0408
10
-0.1681
20
0.0714
10
-0.1524
20
0.0610
10
-0.1578
20
0.0581
10
-0.1566
20
0.0565
10
-0.1144
20
0.0408
10
-0.1650
20
0.0540
10
-0.0639
20
0.0200
10
-0.1688
20
0.0508
10
-0.1351
20
0.0396
10
-0.1453
20
0.0374
10
-0.1433
20
0.0361
10
-0.0888
20
0.0200
10
-0.1553
20
0.0345
10
-0.1639
20
0.0342
10
-0.1673
20
0.0325
10
-0.1114
20
0.0184
10
-0.1289
20
0.0165
10
-0.1664
20
0.0199
10
-0.1504
20
0.0140
10
-0.1641
20
0.0102
10
-0.1637
20
0.0062
43
0.0166
0
LWPOLYLINE
8
thigh_circumference_to_hip_circumference_left_CUT
90
187
70
1
10
-0.3363
20
-0.0002
10
-0.8116
20
-0.0294
10
-2.1503
20
-0.0508
10
-2.6171
20
-0.0656
10
-0.5366
20
-0.0278
10
-0.8954
20
-0.0622
10
-0.3292
20
-0.0338
10
-0.1700
20
0.0008
10
-0.1848
20
-0.0171
10
-0.1749
20
-0.0406
10
-0.2038
20
-0.0378
10
-0.5516
20
-0.1507
10
-0.9792
20
-0.2538
10
-1.1435
20
-0.3000
10
-0.4887
20
-0.1392
10
-0.7280
20
-0.2181
10
-0.2364
20
-0.0861
10
-0.6960
20
-0.3000
10
-0.4282
20
-0.1932
10
-0.5220
20
-0.2416
10
-0.0883
20
-0.0614
10
-0.1549
20
-0.0747
10
-0.4525
20
-0.2672
10
-0.3611
20
-0.2195
10
-0.3908
20
-0.2400
10
-0.0967
20
-0.0846
10
-0.3094
20
-0.2210
10
-0.0970
20
-0.0538
10
-0.5967
20
-0.5094
10
-0.9395
20
-0.7889
10
-0.2106
20
-0.1590
10
-0.0889
20
-0.1050
10
-0.8053
20
-0.7678
10
-0.0774
20
-0.0526
10
-0.0956
20
-0.0800
10
-0.1398
20
-0.1726
10
-0.1359
20
-0.1693
10
-0.3410
20
-0.4889
10
-0.0907
20
-0.1539
10
-0.1221
20
-0.2488
10
-0.1206
20
-0.2461
10
-0.0527
20
-0.0745
10
-0.0461
20
-0.1573
10
-0.0170
20
-0.0996
10
-0.0064
20
-0.1241
10
0.0068
20
-0.0727
10
-0.0094
20
-0.0375
10
0.5492
20
-2.2502
10
0.2424
20
-0.9534
10
0.1104
20
-0.4719
10
0.0401
20
-0.1004
10
0.0697
20
-0.1247
10
0.0675
20
-0.1038
10
0.2261
20
-0.2630
10
0.1828
20
-0.2049
10
1.3224
20
-1.3262
10
0.2454
20
-0.2241
10
0.1213
20
-0.1302
10
0.1456
20
-0.1295
10
0.1519
20
-0.1056
10
0.1407
20
-0.0920
10
0.7610
20
-0.5927
10
0.6741
20
-0.5279
10
0.3655
20
-0.2741
10
0.2312
20
-0.1853
10
0.2141
20
-0.1667
10
0.1539
20
-0.1297
10
0.1490
20
-0.0861
10
0.1390
20
-0.0745
10
0.7217
20
-0.4743
10
1.7407
20
-1.1142
10
0.6064
20
-0.3741
10
0.9023
20
-0.5457
10
0.2329
20
-0.1240
10
0.1585
20
-0.0980
10
0.1331
20
-0.0540
10
0.3773
20
-0.2069
10
0.2553
20
-0.1468
10
0.1633
20
-0.0756
10
0.1436
20
-0.0738
10
0.1294
20
-0.0366
10
0.4898
20
-0.1925
10
0.4394
20
-0.1749
10
0.3221
20
-0.1212
10
0.0952
20
-0.0514
10
0.1608
20
-0.0534
10
0.1412
20
-0.0377
10
0.1353
20
-0.0391
10
0.1192
20
-0.0097
10
0.0824
20
0.0039
10
0.7627
20
-0.1106
10
0.3359
20
-0.0584
10
0.1532
20
-0.0090
10
0.1259
20
-0.0179
10
0.1143
20
0.0150
10
0.1502
20
0.0072
10
0.1874
20
0.0218
10
0.2663
20
0.0207
10
0.1082
20
-0.0047
10
0.1259
20
0.0153
10
0.1233
20
0.0176
10
0.1521
20
0.0478
10
0.4052
20
0.0970
10
0.1170
20
0.0129
10
0.1371
20
0.0581
10
0.2667
20
0.0899
10
0.1225
20
0.0285
10
0.1374
20
0.0690
10
0.2009
20
0.0856
10
0.1268
20
0.0425
10
0.1502
20
0.0916
10
0.2215
20
0.1194
10
0.3530
20
0.2125
10
0.3987
20
0.2373
10
0.8602
20
0.5378
10
1.6771
20
1.0295
10
0.7441
20
0.4459
10
0.3293
20
0.2122
10
0.3272
20
0.2106
10
0.2460
20
0.1673
10
0.1366
20
0.0773
10
0.1372
20
0.0860
10
0.2136
20
0.1855
10
0.3319
20
0.2714
10
0.7532
20
0.6525
10
0.3099
20
0.2828
10
0.4749
20
0.4516
10
0.2692
20
0.2679
10
0.4554
20
0.4735
10
0.1391
20
0.1681
10
0.1294
20
0.1509
10
0.0799
20
0.1296
10
0.0543
20
0.1045
10
0.1466
20
0.2249
10
0.2531
20
0.4158
10
0.0509
20
0.1222
10
0.0514
20
0.1195
10
0.0254
20
0.1032
10
0.0974
20
0.2459
10
0.1310
20
0.3508
10
0.0235
20
0.1233
10
0.0216
20
0.1360
10
-0.0027
20
0.1357
10
-0.0272
20
0.1220
10
-0.0355
20
0.1108
10
-0.0360
20
0.0930
10
-0.0430
20
0.1390
10
-0.0720
20
0.2039
10
-0.0648
20
0.1111
10
-0.1445
20
0.1743
10
-0.1269
20
0.1484
10
-0.2534
20
0.2559
10
-0.2046
20
0.2001
10
-0.6914
20
0.6160
10
-0.3269
20
0.2765
10
-0.0883
20
0.0947
10
-0.1551
20
0.0995
10
-0.1770
20
0.1211
10
-0.4028
20
0.2317
10
-0.3532
20
0.2005
10
-0.8239
20
0.4341
10
-0.5886
20
0.3042
10
-0.3444
20
0.1862
10
-0.2798
20
0.1416
10
-1.1429
20
0.5080
10
-0.6760
20
0.2924
10
-0.3127
20
0.1471
10
-0.1847
20
0.0624
10
-0.1821
20
0.0638
10
-0.1673
20
0.0427
10
-0.4326
20
0.1414
10
-0.6331
20
0.1939
10
-0.8888
20
0.2799
10
-1.0296
20
0.3213
10
-0.1981
20
0.0431
10
-0.1875
20
0.0454
10
-0.1504
20
0.0209
10
-0.5283
20
0.1329
10
-0.1538
20
0.0512
10
-0.1680
20
0.0507
10
-0.2158
20
0.0276
10
-0.2049
20
0.0248
10
-0.1291
20
0.0332
10
-0.2899
20
0.0480
10
-0.2044
20
0.0163
10
-0.1818
20
0.0225
10
-0.1792
20
-0.0096
43
0.0166
0
LWPOLYLINE
8
thigh_circumference_to_hip_circumference_right
90
188
70
1
10
-0.0593
20
-0.0001
10
-0.0778
20
-0.0010
10
-0.0333
20
-0.0003
10
-0.1631
20
-0.0044
10
-0.1061
20
-0.0034
10
-0.1597
20
-0.0085
10
-0.1274
20
-0.0070
10
-0.1608
20
-0.0142
10
-0.1656
20
-0.0199
10
-0.1635
20
-0.0250
10
-0.1226
20
-0.0289
10
-0.1360
20
-0.0333
10
-0.1009
20
-0.0248
10
-0.1582
20
-0.0409
10
-0.0782
20
-0.0213
10
-0.1617
20
-0.0488
10
-0.0554
20
-0.0203
10
-0.1531
20
-0.0657
10
-0.1166
20
-0.0512
10
-0.1561
20
-0.0716
10
-0.0932
20
-0.0454
10
-0.0729
20
-0.0414
10
-0.1439
20
-0.0874
10
-0.1290
20
-0.0796
10
-0.1489
20
-0.0933
10
-0.1052
20
-0.0702
10
-0.0283
20
-0.0210
10
-0.0861
20
-0.0665
10
-0.1398
20
-0.1154
10
-0.0490
20
-0.0414
10
-0.1149
20
-0.0983
10
-0.0983
20
-0.0910
10
-0.0043
20
-0.0041
10
-0.0645
20
-0.0631
10
-0.0811
20
-0.0881
10
-0.0916
20
-0.1101
10
-0.0623
20
-0.0854
10
-0.0743
20
-0.1042
10
-0.0428
20
-0.0620
10
-0.0550
20
-0.0990
10
-0.0215
20
-0.0410
10
-0.0357
20
-0.0769
10
-0.0342
20
-0.0967
10
-0.0159
20
-0.0603
10
-0.0105
20
-0.0728
10
0.0023
20
-0.0231
10
0.0064
20
-0.0318
10
0.0207
20
-0.0885
10
0.0096
20
-0.0410
10
0.0175
20
-0.0703
10
0.0152
20
-0.0585
10
0.0488
20
-0.0860
10
0.0458
20
-0.0585
10
0.0742
20
-0.0870
10
0.0398
20
-0.0408
10
0.1217
20
-0.1214
10
0.0778
20
-0.0764
10
0.1266
20
-0.1134
10
0.1309
20
-0.1144
10
0.1336
20
-0.1115
10
0.1290
20
-0.1039
10
0.0731
20
-0.0588
10
0.1191
20
-0.0931
10
0.1070
20
-0.0831
10
0.1257
20
-0.0955
10
0.1201
20
-0.0894
10
0.1335
20
-0.0976
10
0.1330
20
-0.0931
10
0.1278
20
-0.0870
10
0.0353
20
-0.0235
10
0.1222
20
-0.0781
10
0.0675
20
-0.0424
10
0.1258
20
-0.0761
10
0.1001
20
-0.0600
10
0.1217
20
-0.0675
10
0.1208
20
-0.0660
10
0.0911
20
-0.0473
10
0.1143
20
-0.0588
10
0.1080
20
-0.0531
10
0.1185
20
-0.0548
10
0.1164
20
-0.0491
10
0.0621
20
-0.0256
10
0.1099
20
-0.0422
10
0.0851
20
-0.0309
10
0.0978
20
-0.0348
10
0.1114
20
-0.0353
10
0.1039
20
-0.0292
10
0.1101
20
-0.0278
10
0.1077
20
-0.0232
10
0.0782
20
-0.0123
10
0.0304
20
-0.0042
10
0.1061
20
-0.0135
10
0.0951
20
-0.0105
10
0.1045
20
-0.0074
10
0.1020
20
-0.0051
10
0.1017
20
0.0006
10
0.0930
20
0.0025
10
0.1028
20
0.0064
10
0.0746
20
0.0068
10
0.0996
20
0.0108
10
0.1024
20
0.0139
10
0.0993
20
0.0166
10
0.1040
20
0.0215
10
0.0525
20
0.0115
10
0.1048
20
0.0267
10
0.1080
20
0.0338
10
0.0710
20
0.0247
10
0.1093
20
0.0410
10
0.1108
20
0.0449
10
0.0873
20
0.0387
10
0.1139
20
0.0543
10
0.1171
20
0.0609
10
0.1014
20
0.0547
10
0.1184
20
0.0668
10
0.0484
20
0.0290
10
0.0640
20
0.0391
10
0.0254
20
0.0159
10
0.1216
20
0.0761
10
0.0873
20
0.0567
10
0.1233
20
0.0829
10
0.1060
20
0.0737
10
0.1204
20
0.0856
10
0.1208
20
0.0921
10
0.1303
20
0.1045
10
0.0906
20
0.0756
10
0.1277
20
0.1092
10
0.0688
20
0.0600
10
0.1202
20
0.1126
10
0.0457
20
0.0461
10
0.1086
20
0.1156
10
0.0693
20
0.0776
10
0.0909
20
0.1162
10
0.0894
20
0.1156
10
0.0668
20
0.0934
10
0.0206
20
0.0332
10
0.0666
20
0.1156
10
0.0425
20
0.0807
10
0.0400
20
0.0927
10
0.0382
20
0.0916
10
0.0172
20
0.0501
10
0.0381
20
0.1153
10
0.0151
20
0.0667
10
0.0074
20
0.1193
10
0.0018
20
0.1192
10
-0.0159
20
0.1093
10
-0.0190
20
0.1052
10
-0.0193
20
0.0941
10
-0.0078
20
0.0195
10
-0.0480
20
0.1093
10
-0.0453
20
0.0743
10
-0.0694
20
0.0935
10
-0.0441
20
0.0563
10
-0.0925
20
0.0974
10
-0.0408
20
0.0383
10
-0.1131
20
0.1000
10
-0.0697
20
0.0597
10
-0.0943
20
0.0784
10
-0.1114
20
0.0797
10
-0.0932
20
0.0616
10
-0.1311
20
0.0802
10
-0.0679
20
0.0403
10
-0.1467
20
0.0794
10
-0.0385
20
0.0197
10
-0.1566
20
0.0768
10
-0.1355
20
0.0622
10
-0.1655
20
0.0750
10
-0.0916
20
0.0408
10
-0.1681
20
0.0714
10
-0.1526
20
0.0611
10
-0.1577
20
0.0582
10
-0.1567
20
0.0565
10
-0.1144
20
0.0408
10
-0.1645
20
0.0538
10
-0.0641
20
0.0201
10
-0.1688
20
0.0509
10
-0.1351
20
0.0396
10
-0.1452
20
0.0375
10
-0.1435
20
0.0362
10
-0.0888
20
0.0200
10
-0.1551
20
0.0344
10
-0.1637
20
0.0342
10
-0.1679
20
0.0325
10
-0.1114
20
0.0184
10
-0.1317
20
0.0165
10
-0.1663
20
0.0200
10
-0.1504
20
0.0140
10
-0.1639
20
0.0103
10
-0.1639
20
0.0063
43
0.0166
0
LINE
8
thigh_circumference_to_hip_circumference_right_GRAIN
10
-0.0102
20
-0.1461
11
-0.0102
21
0.1563
0
LWPOLYLINE
8
thigh_circumference_to_hip_circumference_right_GRAIN
90
3
70
1
10
-0.0102
20
-0.1461
10
-0.0266
20
-0.1098
10
0.0061
20
-0.1098
0
LWPOLYLINE
8
thigh_circumference_to_hip_circumference_right_GRAIN
90
3
70
1
10
-0.0102
20
0.1563
10
-0.0266
20
0.1200
10
0.0061
20
0.1200
0
TEXT
8
thigh_circumference_to_hip_circumference_right_LABEL
10
-0.0102
20
0.0051
40
0.0600
1
thigh_circumference_to_hip_circumference_right
0
LWPOLYLINE
8
thigh_circumference_to_hip_circumference_right_SEAM
90
188
70
1
10
-0.0593
20
-0.0001
10
-0.0778
20
-0.0010
10
-0.0333
20
-0.0003
10
-0.1631
20
-0.0044
10
-0.1061
20
-0.0034
10
-0.1597
20
-0.0085
10
-0.1274
20
-0.0070
10
-0.1608
20
-0.0142
10
-0.1656
20
-0.0199
10
-0.1635
20
-0.0250
10
-0.1226
20
-0.0289
10
-0.1360
20
-0.0333
10
-0.1009
20
-0.0248
10
-0.1582
20
-0.0409
10
-0.0782
20
-0.0213
10
-0.1617
20
-0.0488
10
-0.0554
20
-0.0203
10
-0.1531
20
-0.0657
10
-0.1166
20
-0.0512
10
-0.1561
20
-0.0716
10
-0.0932
20
-0.0454
10
-0.0729
20
-0.0414
10
-0.1439
20
-0.0874
10
-0.1290
20
-0.0796
10
-0.1489
20
-0.0933
10
-0.1052
20
-0.0702
10
-0.0283
20
-0.0210
10
-0.0861
20
-0.0665
10
-0.1398
20
-0.1154
10
-0.0490
20
-0.0414
10
-0.1149
20
-0.0983
10
-0.0983
20
-0.0910
10
-0.0043
20
-0.0041
10
-0.0645
20
-0.0631
10
-0.0811
20
-0.0881
10
-0.0916
20
-0.1101
10
-0.0623
20
-0.0854
10
-0.0743
20
-0.1042
10
-0.0428
20
-0.0620
10
-0.0550
20
-0.0990
10
-0.0215
20
-0.0410
10
-0.0357
20
-0.0769
10
-0.0342
20
-0.0967
10
-0.0159
20
-0.0603
10
-0.0105
20
-0.0728
10
0.0023
20
-0.0231
10
0.0064
20
-0.0318
10
0.0207
20
-0.0885
10
0.0096
20
-0.0410
10
0.0175
20
-0.0703
10
0.0152
20
-0.0585
10
0.0488
20
-0.0860
10
0.0458
20
-0.0585
10
0.0742
20
-0.0870
10
0.0398
20
-0.0408
10
0.1217
20
-0.1214
10
0.0778
20
-0.0764
10
0.1266
20
-0.1134
10
0.1309
20
-0.1144
10
0.1336
20
-0.1115
10
0.1290
20
-0.1039
10
0.0731
20
-0.0588
10
0.1191
20
-0.0931
10
0.1070
20
-0.0831
10
0.1257
20
-0.0955
10
0.1201
20
-0.0894
10
0.1335
20
-0.0976
10
0.1330
20
-0.0931
10
0.1278
20
-0.0870
10
0.0353
20
-0.0235
10
0.1222
20
-0.0781
10
0.0675
20
-0.0424
10
0.1258
20
-0.0761
10
0.1001
20
-0.0600
10
0.1217
20
-0.0675
10
0.1208
20
-0.0660
10
0.0911
20
-0.0473
10
0.1143
20
-0.0588
10
0.1080
20
-0.0531
10
0.1185
20
-0.0548
10
0.1164
20
-0.0491
10
0.0621
20
-0.0256
10
0.1099
20
-0.0422
10
0.0851
20
-0.0309
10
0.0978
20
-0.0348
10
0.1114
20
-0.0353
10
0.1039
20
-0.0292
10
0.1101
20
-0.0278
10
0.1077
20
-0.0232
10
0.0782
20
-0.0123
10
0.0304
20
-0.0042
10
0.1061
20
-0.0135
10
0.0951
20
-0.0105
10
0.1045
20
-0.0074
10
0.1020
20
-0.0051
10
0.1017
20
0.0006
10
0.0930
20
0.0025
10
0.1028
20
0.0064
10
0.0746
20
0.0068
10
0.0996
20
0.0108
10
0.1024
20
0.0139
10
0.0993
20
0.0166
10
0.1040
20
0.0215
10
0.0525
20
0.0115
10
0.1048
20
0.0267
10
0.1080
20
0.0338
10
0.0710
20
0.0247
10
0.1093
20
0.0410
10
0.1108
20
0.0449
10
0.0873
20
0.0387
10
0.1139
20
0.0543
10
0.1171
20
0.0609
10
0.1014
20
0.0547
10
0.1184
20
0.0668
10
0.0484
20
0.0290
10
0.0640
20
0.0391
10
0.0254
20
0.0159
10
0.1216
20
0.0761
10
0.0873
20
0.0567
10
0.1233
20
0.0829
10
0.1060
20
0.0737
10
0.1204
20
0.0856
10
0.1208
20
0.0921
10
0.1303
20
0.1045
10
0.0906
20
0.0756
10
0.1277
20
0.1092
10
0.0688
20
0.0600
10
0.1202
20
0.1126
10
0.0457
20
0.0461
10
0.1086
20
0.1156
10
0.0693
20
0.0776
10
0.0909
20
0.1162
10
0.0894
20
0.1156
10
0.0668
20
0.0934
10
0.0206
20
0.0332
10
0.0666
20
0.1156
10
0.0425
20
0.0807
10
0.0400
20
0.0927
10
0.0382
20
0.0916
10
0.0172
20
0.0501
10
0.0381
20
0.1153
10
0.0151
20
0.0667
10
0.0074
20
0.1193
10
0.0018
20
0.1192
10
-0.0159
20
0.1093
10
-0.0190
20
0.1052
10
-0.0193
20
0.0941
10
-0.0078
20
0.0195
10
-0.0480
20
0.1093
10
-0.0453
20
0.0743
10
-0.0694
20
0.0935
10
-0.0441
20
0.0563
10
-0.0925
20
0.0974
10
-0.0408
20
0.0383
10
-0.1131
20
0.1000
10
-0.0697
20
0.0597
10
-0.0943
20
0.0784
10
-0.1114
20
0.0797
10
-0.0932
20
0.0616
10
-0.1311
20
0.0802
10
-0.0679
20
0.0403
10
-0.1467
20
0.0794
10
-0.0385
20
0.0197
10
-0.1566
20
0.0768
10
-0.1355
20
0.0622
10
-0.1655
20
0.0750
10
-0.0916
20
0.0408
10
-0.1681
20
0.0714
10
-0.1526
20
0.0611
10
-0.1577
20
0.0582
10
-0.1567
20
0.0565
10
-0.1144
20
0.0408
10
-0.1645
20
0.0538
10
-0.0641
20
0.0201
10
-0.1688
20
0.0509
10
-0.1351
20
0.0396
10
-0.1452
20
0.0375
10
-0.1435
20
0.0362
10
-0.0888
20
0.0200
10
-0.1551
20
0.0344
10
-0.1637
20
0.0342
10
-0.1679
20
0.0325
10
-0.1114
20
0.0184
10
-0.1317
20
0.0165
10
-0.1663
20
0.0200
10
-0.1504
20
0.0140
10
-0.1639
20
0.0103
10
-0.1639
20
0.0063
43
0.0166
0
LWPOLYLINE
8
thigh_circumference_to_hip_circumference_right_CUT
90
188
70
1
10
-0.3614
20
0.0016
10
-1.0664
20
-0.0335
10
-2.1559
20
-0.0509
10
-2.6116
20
-0.0653
10
-0.5382
20
-0.0278
10
-0.8594
20
-0.0585
10
-0.3263
20
-0.0331
10
-0.1700
20
0.0008
10
-0.1848
20
-0.0169
10
-0.1751
20
-0.0406
10
-0.2037
20
-0.0378
10
-0.5488
20
-0.1500
10
-0.9813
20
-0.2543
10
-1.1434
20
-0.2997
10
-0.4883
20
-0.1390
10
-0.7285
20
-0.2182
10
-0.2364
20
-0.0861
10
-0.6937
20
-0.2989
10
-0.4277
20
-0.1930
10
-0.5220
20
-0.2416
10
-0.0884
20
-0.0614
10
-0.1550
20
-0.0747
10
-0.4489
20
-0.2650
10
-0.3598
20
-0.2186
10
-0.3902
20
-0.2395
10
-0.0968
20
-0.0846
10
-0.3094
20
-0.2210
10
-0.0969
20
-0.0537
10
-0.5977
20
-0.5102
10
-0.9426
20
-0.7914
10
-0.2099
20
-0.1583
10
-0.0890
20
-0.1051
10
-0.8088
20
-0.7710
10
-0.0774
20
-0.0525
10
-0.0956
20
-0.0799
10
-0.1400
20
-0.1727
10
-0.1356
20
-0.1690
10
-0.3379
20
-0.4846
10
-0.0906
20
-0.1537
10
-0.1215
20
-0.2476
10
-0.1204
20
-0.2457
10
-0.0526
20
-0.0743
10
-0.0463
20
-0.1576
10
-0.0170
20
-0.0996
10
-0.0064
20
-0.1241
10
0.0069
20
-0.0721
10
-0.0094
20
-0.0374
10
0.4770
20
-1.9611
10
0.2533
20
-1.0071
10
0.1180
20
-0.5062
10
0.0402
20
-0.1006
10
0.0697
20
-0.1247
10
0.0674
20
-0.1037
10
0.2255
20
-0.2623
10
0.1826
20
-0.2046
10
1.3202
20
-1.3238
10
0.2453
20
-0.2241
10
0.1193
20
-0.1287
10
0.1363
20
-0.1329
10
0.1545
20
-0.1138
10
0.1417
20
-0.0928
10
0.7600
20
-0.5919
10
0.6736
20
-0.5274
10
0.3652
20
-0.2739
10
0.2305
20
-0.1848
10
0.2139
20
-0.1667
10
0.1535
20
-0.1295
10
0.1491
20
-0.0863
10
0.1391
20
-0.0745
10
0.7212
20
-0.4739
10
1.7368
20
-1.1118
10
0.6055
20
-0.3736
10
0.9047
20
-0.5471
10
0.2332
20
-0.1241
10
0.1569
20
-0.0975
10
0.1334
20
-0.0542
10
0.3771
20
-0.2068
10
0.2155
20
-0.1272
10
0.1611
20
-0.0784
10
0.1438
20
-0.0757
10
0.1296
20
-0.0367
10
0.4873
20
-0.1915
10
0.4394
20
-0.1749
10
0.3227
20
-0.1214
10
0.0951
20
-0.0514
10
0.1607
20
-0.0535
10
0.1411
20
-0.0378
10
0.1350
20
-0.0392
10
0.1194
20
-0.0098
10
0.0825
20
0.0039
10
0.7603
20
-0.1103
10
0.3372
20
-0.0585
10
0.1531
20
-0.0089
10
0.1359
20
-0.0146
10
0.1182
20
0.0024
10
0.1175
20
0.0142
10
0.1502
20
0.0072
10
0.1871
20
0.0218
10
0.2656
20
0.0206
10
0.1080
20
-0.0047
10
0.1261
20
0.0151
10
0.1233
20
0.0176
10
0.1522
20
0.0478
10
0.4054
20
0.0971
10
0.1168
20
0.0129
10
0.1373
20
0.0581
10
0.2666
20
0.0899
10
0.1223
20
0.0285
10
0.1381
20
0.0692
10
0.2006
20
0.0855
10
0.1267
20
0.0424
10
0.1507
20
0.0918
10
0.2213
20
0.1193
10
0.3526
20
0.2123
10
0.3988
20
0.2373
10
0.8592
20
0.5372
10
1.6717
20
1.0263
10
0.7451
20
0.4465
10
0.3290
20
0.2121
10
0.3268
20
0.2104
10
0.2461
20
0.1674
10
0.1366
20
0.0773
10
0.1371
20
0.0860
10
0.2135
20
0.1855
10
0.3318
20
0.2714
10
0.7548
20
0.6540
10
0.3099
20
0.2829
10
0.4751
20
0.4518
10
0.2691
20
0.2679
10
0.4554
20
0.4735
10
0.1391
20
0.1681
10
0.1289
20
0.1498
10
0.0801
20
0.1297
10
0.0543
20
0.1045
10
0.1466
20
0.2249
10
0.2536
20
0.4168
10
0.0509
20
0.1222
10
0.0515
20
0.1191
10
0.0255
20
0.1034
10
0.0973
20
0.2457
10
0.1309
20
0.3506
10
0.0236
20
0.1235
10
0.0217
20
0.1363
10
-0.0027
20
0.1358
10
-0.0271
20
0.1221
10
-0.0355
20
0.1110
10
-0.0360
20
0.0931
10
-0.0430
20
0.1390
10
-0.0720
20
0.2040
10
-0.0648
20
0.1111
10
-0.1444
20
0.1742
10
-0.1269
20
0.1484
10
-0.2533
20
0.2558
10
-0.2044
20
0.2000
10
-0.6893
20
0.6141
10
-0.3300
20
0.2794
10
-0.0882
20
0.0947
10
-0.1551
20
0.0997
10
-0.1766
20
0.1210
10
-0.4020
20
0.2313
10
-0.3509
20
0.1991
10
-0.8192
20
0.4310
10
-0.5938
20
0.3068
10
-0.3433
20
0.1856
10
-0.2788
20
0.1411
10
-1.1222
20
0.4985
10
-0.6764
20
0.2926
10
-0.3122
20
0.1470
10
-0.1841
20
0.0620
10
-0.1807
20
0.0640
10
-0.1679
20
0.0429
10
-0.4246
20
0.1385
10
-0.6226
20
0.1900
10
-0.9024
20
0.2839
10
-1.0537
20
0.3284
10
-0.1981
20
0.0431
10
-0.1853
20
0.0458
10
-0.1509
20
0.0210
10
-0.5277
20
0.1327
10
-0.1535
20
0.0511
10
-0.1673
20
0.0507
10
-0.2211
20
0.0286
10
-0.2104
20
0.0259
10
-0.1316
20
0.0333
10
-0.2916
20
0.0491
10
-0.2042
20
0.0164
10
-0.1805
20
0.0230
10
-0.1806
20
-0.0094
43
0.0166
0
LWPOLYLINE
8
waist_circumference_to_chest_circumference_left
90
137
70
1
10
-0.1167
20
-0.0007
10
-0.1323
20
-0.0017
10
-0.0794
20
-0.0119
10
-0.1359
20
-0.0311
10
-0.0477
20
-0.0144
10
-0.1134
20
-0.0368
10
-0.0596
20
-0.0255
10
-0.1381
20
-0.0613
10
-0.0784
20
-0.0389
10
-0.1136
20
-0.0647
10
-0.1099
20
-0.0641
10
-0.1382
20
-0.0869
10
-0.0879
20
-0.0604
10
-0.0306
20
-0.0215
10
-0.1190
20
-0.0882
10
-0.1324
20
-0.1018
10
-0.1191
20
-0.0961
10
-0.0463
20
-0.0403
10
-0.0871
20
-0.0797
10
-0.0608
20
-0.0559
10
-0.0964
20
-0.0944
10
-0.0737
20
-0.0825
10
-0.0157
20
-0.0182
10
-0.0587
20
-0.0736
10
-0.0647
20
-0.0870
10
-0.0325
20
-0.0491
10
-0.0385
20
-0.0726
10
-0.0345
20
-0.0710
10
-0.0351
20
-0.0791
10
-0.0148
20
-0.0426
10
-0.0117
20
-0.0676
10
-0.0092
20
-0.0715
10
-0.0055
20
-0.0601
10
0.0001
20
-0.0173
10
0.0159
20
-0.0639
10
0.0178
20
-0.0595
10
0.0159
20
-0.0446
10
0.0249
20
-0.0538
10
0.0408
20
-0.0602
10
0.0249
20
-0.0351
10
0.0422
20
-0.0571
10
0.0179
20
-0.0228
10
0.0432
20
-0.0529
10
0.0453
20
-0.0462
10
0.0676
20
-0.0554
10
0.0715
20
-0.0525
10
0.0688
20
-0.0434
10
0.0477
20
-0.0263
10
0.0969
20
-0.0507
10
0.1071
20
-0.0468
10
0.1249
20
-0.0490
10
0.0769
20
-0.0294
10
0.1246
20
-0.0462
10
0.1043
20
-0.0372
10
0.1270
20
-0.0437
10
0.0303
20
-0.0095
10
0.1279
20
-0.0384
10
0.0782
20
-0.0210
10
0.1268
20
-0.0310
10
0.1300
20
-0.0290
10
0.1286
20
-0.0262
10
0.1069
20
-0.0169
10
0.1276
20
-0.0137
10
0.0800
20
-0.0067
10
0.1306
20
-0.0075
10
0.0511
20
-0.0019
10
0.1271
20
0.0093
10
0.1327
20
0.0124
10
0.0788
20
0.0160
10
0.0212
20
0.0051
10
0.1330
20
0.0352
10
0.1145
20
0.0321
10
0.1061
20
0.0332
10
0.0870
20
0.0287
10
0.1294
20
0.0523
10
0.0606
20
0.0247
10
0.1343
20
0.0554
10
0.0544
20
0.0250
10
0.1080
20
0.0522
10
0.0842
20
0.0423
10
0.1301
20
0.0670
10
0.1104
20
0.0616
10
0.0856
20
0.0511
10
0.0334
20
0.0215
10
0.1035
20
0.0679
10
0.1071
20
0.0728
10
0.0991
20
0.0729
10
0.0821
20
0.0678
10
0.0620
20
0.0531
10
0.0817
20
0.0710
10
0.0557
20
0.0524
10
0.0796
20
0.0797
10
0.0571
20
0.0726
10
0.0484
20
0.0654
10
0.0226
20
0.0324
10
0.0538
20
0.0793
10
0.0347
20
0.0534
10
0.0325
20
0.0689
10
0.0249
20
0.0596
10
0.0277
20
0.0783
10
0.0042
20
0.0196
10
0.0059
20
0.0642
10
0.0020
20
0.0797
10
-0.0024
20
0.0742
10
-0.0087
20
0.0401
10
-0.0256
20
0.0830
10
-0.0239
20
0.0757
10
-0.0291
20
0.0795
10
-0.0229
20
0.0492
10
-0.0382
20
0.0722
10
-0.0533
20
0.0865
10
-0.0578
20
0.0864
10
-0.0545
20
0.0752
10
-0.0617
20
0.0723
10
-0.0615
20
0.0693
10
-0.0411
20
0.0450
10
-0.0813
20
0.0865
10
-0.0887
20
0.0898
10
-0.0820
20
0.0735
10
-0.0540
20
0.0461
10
-0.0938
20
0.0737
10
-0.0146
20
0.0114
10
-0.1176
20
0.0911
10
-0.1205
20
0.0920
10
-0.0730
20
0.0481
10
-0.1536
20
0.0919
10
-0.0274
20
0.0147
10
-0.1575
20
0.0797
10
-0.1062
20
0.0524
10
-0.1474
20
0.0681
10
-0.1360
20
0.0564
10
-0.1571
20
0.0572
10
-0.1149
20
0.0383
10
-0.0465
20
0.0147
10
-0.0791
20
0.0168
10
-0.1584
20
0.0328
10
-0.0567
20
0.0097
43
0.0117
0
LINE
8
waist_circumference_to_chest_circumference_left_GRAIN
10
-0.0067
20
-0.1417
11
-0.0067
21
0.1511
0
LWPOLYLINE
8
waist_circumference_to_chest_circumference_left_GRAIN
90
3
70
1
10
-0.0067
20
-0.1417
10
-0.0225
20
-0.1066
10
0.0091
20
-0.1066
0
LWPOLYLINE
8
waist_circumference_to_chest_circumference_left_GRAIN
90
3
70
1
10
-0.0067
20
0.1511
10
-0.0225
20
0.1160
10
0.0091
20
0.1160
0
TEXT
8
waist_circumference_to_chest_circumference_left_LABEL
10
-0.0067
20
0.0047
40
0.0600
1
waist_circumference_to_chest_circumference_left
0
LWPOLYLINE
8
waist_circumference_to_chest_circumference_left_SEAM
90
137
70
1
10
-0.1167
20
-0.0007
10
-0.1323
20
-0.0017
10
-0.0794
20
-0.0119
10
-0.1359
20
-0.0311
10
-0.0477
20
-0.0144
10
-0.1134
20
-0.0368
10
-0.0596
20
-0.0255
10
-0.1381
20
-0.0613
10
-0.0784
20
-0.0389
10
-0.1136
20
-0.0647
10
-0.1099
20
-0.0641
10
-0.1382
20
-0.0869
10
-0.0879
20
-0.0604
10
-0.0306
20
-0.0215
10
-0.1190
20
-0.0882
10
-0.1324
20
-0.1018
10
-0.1191
20
-0.0961
10
-0.0463
20
-0.0403
10
-0.0871
20
-0.0797
10
-0.0608
20
-0.0559
10
-0.0964
20
-0.0944
10
-0.0737
20
-0.0825
10
-0.0157
20
-0.0182
10
-0.0587
20
-0.0736
10
-0.0647
20
-0.0870
10
-0.0325
20
-0.0491
10
-0.0385
20
-0.0726
10
-0.0345
20
-0.0710
10
-0.0351
20
-0.0791
10
-0.0148
20
-0.0426
10
-0.0117
20
-0.0676
10
-0.0092
20
-0.0715
10
-0.0055
20
-0.0601
10
0.0001
20
-0.0173
10
0.0159
20
-0.0639
10
0.0178
20
-0.0595
10
0.0159
20
-0.0446
10
0.0249
20
-0.0538
10
0.0408
20
-0.0602
10
0.0249
20
-0.0351
10
0.0422
20
-0.0571
10
0.0179
20
-0.0228
10
0.0432
20
-0.0529
10
0.0453
20
-0.0462
10
0.0676
20
-0.0554
10
0.0715
20
-0.0525
10
0.0688
20
-0.0434
10
0.0477
20
-0.0263
10
0.0969
20
-0.0507
10
0.1071
20
-0.0468
10
0.1249
20
-0.0490
10
0.0769
20
-0.0294
10
0.1246
20
-0.0462
10
0.1043
20
-0.0372
10
0.1270
20
-0.0437
10
0.0303
20
-0.0095
10
0.1279
20
-0.0384
10
0.0782
20
-0.0210
10
0.1268
20
-0.0310
10
0.1300
20
-0.0290
10
0.1286
20
-0.0262
10
0.1069
20
-0.0169
10
0.1276
20
-0.0137
10
0.0800
20
-0.0067
10
0.1306
20
-0.0075
10
0.0511
20
-0.0019
10
0.1271
20
0.0093
10
0.1327
20
0.0124
10
0.0788
20
0.0160
10
0.0212
20
0.0051
10
0.1330
20
0.0352
10
0.1145
20
0.0321
10
0.1061
20
0.0332
10
0.0870
20
0.0287
10
0.1294
20
0.0523
10
0.0606
20
0.0247
10
0.1343
20
0.0554
10
0.0544
20
0.0250
10
0.1080
20
0.0522
10
0.0842
20
0.0423
10
0.1301
20
0.0670
10
0.1104
20
0.0616
10
0.0856
20
0.0511
10
0.0334
20
0.0215
10
0.1035
20
0.0679
10
0.1071
20
0.0728
10
0.0991
20
0.0729
10
0.0821
20
0.0678
10
0.0620
20
0.0531
10
0.0817
20
0.0710
10
0.0557
20
0.0524
10
0.0796
20
0.0797
10
0.0571
20
0.0726
10
0.0484
20
0.0654
10
0.0226
20
0.0324
10
0.0538
20
0.0793
10
0.0347
20
0.0534
10
0.0325
20
0.0689
10
0.0249
20
0.0596
10
0.0277
20
0.0783
10
0.0042
20
0.0196
10
0.0059
20
0.0642
10
0.0020
20
0.0797
10
-0.0024
20
0.0742
10
-0.0087
20
0.0401
10
-0.0256
20
0.0830
10
-0.0239
20
0.0757
10
-0.0291
20
0.0795
10
-0.0229
20
0.0492
10
-0.0382
20
0.0722
10
-0.0533
20
0.0865
10
-0.0578
20
0.0864
10
-0.0545
20
0.0752
10
-0.0617
20
0.0723
10
-0.0615
20
0.0693
10
-0.0411
20
0.0450
10
-0.0813
20
0.0865
10
-0.0887
20
0.0898
10
-0.0820
20
0.0735
10
-0.0540
20
0.0461
10
-0.0938
20
0.0737
10
-0.0146
20
0.0114
10
-0.1176
20
0.0911
10
-0.1205
20
0.0920
10
-0.0730
20
0.0481
10
-0.1536
20
0.0919
10
-0.0274
20
0.0147
10
-0.1575
20
0.0797
10
-0.1062
20
0.0524
10
-0.1474
20
0.0681
10
-0.1360
20
0.0564
10
-0.1571
20
0.0572
10
-0.1149
20
0.0383
10
-0.0465
20
0.0147
10
-0.0791
20
0.0168
10
-0.1584
20
0.0328
10
-0.0567
20
0.0097
43
0.0117
0
LWPOLYLINE
8
waist_circumference_to_chest_circumference_left_CUT
90
137
70
1
10
-0.1180
20
0.0109
10
-0.2243
20
0.0042
10
-0.1248
20
-0.0150
10
-0.2958
20
-0.0732
10
-0.2076
20
-0.0565
10
-0.2978
20
-0.0872
10
-0.1598
20
-0.0584
10
-0.4491
20
-0.1902
10
-0.1535
20
-0.0795
10
-0.1592
20
-0.0837
10
-0.1511
20
-0.0824
10
-0.2385
20
-0.1532
10
-0.0819
20
-0.0704
10
-0.4067
20
-0.2911
10
-0.1266
20
-0.0794
10
-0.1829
20
-0.1360
10
-0.1132
20
-0.1062
10
-0.1999
20
-0.1726
10
-0.6239
20
-0.5826
10
-0.2495
20
-0.2429
10
-0.1505
20
-0.1358
10
-0.0664
20
-0.0919
10
-0.2190
20
-0.2613
10
-0.0688
20
-0.0676
10
-0.1088
20
-0.1568
10
-0.0561
20
-0.0949
10
-0.0555
20
-0.0923
10
-0.0474
20
-0.0889
10
-0.0502
20
-0.1305
10
-0.0220
20
-0.0795
10
-0.0230
20
-0.0717
10
-0.0057
20
-0.0986
10
0.0059
20
-0.0627
10
0.0051
20
-0.0684
10
0.0147
20
-0.0965
10
0.0298
20
-0.0611
10
0.0320
20
-0.0777
10
0.0183
20
-0.0637
10
0.0699
20
-0.0844
10
0.1572
20
-0.2226
10
0.3327
20
-0.4465
10
0.1944
20
-0.2515
10
0.0478
20
-0.0766
10
0.0525
20
-0.0618
10
0.0693
20
-0.0688
10
0.0849
20
-0.0569
10
0.0790
20
-0.0366
10
0.1367
20
-0.0834
10
0.0963
20
-0.0634
10
0.1085
20
-0.0587
10
0.2106
20
-0.0714
10
0.5243
20
-0.1995
10
0.3872
20
-0.1511
10
0.2611
20
-0.0946
10
0.5044
20
-0.1650
10
0.4558
20
-0.1478
10
0.5928
20
-0.1884
10
0.2466
20
-0.0675
10
0.1290
20
-0.0434
10
0.1453
20
-0.0332
10
0.1371
20
-0.0172
10
0.1489
20
-0.0223
10
0.2065
20
-0.0136
10
0.2588
20
-0.0213
10
0.5620
20
-0.0263
10
0.1585
20
0.0022
10
0.1309
20
-0.0019
10
0.1728
20
0.0213
10
0.0781
20
0.0277
10
0.3207
20
0.0738
10
0.3662
20
0.0861
10
0.1143
20
0.0439
10
0.1055
20
0.0450
10
0.1660
20
0.0592
10
0.2966
20
0.1317
10
1.7419
20
0.7099
10
0.8493
20
0.3395
10
0.2545
20
0.1135
10
0.3828
20
0.1786
10
0.2918
20
0.1409
10
0.2264
20
0.1057
10
0.1066
20
0.0726
10
0.0804
20
0.0615
10
0.3213
20
0.1980
10
0.1117
20
0.0593
10
0.1300
20
0.0843
10
0.0974
20
0.0845
10
0.0768
20
0.0784
10
0.2308
20
0.1909
10
0.2399
20
0.1991
10
0.1304
20
0.1204
10
0.1156
20
0.1034
10
0.0514
20
0.0830
10
0.0400
20
0.0735
10
0.2012
20
0.2796
10
0.3299
20
0.4730
10
0.0422
20
0.0831
10
0.0402
20
0.0967
10
0.0425
20
0.0996
10
0.0534
20
0.1742
10
0.0184
20
0.0864
10
0.0176
20
0.0654
10
0.0075
20
0.1056
10
-0.0133
20
0.0792
10
-0.0128
20
0.0822
10
-0.0713
20
0.2305
10
-0.0424
20
0.1040
10
-0.0466
20
0.1072
10
-0.0462
20
0.1054
10
-0.0292
20
0.0798
10
-0.0487
20
0.0982
10
-0.0734
20
0.0979
10
-0.0687
20
0.0821
10
-0.0739
20
0.0800
10
-0.0729
20
0.0648
10
-0.2615
20
0.2896
10
-0.0745
20
0.0963
10
-0.1105
20
0.1120
10
-0.0919
20
0.0669
10
-0.1608
20
0.1343
10
-0.3996
20
0.2995
10
-2.3328
20
1.8210
10
-0.1122
20
0.1017
10
-0.1654
20
0.1176
10
-0.1495
20
0.1029
10
-0.5419
20
0.3160
10
-0.2660
20
0.1471
10
-0.9729
20
0.5009
10
-0.2740
20
0.1286
10
-0.1926
20
0.0977
10
-0.1647
20
0.0692
10
-0.2168
20
0.0712
10
-0.1192
20
0.0274
10
-0.1318
20
0.0317
10
-0.0776
20
0.0283
10
-1.1379
20
0.2435
10
-0.1160
20
0.0112
43
0.0117
0
LWPOLYLINE
8
waist_circumference_to_chest_circumference_right
90
136
70
1
10
-0.1165
20
-0.0007
10
-0.1323
20
-0.0017
10
-0.0794
20
-0.0119
10
-0.1359
20
-0.0311
10
-0.0477
20
-0.0144
10
-0.1134
20
-0.0368
10
-0.0596
20
-0.0255
10
-0.1381
20
-0.0613
10
-0.0784
20
-0.0389
10
-0.1136
20
-0.0647
10
-0.1099
20
-0.0641
10
-0.1382
20
-0.0869
10
-0.0879
20
-0.0604
10
-0.0306
20
-0.0215
10
-0.1190
20
-0.0882
10
-0.1324
20
-0.1018
10
-0.1191
20
-0.0961
10
-0.0463
20
-0.0403
10
-0.0870
20
-0.0797
10
-0.0608
20
-0.0559
10
-0.0964
20
-0.0944
10
-0.0737
20
-0.0825
10
-0.0157
20
-0.0181
10
-0.0587
20
-0.0736
10
-0.0647
20
-0.0870
10
-0.0325
20
-0.0491
10
-0.0385
20
-0.0726
10
-0.0345
20
-0.0710
10
-0.0351
20
-0.0791
10
-0.0148
20
-0.0426
10
-0.0117
20
-0.0676
10
-0.0092
20
-0.0715
10
-0.0055
20
-0.0601
10
0.0002
20
-0.0173
10
0.0159
20
-0.0639
10
0.0178
20
-0.0595
10
0.0159
20
-0.0446
10
0.0249
20
-0.0538
10
0.0408
20
-0.0602
10
0.0249
20
-0.0350
10
0.0422
20
-0.0571
10
0.0179
20
-0.0227
10
0.0432
20
-0.0530
10
0.0453
20
-0.0462
10
0.0676
20
-0.0554
10
0.0715
20
-0.0525
10
0.0688
20
-0.0434
10
0.0477
20
-0.0263
10
0.0969
20
-0.0507
10
0.1043
20
-0.0470
10
0.1249
20
-0.0490
10
0.0769
20
-0.0294
10
0.1246
20
-0.0463
10
0.1043
20
-0.0372
10
0.1270
20
-0.0437
10
0.0302
20
-0.0095
10
0.1279
20
-0.0384
10
0.0792
20
-0.0213
10
0.1268
20
-0.0310
10
0.1300
20
-0.0290
10
0.1286
20
-0.0262
10
0.1069
20
-0.0169
10
0.1275
20
-0.0137
10
0.0799
20
-0.0067
10
0.1306
20
-0.0075
10
0.0511
20
-0.0019
10
0.1271
20
0.0093
10
0.1326
20
0.0124
10
0.0787
20
0.0160
10
0.0212
20
0.0051
10
0.1330
20
0.0352
10
0.1145
20
0.0321
10
0.1061
20
0.0332
10
0.0870
20
0.0287
10
0.1294
20
0.0523
10
0.0606
20
0.0247
10
0.1343
20
0.0554
10
0.0544
20
0.0250
10
0.1080
20
0.0522
10
0.0842
20
0.0423
10
0.1301
20
0.0670
10
0.1104
20
0.0616
10
0.0856
20
0.0511
10
0.0334
20
0.0215
10
0.1035
20
0.0679
10
0.1071
20
0.0728
10
0.0991
20
0.0729
10
0.0821
20
0.0678
10
0.0620
20
0.0531
10
0.0817
20
0.0710
10
0.0557
20
0.0524
10
0.0796
20
0.0797
10
0.0571
20
0.0726
10
0.0484
20
0.0654
10
0.0226
20
0.0324
10
0.0538
20
0.0793
10
0.0347
20
0.0533
10
0.0325
20
0.0689
10
0.0249
20
0.0596
10
0.0277
20
0.0783
10
0.0042
20
0.0196
10
0.0059
20
0.0642
10
0.0020
20
0.0797
10
-0.0024
20
0.0742
10
-0.0087
20
0.0401
10
-0.0256
20
0.0830
10
-0.0239
20
0.0757
10
-0.0291
20
0.0795
10
-0.0229
20
0.0492
10
-0.0382
20
0.0722
10
-0.0533
20
0.0865
10
-0.0578
20
0.0864
10
-0.0545
20
0.0752
10
-0.0617
20
0.0723
10
-0.0615
20
0.0693
10
-0.0411
20
0.0450
10
-0.0813
20
0.0865
10
-0.0887
20
0.0898
10
-0.0851
20
0.0786
10
-0.0781
20
0.0691
10
-0.0136
20
0.0107
10
-0.1172
20
0.0912
10
-0.1203
20
0.0922
10
-0.0733
20
0.0484
10
-0.1535
20
0.0919
10
-0.0275
20
0.0145
10
-0.1574
20
0.0797
10
-0.1063
20
0.0523
10
-0.1471
20
0.0680
10
-0.1355
20
0.0563
10
-0.1570
20
0.0572
10
-0.1153
20
0.0384
10
-0.0465
20
0.0147
10
-0.0787
20
0.0167
10
-0.1584
20
0.0329
10
-0.0567
20
0.0098
43
0.0117
0
LINE
8
waist_circumference_to_chest_circumference_right_GRAIN
10
-0.0064
20
-0.1419
11
-0.0064
21
0.1508
0
LWPOLYLINE
8
waist_circumference_to_chest_circumference_right_GRAIN
90
3
70
1
10
-0.0064
20
-0.1419
10
-0.0222
20
-0.1068
10
0.0094
20
-0.1068
0
LWPOLYLINE
8
waist_circumference_to_chest_circumference_right_GRAIN
90
3
70
1
10
-0.0064
20
0.1508
10
-0.0222
20
0.1157
10
0.0094
20
0.1157
0
TEXT
8
waist_circumference_to_chest_circumference_right_LABEL
10
-0.0064
20
0.0045
40
0.0600
1
waist_circumference_to_chest_circumference_right
0
LWPOLYLINE
8
waist_circumference_to_chest_circumference_right_SEAM
90
136
70
1
10
-0.1165
20
-0.0007
10
-0.1323
20
-0.0017
10
-0.0794
20
-0.0119
10
-0.1359
20
-0.0311
10
-0.0477
20
-0.0144
10
-0.1134
20
-0.0368
10
-0.0596
20
-0.0255
10
-0.1381
20
-0.0613
10
-0.0784
20
-0.0389
10
-0.1136
20
-0.0647
10
-0.1099
20
-0.0641
10
-0.1382
20
-0.0869
10
-0.0879
20
-0.0604
10
-0.0306
20
-0.0215
10
-0.1190
20
-0.0882
10
-0.1324
20
-0.1018
10
-0.1191
20
-0.0961
10
-0.0463
20
-0.0403
10
-0.0870
20
-0.0797
10
-0.0608
20
-0.0559
10
-0.0964
20
-0.0944
10
-0.0737
20
-0.0825
10
-0.0157
20
-0.0181
10
-0.0587
20
-0.0736
10
-0.0647
20
-0.0870
10
-0.0325
20
-0.0491
10
-0.0385
20
-0.0726
10
-0.0345
20
-0.0710
10
-0.0351
20
-0.0791
10
-0.0148
20
-0.0426
10
-0.0117
20
-0.0676
10
-0.0092
20
-0.0715
10
-0.0055
20
-0.0601
10
0.0002
20
-0.0173
10
0.0159
20
-0.0639
10
0.0178
20
-0.0595
10
0.0159
20
-0.0446
10
0.0249
20
-0.0538
10
0.0408
20
-0.0602
10
0.0249
20
-0.0350
10
0.0422
20
-0.0571
10
0.0179
20
-0.0227
10
0.0432
20
-0.0530
10
0.0453
20
-0.0462
10
0.0676
20
-0.0554
10
0.0715
20
-0.0525
10
0.0688
20
-0.0434
10
0.0477
20
-0.0263
10
0.0969
20
-0.0507
10
0.1043
20
-0.0470
10
0.1249
20
-0.0490
10
0.0769
20
-0.0294
10
0.1246
20
-0.0463
10
0.1043
20
-0.0372
10
0.1270
20
-0.0437
10
0.0302
20
-0.0095
10
0.1279
20
-0.0384
10
0.0792
20
-0.0213
10
0.1268
20
-0.0310
10
0.1300
20
-0.0290
10
0.1286
20
-0.0262
10
0.1069
20
-0.0169
10
0.1275
20
-0.0137
10
0.0799
20
-0.0067
10
0.1306
20
-0.0075
10
0.0511
20
-0.0019
10
0.1271
20
0.0093
10
0.1326
20
0.0124
10
0.0787
20
0.0160
10
0.0212
20
0.0051
10
0.1330
20
0.0352
10
0.1145
20
0.0321
10
0.1061
20
0.0332
10
0.0870
20
0.0287
10
0.1294
20
0.0523
10
0.0606
20
0.0247
10
0.1343
20
0.0554
10
0.0544
20
0.0250
10
0.1080
20
0.0522
10
0.0842
20
0.0423
10
0.1301
20
0.0670
10
0.1104
20
0.0616
10
0.0856
20
0.0511
10
0.0334
20
0.0215
10
0.1035
20
0.0679
10
0.1071
20
0.0728
10
0.0991
20
0.0729
10
0.0821
20
0.0678
10
0.0620
20
0.0531
10
0.0817
20
0.0710
10
0.0557
20
0.0524
10
0.0796
20
0.0797
10
0.0571
20
0.0726
10
0.0484
20
0.0654
10
0.0226
20
0.0324
10
0.0538
20
0.0793
10
0.0347
20
0.0533
10
0.0325
20
0.0689
10
0.0249
20
0.0596
10
0.0277
20
0.0783
10
0.0042
20
0.0196
10
0.0059
20
0.0642
10
0.0020
20
0.0797
10
-0.0024
20
0.0742
10
-0.0087
20
0.0401
10
-0.0256
20
0.0830
10
-0.0239
20
0.0757
10
-0.0291
20
0.0795
10
-0.0229
20
0.0492
10
-0.0382
20
0.0722
10
-0.0533
20
0.0865
10
-0.0578
20
0.0864
10
-0.0545
20
0.0752
10
-0.0617
20
0.0723
10
-0.0615
20
0.0693
10
-0.0411
20
0.0450
10
-0.0813
20
0.0865
10
-0.0887
20
0.0898
10
-0.0851
20
0.0786
10
-0.0781
20
0.0691
10
-0.0136
20
0.0107
10
-0.1172
20
0.0912
10
-0.1203
20
0.0922
10
-0.0733
20
0.0484
10
-0.1535
20
0.0919
10
-0.0275
20
0.0145
10
-0.1574
20
0.0797
10
-0.1063
20
0.0523
10
-0.1471
20
0.0680
10
-0.1355
20
0.0563
10
-0.1570
20
0.0572
10
-0.1153
20
0.0384
10
-0.0465
20
0.0147
10
-0.0787
20
0.0167
10
-0.1584
20
0.0329
10
-0.0567
20
0.0098
43
0.0117
0
LWPOLYLINE
8
waist_circumference_to_chest_circumference_right_CUT
90
136
70
1
10
-0.1178
20
0.0109
10
-0.2240
20
0.0041
10
-0.1248
20
-0.0150
10
-0.2958
20
-0.0732
10
-0.2074
20
-0.0565
10
-0.2975
20
-0.0871
10
-0.1598
20
-0.0584
10
-0.4498
20
-0.1904
10
-0.1535
20
-0.0795
10
-0.1594
20
-0.0838
10
-0.1512
20
-0.0825
10
-0.2385
20
-0.1531
10
-0.0819
20
-0.0704
10
-0.4064
20
-0.2908
10
-0.1266
20
-0.0794
10
-0.1830
20
-0.1360
10
-0.1131
20
-0.1062
10
-0.1999
20
-0.1726
10
-0.6217
20
-0.5805
10
-0.2495
20
-0.2428
10
-0.1505
20
-0.1358
10
-0.0664
20
-0.0919
10
-0.2191
20
-0.2614
10
-0.0688
20
-0.0676
10
-0.1088
20
-0.1568
10
-0.0562
20
-0.0949
10
-0.0555
20
-0.0923
10
-0.0474
20
-0.0889
10
-0.0502
20
-0.1305
10
-0.0220
20
-0.0795
10
-0.0230
20
-0.0717
10
-0.0057
20
-0.0985
10
0.0059
20
-0.0626
10
0.0051
20
-0.0683
10
0.0147
20
-0.0966
10
0.0298
20
-0.0611
10
0.0319
20
-0.0777
10
0.0183
20
-0.0637
10
0.0699
20
-0.0844
10
0.1573
20
-0.2227
10
0.3317
20
-0.4451
10
0.1946
20
-0.2518
10
0.0478
20
-0.0766
10
0.0526
20
-0.0618
10
0.0693
20
-0.0688
10
0.0849
20
-0.0569
10
0.0790
20
-0.0366
10
0.1367
20
-0.0834
10
0.0969
20
-0.0637
10
0.1065
20
-0.0589
10
0.2037
20
-0.0686
10
0.5247
20
-0.1996
10
0.3876
20
-0.1513
10
0.2611
20
-0.0946
10
0.5047
20
-0.1651
10
0.4557
20
-0.1478
10
0.5824
20
-0.1853
10
0.2441
20
-0.0668
10
0.1290
20
-0.0434
10
0.1453
20
-0.0332
10
0.1370
20
-0.0172
10
0.1489
20
-0.0223
10
0.2065
20
-0.0136
10
0.2587
20
-0.0213
10
0.5625
20
-0.0263
10
0.1586
20
0.0022
10
0.1310
20
-0.0019
10
0.1726
20
0.0213
10
0.0780
20
0.0277
10
0.3211
20
0.0739
10
0.3662
20
0.0861
10
0.1143
20
0.0439
10
0.1055
20
0.0450
10
0.1660
20
0.0593
10
0.2966
20
0.1317
10
1.7475
20
0.7123
10
0.8479
20
0.3389
10
0.2545
20
0.1135
10
0.3828
20
0.1786
10
0.2917
20
0.1409
10
0.2264
20
0.1057
10
0.1066
20
0.0726
10
0.0804
20
0.0615
10
0.3217
20
0.1983
10
0.1117
20
0.0593
10
0.1300
20
0.0843
10
0.0974
20
0.0845
10
0.0768
20
0.0784
10
0.2310
20
0.1911
10
0.2397
20
0.1990
10
0.1304
20
0.1204
10
0.1156
20
0.1034
10
0.0514
20
0.0830
10
0.0400
20
0.0735
10
0.2014
20
0.2799
10
0.3298
20
0.4730
10
0.0422
20
0.0831
10
0.0402
20
0.0967
10
0.0425
20
0.0996
10
0.0534
20
0.1742
10
0.0184
20
0.0864
10
0.0176
20
0.0654
10
0.0075
20
0.1056
10
-0.0133
20
0.0792
10
-0.0128
20
0.0822
10
-0.0714
20
0.2307
10
-0.0424
20
0.1041
10
-0.0466
20
0.1072
10
-0.0462
20
0.1054
10
-0.0292
20
0.0798
10
-0.0487
20
0.0982
10
-0.0734
20
0.0979
10
-0.0687
20
0.0821
10
-0.0739
20
0.0800
10
-0.0729
20
0.0648
10
-0.2614
20
0.2894
10
-0.0745
20
0.0963
10
-0.1080
20
0.1109
10
-0.0956
20
0.0732
10
-0.0869
20
0.0612
10
-0.2525
20
0.2111
10
-0.1116
20
0.1016
10
-0.1681
20
0.1210
10
-0.1479
20
0.1021
10
-0.5280
20
0.3081
10
-0.2651
20
0.1467
10
-0.9328
20
0.4815
10
-0.2754
20
0.1296
10
-0.1937
20
0.0983
10
-0.1648
20
0.0692
10
-0.2170
20
0.0715
10
-0.1196
20
0.0276
10
-0.1311
20
0.0315
10
-0.0772
20
0.0283
10
-1.1522
20
0.2464
10
-0.1159
20
0.0113
43
0.0117
0
ENDSEC
0
EOF