0
SECTION
2
HEADER
9
$SMII_SCALE
1
1.0
9
$SMII_SEAM_ALLOWANCE
1
0.01
0
ENDSEC
0
SECTION
2
ENTITIES
0
LWPOLYLINE
8
chest_circumference_to_neck_circumference_left
90
109
10
-0.0544
20
-0.0014
10
-0.0857
20
-0.0055
10
-0.0462
20
-0.0061
10
-0.0784
20
-0.0117
10
-0.1134
20
-0.0193
10
-0.0118
20
-0.0035
10
-0.1109
20
-0.0408
10
-0.0834
20
-0.0328
10
-0.0776
20
-0.0309
10
-0.0547
20
-0.0274
10
-0.1106
20
-0.0582
10
-0.0773
20
-0.0463
10
-0.0447
20
-0.0273
10
-0.0818
20
-0.0506
10
-0.0775
20
-0.0565
10
-0.0800
20
-0.0601
10
-0.0784
20
-0.0617
10
-0.0519
20
-0.0466
10
-0.0433
20
-0.0453
10
-0.0238
20
-0.0255
10
-0.0478
20
-0.0584
10
-0.0435
20
-0.0572
10
-0.0454
20
-0.0617
10
-0.0193
20
-0.0460
10
-0.0096
20
-0.0265
10
-0.0143
20
-0.0585
10
-0.0082
20
-0.0457
10
-0.0110
20
-0.0617
10
-0.0086
20
-0.0575
10
0.0147
20
-0.0450
10
0.0201
20
-0.0574
10
0.0240
20
-0.0600
10
0.0098
20
-0.0232
10
0.0264
20
-0.0557
10
0.0271
20
-0.0442
10
0.0545
20
-0.0524
10
0.0585
20
-0.0543
10
0.0265
20
-0.0244
10
0.0494
20
-0.0408
10
0.0613
20
-0.0497
10
0.0628
20
-0.0372
10
0.0937
20
-0.0427
10
0.0904
20
-0.0412
10
0.0455
20
-0.0189
10
0.0967
20
-0.0382
10
0.0867
20
-0.0308
10
0.0630
20
-0.0187
10
0.0983
20
-0.0270
10
0.1297
20
-0.0308
10
0.1273
20
-0.0292
10
0.1324
20
-0.0276
10
0.1338
20
-0.0180
10
0.0842
20
-0.0113
10
0.0991
20
-0.0103
10
0.0242
20
-0.0008
10
0.1352
20
-0.0031
10
0.0616
20
0.0035
10
0.0989
20
0.0097
10
0.1361
20
0.0147
10
0.0828
20
0.0127
10
0.0450
20
0.0086
10
0.1345
20
0.0317
10
0.0963
20
0.0301
10
0.1312
20
0.0471
10
0.0806
20
0.0370
10
0.0581
20
0.0273
10
0.0925
20
0.0483
10
0.0094
20
0.0052
10
0.0871
20
0.0625
10
0.0788
20
0.0572
10
0.0441
20
0.0359
10
0.0810
20
0.0684
10
0.0542
20
0.0482
10
0.0210
20
0.0240
10
0.0492
20
0.0636
10
0.0425
20
0.0591
10
0.0437
20
0.0697
10
0.0174
20
0.0468
10
0.0085
20
0.0347
10
0.0130
20
0.0635
10
0.0077
20
0.0598
10
0.0088
20
0.0696
10
-0.0216
20
0.0605
10
-0.0249
20
0.0680
10
-0.0180
20
0.0430
10
-0.0260
20
0.0568
10
-0.0148
20
0.0202
10
-0.0248
20
0.0308
10
-0.0567
20
0.0631
10
-0.0540
20
0.0547
10
-0.0568
20
0.0529
10
-0.0513
20
0.0378
10
-0.0863
20
0.0565
10
-0.0835
20
0.0459
10
-0.0872
20
0.0471
10
-0.0527
20
0.0258
10
-0.1124
20
0.0503
10
-0.1147
20
0.0502
10
-0.1024
20
0.0388
10
-0.1205
20
0.0441
10
-0.0818
20
0.0299
10
-0.0486
20
0.0160
10
-0.0786
20
0.0242
10
-0.1006
20
0.0235
10
-0.1215
20
0.0254
10
-0.0800
20
0.0089
10
-0.0243
20
0.0018
10
-0.1023
20
0.0071
10
-0.1196
20
0.0013
43
0.0134
0
LWPOLYLINE
8
chest_circumference_to_neck_circumference_right
90
109
10
-0.0544
20
-0.0014
10
-0.0857
20
-0.0054
10
-0.0462
20
-0.0061
10
-0.0784
20
-0.0117
10
-0.1134
20
-0.0193
10
-0.0118
20
-0.0035
10
-0.1109
20
-0.0408
10
-0.0834
20
-0.0328
10
-0.0776
20
-0.0310
10
-0.0547
20
-0.0274
10
-0.1106
20
-0.0582
10
-0.0773
20
-0.0463
10
-0.0447
20
-0.0273
10
-0.0818
20
-0.0506
10
-0.0774
20
-0.0565
10
-0.0800
20
-0.0601
10
-0.0784
20
-0.0618
10
-0.0519
20
-0.0465
10
-0.0433
20
-0.0454
10
-0.0238
20
-0.0254
10
-0.0478
20
-0.0584
10
-0.0435
20
-0.0572
10
-0.0454
20
-0.0617
10
-0.0193
20
-0.0459
10
-0.0096
20
-0.0265
10
-0.0143
20
-0.0585
10
-0.0082
20
-0.0458
10
-0.0109
20
-0.0617
10
-0.0086
20
-0.0575
10
0.0147
20
-0.0450
10
0.0201
20
-0.0574
10
0.0240
20
-0.0600
10
0.0098
20
-0.0232
10
0.0264
20
-0.0557
10
0.0271
20
-0.0442
10
0.0545
20
-0.0524
10
0.0585
20
-0.0543
10
0.0265
20
-0.0245
10
0.0494
20
-0.0408
10
0.0613
20
-0.0497
10
0.0628
20
-0.0372
10
0.0937
20
-0.0427
10
0.0904
20
-0.0412
10
0.0455
20
-0.0188
10
0.0967
20
-0.0382
10
0.0867
20
-0.0308
10
0.0630
20
-0.0187
10
0.0983
20
-0.0270
10
0.1297
20
-0.0308
10
0.1273
20
-0.0292
10
0.1324
20
-0.0276
10
0.1338
20
-0.0180
10
0.0842
20
-0.0113
10
0.0991
20
-0.0103
10
0.0242
20
-0.0008
10
0.1352
20
-0.0031
10
0.0616
20
0.0035
10
0.0989
20
0.0097
10
0.1361
20
0.0147
10
0.0828
20
0.0127
10
0.0450
20
0.0087
10
0.1345
20
0.0317
10
0.0963
20
0.0301
10
0.1312
20
0.0471
10
0.0806
20
0.0371
10
0.0581
20
0.0273
10
0.0925
20
0.0483
10
0.0094
20
0.0052
10
0.0871
20
0.0625
10
0.0788
20
0.0572
10
0.0441
20
0.0359
10
0.0810
20
0.0684
10
0.0542
20
0.0482
10
0.0210
20
0.0240
10
0.0492
20
0.0636
10
0.0425
20
0.0592
10
0.0437
20
0.0697
10
0.0174
20
0.0468
10
0.0085
20
0.0347
10
0.0130
20
0.0635
10
0.0077
20
0.0598
10
0.0088
20
0.0696
10
-0.0216
20
0.0605
10
-0.0249
20
0.0680
10
-0.0180
20
0.0430
10
-0.0260
20
0.0568
10
-0.0148
20
0.0201
10
-0.0248
20
0.0308
10
-0.0567
20
0.0631
10
-0.0540
20
0.0547
10
-0.0568
20
0.0529
10
-0.0513
20
0.0377
10
-0.0863
20
0.0565
10
-0.0835
20
0.0459
10
-0.0872
20
0.0471
10
-0.0527
20
0.0258
10
-0.1124
20
0.0503
10
-0.1147
20
0.0502
10
-0.1024
20
0.0388
10
-0.1205
20
0.0441
10
-0.0818
20
0.0299
10
-0.0486
20
0.0159
10
-0.0786
20
0.0242
10
-0.1006
20
0.0235
10
-0.1215
20
0.0254
10
-0.0800
20
0.0089
10
-0.0243
20
0.0019
10
-0.1023
20
0.0071
10
-0.1196
20
0.0013
43
0.0134
0
LWPOLYLINE
8
hip_circumference_to_waist_circumference_left
90
251
10
-0.1614
20
-0.0010
10
-0.1491
20
-0.0061
10
-0.0972
20
-0.0057
10
-0.1240
20
-0.0097
10
-0.1113
20
-0.0088
10
-0.1331
20
-0.0135
10
-0.1565
20
-0.0163
10
-0.1654
20
-0.0188
10
-0.1659
20
-0.0199
10
-0.1562
20
-0.0212
10
-0.0234
20
-0.0034
10
-0.1402
20
-0.0243
10
-0.1269
20
-0.0285
10
-0.1638
20
-0.0378
10
-0.1672
20
-0.0394
10
-0.1611
20
-0.0392
10
-0.0646
20
-0.0162
10
-0.1456
20
-0.0404
10
-0.1178
20
-0.0332
10
-0.1292
20
-0.0413
10
-0.1660
20
-0.0580
10
-0.1630
20
-0.0594
10
-0.1502
20
-0.0590
10
-0.1012
20
-0.0404
10
-0.1317
20
-0.0596
10
-0.1631
20
-0.0778
10
-0.1145
20
-0.0556
10
-0.1534
20
-0.0792
10
-0.1346
20
-0.0797
10
-0.0756
20
-0.0462
10
-0.1552
20
-0.0977
10
-0.1134
20
-0.0776
10
-0.1384
20
-0.1002
10
-0.0937
20
-0.0693
10
-0.1416
20
-0.1189
10
-0.1143
20
-0.0993
10
-0.1177
20
-0.1214
10
-0.0897
20
-0.0937
10
-0.0303
20
-0.0333
10
-0.0658
20
-0.0818
10
-0.0893
20
-0.1165
10
-0.0916
20
-0.1392
10
-0.0606
20
-0.1074
10
-0.0334
20
-0.0637
10
-0.0590
20
-0.1296
10
-0.0605
20
-0.1501
10
-0.0647
20
-0.1666
10
-0.0309
20
-0.0918
10
-0.0286
20
-0.1155
10
-0.0273
20
-0.1343
10
-0.0335
20
-0.1669
10
-0.0301
20
-0.1520
10
-0.0075
20
-0.1732
10
-0.0030
20
-0.1613
10
0.0011
20
-0.1476
10
0.0049
20
-0.1325
10
0.0080
20
-0.1140
10
0.0085
20
-0.0928
10
0.0209
20
-0.1629
10
0.0102
20
-0.0671
10
0.0256
20
-0.1502
10
0.0303
20
-0.1365
10
0.0363
20
-0.1218
10
0.0475
20
-0.1480
10
0.0128
20
-0.0385
10
0.0514
20
-0.1332
10
0.0425
20
-0.1038
10
0.0673
20
-0.1463
10
0.0562
20
-0.1173
10
0.0717
20
-0.1307
10
0.0481
20
-0.0822
10
0.0631
20
-0.1022
10
0.0762
20
-0.1116
10
0.0895
20
-0.1311
10
0.0935
20
-0.1124
10
0.0711
20
-0.0854
10
0.0513
20
-0.0600
10
0.0808
20
-0.0923
10
0.1082
20
-0.1155
10
0.1209
20
-0.1192
10
0.0982
20
-0.0883
10
0.0854
20
-0.0764
10
0.1110
20
-0.0952
10
0.0782
20
-0.0655
10
0.1221
20
-0.1003
10
0.1316
20
-0.1038
10
0.0912
20
-0.0599
10
0.1320
20
-0.0854
10
0.1235
20
-0.0798
10
0.1385
20
-0.0882
10
0.1140
20
-0.0712
10
0.0551
20
-0.0342
10
0.1059
20
-0.0574
10
0.0836
20
-0.0441
10
0.0169
20
-0.0089
10
0.1382
20
-0.0709
10
0.1323
20
-0.0654
10
0.1250
20
-0.0574
10
0.0976
20
-0.0422
10
0.1039
20
-0.0438
10
0.1377
20
-0.0523
10
0.1190
20
-0.0449
10
0.1325
20
-0.0446
10
0.1054
20
-0.0296
10
0.1276
20
-0.0353
10
0.1373
20
-0.0334
10
0.0884
20
-0.0198
10
0.1037
20
-0.0219
10
0.1339
20
-0.0256
10
0.1239
20
-0.0198
10
0.1178
20
-0.0170
10
0.1297
20
-0.0168
10
0.1082
20
-0.0135
10
0.1379
20
-0.0160
10
0.0585
20
-0.0059
10
0.1135
20
-0.0091
10
0.1345
20
-0.0095
10
0.1301
20
-0.0035
10
0.1380
20
-0.0008
10
0.1088
20
0.0014
10
0.1120
20
0.0024
10
0.1261
20
0.0028
10
0.1326
20
0.0046
10
0.1118
20
0.0050
10
0.0931
20
0.0073
10
0.1350
20
0.0129
10
0.1272
20
0.0176
10
0.1117
20
0.0166
10
0.1167
20
0.0192
10
0.1286
20
0.0261
10
0.1150
20
0.0257
10
0.1128
20
0.0265
10
0.1097
20
0.0262
10
0.1181
20
0.0335
10
0.1114
20
0.0329
10
0.1075
20
0.0352
10
0.1197
20
0.0392
10
0.1171
20
0.0494
10
0.1054
20
0.0453
10
0.1114
20
0.0519
10
0.1073
20
0.0521
10
0.0980
20
0.0511
10
0.1032
20
0.0582
10
0.0923
20
0.0559
10
0.1099
20
0.0734
10
0.0907
20
0.0618
10
0.1002
20
0.0740
10
0.0898
20
0.0682
10
0.0859
20
0.0674
10
0.0797
20
0.0654
10
0.0870
20
0.0777
10
0.0750
20
0.0690
10
0.0771
20
0.0742
10
0.0962
20
0.0929
10
0.0729
20
0.0742
10
0.0742
20
0.0775
10
0.0667
20
0.0735
10
0.0820
20
0.0912
10
0.0635
20
0.0732
10
0.0699
20
0.0809
10
0.0640
20
0.0744
10
0.0703
20
0.0818
10
0.0589
20
0.0759
10
0.0589
20
0.0761
10
0.0640
20
0.0895
10
0.0641
20
0.0897
10
0.0756
20
0.1079
10
0.0542
20
0.0795
10
0.0545
20
0.0803
10
0.0483
20
0.0760
10
0.0458
20
0.0756
10
0.0461
20
0.0764
10
0.0557
20
0.1001
10
0.0560
20
0.1008
10
0.0354
20
0.0774
10
0.0358
20
0.0784
10
0.0474
20
0.1155
10
0.0474
20
0.1155
10
0.0314
20
0.0775
10
0.0232
20
0.0812
10
0.0226
20
0.0795
10
0.0241
20
0.1025
10
0.0241
20
0.1025
10
0.0188
20
0.0891
10
0.0170
20
0.0814
10
0.0181
20
0.0873
10
0.0106
20
0.0852
10
0.0147
20
0.1186
10
0.0142
20
0.1173
10
0.0101
20
0.0839
10
0.0085
20
0.1366
10
0.0040
20
0.0853
10
0.0038
20
0.0957
10
0.0029
20
0.0936
10
-0.0035
20
0.0895
10
-0.0035
20
0.0893
10
-0.0106
20
0.0980
10
-0.0111
20
0.0886
10
-0.0174
20
0.0971
10
-0.0213
20
0.1131
10
-0.0249
20
0.1319
10
-0.0191
20
0.0927
10
-0.0239
20
0.0919
10
-0.0360
20
0.0919
10
-0.0374
20
0.0931
10
-0.0531
20
0.1192
10
-0.0531
20
0.0972
10
-0.0582
20
0.0968
10
-0.0609
20
0.0938
10
-0.0687
20
0.1023
10
-0.0708
20
0.0966
10
-0.0834
20
0.0911
10
-0.0774
20
0.0839
10
-0.0755
20
0.0810
10
-0.0893
20
0.0930
10
-0.1052
20
0.0880
10
-0.1038
20
0.0845
10
-0.0950
20
0.0743
10
-0.0811
20
0.0617
10
-0.0888
20
0.0651
10
-0.1172
20
0.0816
10
-0.1194
20
0.0761
10
-0.1126
20
0.0661
10
-0.1282
20
0.0726
10
-0.1026
20
0.0528
10
-0.1316
20
0.0663
10
-0.0742
20
0.0359
10
-0.0917
20
0.0419
10
-0.1277
20
0.0582
10
-0.1381
20
0.0599
10
-0.1417
20
0.0545
10
-0.1172
20
0.0447
10
-0.1402
20
0.0481
10
-0.1449
20
0.0438
10
-0.1307
20
0.0368
10
-0.1498
20
0.0395
10
-0.1037
20
0.0269
10
-0.1512
20
0.0356
10
-0.0554
20
0.0119
10
-0.1430
20
0.0270
10
-0.1474
20
0.0260
10
-0.1171
20
0.0205
10
-0.0848
20
0.0126
10
-0.1552
20
0.0218
10
-0.1594
20
0.0203
10
-0.1293
20
0.0141
10
-0.1534
20
0.0145
10
-0.1473
20
0.0074
10
-0.1400
20
0.0058
10
-0.1573
20
0.0026
10
-0.1643
20
0.0009
43
0.0141
0
LWPOLYLINE
8
hip_circumference_to_waist_circumference_right
90
251
10
-0.1088
20
-0.0014
10
-0.1120
20
-0.0024
10
-0.1261
20
-0.0028
10
-0.1326
20
-0.0046
10
-0.1118
20
-0.0050
10
-0.0931
20
-0.0073
10
-0.1350
20
-0.0129
10
-0.1272
20
-0.0176
10
-0.1117
20
-0.0166
10
-0.1167
20
-0.0192
10
-0.1286
20
-0.0261
10
-0.1150
20
-0.0257
10
-0.1128
20
-0.0265
10
-0.1097
20
-0.0262
10
-0.1181
20
-0.0335
10
-0.1114
20
-0.0329
10
-0.1075
20
-0.0352
10
-0.1197
20
-0.0392
10
-0.1171
20
-0.0494
10
-0.1054
20
-0.0453
10
-0.1114
20
-0.0519
10
-0.1073
20
-0.0521
10
-0.0980
20
-0.0511
10
-0.1032
20
-0.0582
10
-0.0923
20
-0.0559
10
-0.1099
20
-0.0734
10
-0.0907
20
-0.0618
10
-0.1003
20
-0.0740
10
-0.0898
20
-0.0682
10
-0.0859
20
-0.0674
10
-0.0797
20
-0.0654
10
-0.0870
20
-0.0777
10
-0.0750
20
-0.0690
10
-0.0771
20
-0.0742
10
-0.0962
20
-0.0929
10
-0.0729
20
-0.0742
10
-0.0742
20
-0.0775
10
-0.0667
20
-0.0735
10
-0.0820
20
-0.0912
10
-0.0635
20
-0.0732
10
-0.0700
20
-0.0809
10
-0.0640
20
-0.0744
10
-0.0703
20
-0.0818
10
-0.0589
20
-0.0759
10
-0.0589
20
-0.0761
10
-0.0640
20
-0.0895
10
-0.0641
20
-0.0897
10
-0.0756
20
-0.1079
10
-0.0542
20
-0.0795
10
-0.0545
20
-0.0803
10
-0.0483
20
-0.0760
10
-0.0458
20
-0.0756
10
-0.0461
20
-0.0764
10
-0.0557
20
-0.1001
10
-0.0560
20
-0.1008
10
-0.0354
20
-0.0774
10
-0.0358
20
-0.0784
10
-0.0474
20
-0.1155
10
-0.0474
20
-0.1155
10
-0.0314
20
-0.0775
10
-0.0232
20
-0.0812
10
-0.0226
20
-0.0795
10
-0.0242
20
-0.1025
10
-0.0242
20
-0.1025
10
-0.0188
20
-0.0891
10
-0.0170
20
-0.0814
10
-0.0182
20
-0.0873
10
-0.0106
20
-0.0852
10
-0.0147
20
-0.1186
10
-0.0142
20
-0.1173
10
-0.0101
20
-0.0839
10
-0.0085
20
-0.1366
10
-0.0040
20
-0.0853
10
-0.0038
20
-0.0957
10
-0.0029
20
-0.0936
10
0.0035
20
-0.0895
10
0.0035
20
-0.0893
10
0.0106
20
-0.0980
10
0.0111
20
-0.0886
10
0.0174
20
-0.0971
10
0.0213
20
-0.1131
10
0.0249
20
-0.1319
10
0.0191
20
-0.0927
10
0.0239
20
-0.0919
10
0.0360
20
-0.0919
10
0.0374
20
-0.0931
10
0.0531
20
-0.1192
10
0.0531
20
-0.0972
10
0.0582
20
-0.0968
10
0.0609
20
-0.0938
10
0.0687
20
-0.1023
10
0.0708
20
-0.0966
10
0.0834
20
-0.0911
10
0.0774
20
-0.0839
10
0.0755
20
-0.0811
10
0.0893
20
-0.0930
10
0.1052
20
-0.0880
10
0.1038
20
-0.0845
10
0.0950
20
-0.0743
10
0.0811
20
-0.0617
10
0.0888
20
-0.0651
10
0.1172
20
-0.0816
10
0.1194
20
-0.0761
10
0.1126
20
-0.0661
10
0.1282
20
-0.0726
10
0.1026
20
-0.0528
10
0.1316
20
-0.0664
10
0.0742
20
-0.0359
10
0.0917
20
-0.0419
10
0.1277
20
-0.0582
10
0.1381
20
-0.0599
10
0.1417
20
-0.0545
10
0.1172
20
-0.0447
10
0.1402
20
-0.0481
10
0.1448
20
-0.0438
10
0.1307
20
-0.0368
10
0.1498
20
-0.0395
10
0.1037
20
-0.0269
10
0.1512
20
-0.0356
10
0.0554
20
-0.0119
10
0.1430
20
-0.0270
10
0.1474
20
-0.0260
10
0.1171
20
-0.0205
10
0.0848
20
-0.0126
10
0.1552
20
-0.0218
10
0.1594
20
-0.0203
10
0.1293
20
-0.0141
10
0.1534
20
-0.0145
10
0.1473
20
-0.0074
10
0.1400
20
-0.0058
10
0.1573
20
-0.0026
10
0.1643
20
-0.0009
10
0.1614
20
0.0010
10
0.1491
20
0.0061
10
0.0972
20
0.0057
10
0.1240
20
0.0097
10
0.1113
20
0.0088
10
0.1331
20
0.0135
10
0.1565
20
0.0163
10
0.1654
20
0.0188
10
0.1659
20
0.0199
10
0.1562
20
0.0212
10
0.0234
20
0.0034
10
0.1402
20
0.0243
10
0.1270
20
0.0285
10
0.1638
20
0.0378
10
0.1672
20
0.0394
10
0.1611
20
0.0392
10
0.0646
20
0.0162
10
0.1456
20
0.0403
10
0.1178
20
0.0332
10
0.1292
20
0.0413
10
0.1660
20
0.0580
10
0.1630
20
0.0594
10
0.1502
20
0.0590
10
0.1012
20
0.0404
10
0.1318
20
0.0596
10
0.1631
20
0.0778
10
0.1145
20
0.0556
10
0.1534
20
0.0792
10
0.1346
20
0.0797
10
0.0756
20
0.0462
10
0.1552
20
0.0977
10
0.1134
20
0.0776
10
0.1384
20
0.1002
10
0.0937
20
0.0693
10
0.1416
20
0.1189
10
0.1143
20
0.0993
10
0.1177
20
0.1213
10
0.0897
20
0.0937
10
0.0303
20
0.0333
10
0.0658
20
0.0818
10
0.0893
20
0.1165
10
0.0916
20
0.1392
10
0.0606
20
0.1074
10
0.0334
20
0.0637
10
0.0591
20
0.1296
10
0.0605
20
0.1501
10
0.0648
20
0.1666
10
0.0309
20
0.0918
10
0.0287
20
0.1155
10
0.0273
20
0.1343
10
0.0335
20
0.1669
10
0.0301
20
0.1520
10
0.0076
20
0.1732
10
0.0030
20
0.1613
10
-0.0011
20
0.1476
10
-0.0049
20
0.1325
10
-0.0080
20
0.1140
10
-0.0085
20
0.0928
10
-0.0209
20
0.1629
10
-0.0102
20
0.0671
10
-0.0256
20
0.1502
10
-0.0303
20
0.1365
10
-0.0363
20
0.1218
10
-0.0475
20
0.1480
10
-0.0128
20
0.0385
10
-0.0514
20
0.1332
10
-0.0425
20
0.1038
10
-0.0672
20
0.1463
10
-0.0562
20
0.1173
10
-0.0717
20
0.1307
10
-0.0481
20
0.0822
10
-0.0631
20
0.1022
10
-0.0762
20
0.1116
10
-0.0895
20
0.1311
10
-0.0935
20
0.1124
10
-0.0711
20
0.0854
10
-0.0513
20
0.0600
10
-0.0808
20
0.0923
10
-0.1082
20
0.1155
10
-0.1209
20
0.1192
10
-0.0982
20
0.0883
10
-0.0854
20
0.0764
10
-0.1110
20
0.0952
10
-0.0782
20
0.0655
10
-0.1221
20
0.1003
10
-0.1316
20
0.1038
10
-0.0912
20
0.0599
10
-0.1320
20
0.0854
10
-0.1235
20
0.0798
10
-0.1385
20
0.0882
10
-0.1140
20
0.0712
10
-0.0551
20
0.0342
10
-0.1059
20
0.0574
10
-0.0836
20
0.0441
10
-0.0169
20
0.0089
10
-0.1382
20
0.0709
10
-0.1323
20
0.0654
10
-0.1250
20
0.0574
10
-0.0976
20
0.0422
10
-0.1039
20
0.0438
10
-0.1377
20
0.0523
10
-0.1190
20
0.0449
10
-0.1324
20
0.0446
10
-0.1054
20
0.0296
10
-0.1276
20
0.0353
10
-0.1373
20
0.0334
10
-0.0884
20
0.0198
10
-0.1037
20
0.0219
10
-0.1339
20
0.0256
10
-0.1239
20
0.0198
10
-0.1178
20
0.0170
10
-0.1297
20
0.0168
10
-0.1082
20
0.0135
10
-0.1379
20
0.0160
10
-0.0585
20
0.0059
10
-0.1135
20
0.0091
10
-0.1345
20
0.0095
10
-0.1301
20
0.0035
10
-0.1380
20
0.0008
43
0.0141
0
LWPOLYLINE
8
thigh_circumference_to_hip_circumference_left
90
222
10
-0.0578
20
-0.0001
10
-0.0815
20
-0.0011
10
-0.0311
20
-0.0005
10
-0.1665
20
-0.0045
10
-0.1035
20
-0.0034
10
-0.1650
20
-0.0090
10
-0.1251
20
-0.0068
10
-0.1441
20
-0.0105
10
-0.1572
20
-0.0131
10
-0.1652
20
-0.0147
10
-0.1673
20
-0.0258
10
-0.1196
20
-0.0288
10
-0.1393
20
-0.0341
10
-0.0979
20
-0.0241
10
-0.1532
20
-0.0383
10
-0.1619
20
-0.0422
10
-0.0763
20
-0.0209
10
-0.1649
20
-0.0497
10
-0.0525
20
-0.0195
10
-0.1476
20
-0.0621
10
-0.1336
20
-0.0564
10
-0.1564
20
-0.0672
10
-0.1138
20
-0.0501
10
-0.1595
20
-0.0731
10
-0.0920
20
-0.0447
10
-0.0702
20
-0.0413
10
-0.1401
20
-0.0848
10
-0.1484
20
-0.0903
10
-0.1264
20
-0.0783
10
-0.1522
20
-0.0953
10
-0.1074
20
-0.0717
10
-0.0256
20
-0.0195
10
-0.0861
20
-0.0663
10
-0.1391
20
-0.1134
10
-0.1313
20
-0.1077
10
-0.1427
20
-0.1178
10
-0.0466
20
-0.0395
10
-0.1182
20
-0.1006
10
-0.1008
20
-0.0936
10
-0.0019
20
-0.0018
10
-0.0644
20
-0.0626
10
-0.0810
20
-0.0878
10
-0.0938
20
-0.1134
10
-0.0601
20
-0.0834
10
-0.0766
20
-0.1073
10
-0.0411
20
-0.0598
10
-0.0571
20
-0.1031
10
-0.0200
20
-0.0384
10
-0.0373
20
-0.0800
10
-0.0348
20
-0.1003
10
-0.0149
20
-0.0575
10
-0.0110
20
-0.0772
10
0.0034
20
-0.0201
10
0.0215
20
-0.0918
10
0.0090
20
-0.0381
10
0.0184
20
-0.0741
10
0.0141
20
-0.0558
10
0.0506
20
-0.0892
10
0.0482
20
-0.0728
10
0.0440
20
-0.0555
10
0.0768
20
-0.0900
10
0.0384
20
-0.0386
10
0.1245
20
-0.1241
10
0.0756
20
-0.0744
10
0.1137
20
-0.1034
10
0.1314
20
-0.1172
10
0.1362
20
-0.1095
10
0.0715
20
-0.0574
10
0.0994
20
-0.0792
10
0.1222
20
-0.0953
10
0.1046
20
-0.0814
10
0.1301
20
-0.0985
10
0.1177
20
-0.0875
10
0.1362
20
-0.1004
10
0.1325
20
-0.0903
10
0.1283
20
-0.0869
10
0.0328
20
-0.0218
10
0.0955
20
-0.0622
10
0.1134
20
-0.0738
10
0.1254
20
-0.0799
10
0.0655
20
-0.0411
10
0.1137
20
-0.0699
10
0.1291
20
-0.0780
10
0.0974
20
-0.0585
10
0.1253
20
-0.0693
10
0.1203
20
-0.0650
10
0.0885
20
-0.0458
10
0.1175
20
-0.0607
10
0.1056
20
-0.0524
10
0.1061
20
-0.0515
10
0.1220
20
-0.0566
10
0.1188
20
-0.0492
10
0.0597
20
-0.0246
10
0.1130
20
-0.0435
10
0.0921
20
-0.0350
10
0.1113
20
-0.0422
10
0.0823
20
-0.0297
10
0.0991
20
-0.0355
10
0.1153
20
-0.0356
10
0.1011
20
-0.0284
10
0.1136
20
-0.0289
10
0.1069
20
-0.0225
10
0.1073
20
-0.0211
10
0.0949
20
-0.0170
10
0.0775
20
-0.0120
10
0.0274
20
-0.0038
10
0.0545
20
-0.0072
10
0.1094
20
-0.0141
10
0.0921
20
-0.0102
10
0.1081
20
-0.0080
10
0.1000
20
-0.0043
10
0.1018
20
-0.0026
10
0.1052
20
0.0015
10
0.0900
20
0.0024
10
0.1066
20
0.0070
10
0.0724
20
0.0067
10
0.0994
20
0.0098
10
0.1040
20
0.0120
10
0.1046
20
0.0166
10
0.0970
20
0.0164
10
0.1078
20
0.0228
10
0.0496
20
0.0107
10
0.0853
20
0.0203
10
0.1085
20
0.0273
10
0.1075
20
0.0271
10
0.1053
20
0.0314
10
0.1110
20
0.0356
10
0.0681
20
0.0237
10
0.0975
20
0.0348
10
0.1127
20
0.0423
10
0.1144
20
0.0461
10
0.1119
20
0.0466
10
0.0849
20
0.0379
10
0.1077
20
0.0505
10
0.1181
20
0.0563
10
0.1196
20
0.0634
10
0.0987
20
0.0533
10
0.1217
20
0.0685
10
0.1181
20
0.0672
10
0.0459
20
0.0274
10
0.0672
20
0.0411
10
0.0229
20
0.0141
10
0.1131
20
0.0703
10
0.1250
20
0.0782
10
0.0851
20
0.0554
10
0.1265
20
0.0852
10
0.1035
20
0.0721
10
0.1248
20
0.0886
10
0.1188
20
0.0916
10
0.1331
20
0.1069
10
0.0882
20
0.0737
10
0.1307
20
0.1117
10
0.1080
20
0.0938
10
0.0666
20
0.0579
10
0.1233
20
0.1155
10
0.0441
20
0.0444
10
0.0912
20
0.0951
10
0.1112
20
0.1183
10
0.0674
20
0.0752
10
0.0932
20
0.1195
10
0.0681
20
0.0954
10
0.0427
20
0.0607
10
0.0190
20
0.0306
10
0.0685
20
0.1188
10
0.0417
20
0.0778
10
0.0402
20
0.0967
10
0.0162
20
0.0476
10
0.0395
20
0.1187
10
0.0141
20
0.0638
10
0.0119
20
0.0812
10
0.0097
20
0.1007
10
0.0077
20
0.1229
10
-0.0207
20
0.1068
10
-0.0184
20
0.0860
10
-0.0159
20
0.0673
10
-0.0136
20
0.0507
10
-0.0105
20
0.0337
10
-0.0066
20
0.0165
10
-0.0492
20
0.1131
10
-0.0466
20
0.0916
10
-0.0442
20
0.0717
10
-0.0720
20
0.0965
10
-0.0420
20
0.0542
10
-0.0695
20
0.0760
10
-0.0953
20
0.1002
10
-0.0393
20
0.0367
10
-0.1160
20
0.1026
10
-0.0675
20
0.0577
10
-0.0929
20
0.0792
10
-0.1147
20
0.0812
10
-0.0909
20
0.0597
10
-0.1343
20
0.0820
10
-0.0655
20
0.0389
10
-0.1502
20
0.0812
10
-0.1130
20
0.0606
10
-0.0358
20
0.0183
10
-0.1615
20
0.0792
10
-0.1333
20
0.0607
10
-0.1685
20
0.0763
10
-0.0893
20
0.0398
10
-0.1717
20
0.0731
10
-0.1499
20
0.0597
10
-0.1614
20
0.0578
10
-0.1116
20
0.0398
10
-0.1686
20
0.0551
10
-0.0622
20
0.0194
10
-0.1720
20
0.0519
10
-0.1322
20
0.0390
10
-0.1492
20
0.0376
10
-0.0860
20
0.0191
10
-0.1607
20
0.0357
10
-0.1682
20
0.0330
10
-0.1714
20
0.0330
10
-0.1084
20
0.0182
10
-0.1298
20
0.0162
10
-0.1698
20
0.0209
10
-0.1700
20
0.0189
10
-0.1475
20
0.0139
10
-0.1591
20
0.0121
10
-0.1659
20
0.0109
10
-0.1680
20
0.0088
10
-0.1669
20
0.0053
43
0.0166
0
LWPOLYLINE
8
thigh_circumference_to_hip_circumference_right
90
222
10
-0.0578
20
-0.0001
10
-0.0815
20
-0.0011
10
-0.0311
20
-0.0005
10
-0.1665
20
-0.0045
10
-0.1035
20
-0.0034
10
-0.1650
20
-0.0090
10
-0.1251
20
-0.0068
10
-0.1441
20
-0.0105
10
-0.1572
20
-0.0131
10
-0.1652
20
-0.0147
10
-0.1674
20
-0.0258
10
-0.1196
20
-0.0288
10
-0.1393
20
-0.0341
10
-0.0979
20
-0.0241
10
-0.1532
20
-0.0383
10
-0.1619
20
-0.0422
10
-0.0762
20
-0.0209
10
-0.1649
20
-0.0497
10
-0.0525
20
-0.0195
10
-0.1476
20
-0.0621
10
-0.1336
20
-0.0564
10
-0.1564
20
-0.0672
10
-0.1138
20
-0.0501
10
-0.1595
20
-0.0731
10
-0.0920
20
-0.0447
10
-0.0702
20
-0.0413
10
-0.1401
20
-0.0848
10
-0.1484
20
-0.0903
10
-0.1264
20
-0.0783
10
-0.1522
20
-0.0953
10
-0.1074
20
-0.0717
10
-0.0256
20
-0.0195
10
-0.0861
20
-0.0663
10
-0.1391
20
-0.1134
10
-0.1313
20
-0.1077
10
-0.1427
20
-0.1178
10
-0.0466
20
-0.0395
10
-0.1182
20
-0.1006
10
-0.1008
20
-0.0936
10
-0.0019
20
-0.0018
10
-0.0644
20
-0.0626
10
-0.0810
20
-0.0878
10
-0.0938
20
-0.1134
10
-0.0601
20
-0.0834
10
-0.0766
20
-0.1073
10
-0.0411
20
-0.0598
10
-0.0571
20
-0.1031
10
-0.0200
20
-0.0384
10
-0.0373
20
-0.0800
10
-0.0348
20
-0.1003
10
-0.0148
20
-0.0575
10
-0.0110
20
-0.0772
10
0.0034
20
-0.0201
10
0.0215
20
-0.0918
10
0.0090
20
-0.0381
10
0.0184
20
-0.0741
10
0.0141
20
-0.0558
10
0.0506
20
-0.0892
10
0.0482
20
-0.0728
10
0.0440
20
-0.0555
10
0.0768
20
-0.0900
10
0.0384
20
-0.0386
10
0.1244
20
-0.1241
10
0.0756
20
-0.0744
10
0.1137
20
-0.1034
10
0.1314
20
-0.1172
10
0.1362
20
-0.1095
10
0.0715
20
-0.0574
10
0.0994
20
-0.0792
10
0.1222
20
-0.0953
10
0.1046
20
-0.0814
10
0.1301
20
-0.0985
10
0.1177
20
-0.0875
10
0.1363
20
-0.1004
10
0.1325
20
-0.0903
10
0.1283
20
-0.0869
10
0.0328
20
-0.0218
10
0.0955
20
-0.0622
10
0.1134
20
-0.0738
10
0.1254
20
-0.0799
10
0.0656
20
-0.0411
10
0.1137
20
-0.0699
10
0.1291
20
-0.0780
10
0.0974
20
-0.0585
10
0.1253
20
-0.0693
10
0.1203
20
-0.0650
10
0.0885
20
-0.0458
10
0.1175
20
-0.0607
10
0.1056
20
-0.0524
10
0.1061
20
-0.0515
10
0.1220
20
-0.0566
10
0.1188
20
-0.0492
10
0.0597
20
-0.0246
10
0.1130
20
-0.0435
10
0.0921
20
-0.0350
10
0.1113
20
-0.0422
10
0.0823
20
-0.0297
10
0.0991
20
-0.0355
10
0.1153
20
-0.0356
10
0.1011
20
-0.0284
10
0.1136
20
-0.0289
10
0.1069
20
-0.0225
10
0.1073
20
-0.0211
10
0.0949
20
-0.0170
10
0.0775
20
-0.0120
10
0.0274
20
-0.0039
10
0.0545
20
-0.0072
10
0.1094
20
-0.0141
10
0.0921
20
-0.0101
10
0.1081
20
-0.0080
10
0.1000
20
-0.0043
10
0.1018
20
-0.0026
10
0.1052
20
0.0015
10
0.0900
20
0.0024
10
0.1066
20
0.0070
10
0.0724
20
0.0067
10
0.0994
20
0.0098
10
0.1040
20
0.0120
10
0.1046
20
0.0166
10
0.0970
20
0.0164
10
0.1078
20
0.0228
10
0.0496
20
0.0107
10
0.0852
20
0.0203
10
0.1084
20
0.0273
10
0.1075
20
0.0271
10
0.1053
20
0.0314
10
0.1110
20
0.0356
10
0.0681
20
0.0237
10
0.0975
20
0.0348
10
0.1127
20
0.0423
10
0.1144
20
0.0461
10
0.1119
20
0.0466
10
0.0849
20
0.0379
10
0.1077
20
0.0505
10
0.1181
20
0.0563
10
0.1196
20
0.0634
10
0.0987
20
0.0533
10
0.1217
20
0.0685
10
0.1181
20
0.0672
10
0.0459
20
0.0274
10
0.0672
20
0.0411
10
0.0229
20
0.0141
10
0.1131
20
0.0703
10
0.1250
20
0.0782
10
0.0851
20
0.0554
10
0.1265
20
0.0852
10
0.1035
20
0.0721
10
0.1248
20
0.0886
10
0.1188
20
0.0916
10
0.1331
20
0.1069
10
0.0882
20
0.0737
10
0.1307
20
0.1117
10
0.1080
20
0.0938
10
0.0666
20
0.0579
10
0.1233
20
0.1155
10
0.0441
20
0.0444
10
0.0912
20
0.0951
10
0.1112
20
0.1183
10
0.0674
20
0.0752
10
0.0932
20
0.1195
10
0.0681
20
0.0954
10
0.0427
20
0.0607
10
0.0190
20
0.0306
10
0.0685
20
0.1188
10
0.0417
20
0.0778
10
0.0402
20
0.0967
10
0.0162
20
0.0476
10
0.0395
20
0.1187
10
0.0141
20
0.0638
10
0.0119
20
0.0812
10
0.0097
20
0.1007
10
0.0077
20
0.1229
10
-0.0207
20
0.1068
10
-0.0184
20
0.0860
10
-0.0159
20
0.0673
10
-0.0136
20
0.0507
10
-0.0105
20
0.0337
10
-0.0066
20
0.0165
10
-0.0492
20
0.1131
10
-0.0466
20
0.0916
10
-0.0442
20
0.0717
10
-0.0720
20
0.0965
10
-0.0420
20
0.0542
10
-0.0695
20
0.0760
10
-0.0953
20
0.1002
10
-0.0393
20
0.0367
10
-0.1160
20
0.1026
10
-0.0675
20
0.0576
10
-0.0929
20
0.0792
10
-0.1147
20
0.0812
10
-0.0909
20
0.0597
10
-0.1343
20
0.0820
10
-0.0655
20
0.0388
10
-0.1502
20
0.0812
10
-0.1130
20
0.0606
10
-0.0358
20
0.0183
10
-0.1615
20
0.0792
10
-0.1333
20
0.0607
10
-0.1685
20
0.0763
10
-0.0893
20
0.0398
10
-0.1717
20
0.0731
10
-0.1499
20
0.0597
10
-0.1614
20
0.0578
10
-0.1116
20
0.0398
10
-0.1686
20
0.0551
10
-0.0622
20
0.0194
10
-0.1720
20
0.0519
10
-0.1322
20
0.0390
10
-0.1492
20
0.0376
10
-0.0860
20
0.0191
10
-0.1607
20
0.0357
10
-0.1682
20
0.0330
10
-0.1714
20
0.0330
10
-0.1084
20
0.0182
10
-0.1298
20
0.0162
10
-0.1698
20
0.0209
10
-0.1700
20
0.0189
10
-0.1475
20
0.0139
10
-0.1591
20
0.0121
10
-0.1659
20
0.0109
10
-0.1680
20
0.0088
10
-0.1669
20
0.0053
43
0.0166
0
LWPOLYLINE
8
waist_circumference_to_chest_circumference_left
90
175
10
-0.1155
20
-0.0007
10
-0.1379
20
-0.0017
10
-0.1083
20
-0.0076
10
-0.0765
20
-0.0119
10
-0.1396
20
-0.0321
10
-0.0447
20
-0.0140
10
-0.1169
20
-0.0378
10
-0.1084
20
-0.0357
10
-0.0861
20
-0.0307
10
-0.0566
20
-0.0250
10
-0.1417
20
-0.0628
10
-0.0757
20
-0.0376
10
-0.1173
20
-0.0672
10
-0.1076
20
-0.0631
10
-0.1413
20
-0.0889
10
-0.0876
20
-0.0603
10
-0.0281
20
-0.0198
10
-0.1195
20
-0.0885
10
-0.1362
20
-0.1032
10
-0.1263
20
-0.1015
10
-0.1046
20
-0.0852
10
-0.0736
20
-0.0617
10
-0.0439
20
-0.0385
10
-0.0895
20
-0.0820
10
-0.0586
20
-0.0539
10
-0.0995
20
-0.0964
10
-0.0937
20
-0.0948
10
-0.0705
20
-0.0808
10
-0.0137
20
-0.0166
10
-0.0605
20
-0.0756
10
-0.0671
20
-0.0897
10
-0.0633
20
-0.0880
10
-0.0421
20
-0.0599
10
-0.0308
20
-0.0475
10
-0.0399
20
-0.0761
10
-0.0327
20
-0.0686
10
-0.0377
20
-0.0827
10
-0.0351
20
-0.0806
10
-0.0136
20
-0.0399
10
-0.0127
20
-0.0587
10
-0.0114
20
-0.0714
10
-0.0100
20
-0.0753
10
-0.0078
20
-0.0721
10
-0.0055
20
-0.0608
10
-0.0031
20
-0.0403
10
0.0004
20
-0.0143
10
0.0161
20
-0.0670
10
0.0169
20
-0.0674
10
0.0155
20
-0.0580
10
0.0188
20
-0.0633
10
0.0153
20
-0.0417
10
0.0209
20
-0.0525
10
0.0436
20
-0.0626
10
0.0237
20
-0.0331
10
0.0440
20
-0.0604
10
0.0434
20
-0.0574
10
0.0161
20
-0.0203
10
0.0454
20
-0.0562
10
0.0441
20
-0.0438
10
0.0471
20
-0.0455
10
0.0715
20
-0.0579
10
0.0722
20
-0.0563
10
0.0714
20
-0.0550
10
0.0722
20
-0.0511
10
0.0730
20
-0.0459
10
0.0453
20
-0.0246
10
0.0736
20
-0.0400
10
0.0498
20
-0.0262
10
0.0993
20
-0.0521
10
0.1016
20
-0.0526
10
0.1000
20
-0.0517
10
0.1002
20
-0.0480
10
0.1021
20
-0.0454
10
0.1287
20
-0.0500
10
0.0744
20
-0.0285
10
0.1290
20
-0.0478
10
0.1015
20
-0.0361
10
0.1309
20
-0.0450
10
0.1292
20
-0.0444
10
0.0275
20
-0.0085
10
0.1315
20
-0.0396
10
0.1042
20
-0.0300
10
0.0763
20
-0.0204
10
0.1303
20
-0.0324
10
0.1327
20
-0.0269
10
0.1040
20
-0.0163
10
0.1318
20
-0.0140
10
0.0774
20
-0.0064
10
0.1067
20
-0.0082
10
0.1339
20
-0.0076
10
0.0538
20
-0.0030
10
0.0482
20
-0.0016
10
0.0805
20
0.0025
10
0.1075
20
0.0072
10
0.1343
20
0.0100
10
0.1364
20
0.0133
10
0.1093
20
0.0127
10
0.0811
20
0.0168
10
0.0183
20
0.0042
10
0.1368
20
0.0362
10
0.1103
20
0.0310
10
0.1102
20
0.0348
10
0.0842
20
0.0277
10
0.1328
20
0.0539
10
0.0578
20
0.0235
10
0.1375
20
0.0566
10
0.0517
20
0.0238
10
0.1111
20
0.0537
10
0.0815
20
0.0410
10
0.1326
20
0.0678
10
0.1334
20
0.0686
10
0.1088
20
0.0612
10
0.0858
20
0.0513
10
0.0309
20
0.0199
10
0.1101
20
0.0722
10
0.1083
20
0.0755
10
0.0808
20
0.0680
10
0.0597
20
0.0511
10
0.0849
20
0.0736
10
0.0534
20
0.0504
10
0.0827
20
0.0817
10
0.0589
20
0.0732
10
0.0537
20
0.0724
10
0.0216
20
0.0305
10
0.0560
20
0.0825
10
0.0338
20
0.0505
10
0.0326
20
0.0728
10
0.0241
20
0.0567
10
0.0291
20
0.0822
10
0.0261
20
0.0760
10
0.0038
20
0.0165
10
0.0064
20
0.0489
10
0.0056
20
0.0731
10
0.0014
20
0.0834
10
-0.0017
20
0.0794
10
-0.0050
20
0.0623
10
-0.0088
20
0.0372
10
-0.0268
20
0.0867
10
-0.0230
20
0.0735
10
-0.0305
20
0.0840
10
-0.0223
20
0.0466
10
-0.0341
20
0.0682
10
-0.0561
20
0.0898
10
-0.0604
20
0.0885
10
-0.0524
20
0.0735
10
-0.0652
20
0.0725
10
-0.0393
20
0.0431
10
-0.0862
20
0.0916
10
-0.0914
20
0.0919
10
-0.0825
20
0.0731
10
-0.0517
20
0.0443
10
-0.0970
20
0.0761
10
-0.0122
20
0.0096
10
-0.1184
20
0.0924
10
-0.1237
20
0.0939
10
-0.0713
20
0.0466
10
-0.1150
20
0.0718
10
-0.1290
20
0.0792
10
-0.1570
20
0.0939
10
-0.1526
20
0.0909
10
-0.0249
20
0.0130
10
-0.0820
20
0.0416
10
-0.1604
20
0.0812
10
-0.1036
20
0.0511
10
-0.1511
20
0.0698
10
-0.1336
20
0.0546
10
-0.1614
20
0.0588
10
-0.1149
20
0.0381
10
-0.0436
20
0.0141
10
-0.0761
20
0.0161
10
-0.1622
20
0.0337
10
-0.1365
20
0.0271
10
-0.1073
20
0.0210
10
-0.0538
20
0.0095
10
-0.0837
20
0.0053
43
0.0117
0
LWPOLYLINE
8
waist_circumference_to_chest_circumference_right
90
175
10
-0.1155
20
-0.0007
10
-0.1379
20
-0.0017
10
-0.1083
20
-0.0076
10
-0.0765
20
-0.0119
10
-0.1396
20
-0.0321
10
-0.0447
20
-0.0139
10
-0.1169
20
-0.0378
10
-0.1084
20
-0.0356
10
-0.0861
20
-0.0307
10
-0.0566
20
-0.0250
10
-0.1417
20
-0.0628
10
-0.0757
20
-0.0376
10
-0.1173
20
-0.0672
10
-0.1076
20
-0.0631
10
-0.1413
20
-0.0889
10
-0.0876
20
-0.0603
10
-0.0281
20
-0.0199
10
-0.1195
20
-0.0885
10
-0.1362
20
-0.1032
10
-0.1263
20
-0.1015
10
-0.1046
20
-0.0852
10
-0.0736
20
-0.0617
10
-0.0439
20
-0.0385
10
-0.0895
20
-0.0820
10
-0.0586
20
-0.0539
10
-0.0995
20
-0.0964
10
-0.0937
20
-0.0948
10
-0.0705
20
-0.0808
10
-0.0137
20
-0.0166
10
-0.0605
20
-0.0756
10
-0.0671
20
-0.0897
10
-0.0633
20
-0.0880
10
-0.0421
20
-0.0599
10
-0.0308
20
-0.0475
10
-0.0399
20
-0.0761
10
-0.0327
20
-0.0686
10
-0.0377
20
-0.0827
10
-0.0351
20
-0.0806
10
-0.0136
20
-0.0399
10
-0.0127
20
-0.0587
10
-0.0114
20
-0.0714
10
-0.0100
20
-0.0753
10
-0.0078
20
-0.0721
10
-0.0055
20
-0.0608
10
-0.0031
20
-0.0403
10
0.0004
20
-0.0143
10
0.0161
20
-0.0669
10
0.0169
20
-0.0674
10
0.0155
20
-0.0580
10
0.0188
20
-0.0633
10
0.0153
20
-0.0417
10
0.0209
20
-0.0525
10
0.0436
20
-0.0626
10
0.0237
20
-0.0331
10
0.0440
20
-0.0604
10
0.0434
20
-0.0574
10
0.0161
20
-0.0203
10
0.0454
20
-0.0562
10
0.0441
20
-0.0438
10
0.0471
20
-0.0455
10
0.0715
20
-0.0579
10
0.0722
20
-0.0563
10
0.0714
20
-0.0550
10
0.0722
20
-0.0511
10
0.0729
20
-0.0458
10
0.0453
20
-0.0246
10
0.0736
20
-0.0400
10
0.0498
20
-0.0262
10
0.0993
20
-0.0521
10
0.1016
20
-0.0526
10
0.1000
20
-0.0517
10
0.1002
20
-0.0480
10
0.1021
20
-0.0454
10
0.1287
20
-0.0500
10
0.0744
20
-0.0285
10
0.1290
20
-0.0478
10
0.1015
20
-0.0361
10
0.1309
20
-0.0450
10
0.1292
20
-0.0444
10
0.0275
20
-0.0085
10
0.1315
20
-0.0396
10
0.1042
20
-0.0300
10
0.0763
20
-0.0204
10
0.1303
20
-0.0324
10
0.1327
20
-0.0269
10
0.1040
20
-0.0163
10
0.1318
20
-0.0140
10
0.0774
20
-0.0064
10
0.1067
20
-0.0082
10
0.1339
20
-0.0076
10
0.0538
20
-0.0030
10
0.0482
20
-0.0016
10
0.0805
20
0.0025
10
0.1075
20
0.0072
10
0.1343
20
0.0100
10
0.1364
20
0.0133
10
0.1093
20
0.0127
10
0.0811
20
0.0168
10
0.0183
20
0.0043
10
0.1368
20
0.0362
10
0.1103
20
0.0310
10
0.1102
20
0.0348
10
0.0842
20
0.0277
10
0.1328
20
0.0539
10
0.0578
20
0.0235
10
0.1375
20
0.0566
10
0.0517
20
0.0238
10
0.1111
20
0.0537
10
0.0815
20
0.0410
10
0.1326
20
0.0678
10
0.1334
20
0.0686
10
0.1088
20
0.0612
10
0.0858
20
0.0513
10
0.0309
20
0.0199
10
0.1101
20
0.0722
10
0.1083
20
0.0755
10
0.0808
20
0.0680
10
0.0597
20
0.0511
10
0.0849
20
0.0736
10
0.0534
20
0.0504
10
0.0827
20
0.0817
10
0.0589
20
0.0732
10
0.0537
20
0.0724
10
0.0216
20
0.0305
10
0.0560
20
0.0825
10
0.0338
20
0.0505
10
0.0326
20
0.0728
10
0.0241
20
0.0567
10
0.0291
20
0.0822
10
0.0261
20
0.0760
10
0.0038
20
0.0165
10
0.0064
20
0.0489
10
0.0056
20
0.0731
10
0.0014
20
0.0834
10
-0.0017
20
0.0794
10
-0.0050
20
0.0623
10
-0.0088
20
0.0372
10
-0.0268
20
0.0867
10
-0.0230
20
0.0735
10
-0.0305
20
0.0840
10
-0.0223
20
0.0466
10
-0.0341
20
0.0682
10
-0.0561
20
0.0898
10
-0.0604
20
0.0885
10
-0.0524
20
0.0735
10
-0.0652
20
0.0725
10
-0.0393
20
0.0431
10
-0.0862
20
0.0916
10
-0.0914
20
0.0919
10
-0.0825
20
0.0731
10
-0.0517
20
0.0443
10
-0.0122
20
0.0096
10
-0.0970
20
0.0761
10
-0.1184
20
0.0924
10
-0.1237
20
0.0939
10
-0.0713
20
0.0466
10
-0.1150
20
0.0718
10
-0.1290
20
0.0792
10
-0.1570
20
0.0939
10
-0.1526
20
0.0909
10
-0.0249
20
0.0130
10
-0.0820
20
0.0416
10
-0.1604
20
0.0812
10
-0.1036
20
0.0511
10
-0.1511
20
0.0698
10
-0.1336
20
0.0546
10
-0.1614
20
0.0588
10
-0.1149
20
0.0381
10
-0.0436
20
0.0141
10
-0.0761
20
0.0161
10
-0.1622
20
0.0337
10
-0.1365
20
0.0272
10
-0.1073
20
0.0210
10
-0.0538
20
0.0095
10
-0.0837
20
0.0053
43
0.0117
0
ENDSEC
0
EOF