<?xml version="1.0" encoding="UTF-8"?>
<!-- Scale: 1.0 -->
<!-- Seam allowance: 0.01 -->
<svg xmlns="http://www.w3.org/2000/svg" width="0.34" height="0.35" viewBox="-0.17 -0.17 0.34 0.35">
  <polygon id="chest_circumference_to_neck_circumference_left" points="-0.05,-0.00 -0.09,-0.01 -0.05,-0.01 -0.08,-0.01 -0.11,-0.02 -0.01,-0.00 -0.11,-0.04 -0.08,-0.03 -0.08,-0.03 -0.05,-0.03 -0.11,-0.06 -0.08,-0.05 -0.04,-0.03 -0.08,-0.05 -0.08,-0.06 -0.08,-0.06 -0.08,-0.06 -0.05,-0.05 -0.04,-0.05 -0.02,-0.03 -0.05,-0.06 -0.04,-0.06 -0.05,-0.06 -0.02,-0.05 -0.01,-0.03 -0.01,-0.06 -0.01,-0.05 -0.01,-0.06 -0.01,-0.06 0.01,-0.04 0.02,-0.06 0.02,-0.06 0.01,-0.02 0.03,-0.06 0.03,-0.04 0.05,-0.05 0.06,-0.05 0.03,-0.02 0.05,-0.04 0.06,-0.05 0.06,-0.04 0.09,-0.04 0.09,-0.04 0.05,-0.02 0.10,-0.04 0.09,-0.03 0.06,-0.02 0.10,-0.03 0.13,-0.03 0.13,-0.03 0.13,-0.03 0.13,-0.02 0.08,-0.01 0.10,-0.01 0.02,-0.00 0.14,-0.00 0.06,0.00 0.10,0.01 0.14,0.01 0.08,0.01 0.05,0.01 0.13,0.03 0.10,0.03 0.13,0.05 0.08,0.04 0.06,0.03 0.09,0.05 0.01,0.01 0.09,0.06 0.08,0.06 0.04,0.04 0.08,0.07 0.05,0.05 0.02,0.02 0.05,0.06 0.04,0.06 0.04,0.07 0.02,0.05 0.01,0.03 0.01,0.06 0.01,0.06 0.01,0.07 -0.02,0.06 -0.02,0.07 -0.02,0.04 -0.03,0.06 -0.01,0.02 -0.02,0.03 -0.06,0.06 -0.05,0.05 -0.06,0.05 -0.05,0.04 -0.09,0.06 -0.08,0.05 -0.09,0.05 -0.05,0.03 -0.11,0.05 -0.11,0.05 -0.10,0.04 -0.12,0.04 -0.08,0.03 -0.05,0.02 -0.08,0.02 -0.10,0.02 -0.12,0.03 -0.08,0.01 -0.02,0.00 -0.10,0.01 -0.12,0.00" data-seam-allowance="0.013385317772997084" />
  <polygon id="chest_circumference_to_neck_circumference_right" points="-0.05,-0.00 -0.09,-0.01 -0.05,-0.01 -0.08,-0.01 -0.11,-0.02 -0.01,-0.00 -0.11,-0.04 -0.08,-0.03 -0.08,-0.03 -0.05,-0.03 -0.11,-0.06 -0.08,-0.05 -0.04,-0.03 -0.08,-0.05 -0.08,-0.06 -0.08,-0.06 -0.08,-0.06 -0.05,-0.05 -0.04,-0.05 -0.02,-0.03 -0.05,-0.06 -0.04,-0.06 -0.05,-0.06 -0.02,-0.05 -0.01,-0.03 -0.01,-0.06 -0.01,-0.05 -0.01,-0.06 -0.01,-0.06 0.01,-0.04 0.02,-0.06 0.02,-0.06 0.01,-0.02 0.03,-0.06 0.03,-0.04 0.05,-0.05 0.06,-0.05 0.03,-0.02 0.05,-0.04 0.06,-0.05 0.06,-0.04 0.09,-0.04 0.09,-0.04 0.05,-0.02 0.10,-0.04 0.09,-0.03 0.06,-0.02 0.10,-0.03 0.13,-0.03 0.13,-0.03 0.13,-0.03 0.13,-0.02 0.08,-0.01 0.10,-0.01 0.02,-0.00 0.14,-0.00 0.06,0.00 0.10,0.01 0.14,0.01 0.08,0.01 0.05,0.01 0.13,0.03 0.10,0.03 0.13,0.05 0.08,0.04 0.06,0.03 0.09,0.05 0.01,0.01 0.09,0.06 0.08,0.06 0.04,0.04 0.08,0.07 0.05,0.05 0.02,0.02 0.05,0.06 0.04,0.06 0.04,0.07 0.02,0.05 0.01,0.03 0.01,0.06 0.01,0.06 0.01,0.07 -0.02,0.06 -0.02,0.07 -0.02,0.04 -0.03,0.06 -0.01,0.02 -0.02,0.03 -0.06,0.06 -0.05,0.05 -0.06,0.05 -0.05,0.04 -0.09,0.06 -0.08,0.05 -0.09,0.05 -0.05,0.03 -0.11,0.05 -0.11,0.05 -0.10,0.04 -0.12,0.04 -0.08,0.03 -0.05,0.02 -0.08,0.02 -0.10,0.02 -0.12,0.03 -0.08,0.01 -0.02,0.00 -0.10,0.01 -0.12,0.00" data-seam-allowance="0.013385327377102404" />
  <polygon id="hip_circumference_to_waist_circumference_left" points="-0.16,-0.00 -0.15,-0.01 -0.10,-0.01 -0.12,-0.01 -0.11,-0.01 -0.13,-0.01 -0.16,-0.02 -0.17,-0.02 -0.17,-0.02 -0.16,-0.02 -0.02,-0.00 -0.14,-0.02 -0.13,-0.03 -0.16,-0.04 -0.17,-0.04 -0.16,-0.04 -0.06,-0.02 -0.15,-0.04 -0.12,-0.03 -0.13,-0.04 -0.17,-0.06 -0.16,-0.06 -0.15,-0.06 -0.10,-0.04 -0.13,-0.06 -0.16,-0.08 -0.11,-0.06 -0.15,-0.08 -0.13,-0.08 -0.08,-0.05 -0.16,-0.10 -0.11,-0.08 -0.14,-0.10 -0.09,-0.07 -0.14,-0.12 -0.11,-0.10 -0.12,-0.12 -0.09,-0.09 -0.03,-0.03 -0.07,-0.08 -0.09,-0.12 -0.09,-0.14 -0.06,-0.11 -0.03,-0.06 -0.06,-0.13 -0.06,-0.15 -0.06,-0.17 -0.03,-0.09 -0.03,-0.12 -0.03,-0.13 -0.03,-0.17 -0.03,-0.15 -0.01,-0.17 -0.00,-0.16 0.00,-0.15 0.00,-0.13 0.01,-0.11 0.01,-0.09 0.02,-0.16 0.01,-0.07 0.03,-0.15 0.03,-0.14 0.04,-0.12 0.05,-0.15 0.01,-0.04 0.05,-0.13 0.04,-0.10 0.07,-0.15 0.06,-0.12 0.07,-0.13 0.05,-0.08 0.06,-0.10 0.08,-0.11 0.09,-0.13 0.09,-0.11 0.07,-0.09 0.05,-0.06 0.08,-0.09 0.11,-0.12 0.12,-0.12 0.10,-0.09 0.09,-0.08 0.11,-0.10 0.08,-0.07 0.12,-0.10 0.13,-0.10 0.09,-0.06 0.13,-0.09 0.12,-0.08 0.14,-0.09 0.11,-0.07 0.06,-0.03 0.11,-0.06 0.08,-0.04 0.02,-0.01 0.14,-0.07 0.13,-0.07 0.13,-0.06 0.10,-0.04 0.10,-0.04 0.14,-0.05 0.12,-0.04 0.13,-0.04 0.11,-0.03 0.13,-0.04 0.14,-0.03 0.09,-0.02 0.10,-0.02 0.13,-0.03 0.12,-0.02 0.12,-0.02 0.13,-0.02 0.11,-0.01 0.14,-0.02 0.06,-0.01 0.11,-0.01 0.13,-0.01 0.13,-0.00 0.14,-0.00 0.11,0.00 0.11,0.00 0.13,0.00 0.13,0.00 0.11,0.00 0.09,0.01 0.13,0.01 0.13,0.02 0.11,0.02 0.12,0.02 0.13,0.03 0.11,0.03 0.11,0.03 0.11,0.03 0.12,0.03 0.11,0.03 0.11,0.04 0.12,0.04 0.12,0.05 0.11,0.05 0.11,0.05 0.11,0.05 0.10,0.05 0.10,0.06 0.09,0.06 0.11,0.07 0.09,0.06 0.10,0.07 0.09,0.07 0.09,0.07 0.08,0.07 0.09,0.08 0.08,0.07 0.08,0.07 0.10,0.09 0.07,0.07 0.07,0.08 0.07,0.07 0.08,0.09 0.06,0.07 0.07,0.08 0.06,0.07 0.07,0.08 0.06,0.08 0.06,0.08 0.06,0.09 0.06,0.09 0.08,0.11 0.05,0.08 0.05,0.08 0.05,0.08 0.05,0.08 0.05,0.08 0.06,0.10 0.06,0.10 0.04,0.08 0.04,0.08 0.05,0.12 0.05,0.12 0.03,0.08 0.02,0.08 0.02,0.08 0.02,0.10 0.02,0.10 0.02,0.09 0.02,0.08 0.02,0.09 0.01,0.09 0.01,0.12 0.01,0.12 0.01,0.08 0.01,0.14 0.00,0.09 0.00,0.10 0.00,0.09 -0.00,0.09 -0.00,0.09 -0.01,0.10 -0.01,0.09 -0.02,0.10 -0.02,0.11 -0.02,0.13 -0.02,0.09 -0.02,0.09 -0.04,0.09 -0.04,0.09 -0.05,0.12 -0.05,0.10 -0.06,0.10 -0.06,0.09 -0.07,0.10 -0.07,0.10 -0.08,0.09 -0.08,0.08 -0.08,0.08 -0.09,0.09 -0.11,0.09 -0.10,0.08 -0.10,0.07 -0.08,0.06 -0.09,0.07 -0.12,0.08 -0.12,0.08 -0.11,0.07 -0.13,0.07 -0.10,0.05 -0.13,0.07 -0.07,0.04 -0.09,0.04 -0.13,0.06 -0.14,0.06 -0.14,0.05 -0.12,0.04 -0.14,0.05 -0.14,0.04 -0.13,0.04 -0.15,0.04 -0.10,0.03 -0.15,0.04 -0.06,0.01 -0.14,0.03 -0.15,0.03 -0.12,0.02 -0.08,0.01 -0.16,0.02 -0.16,0.02 -0.13,0.01 -0.15,0.01 -0.15,0.01 -0.14,0.01 -0.16,0.00 -0.16,0.00" data-seam-allowance="0.014114922533195183" />
  <polygon id="hip_circumference_to_waist_circumference_right" points="-0.11,-0.00 -0.11,-0.00 -0.13,-0.00 -0.13,-0.00 -0.11,-0.00 -0.09,-0.01 -0.13,-0.01 -0.13,-0.02 -0.11,-0.02 -0.12,-0.02 -0.13,-0.03 -0.11,-0.03 -0.11,-0.03 -0.11,-0.03 -0.12,-0.03 -0.11,-0.03 -0.11,-0.04 -0.12,-0.04 -0.12,-0.05 -0.11,-0.05 -0.11,-0.05 -0.11,-0.05 -0.10,-0.05 -0.10,-0.06 -0.09,-0.06 -0.11,-0.07 -0.09,-0.06 -0.10,-0.07 -0.09,-0.07 -0.09,-0.07 -0.08,-0.07 -0.09,-0.08 -0.08,-0.07 -0.08,-0.07 -0.10,-0.09 -0.07,-0.07 -0.07,-0.08 -0.07,-0.07 -0.08,-0.09 -0.06,-0.07 -0.07,-0.08 -0.06,-0.07 -0.07,-0.08 -0.06,-0.08 -0.06,-0.08 -0.06,-0.09 -0.06,-0.09 -0.08,-0.11 -0.05,-0.08 -0.05,-0.08 -0.05,-0.08 -0.05,-0.08 -0.05,-0.08 -0.06,-0.10 -0.06,-0.10 -0.04,-0.08 -0.04,-0.08 -0.05,-0.12 -0.05,-0.12 -0.03,-0.08 -0.02,-0.08 -0.02,-0.08 -0.02,-0.10 -0.02,-0.10 -0.02,-0.09 -0.02,-0.08 -0.02,-0.09 -0.01,-0.09 -0.01,-0.12 -0.01,-0.12 -0.01,-0.08 -0.01,-0.14 -0.00,-0.09 -0.00,-0.10 -0.00,-0.09 0.00,-0.09 0.00,-0.09 0.01,-0.10 0.01,-0.09 0.02,-0.10 0.02,-0.11 0.02,-0.13 0.02,-0.09 0.02,-0.09 0.04,-0.09 0.04,-0.09 0.05,-0.12 0.05,-0.10 0.06,-0.10 0.06,-0.09 0.07,-0.10 0.07,-0.10 0.08,-0.09 0.08,-0.08 0.08,-0.08 0.09,-0.09 0.11,-0.09 0.10,-0.08 0.10,-0.07 0.08,-0.06 0.09,-0.07 0.12,-0.08 0.12,-0.08 0.11,-0.07 0.13,-0.07 0.10,-0.05 0.13,-0.07 0.07,-0.04 0.09,-0.04 0.13,-0.06 0.14,-0.06 0.14,-0.05 0.12,-0.04 0.14,-0.05 0.14,-0.04 0.13,-0.04 0.15,-0.04 0.10,-0.03 0.15,-0.04 0.06,-0.01 0.14,-0.03 0.15,-0.03 0.12,-0.02 0.08,-0.01 0.16,-0.02 0.16,-0.02 0.13,-0.01 0.15,-0.01 0.15,-0.01 0.14,-0.01 0.16,-0.00 0.16,-0.00 0.16,0.00 0.15,0.01 0.10,0.01 0.12,0.01 0.11,0.01 0.13,0.01 0.16,0.02 0.17,0.02 0.17,0.02 0.16,0.02 0.02,0.00 0.14,0.02 0.13,0.03 0.16,0.04 0.17,0.04 0.16,0.04 0.06,0.02 0.15,0.04 0.12,0.03 0.13,0.04 0.17,0.06 0.16,0.06 0.15,0.06 0.10,0.04 0.13,0.06 0.16,0.08 0.11,0.06 0.15,0.08 0.13,0.08 0.08,0.05 0.16,0.10 0.11,0.08 0.14,0.10 0.09,0.07 0.14,0.12 0.11,0.10 0.12,0.12 0.09,0.09 0.03,0.03 0.07,0.08 0.09,0.12 0.09,0.14 0.06,0.11 0.03,0.06 0.06,0.13 0.06,0.15 0.06,0.17 0.03,0.09 0.03,0.12 0.03,0.13 0.03,0.17 0.03,0.15 0.01,0.17 0.00,0.16 -0.00,0.15 -0.00,0.13 -0.01,0.11 -0.01,0.09 -0.02,0.16 -0.01,0.07 -0.03,0.15 -0.03,0.14 -0.04,0.12 -0.05,0.15 -0.01,0.04 -0.05,0.13 -0.04,0.10 -0.07,0.15 -0.06,0.12 -0.07,0.13 -0.05,0.08 -0.06,0.10 -0.08,0.11 -0.09,0.13 -0.09,0.11 -0.07,0.09 -0.05,0.06 -0.08,0.09 -0.11,0.12 -0.12,0.12 -0.10,0.09 -0.09,0.08 -0.11,0.10 -0.08,0.07 -0.12,0.10 -0.13,0.10 -0.09,0.06 -0.13,0.09 -0.12,0.08 -0.14,0.09 -0.11,0.07 -0.06,0.03 -0.11,0.06 -0.08,0.04 -0.02,0.01 -0.14,0.07 -0.13,0.07 -0.13,0.06 -0.10,0.04 -0.10,0.04 -0.14,0.05 -0.12,0.04 -0.13,0.04 -0.11,0.03 -0.13,0.04 -0.14,0.03 -0.09,0.02 -0.10,0.02 -0.13,0.03 -0.12,0.02 -0.12,0.02 -0.13,0.02 -0.11,0.01 -0.14,0.02 -0.06,0.01 -0.11,0.01 -0.13,0.01 -0.13,0.00 -0.14,0.00" data-seam-allowance="0.014114931837809853" />
  <polygon id="thigh_circumference_to_hip_circumference_left" points="-0.06,-0.00 -0.08,-0.00 -0.03,-0.00 -0.17,-0.00 -0.10,-0.00 -0.17,-0.01 -0.13,-0.01 -0.14,-0.01 -0.16,-0.01 -0.17,-0.01 -0.17,-0.03 -0.12,-0.03 -0.14,-0.03 -0.10,-0.02 -0.15,-0.04 -0.16,-0.04 -0.08,-0.02 -0.16,-0.05 -0.05,-0.02 -0.15,-0.06 -0.13,-0.06 -0.16,-0.07 -0.11,-0.05 -0.16,-0.07 -0.09,-0.04 -0.07,-0.04 -0.14,-0.08 -0.15,-0.09 -0.13,-0.08 -0.15,-0.10 -0.11,-0.07 -0.03,-0.02 -0.09,-0.07 -0.14,-0.11 -0.13,-0.11 -0.14,-0.12 -0.05,-0.04 -0.12,-0.10 -0.10,-0.09 -0.00,-0.00 -0.06,-0.06 -0.08,-0.09 -0.09,-0.11 -0.06,-0.08 -0.08,-0.11 -0.04,-0.06 -0.06,-0.10 -0.02,-0.04 -0.04,-0.08 -0.03,-0.10 -0.01,-0.06 -0.01,-0.08 0.00,-0.02 0.02,-0.09 0.01,-0.04 0.02,-0.07 0.01,-0.06 0.05,-0.09 0.05,-0.07 0.04,-0.06 0.08,-0.09 0.04,-0.04 0.12,-0.12 0.08,-0.07 0.11,-0.10 0.13,-0.12 0.14,-0.11 0.07,-0.06 0.10,-0.08 0.12,-0.10 0.10,-0.08 0.13,-0.10 0.12,-0.09 0.14,-0.10 0.13,-0.09 0.13,-0.09 0.03,-0.02 0.10,-0.06 0.11,-0.07 0.13,-0.08 0.07,-0.04 0.11,-0.07 0.13,-0.08 0.10,-0.06 0.13,-0.07 0.12,-0.07 0.09,-0.05 0.12,-0.06 0.11,-0.05 0.11,-0.05 0.12,-0.06 0.12,-0.05 0.06,-0.02 0.11,-0.04 0.09,-0.04 0.11,-0.04 0.08,-0.03 0.10,-0.04 0.12,-0.04 0.10,-0.03 0.11,-0.03 0.11,-0.02 0.11,-0.02 0.09,-0.02 0.08,-0.01 0.03,-0.00 0.05,-0.01 0.11,-0.01 0.09,-0.01 0.11,-0.01 0.10,-0.00 0.10,-0.00 0.11,0.00 0.09,0.00 0.11,0.01 0.07,0.01 0.10,0.01 0.10,0.01 0.10,0.02 0.10,0.02 0.11,0.02 0.05,0.01 0.09,0.02 0.11,0.03 0.11,0.03 0.11,0.03 0.11,0.04 0.07,0.02 0.10,0.03 0.11,0.04 0.11,0.05 0.11,0.05 0.08,0.04 0.11,0.05 0.12,0.06 0.12,0.06 0.10,0.05 0.12,0.07 0.12,0.07 0.05,0.03 0.07,0.04 0.02,0.01 0.11,0.07 0.12,0.08 0.09,0.06 0.13,0.09 0.10,0.07 0.12,0.09 0.12,0.09 0.13,0.11 0.09,0.07 0.13,0.11 0.11,0.09 0.07,0.06 0.12,0.12 0.04,0.04 0.09,0.10 0.11,0.12 0.07,0.08 0.09,0.12 0.07,0.10 0.04,0.06 0.02,0.03 0.07,0.12 0.04,0.08 0.04,0.10 0.02,0.05 0.04,0.12 0.01,0.06 0.01,0.08 0.01,0.10 0.01,0.12 -0.02,0.11 -0.02,0.09 -0.02,0.07 -0.01,0.05 -0.01,0.03 -0.01,0.02 -0.05,0.11 -0.05,0.09 -0.04,0.07 -0.07,0.10 -0.04,0.05 -0.07,0.08 -0.10,0.10 -0.04,0.04 -0.12,0.10 -0.07,0.06 -0.09,0.08 -0.11,0.08 -0.09,0.06 -0.13,0.08 -0.07,0.04 -0.15,0.08 -0.11,0.06 -0.04,0.02 -0.16,0.08 -0.13,0.06 -0.17,0.08 -0.09,0.04 -0.17,0.07 -0.15,0.06 -0.16,0.06 -0.11,0.04 -0.17,0.06 -0.06,0.02 -0.17,0.05 -0.13,0.04 -0.15,0.04 -0.09,0.02 -0.16,0.04 -0.17,0.03 -0.17,0.03 -0.11,0.02 -0.13,0.02 -0.17,0.02 -0.17,0.02 -0.15,0.01 -0.16,0.01 -0.17,0.01 -0.17,0.01 -0.17,0.01" data-seam-allowance="0.016646984490982696" />
  <polygon id="thigh_circumference_to_hip_circumference_right" points="-0.06,-0.00 -0.08,-0.00 -0.03,-0.00 -0.17,-0.00 -0.10,-0.00 -0.17,-0.01 -0.13,-0.01 -0.14,-0.01 -0.16,-0.01 -0.17,-0.01 -0.17,-0.03 -0.12,-0.03 -0.14,-0.03 -0.10,-0.02 -0.15,-0.04 -0.16,-0.04 -0.08,-0.02 -0.16,-0.05 -0.05,-0.02 -0.15,-0.06 -0.13,-0.06 -0.16,-0.07 -0.11,-0.05 -0.16,-0.07 -0.09,-0.04 -0.07,-0.04 -0.14,-0.08 -0.15,-0.09 -0.13,-0.08 -0.15,-0.10 -0.11,-0.07 -0.03,-0.02 -0.09,-0.07 -0.14,-0.11 -0.13,-0.11 -0.14,-0.12 -0.05,-0.04 -0.12,-0.10 -0.10,-0.09 -0.00,-0.00 -0.06,-0.06 -0.08,-0.09 -0.09,-0.11 -0.06,-0.08 -0.08,-0.11 -0.04,-0.06 -0.06,-0.10 -0.02,-0.04 -0.04,-0.08 -0.03,-0.10 -0.01,-0.06 -0.01,-0.08 0.00,-0.02 0.02,-0.09 0.01,-0.04 0.02,-0.07 0.01,-0.06 0.05,-0.09 0.05,-0.07 0.04,-0.06 0.08,-0.09 0.04,-0.04 0.12,-0.12 0.08,-0.07 0.11,-0.10 0.13,-0.12 0.14,-0.11 0.07,-0.06 0.10,-0.08 0.12,-0.10 0.10,-0.08 0.13,-0.10 0.12,-0.09 0.14,-0.10 0.13,-0.09 0.13,-0.09 0.03,-0.02 0.10,-0.06 0.11,-0.07 0.13,-0.08 0.07,-0.04 0.11,-0.07 0.13,-0.08 0.10,-0.06 0.13,-0.07 0.12,-0.07 0.09,-0.05 0.12,-0.06 0.11,-0.05 0.11,-0.05 0.12,-0.06 0.12,-0.05 0.06,-0.02 0.11,-0.04 0.09,-0.04 0.11,-0.04 0.08,-0.03 0.10,-0.04 0.12,-0.04 0.10,-0.03 0.11,-0.03 0.11,-0.02 0.11,-0.02 0.09,-0.02 0.08,-0.01 0.03,-0.00 0.05,-0.01 0.11,-0.01 0.09,-0.01 0.11,-0.01 0.10,-0.00 0.10,-0.00 0.11,0.00 0.09,0.00 0.11,0.01 0.07,0.01 0.10,0.01 0.10,0.01 0.10,0.02 0.10,0.02 0.11,0.02 0.05,0.01 0.09,0.02 0.11,0.03 0.11,0.03 0.11,0.03 0.11,0.04 0.07,0.02 0.10,0.03 0.11,0.04 0.11,0.05 0.11,0.05 0.08,0.04 0.11,0.05 0.12,0.06 0.12,0.06 0.10,0.05 0.12,0.07 0.12,0.07 0.05,0.03 0.07,0.04 0.02,0.01 0.11,0.07 0.12,0.08 0.09,0.06 0.13,0.09 0.10,0.07 0.12,0.09 0.12,0.09 0.13,0.11 0.09,0.07 0.13,0.11 0.11,0.09 0.07,0.06 0.12,0.12 0.04,0.04 0.09,0.10 0.11,0.12 0.07,0.08 0.09,0.12 0.07,0.10 0.04,0.06 0.02,0.03 0.07,0.12 0.04,0.08 0.04,0.10 0.02,0.05 0.04,0.12 0.01,0.06 0.01,0.08 0.01,0.10 0.01,0.12 -0.02,0.11 -0.02,0.09 -0.02,0.07 -0.01,0.05 -0.01,0.03 -0.01,0.02 -0.05,0.11 -0.05,0.09 -0.04,0.07 -0.07,0.10 -0.04,0.05 -0.07,0.08 -0.10,0.10 -0.04,0.04 -0.12,0.10 -0.07,0.06 -0.09,0.08 -0.11,0.08 -0.09,0.06 -0.13,0.08 -0.07,0.04 -0.15,0.08 -0.11,0.06 -0.04,0.02 -0.16,0.08 -0.13,0.06 -0.17,0.08 -0.09,0.04 -0.17,0.07 -0.15,0.06 -0.16,0.06 -0.11,0.04 -0.17,0.06 -0.06,0.02 -0.17,0.05 -0.13,0.04 -0.15,0.04 -0.09,0.02 -0.16,0.04 -0.17,0.03 -0.17,0.03 -0.11,0.02 -0.13,0.02 -0.17,0.02 -0.17,0.02 -0.15,0.01 -0.16,0.01 -0.17,0.01 -0.17,0.01 -0.17,0.01" data-seam-allowance="0.016646913855746515" />
  <polygon id="waist_circumference_to_chest_circumference_left" points="-0.12,-0.00 -0.14,-0.00 -0.11,-0.01 -0.08,-0.01 -0.14,-0.03 -0.04,-0.01 -0.12,-0.04 -0.11,-0.04 -0.09,-0.03 -0.06,-0.02 -0.14,-0.06 -0.08,-0.04 -0.12,-0.07 -0.11,-0.06 -0.14,-0.09 -0.09,-0.06 -0.03,-0.02 -0.12,-0.09 -0.14,-0.10 -0.13,-0.10 -0.10,-0.09 -0.07,-0.06 -0.04,-0.04 -0.09,-0.08 -0.06,-0.05 -0.10,-0.10 -0.09,-0.09 -0.07,-0.08 -0.01,-0.02 -0.06,-0.08 -0.07,-0.09 -0.06,-0.09 -0.04,-0.06 -0.03,-0.05 -0.04,-0.08 -0.03,-0.07 -0.04,-0.08 -0.04,-0.08 -0.01,-0.04 -0.01,-0.06 -0.01,-0.07 -0.01,-0.08 -0.01,-0.07 -0.01,-0.06 -0.00,-0.04 0.00,-0.01 0.02,-0.07 0.02,-0.07 0.02,-0.06 0.02,-0.06 0.02,-0.04 0.02,-0.05 0.04,-0.06 0.02,-0.03 0.04,-0.06 0.04,-0.06 0.02,-0.02 0.05,-0.06 0.04,-0.04 0.05,-0.05 0.07,-0.06 0.07,-0.06 0.07,-0.05 0.07,-0.05 0.07,-0.05 0.05,-0.02 0.07,-0.04 0.05,-0.03 0.10,-0.05 0.10,-0.05 0.10,-0.05 0.10,-0.05 0.10,-0.05 0.13,-0.05 0.07,-0.03 0.13,-0.05 0.10,-0.04 0.13,-0.05 0.13,-0.04 0.03,-0.01 0.13,-0.04 0.10,-0.03 0.08,-0.02 0.13,-0.03 0.13,-0.03 0.10,-0.02 0.13,-0.01 0.08,-0.01 0.11,-0.01 0.13,-0.01 0.05,-0.00 0.05,-0.00 0.08,0.00 0.11,0.01 0.13,0.01 0.14,0.01 0.11,0.01 0.08,0.02 0.02,0.00 0.14,0.04 0.11,0.03 0.11,0.03 0.08,0.03 0.13,0.05 0.06,0.02 0.14,0.06 0.05,0.02 0.11,0.05 0.08,0.04 0.13,0.07 0.13,0.07 0.11,0.06 0.09,0.05 0.03,0.02 0.11,0.07 0.11,0.08 0.08,0.07 0.06,0.05 0.08,0.07 0.05,0.05 0.08,0.08 0.06,0.07 0.05,0.07 0.02,0.03 0.06,0.08 0.03,0.05 0.03,0.07 0.02,0.06 0.03,0.08 0.03,0.08 0.00,0.02 0.01,0.05 0.01,0.07 0.00,0.08 -0.00,0.08 -0.00,0.06 -0.01,0.04 -0.03,0.09 -0.02,0.07 -0.03,0.08 -0.02,0.05 -0.03,0.07 -0.06,0.09 -0.06,0.09 -0.05,0.07 -0.07,0.07 -0.04,0.04 -0.09,0.09 -0.09,0.09 -0.08,0.07 -0.05,0.04 -0.10,0.08 -0.01,0.01 -0.12,0.09 -0.12,0.09 -0.07,0.05 -0.11,0.07 -0.13,0.08 -0.16,0.09 -0.15,0.09 -0.02,0.01 -0.08,0.04 -0.16,0.08 -0.10,0.05 -0.15,0.07 -0.13,0.05 -0.16,0.06 -0.11,0.04 -0.04,0.01 -0.08,0.02 -0.16,0.03 -0.14,0.03 -0.11,0.02 -0.05,0.01 -0.08,0.01" data-seam-allowance="0.011650019072813766" />
  <polygon id="waist_circumference_to_chest_circumference_right" points="-0.12,-0.00 -0.14,-0.00 -0.11,-0.01 -0.08,-0.01 -0.14,-0.03 -0.04,-0.01 -0.12,-0.04 -0.11,-0.04 -0.09,-0.03 -0.06,-0.02 -0.14,-0.06 -0.08,-0.04 -0.12,-0.07 -0.11,-0.06 -0.14,-0.09 -0.09,-0.06 -0.03,-0.02 -0.12,-0.09 -0.14,-0.10 -0.13,-0.10 -0.10,-0.09 -0.07,-0.06 -0.04,-0.04 -0.09,-0.08 -0.06,-0.05 -0.10,-0.10 -0.09,-0.09 -0.07,-0.08 -0.01,-0.02 -0.06,-0.08 -0.07,-0.09 -0.06,-0.09 -0.04,-0.06 -0.03,-0.05 -0.04,-0.08 -0.03,-0.07 -0.04,-0.08 -0.04,-0.08 -0.01,-0.04 -0.01,-0.06 -0.01,-0.07 -0.01,-0.08 -0.01,-0.07 -0.01,-0.06 -0.00,-0.04 0.00,-0.01 0.02,-0.07 0.02,-0.07 0.02,-0.06 0.02,-0.06 0.02,-0.04 0.02,-0.05 0.04,-0.06 0.02,-0.03 0.04,-0.06 0.04,-0.06 0.02,-0.02 0.05,-0.06 0.04,-0.04 0.05,-0.05 0.07,-0.06 0.07,-0.06 0.07,-0.05 0.07,-0.05 0.07,-0.05 0.05,-0.02 0.07,-0.04 0.05,-0.03 0.10,-0.05 0.10,-0.05 0.10,-0.05 0.10,-0.05 0.10,-0.05 0.13,-0.05 0.07,-0.03 0.13,-0.05 0.10,-0.04 0.13,-0.05 0.13,-0.04 0.03,-0.01 0.13,-0.04 0.10,-0.03 0.08,-0.02 0.13,-0.03 0.13,-0.03 0.10,-0.02 0.13,-0.01 0.08,-0.01 0.11,-0.01 0.13,-0.01 0.05,-0.00 0.05,-0.00 0.08,0.00 0.11,0.01 0.13,0.01 0.14,0.01 0.11,0.01 0.08,0.02 0.02,0.00 0.14,0.04 0.11,0.03 0.11,0.03 0.08,0.03 0.13,0.05 0.06,0.02 0.14,0.06 0.05,0.02 0.11,0.05 0.08,0.04 0.13,0.07 0.13,0.07 0.11,0.06 0.09,0.05 0.03,0.02 0.11,0.07 0.11,0.08 0.08,0.07 0.06,0.05 0.08,0.07 0.05,0.05 0.08,0.08 0.06,0.07 0.05,0.07 0.02,0.03 0.06,0.08 0.03,0.05 0.03,0.07 0.02,0.06 0.03,0.08 0.03,0.08 0.00,0.02 0.01,0.05 0.01,0.07 0.00,0.08 -0.00,0.08 -0.00,0.06 -0.01,0.04 -0.03,0.09 -0.02,0.07 -0.03,0.08 -0.02,0.05 -0.03,0.07 -0.06,0.09 -0.06,0.09 -0.05,0.07 -0.07,0.07 -0.04,0.04 -0.09,0.09 -0.09,0.09 -0.08,0.07 -0.05,0.04 -0.01,0.01 -0.10,0.08 -0.12,0.09 -0.12,0.09 -0.07,0.05 -0.11,0.07 -0.13,0.08 -0.16,0.09 -0.15,0.09 -0.02,0.01 -0.08,0.04 -0.16,0.08 -0.10,0.05 -0.15,0.07 -0.13,0.05 -0.16,0.06 -0.11,0.04 -0.04,0.01 -0.08,0.02 -0.16,0.03 -0.14,0.03 -0.11,0.02 -0.05,0.01 -0.08,0.01" data-seam-allowance="0.011650076009266108" />
</svg>